<?xml version="1.0" standalone="no"?>
<!DOCTYPE svg PUBLIC "-//W3C//DTD SVG 20010904//EN"
 "http://www.w3.org/TR/2001/REC-SVG-20010904/DTD/svg10.dtd">
<svg version="1.0" xmlns="http://www.w3.org/2000/svg"
 width="512.000000pt" height="512.000000pt" viewBox="0 0 512.000000 512.000000"
 preserveAspectRatio="xMidYMid meet">

<g transform="translate(0.000000,512.000000) scale(0.100000,-0.100000)"
fill="#000000" stroke="none">
<path d="M2075 5103 c-119 -43 -181 -125 -200 -265 -6 -48 -6 -48 -44 -48
-106 0 -219 -75 -261 -172 -36 -85 -24 -220 27 -279 19 -23 16 -30 -28 -68
l-40 -34 -32 31 c-112 106 -287 107 -396 2 -112 -109 -121 -272 -21 -398 l39
-49 -29 -28 -29 -28 -39 35 c-185 168 -482 37 -482 -212 0 -75 22 -131 75
-196 l34 -41 -30 -29 c-106 -102 -105 -296 2 -403 40 -40 123 -81 163 -81 l28
0 -6 -52 c-3 -29 -2 -70 3 -90 l9 -37 -200 -3 -200 -3 -24 -28 c-16 -19 -24
-40 -24 -65 0 -20 36 -185 79 -367 44 -181 79 -330 78 -330 -57 -25 -173 -104
-217 -148 -84 -83 -115 -150 -115 -252 0 -67 4 -89 28 -137 37 -75 119 -157
211 -211 l75 -44 -84 -33 c-167 -64 -320 -182 -378 -289 -80 -147 -52 -310 76
-441 154 -158 434 -266 776 -300 66 -6 704 -10 1762 -10 l1659 0 30 28 c30 27
36 53 396 1642 201 888 368 1641 371 1672 12 127 -41 272 -135 366 -150 151
-356 185 -557 91 -66 -30 -172 -139 -208 -211 -20 -40 -56 -181 -123 -475 -52
-230 -97 -426 -100 -435 -5 -17 -25 -18 -238 -18 l-233 0 8 43 c4 23 5 63 2
90 -6 47 -5 47 23 47 75 0 184 83 223 170 44 98 18 242 -58 314 l-30 29 33 41
c61 74 71 103 71 196 0 69 -5 93 -23 127 -91 172 -312 213 -454 85 l-39 -35
-32 31 -31 31 33 42 c98 122 92 287 -15 393 -108 108 -275 114 -389 14 l-46
-41 -37 34 c-20 19 -38 35 -40 36 -2 1 10 30 28 66 60 121 36 254 -60 340 -53
48 -127 77 -196 77 l-44 0 0 46 c0 190 -197 330 -375 267z m128 -195 c41 -21
46 -39 47 -153 0 -173 23 -220 104 -220 29 0 51 8 77 28 71 54 149 21 149 -63
0 -38 -6 -47 -68 -108 -38 -37 -88 -81 -112 -97 -57 -39 -97 -97 -112 -162
l-13 -53 -110 0 -110 0 -13 53 c-15 65 -55 123 -112 162 -69 48 -176 158 -182
187 -3 14 1 40 8 56 24 58 86 68 143 25 26 -20 48 -28 77 -28 81 0 104 48 103
217 0 111 8 138 46 157 27 13 52 13 78 -1z m-778 -848 c95 -93 136 -117 179
-100 34 13 62 54 70 100 13 84 94 119 149 65 24 -25 25 -32 29 -163 4 -146 11
-171 55 -191 61 -28 94 -11 161 78 23 30 27 31 97 31 70 0 74 -1 97 -31 54
-72 75 -89 112 -89 25 0 45 9 68 29 l33 29 5 147 c5 141 6 147 30 165 58 45
132 10 145 -66 9 -57 24 -81 60 -98 52 -25 87 -8 190 94 106 104 134 113 186
61 49 -50 41 -80 -43 -168 -40 -41 -94 -86 -119 -98 -25 -13 -60 -36 -77 -50
-36 -30 -92 -136 -92 -174 0 -26 -1 -26 -65 -23 -81 5 -148 -17 -204 -64 -36
-32 -42 -34 -47 -17 -24 78 -73 140 -143 181 -41 24 -56 27 -136 27 -80 0 -95
-3 -135 -27 -61 -36 -105 -83 -130 -140 l-21 -47 -43 33 c-55 41 -117 59 -195
54 -60 -3 -61 -3 -61 23 0 38 -56 144 -93 175 -18 15 -55 38 -83 51 -32 14
-77 50 -122 97 -84 87 -92 117 -43 167 52 52 80 43 186 -61z m-562 -391 c12
-6 60 -49 107 -94 47 -45 95 -85 108 -89 33 -11 86 10 104 42 8 15 19 44 22
66 15 82 95 114 150 60 25 -26 26 -30 26 -151 0 -173 20 -213 105 -213 29 0
43 7 66 33 16 17 40 45 54 60 20 23 32 28 62 25 40 -3 55 -23 25 -32 -34 -11
-94 -78 -120 -134 -42 -93 -26 -227 36 -295 16 -18 15 -19 -3 -29 -36 -20 -93
-86 -104 -121 l-12 -35 -184 -46 c-102 -25 -200 -46 -218 -46 -45 0 -79 36
-80 86 -1 32 4 42 33 63 72 55 90 78 90 115 0 22 -9 45 -24 63 -24 28 -25 28
-171 33 -146 5 -147 5 -171 33 -53 62 -19 138 68 151 62 9 98 45 98 98 0 36
-8 48 -95 139 -87 90 -95 102 -95 138 0 32 6 44 31 65 33 28 58 32 92 15z
m2242 -13 c13 -13 27 -41 31 -62 4 -22 13 -51 20 -66 16 -30 72 -53 106 -42
13 4 61 44 108 89 119 116 144 126 199 79 25 -21 31 -34 31 -64 0 -35 -9 -48
-95 -139 -87 -91 -95 -104 -95 -139 0 -53 36 -89 98 -98 87 -13 121 -89 68
-151 -24 -28 -25 -28 -171 -33 -146 -5 -147 -5 -171 -33 -15 -18 -24 -41 -24
-63 0 -37 18 -60 90 -115 29 -21 34 -31 33 -63 -1 -48 -35 -86 -77 -86 -17 0
-118 21 -223 47 -192 47 -193 48 -203 79 -11 33 -72 104 -105 122 -18 10 -19
11 -3 29 59 65 77 202 39 288 -26 59 -52 91 -102 128 -45 33 -39 47 19 47 24
0 40 -8 58 -27 83 -94 82 -93 119 -93 85 0 105 40 105 213 0 121 1 125 26 151
35 34 86 35 119 2z m1650 -30 c90 -42 164 -152 165 -245 0 -14 -34 -182 -77
-373 l-78 -348 -282 0 c-156 0 -283 4 -283 8 0 5 41 188 90 408 98 429 107
457 181 516 77 62 194 76 284 34z m-2530 -111 c24 -23 25 -30 25 -137 0 -128
11 -181 43 -203 34 -24 95 -19 134 11 70 53 153 21 153 -59 0 -36 -7 -47 -89
-131 -49 -50 -94 -102 -99 -117 -15 -37 -3 -76 31 -105 28 -24 34 -25 106 -19
71 7 77 5 98 -17 12 -12 25 -35 28 -50 l7 -28 -496 0 c-483 0 -496 1 -496 19
0 11 12 34 27 51 l27 32 77 -6 c75 -7 78 -6 108 21 27 26 35 48 32 96 -1 9
-44 62 -96 116 -52 55 -96 108 -96 118 -3 39 4 59 25 82 32 32 84 31 129 -3
70 -54 157 -22 171 62 3 20 6 83 6 140 0 96 2 105 25 127 33 34 87 34 120 0z
m-804 -1320 c25 -143 45 -261 45 -262 -1 -1 -40 5 -86 14 -122 23 -433 23
-559 0 -52 -10 -96 -15 -99 -13 -4 4 -71 275 -126 509 -4 16 18 17 387 15
l392 -3 46 -260z m1129 -55 l0 -320 -395 0 c-377 0 -398 1 -435 20 -22 11 -40
24 -40 28 0 4 -22 135 -50 290 -27 155 -50 287 -50 292 0 6 176 10 485 10
l485 0 0 -320z m1180 312 c0 -11 -87 -510 -101 -579 l-10 -53 -435 0 -434 0 0
320 0 320 490 0 c270 0 490 -4 490 -8z m988 -4 c-3 -7 -36 -151 -74 -320 l-69
-308 -376 0 -376 0 23 128 c12 70 37 214 56 320 l32 192 394 0 c311 0 393 -3
390 -12z m-3460 -688 c299 -33 552 -168 552 -295 0 -95 -151 -204 -360 -259
-343 -92 -796 -30 -983 134 -103 91 -103 159 0 250 151 133 479 203 791 170z
m1280 -217 c-21 -43 -44 -107 -50 -143 -6 -36 -12 -66 -13 -67 -1 -1 -26 2
-56 6 -141 23 -314 -24 -441 -119 -84 -64 -97 -94 -73 -176 9 -31 14 -58 12
-60 -2 -2 -37 11 -78 29 -41 19 -91 40 -112 46 l-38 13 75 44 c196 115 284
287 228 447 l-20 57 302 0 302 0 -38 -77z m1042 60 c0 -10 -11 -76 -24 -148
-26 -149 -11 -137 -146 -116 -52 9 -93 9 -135 3 -33 -6 -63 -8 -67 -5 -5 2 -8
15 -8 29 0 38 -48 174 -76 217 l-24 37 240 0 c222 0 240 -1 240 -17z m946 0
c-6 -22 -316 -1391 -316 -1398 0 -3 -159 -5 -354 -5 l-353 0 9 52 c17 99 -7
239 -57 338 l-23 46 55 29 c121 63 226 189 275 330 39 112 37 137 -19 197
l-25 26 31 184 c18 101 34 191 37 201 5 16 32 17 375 17 348 0 370 -1 365 -17z
m-1632 -48 c57 -58 95 -135 108 -223 l11 -70 -85 -83 c-47 -46 -98 -108 -113
-137 l-29 -53 -23 28 c-93 114 -114 303 -47 438 23 46 109 145 125 145 4 0 28
-20 53 -45z m-440 -427 c25 -6 40 -16 43 -29 13 -49 74 -160 118 -213 37 -45
44 -60 34 -67 -32 -21 -100 -31 -179 -27 -107 5 -196 43 -268 115 -49 50 -97
135 -88 159 8 21 100 63 158 73 56 9 117 6 182 -11z m947 12 c30 -6 82 -24
117 -40 l63 -29 -16 -38 c-36 -86 -100 -155 -183 -197 -81 -41 -84 -40 -152 3
-56 36 -144 70 -223 86 -25 5 -26 8 -16 27 24 44 115 124 172 151 48 23 111
39 173 46 6 0 35 -4 65 -9z m-2006 -204 c231 -38 426 -117 527 -216 69 -68 88
-117 69 -182 -18 -59 -105 -142 -207 -195 -91 -48 -283 -105 -419 -124 -117
-17 -415 -17 -530 0 -318 47 -586 183 -626 318 -29 99 51 202 221 285 139 69
277 103 530 132 67 8 345 -4 435 -18z m1700 -248 c153 -78 246 -260 215 -424
l-13 -66 -49 6 c-108 15 -210 72 -269 151 -27 36 -27 37 -12 78 12 30 17 78
17 168 l1 126 35 -10 c19 -5 53 -18 75 -29z m-869 -41 l21 -12 -23 -50 -24
-50 0 40 c0 22 -3 50 -6 63 -7 25 1 27 32 9z m564 -45 c0 -80 -23 -150 -74
-224 -68 -101 -161 -157 -284 -174 l-50 -6 -11 68 c-17 101 8 209 69 294 20
28 26 30 83 30 69 0 139 16 207 48 25 11 48 21 53 21 4 1 7 -25 7 -57z m-622
-265 c0 -52 3 -104 7 -115 6 -22 5 -22 -112 -21 -114 0 -117 1 -93 17 46 31
145 130 170 171 14 22 26 41 27 41 1 0 1 -42 1 -93z"/>
<path d="M4553 3383 c-35 -7 -73 -59 -73 -100 0 -77 103 -124 159 -72 77 72
18 191 -86 172z"/>
<path d="M377 726 c-34 -32 -43 -84 -24 -140 45 -133 210 -236 459 -286 171
-35 217 -28 244 37 12 27 13 42 4 68 -15 45 -45 63 -132 76 -218 34 -376 110
-392 189 -14 73 -106 105 -159 56z"/>
<path d="M1257 445 c-31 -32 -39 -71 -22 -112 15 -36 43 -54 86 -55 89 -3 133
100 70 163 -39 39 -97 40 -134 4z"/>
</g>
</svg>
