<?xml version="1.0" standalone="no"?>
<!DOCTYPE svg PUBLIC "-//W3C//DTD SVG 20010904//EN"
 "http://www.w3.org/TR/2001/REC-SVG-20010904/DTD/svg10.dtd">
<svg version="1.0" xmlns="http://www.w3.org/2000/svg"
 width="1596.000000pt" height="1468.000000pt" viewBox="0 0 1596.000000 1468.000000"
 preserveAspectRatio="xMidYMid meet">

<g transform="translate(0.000000,1468.000000) scale(0.100000,-0.100000)"
fill="#000000" stroke="none">
<path d="M1073 14054 c-7 -20 11 -38 32 -31 13 6 13 10 3 27 -15 24 -27 26
-35 4z"/>
<path d="M1070 13999 c0 -18 13 -39 25 -39 17 0 28 -30 16 -44 -5 -6 -8 -31
-6 -56 2 -25 4 -53 4 -62 1 -10 7 -18 15 -18 18 0 26 -22 19 -49 -3 -13 -1
-21 7 -21 7 0 9 -8 5 -19 -3 -11 -2 -22 3 -25 6 -3 13 -27 17 -52 4 -32 15
-53 33 -69 24 -20 25 -26 17 -60 -6 -21 -19 -43 -30 -49 -11 -6 -23 -15 -27
-20 -4 -6 -13 -4 -22 3 -9 7 -22 11 -30 8 -20 -8 -32 11 -40 61 -6 38 -4 42
14 42 16 0 20 7 20 30 0 18 -6 33 -15 36 -11 5 -12 10 -3 24 9 14 8 26 -5 53
-17 36 -42 53 -52 37 -10 -16 -33 -11 -38 8 -2 9 -3 2 -1 -15 1 -18 0 -33 -4
-33 -4 0 -7 -22 -6 -50 0 -27 -3 -50 -8 -50 -5 0 -7 -4 -4 -9 7 -10 9 -135 3
-164 -2 -10 -9 -22 -15 -26 -7 -4 -14 -25 -15 -47 -6 -62 -15 -76 -40 -62 -31
16 -46 39 -41 63 16 79 16 82 0 88 -9 4 -16 18 -16 34 0 52 -11 74 -31 68 -13
-4 -19 -2 -17 6 4 18 -24 22 -46 6 -15 -11 -18 -26 -17 -97 1 -46 5 -88 9 -94
11 -16 29 -74 37 -121 4 -22 22 -71 40 -110 18 -38 39 -93 45 -122 6 -28 18
-60 25 -70 8 -10 15 -28 15 -40 0 -12 5 -25 10 -28 6 -3 10 -21 10 -39 0 -35
15 -57 35 -50 6 3 12 -2 12 -11 0 -8 -5 -15 -10 -15 -6 0 2 -11 17 -25 14 -13
26 -33 26 -44 0 -11 5 -23 10 -26 13 -8 -20 -67 -34 -62 -5 2 -14 12 -20 22
-6 11 -17 25 -25 31 -8 6 -18 40 -22 76 -6 52 -14 71 -37 96 -17 18 -37 32
-46 32 -11 0 -18 13 -22 41 -4 22 -13 43 -20 46 -8 3 -14 13 -14 22 0 9 -13
22 -30 29 -16 8 -29 17 -29 20 3 19 -2 33 -10 28 -4 -3 -17 1 -27 9 -27 20
-32 18 -27 -10 3 -13 8 -24 12 -23 21 2 26 -9 28 -63 2 -44 7 -65 19 -74 11
-7 13 -14 6 -18 -12 -8 -4 -47 9 -47 5 0 9 -13 9 -29 0 -17 5 -33 10 -36 6 -4
8 -10 5 -15 -3 -5 4 -33 15 -62 11 -29 20 -62 20 -73 0 -11 11 -37 25 -57 14
-20 25 -46 25 -56 0 -25 25 -74 33 -65 7 6 11 -18 8 -49 -1 -10 3 -18 8 -18 6
0 11 -11 11 -24 0 -14 4 -28 10 -31 5 -3 10 -25 10 -47 0 -27 6 -46 19 -57 10
-9 21 -29 24 -46 12 -66 41 -168 58 -197 15 -28 10 -79 -11 -127 -22 -48 -25
-71 -9 -71 5 0 7 -4 4 -10 -3 -5 -2 -10 3 -10 10 0 56 -130 48 -137 -3 -3 2
-12 10 -21 9 -8 13 -23 11 -33 -3 -10 3 -25 13 -34 10 -9 21 -28 24 -41 4 -14
11 -22 17 -19 6 4 7 -3 3 -19 -4 -19 -2 -26 8 -26 12 0 37 -37 41 -60 1 -9 17
-84 23 -110 3 -13 10 -30 16 -37 6 -8 13 -30 15 -50 2 -20 9 -43 15 -50 6 -7
7 -13 2 -13 -5 0 -1 -5 9 -11 31 -18 77 -134 69 -175 -1 -7 4 -14 13 -17 8 -4
18 -24 21 -46 4 -23 10 -38 15 -35 5 3 9 -1 9 -10 0 -8 -6 -17 -12 -19 -8 -3
-6 -6 5 -6 11 -1 17 -9 17 -24 0 -13 9 -32 20 -42 11 -10 20 -27 20 -38 0 -12
5 -17 14 -14 8 3 16 -2 19 -15 3 -11 10 -17 15 -14 15 9 64 -12 57 -25 -4 -6
0 -9 11 -7 12 2 20 -4 22 -17 2 -11 11 -27 19 -37 8 -9 13 -22 12 -30 -4 -19
11 -58 22 -58 6 0 8 -9 4 -20 -4 -11 0 -29 9 -42 9 -12 16 -39 16 -60 0 -21 4
-38 10 -38 8 0 17 -16 51 -95 17 -40 47 -134 44 -137 -2 -2 9 -12 26 -23 16
-11 29 -28 29 -38 0 -10 9 -27 20 -39 11 -12 20 -28 20 -35 0 -8 4 -12 9 -9 8
5 29 -41 46 -101 3 -11 12 -27 20 -33 8 -7 15 -23 15 -36 0 -13 5 -24 10 -24
6 0 10 -9 10 -19 0 -10 7 -21 15 -25 8 -3 15 -12 15 -21 0 -9 9 -35 20 -57 11
-23 20 -50 20 -60 0 -10 5 -18 11 -18 6 0 8 -10 5 -22 -3 -13 -3 -17 0 -10 9
19 24 14 24 -8 0 -11 4 -20 8 -20 11 0 32 -45 32 -69 0 -10 9 -28 20 -41 11
-13 20 -33 20 -44 0 -12 9 -28 20 -36 11 -8 20 -22 20 -32 0 -33 25 -98 37
-98 16 0 31 -28 35 -65 2 -16 14 -40 27 -54 13 -14 28 -38 33 -53 6 -17 17
-28 29 -28 21 0 24 -11 8 -27 -13 -13 25 -43 54 -43 10 0 16 -4 12 -10 -3 -5
-12 -7 -20 -3 -22 8 -18 -14 5 -30 17 -12 23 -30 29 -94 0 -7 7 -10 15 -7 16
6 31 -29 21 -47 -4 -6 2 -13 13 -15 12 -4 24 -21 32 -45 7 -21 19 -39 27 -39
7 0 13 -7 13 -15 0 -9 7 -18 15 -21 8 -4 15 -12 15 -18 0 -7 13 -27 29 -45 17
-19 33 -46 36 -61 3 -15 16 -32 28 -38 18 -9 19 -11 5 -11 -22 -1 -23 -10 -3
-25 8 -6 17 -22 19 -36 3 -14 5 -27 5 -30 1 -3 6 2 11 10 8 12 10 10 10 -9 0
-13 14 -40 30 -61 17 -21 30 -43 30 -49 0 -6 5 -11 11 -11 5 0 8 -4 5 -9 -3
-5 1 -11 9 -15 8 -3 15 -15 15 -27 0 -14 5 -19 14 -16 10 4 15 -8 20 -44 5
-34 13 -52 27 -59 11 -6 17 -15 14 -19 -2 -5 4 -11 15 -14 19 -5 25 -28 23
-85 -1 -7 12 -20 28 -29 16 -10 27 -23 25 -30 -3 -7 -1 -15 5 -19 6 -3 8 -12
5 -20 -4 -10 2 -14 19 -14 20 0 25 -5 25 -24 0 -15 7 -27 18 -31 9 -3 31 -25
48 -48 25 -34 38 -43 65 -45 40 -3 79 -27 79 -47 0 -8 4 -15 10 -15 5 0 6 -7
3 -17 -4 -11 -3 -14 5 -9 8 5 12 0 12 -14 0 -12 11 -31 25 -42 14 -11 25 -26
25 -34 0 -8 4 -14 9 -14 5 0 11 -12 13 -27 2 -20 8 -28 21 -27 9 1 17 -4 17
-11 0 -8 13 -28 30 -46 24 -27 27 -35 17 -48 -10 -12 -9 -14 4 -9 18 7 39 -9
39 -30 0 -7 11 -28 25 -46 14 -18 25 -38 25 -43 0 -6 17 -29 38 -52 21 -23 43
-60 50 -84 8 -24 30 -59 53 -82 21 -22 42 -48 45 -57 3 -10 16 -21 30 -24 17
-4 24 -13 24 -30 0 -13 5 -24 10 -24 6 0 10 -6 10 -13 0 -7 9 -19 20 -27 12
-8 32 -34 46 -57 14 -24 29 -43 34 -43 6 0 10 -5 10 -11 0 -6 11 -20 25 -31
14 -11 25 -26 25 -34 0 -8 7 -14 15 -14 8 0 15 -5 15 -11 0 -7 7 -17 17 -24 9
-7 17 -23 18 -36 1 -16 9 -25 23 -27 14 -2 22 -11 22 -22 0 -10 5 -22 10 -25
6 -4 10 -12 8 -18 -1 -7 17 -32 40 -56 23 -24 42 -50 42 -58 0 -7 7 -13 15
-13 9 0 15 -9 15 -24 0 -30 87 -106 121 -107 20 0 22 -2 8 -11 -14 -9 -13 -13
8 -34 13 -13 30 -24 38 -24 9 0 15 -10 15 -25 0 -15 6 -25 14 -25 14 0 26 -29
26 -67 0 -13 -4 -23 -10 -23 -5 0 -7 -7 -4 -15 5 -11 10 -13 19 -5 13 11 45 4
45 -10 0 -5 -7 -16 -16 -24 -8 -9 -11 -16 -5 -16 5 0 17 7 26 16 15 15 15 14
9 -10 -4 -19 -2 -27 10 -32 21 -8 96 -81 96 -94 0 -5 9 -10 20 -10 10 0 24 -9
30 -19 5 -11 22 -26 38 -33 15 -7 33 -28 41 -45 8 -18 20 -33 27 -33 8 0 29
-16 48 -35 27 -27 31 -35 18 -36 -14 0 -14 -2 3 -8 11 -5 23 -7 28 -4 4 2 7
-1 7 -7 0 -21 48 -60 66 -53 14 5 16 2 12 -20 -4 -21 -1 -27 13 -27 11 0 19
-4 19 -10 0 -15 32 -50 41 -44 5 3 17 -4 29 -16 11 -11 26 -20 34 -20 8 0 17
-15 20 -35 4 -19 11 -35 16 -35 4 0 15 -3 24 -6 9 -3 16 -1 16 5 0 6 -7 11
-15 11 -8 0 -15 5 -15 10 0 13 6 13 32 -1 16 -8 22 -8 29 2 5 8 3 17 -4 21 -8
5 -6 8 6 8 10 0 15 5 12 10 -9 14 -21 12 -38 -4 -12 -13 -17 -13 -33 -1 -10 7
-19 19 -20 27 -1 26 -26 78 -35 72 -5 -3 -9 2 -9 10 0 22 -83 86 -111 86 -27
0 -56 50 -43 72 9 14 -26 -10 -38 -27 -4 -5 -12 4 -18 20 -6 16 -19 35 -30 42
-11 8 -16 20 -13 33 4 15 0 20 -16 20 -18 0 -21 6 -21 38 -1 33 -2 35 -14 19
-13 -17 -15 -16 -34 8 -11 14 -27 25 -36 25 -9 0 -16 5 -16 11 0 5 5 7 10 4 6
-3 10 1 10 9 0 9 -9 16 -20 16 -13 0 -20 7 -20 20 0 12 7 20 16 20 9 0 23 8
30 18 12 16 14 16 33 -5 12 -12 21 -27 21 -33 0 -10 13 -14 43 -10 10 1 17 -4
16 -12 -5 -21 24 -58 44 -58 10 0 15 -4 12 -10 -3 -5 1 -10 9 -10 9 0 16 -5
16 -11 0 -5 4 -7 10 -4 6 3 10 -1 10 -9 0 -10 6 -13 17 -9 11 4 14 3 9 -6 -5
-7 3 -22 21 -37 15 -13 37 -33 48 -43 11 -10 28 -21 38 -24 9 -4 17 -13 17
-20 0 -18 28 -43 60 -52 14 -4 28 -13 32 -19 4 -6 15 -11 25 -11 11 0 19 -9
21 -22 2 -15 10 -23 23 -23 10 0 19 -4 19 -10 0 -5 -6 -10 -12 -10 -9 0 -8 -3
2 -10 8 -5 16 -25 16 -44 1 -26 -3 -36 -18 -40 -12 -2 -17 -9 -13 -16 4 -6 15
-8 26 -5 17 6 19 3 14 -22 -5 -22 -4 -25 5 -13 9 11 13 12 17 3 8 -22 35 -15
28 7 -4 11 -2 20 4 20 6 0 11 -17 11 -37 0 -21 4 -42 8 -48 9 -13 72 -48 72
-40 0 3 9 1 20 -5 11 -6 20 -15 20 -20 0 -22 42 -52 64 -46 17 4 26 0 36 -18
6 -13 23 -29 36 -35 13 -5 26 -22 30 -36 6 -25 33 -35 35 -12 0 7 3 7 7 -3 16
-34 45 -69 53 -64 5 3 9 -6 9 -19 0 -30 10 -40 27 -26 13 11 17 -3 16 -48 -1
-7 5 -13 12 -13 8 0 11 -8 8 -20 -3 -11 0 -20 6 -20 6 0 11 5 11 10 0 6 9 10
20 10 11 0 20 -7 20 -16 0 -8 5 -12 11 -9 6 4 8 12 6 19 -5 13 36 16 49 4 4
-5 18 -8 30 -8 14 0 25 -8 29 -20 3 -11 13 -20 21 -20 16 0 74 -55 74 -70 0
-6 9 -10 21 -10 12 0 17 -4 13 -11 -5 -8 -1 -8 14 0 28 15 32 14 32 -7 0 -20
39 -62 58 -62 7 0 12 -4 12 -10 0 -5 12 -10 26 -10 14 0 23 -4 19 -10 -3 -6
-1 -10 5 -10 6 0 8 10 4 26 -5 19 -4 25 5 20 6 -4 9 -12 6 -17 -4 -5 -1 -9 4
-9 6 0 11 -7 11 -15 0 -8 7 -15 15 -15 8 0 15 4 15 10 0 17 79 8 95 -11 9 -9
24 -15 36 -12 10 3 19 0 19 -6 0 -6 -4 -11 -10 -11 -5 0 -10 -5 -10 -11 0 -8
4 -8 14 0 17 15 81 -11 96 -39 15 -27 33 -26 25 3 -6 21 -5 21 16 -3 12 -14
28 -24 35 -22 8 2 14 -5 14 -14 0 -10 5 -14 16 -10 9 3 24 -4 38 -19 13 -14
28 -25 33 -25 6 0 22 -9 37 -21 16 -13 33 -18 46 -14 13 4 27 -1 42 -14 12
-12 29 -19 39 -16 9 3 19 -1 22 -9 3 -8 22 -18 42 -22 26 -4 35 -11 31 -21 -3
-8 -1 -11 4 -8 6 3 13 0 16 -8 3 -9 17 -18 32 -22 15 -4 35 -13 44 -22 9 -8
23 -13 30 -10 15 5 108 -42 108 -55 0 -5 4 -7 8 -4 9 5 63 -12 97 -31 11 -6
40 -14 64 -18 41 -7 43 -9 26 -21 -18 -13 -18 -14 6 -14 13 0 35 0 49 -1 13 0
33 -9 43 -20 10 -11 32 -22 48 -26 16 -3 29 -9 29 -14 0 -5 7 -9 16 -9 9 0 12
-5 8 -12 -5 -8 -2 -9 11 -4 11 4 22 2 26 -5 4 -7 18 -14 31 -16 51 -7 68 -14
68 -29 0 -9 9 -18 20 -21 11 -3 20 -11 20 -19 0 -7 12 -17 27 -20 15 -4 42
-23 61 -42 26 -25 45 -35 71 -36 27 -1 38 -7 48 -25 6 -14 20 -26 30 -27 10
-2 26 -13 35 -25 10 -11 18 -16 18 -10 0 6 5 11 10 11 6 0 10 -7 10 -15 0 -8
18 -33 40 -55 22 -22 40 -46 40 -53 0 -11 87 -50 120 -53 8 0 17 -2 20 -3 3
-2 14 -4 25 -6 11 -2 21 -9 23 -14 2 -6 8 -11 14 -11 6 0 26 -11 44 -25 18
-14 39 -25 46 -25 20 0 37 -20 31 -36 -4 -10 0 -12 11 -8 10 4 16 1 16 -7 0
-10 3 -10 11 -2 14 14 54 1 84 -26 36 -32 114 -73 126 -65 8 4 9 3 5 -4 -5 -8
0 -12 13 -12 10 0 21 -5 23 -10 2 -6 12 -12 23 -14 31 -6 145 -67 145 -78 0
-5 4 -7 9 -3 5 3 12 1 16 -5 3 -5 21 -10 39 -10 36 0 57 -15 49 -36 -3 -8 5
-18 20 -23 14 -5 27 -16 29 -23 4 -10 8 -10 20 -1 8 7 18 9 24 4 9 -9 87 -29
129 -34 11 -2 23 2 27 8 5 6 8 6 8 -2 0 -7 4 -13 9 -13 6 0 9 9 8 19 -1 11 -6
17 -14 14 -16 -6 -6 28 11 39 7 5 7 8 -1 8 -7 0 -13 11 -13 24 0 23 3 25 43
22 47 -4 78 -14 89 -30 4 -6 5 -33 1 -59 -6 -51 9 -97 33 -97 15 0 74 -57 74
-72 0 -6 3 -8 7 -5 7 8 33 -38 33 -59 0 -8 3 -14 8 -14 4 0 7 -78 7 -173 0
-115 4 -189 14 -222 7 -27 14 -60 15 -72 0 -13 4 -23 9 -23 4 0 7 -11 7 -25 0
-14 6 -25 13 -25 7 0 5 -5 -5 -11 -14 -8 -16 -19 -13 -56 3 -26 8 -49 13 -52
4 -4 8 -33 10 -65 1 -33 7 -65 13 -72 7 -8 7 -14 -1 -19 -6 -4 -7 -12 0 -24 5
-10 7 -35 3 -55 -4 -23 -2 -36 6 -36 6 0 11 -8 11 -18 0 -10 5 -23 10 -28 15
-15 15 -201 0 -219 -7 -8 -9 -15 -4 -15 5 -1 -1 -9 -14 -20 -15 -12 -23 -31
-24 -55 -1 -37 20 -72 29 -47 6 15 52 16 89 2 20 -8 24 -14 16 -22 -12 -12 -2
-35 31 -72 9 -11 18 -34 19 -50 0 -17 2 -35 3 -41 2 -5 4 -14 5 -20 1 -5 2
-14 1 -18 -1 -5 8 -21 18 -36 11 -16 18 -30 16 -33 -3 -2 4 -22 15 -43 11 -22
20 -47 20 -57 0 -11 7 -18 19 -18 10 0 24 -7 31 -15 7 -8 16 -15 21 -15 14 0
10 30 -3 30 -8 1 -6 6 5 14 9 7 17 25 17 39 0 43 10 57 42 57 17 0 27 -4 23
-10 -3 -5 2 -10 12 -10 29 -1 56 -47 50 -85 -4 -21 -1 -36 6 -39 9 -3 9 -7 -1
-13 -7 -5 -14 -24 -17 -43 -2 -18 -8 -37 -13 -42 -12 -12 15 -48 35 -48 21 0
51 -40 58 -76 4 -26 11 -34 23 -32 9 3 16 10 15 16 -5 21 19 13 24 -8 4 -16 9
-18 24 -9 10 5 20 20 20 32 1 17 2 18 6 5 4 -18 19 -23 59 -19 11 0 32 -9 45
-21 29 -27 97 -30 125 -7 11 9 15 9 10 2 -10 -18 2 -16 20 2 9 8 29 15 45 15
17 0 28 4 24 10 -3 5 1 20 9 32 8 13 18 44 21 71 4 26 11 49 15 52 5 3 6 14 3
26 -3 12 -2 24 4 28 11 7 43 74 43 90 0 6 5 11 10 11 6 0 10 6 10 14 0 15 26
28 45 23 5 -1 12 11 15 28 3 18 13 31 26 35 31 8 69 42 88 78 9 17 20 31 24
31 4 -1 17 2 30 6 16 5 22 14 20 29 -2 15 2 20 14 18 11 -2 41 20 74 54 44 44
54 58 43 66 -10 7 -8 7 8 3 18 -5 22 -3 17 9 -4 11 0 16 13 16 10 0 24 9 31
20 7 11 19 20 27 20 8 0 15 7 15 16 0 16 56 87 123 158 15 16 27 35 27 42 0 8
4 14 8 14 19 0 62 47 62 68 0 21 10 26 47 25 7 -1 10 3 8 8 -3 4 3 17 15 29
11 11 20 26 20 33 0 18 37 47 60 47 13 0 20 7 20 20 0 11 5 20 10 20 6 0 28
18 50 40 22 22 47 40 56 40 9 0 18 9 21 20 4 15 14 20 38 20 18 0 38 7 45 15
9 10 9 15 1 15 -6 0 -11 5 -11 10 0 10 56 27 72 22 4 -1 5 4 2 12 -7 17 22 46
47 46 12 0 21 9 25 25 3 14 12 25 20 25 8 0 14 5 14 10 0 15 58 70 74 70 8 0
21 15 29 33 10 19 33 42 61 56 24 14 50 35 57 48 7 12 19 25 28 28 9 3 25 24
36 46 11 23 30 46 42 52 12 5 20 14 17 18 -3 5 4 9 15 9 12 0 21 6 21 14 0 7
6 19 14 25 11 10 17 8 25 -6 7 -12 10 -13 11 -4 0 18 86 101 129 124 30 16 35
17 43 4 13 -23 48 -9 48 19 0 13 3 23 8 22 4 -1 18 5 32 14 14 9 32 18 40 20
8 2 21 11 28 21 7 9 22 17 32 17 10 0 27 11 38 25 11 14 25 25 32 25 7 0 27 9
44 19 17 10 51 22 75 26 28 5 55 18 74 36 23 22 33 26 39 17 5 -9 8 -9 8 -2 0
7 12 15 26 18 14 4 35 16 47 26 15 15 23 17 28 8 6 -9 14 -7 32 10 13 12 33
22 45 22 12 0 31 9 42 20 22 22 40 26 40 10 0 -5 9 -2 19 8 37 33 51 43 51 35
0 -4 5 -2 12 5 7 7 20 12 29 12 9 0 22 7 30 16 7 9 22 14 36 11 15 -3 22 0 21
8 -5 24 43 55 84 55 24 0 37 4 33 10 -3 6 1 10 9 10 8 0 31 9 50 21 28 16 39
18 56 9 11 -6 20 -7 19 -3 -5 30 3 40 32 38 18 -1 33 4 36 12 3 8 15 11 29 9
16 -3 24 0 24 9 0 8 18 16 50 20 28 4 50 10 50 15 0 4 17 11 37 15 45 8 120
51 136 76 7 11 16 19 22 19 5 0 23 7 39 15 20 11 33 12 40 5 13 -13 29 -13 21
0 -3 6 -3 20 1 32 6 21 7 21 20 3 11 -14 17 -16 26 -7 9 9 7 16 -7 32 -16 18
-17 20 -2 14 18 -7 24 11 7 21 -6 4 -8 10 -5 15 11 18 -23 17 -39 -1 -11 -13
-24 -18 -36 -14 -10 3 -21 1 -25 -5 -9 -14 -56 -34 -74 -31 -8 1 -18 -3 -22
-11 -7 -10 -9 -10 -9 2 -1 13 -2 13 -13 0 -17 -21 -54 -38 -106 -49 -25 -5
-48 -17 -53 -25 -5 -9 -16 -16 -23 -16 -8 0 -15 -5 -15 -11 0 -8 -5 -8 -15 1
-18 15 -20 -1 -3 -18 9 -9 7 -13 -6 -18 -9 -4 -19 -4 -22 -1 -3 3 -21 -3 -40
-14 -19 -10 -49 -19 -67 -18 -18 0 -26 3 -19 6 10 4 7 9 -10 17 -18 10 -22 19
-20 45 3 23 0 31 -8 26 -6 -4 -9 -13 -6 -21 3 -8 -1 -14 -10 -14 -9 0 -12 5
-8 11 4 7 1 10 -7 7 -8 -3 -13 -11 -12 -17 4 -14 -20 -14 -34 0 -9 9 -10 7 -6
-10 4 -18 1 -21 -22 -21 -28 0 -55 -20 -55 -41 0 -8 -7 -5 -20 6 -18 16 -25
14 -21 -7 2 -15 -51 -21 -60 -7 -6 11 -9 10 -15 -4 -3 -9 -17 -17 -29 -17 -13
0 -27 -4 -30 -10 -4 -6 -13 -5 -24 2 -15 9 -22 8 -36 -5 -21 -22 -35 -22 -35
1 1 26 23 49 45 47 13 -1 21 5 23 17 1 10 3 27 4 38 2 19 6 22 36 24 7 1 16 7
21 14 4 7 13 12 19 10 13 -3 72 61 72 79 0 10 43 31 80 39 8 1 20 10 26 18 6
9 14 13 17 10 3 -4 19 3 35 15 17 12 35 21 40 21 6 0 15 14 21 30 5 17 16 30
24 30 8 0 14 8 13 18 0 9 6 17 14 17 31 1 90 43 90 64 0 6 11 13 25 17 14 3
25 10 25 14 0 5 9 11 20 15 11 3 45 27 75 52 37 30 60 42 68 36 27 -20 117
-14 117 8 0 6 7 17 15 25 18 18 20 54 3 54 -6 0 2 14 20 31 17 17 36 28 41 25
5 -4 12 -2 16 4 8 14 42 13 47 -1 2 -7 16 -13 31 -15 23 -2 27 1 27 21 0 19 7
25 33 30 72 14 124 10 146 -9 17 -15 24 -17 33 -8 7 7 17 12 23 12 5 0 3 -5
-5 -10 -13 -8 -13 -12 3 -27 10 -10 17 -13 16 -8 -4 22 1 36 11 30 9 -6 11 -2
10 23 0 4 -10 7 -23 8 -60 3 -60 3 -54 33 3 15 1 33 -4 38 -18 18 -6 67 19 78
12 5 22 15 22 22 0 12 82 56 107 58 6 0 19 7 30 16 10 9 23 18 30 20 11 4 83
105 83 118 0 4 14 12 31 18 17 7 28 17 24 22 -3 6 2 11 13 11 25 0 86 56 77
70 -3 5 -1 10 4 10 6 0 11 7 11 15 0 8 -4 15 -10 15 -5 0 -10 9 -10 19 0 30
-19 35 -43 13 -12 -11 -35 -22 -52 -24 -22 -2 -31 -9 -33 -24 -4 -30 -38 -58
-70 -60 -15 0 -27 -5 -27 -11 0 -20 -32 -40 -76 -47 -55 -8 -79 0 -79 25 0 10
-4 19 -10 19 -5 0 -10 5 -10 11 0 5 5 7 12 3 8 -5 9 -2 5 9 -3 10 -2 17 3 17
5 0 7 7 4 15 -4 8 -1 15 5 15 6 0 11 -7 11 -15 0 -8 5 -15 10 -15 7 0 7 6 1
18 -5 9 -8 29 -6 44 3 24 0 28 -21 28 -13 0 -24 -4 -24 -10 0 -5 9 -10 21 -10
11 0 17 -5 14 -10 -4 -7 -12 -7 -25 0 -25 13 -40 13 -40 -1 0 -13 -29 -38 -44
-39 -4 0 -6 6 -3 14 5 12 -4 15 -44 13 -28 0 -53 4 -57 9 -14 21 -44 23 -130
10 -102 -15 -132 -34 -132 -83 0 -43 -26 -57 -92 -48 -27 4 -62 13 -76 21 -15
8 -33 14 -39 14 -12 0 -17 13 -14 33 1 4 -4 7 -11 6 -20 -3 -48 12 -48 26 0
13 -35 28 -57 26 -7 -1 -15 10 -19 24 -3 14 -13 25 -23 25 -21 1 -45 20 -54
43 -11 30 3 67 25 67 11 0 16 5 13 11 -4 6 -14 8 -22 4 -13 -4 -14 -3 -4 9 7
8 19 12 27 9 8 -3 14 0 14 6 0 6 -12 11 -26 11 -19 0 -25 4 -20 15 7 20 -21
32 -37 16 -8 -8 -7 -11 6 -11 9 0 17 -4 17 -10 0 -16 -15 -12 -35 10 -10 11
-23 20 -30 20 -6 0 -22 11 -34 24 -13 14 -35 26 -50 28 -15 2 -30 12 -36 26
-6 13 -18 22 -32 22 -14 0 -23 6 -23 15 0 8 -7 15 -15 15 -9 0 -15 9 -15 21 0
18 -2 19 -15 9 -15 -12 -16 -11 -19 13 0 6 -16 19 -33 27 -18 8 -33 21 -33 28
0 15 -17 16 -22 2 -2 -7 -16 -4 -37 6 -40 20 -73 24 -84 9 -5 -6 -7 -2 -6 10
3 28 -11 55 -27 55 -9 0 -14 11 -14 33 0 25 -3 29 -10 17 -9 -13 -13 -12 -29
8 -13 15 -21 18 -24 10 -3 -10 -7 -10 -20 0 -11 10 -21 11 -34 3 -17 -9 -17
-10 2 -17 27 -10 36 -25 28 -49 -5 -17 -4 -18 10 -7 18 15 28 4 21 -24 -4 -14
-13 -19 -32 -18 -15 1 -34 3 -42 3 -13 1 -13 2 0 11 12 8 11 10 -7 10 -13 0
-23 4 -23 10 0 5 -7 7 -15 4 -8 -4 -12 -10 -9 -15 3 -5 1 -9 -4 -9 -6 0 -12 7
-16 15 -3 8 -14 15 -24 15 -10 0 -33 13 -52 29 -29 24 -36 26 -48 14 -7 -7
-17 -11 -22 -8 -4 3 -6 -4 -3 -15 3 -11 0 -20 -6 -20 -7 0 1 -13 17 -28 16
-15 26 -34 24 -41 -2 -7 5 -15 17 -18 17 -4 19 -8 10 -19 -12 -15 -37 -6 -72
26 -10 10 -27 16 -38 13 -10 -3 -19 0 -19 6 0 6 -7 11 -15 11 -7 0 -18 8 -24
17 -7 14 -12 15 -24 4 -13 -10 -18 -8 -32 13 -10 14 -23 26 -29 26 -7 0 -18 6
-25 13 -6 6 -17 12 -24 12 -7 0 -13 17 -15 38 -3 34 -5 37 -28 31 -20 -5 -24
-2 -24 15 0 22 24 29 35 11 3 -5 15 -10 25 -10 10 0 22 -5 26 -12 5 -7 2 -8
-7 -3 -8 5 -11 4 -6 -1 5 -5 12 -9 15 -9 4 0 12 -3 17 -7 24 -15 83 -20 91 -7
4 7 3 14 -4 17 -7 2 -12 11 -12 20 -1 10 -7 28 -14 42 -12 21 -12 26 3 37 15
11 15 12 0 13 -9 0 -19 -6 -22 -14 -6 -15 -42 -11 -52 4 -12 19 7 37 32 32 17
-3 24 -1 19 6 -4 6 -13 9 -21 5 -8 -3 -15 0 -15 6 0 18 -18 13 -23 -6 -4 -16
-5 -16 -6 -1 0 9 6 23 14 32 8 8 15 16 15 19 0 7 -64 2 -77 -6 -9 -5 -13 -2
-13 8 0 11 -5 15 -15 11 -8 -3 -15 -1 -15 5 0 6 -9 24 -21 41 -16 22 -28 28
-48 26 -20 -2 -27 2 -29 19 -2 15 -11 23 -30 25 -19 2 -27 8 -26 21 1 12 -5
17 -22 17 -13 0 -24 -4 -24 -10 0 -5 -4 -10 -9 -10 -5 0 -8 8 -7 18 1 12 -8
18 -31 20 -26 3 -33 8 -33 24 0 15 -5 19 -20 15 -11 -3 -23 -1 -26 5 -3 5 -15
8 -25 5 -14 -4 -19 0 -19 15 0 14 -5 18 -19 13 -10 -3 -24 1 -31 10 -7 8 -19
15 -27 15 -8 0 -11 5 -8 10 6 10 -6 14 -37 11 -12 -2 -15 4 -11 19 3 11 0 20
-6 20 -6 0 -11 -5 -11 -11 0 -6 -6 -9 -12 -6 -7 2 -12 13 -10 23 2 14 1 16 -6
5 -8 -11 -14 -10 -34 3 -14 9 -28 13 -32 9 -4 -5 -6 0 -4 11 2 10 -5 23 -17
30 -10 6 -26 17 -34 24 -9 9 -25 12 -43 8 -18 -3 -27 -2 -23 4 3 6 -3 10 -13
10 -11 0 -23 7 -26 15 -3 9 -22 23 -42 31 -24 10 -34 20 -30 30 3 7 1 14 -4
14 -6 0 -10 -4 -10 -10 0 -5 -5 -10 -11 -10 -6 0 -9 9 -6 20 3 11 1 18 -3 15
-5 -3 -11 -1 -15 5 -3 5 -15 10 -26 10 -10 0 -19 4 -19 10 0 5 -16 17 -36 26
-20 10 -39 25 -41 35 -5 18 -36 32 -64 30 -8 -1 -21 10 -29 24 -8 14 -29 35
-47 46 -18 11 -33 25 -33 30 0 5 -9 9 -20 9 -11 0 -20 4 -20 10 0 5 -6 7 -13
4 -8 -3 -22 6 -32 20 -10 13 -24 22 -31 19 -7 -3 -14 5 -16 18 -2 12 -9 24
-17 27 -9 3 -11 0 -6 -8 10 -17 -1 -12 -74 30 -33 19 -59 40 -56 47 2 7 -16
16 -46 23 -27 7 -49 18 -49 25 0 18 -59 74 -102 96 -26 13 -38 26 -38 40 0 18
-4 20 -25 15 -14 -4 -25 -2 -25 4 0 14 -38 51 -42 40 -2 -5 -12 -2 -23 7 -14
11 -16 17 -7 20 6 3 12 9 12 14 0 4 -6 6 -13 3 -7 -2 -24 7 -37 21 -13 14 -28
25 -32 25 -5 0 -45 36 -89 79 -49 49 -99 88 -129 102 -28 12 -50 28 -50 34 0
6 -20 26 -45 44 -40 29 -49 41 -47 62 1 4 -6 6 -16 5 -12 -1 -18 8 -20 27 -3
28 -16 36 -26 15 -3 -7 -4 -5 -3 6 1 14 -9 22 -48 34 -27 8 -44 17 -37 19 6 3
12 12 11 21 0 11 -2 12 -6 5 -7 -18 -40 -16 -47 3 -3 8 -10 12 -16 9 -6 -3
-13 1 -16 9 -3 9 -13 16 -21 16 -8 0 -19 14 -24 30 -6 16 -16 30 -22 30 -10 0
-36 11 -142 61 -31 15 -41 25 -42 46 -3 37 -3 41 3 96 3 26 3 47 -1 47 -17 0
-45 -22 -45 -35 0 -8 -4 -15 -10 -15 -5 0 -12 -11 -16 -24 -3 -13 -15 -27 -27
-30 -31 -8 -39 -7 -32 4 3 6 0 10 -7 10 -8 0 -22 15 -33 33 -10 17 -25 38 -32
45 -7 7 -17 21 -22 30 -9 15 -11 15 -30 -2 -11 -10 -26 -16 -34 -13 -8 3 -31
-3 -53 -12 -21 -10 -45 -16 -51 -14 -20 7 -16 -7 12 -43 20 -26 25 -44 25 -88
0 -30 4 -57 10 -61 8 -5 12 -50 11 -130 -1 -16 5 -52 13 -80 28 -102 33 -134
23 -144 -8 -8 -7 -25 1 -58 14 -60 18 -155 7 -173 -5 -8 -4 -15 3 -18 7 -2 9
-20 5 -52 -5 -40 -3 -51 10 -56 9 -3 14 -11 12 -17 -10 -29 -24 -242 -16 -245
4 -1 6 -14 3 -27 -2 -14 1 -31 7 -39 7 -8 9 -25 5 -40 -4 -16 -1 -32 6 -41 7
-9 8 -15 2 -15 -13 0 -22 -121 -10 -137 5 -7 5 -14 -1 -17 -6 -4 -7 -15 -2
-30 11 -28 17 -98 10 -111 -3 -6 -4 -26 -3 -45 11 -149 12 -206 2 -217 -7 -9
-7 -13 1 -13 16 0 13 -27 -4 -34 -9 -3 -15 -18 -15 -34 0 -64 -70 -94 -122
-52 -18 13 -28 16 -36 8 -12 -12 -35 -1 -27 13 4 5 -3 9 -13 9 -11 0 -25 7
-32 15 -9 11 -23 13 -50 9 -30 -5 -45 -2 -68 15 -17 12 -37 18 -46 15 -11 -4
-16 0 -16 15 0 13 -5 18 -13 15 -7 -2 -22 4 -32 16 -10 11 -24 20 -32 20 -16
0 -17 12 -1 28 9 9 7 13 -5 18 -9 3 -15 9 -13 13 15 24 -97 0 -123 -26 -7 -8
-20 -12 -28 -9 -8 3 -25 6 -38 6 -13 0 -40 16 -61 35 -25 24 -43 33 -56 29
-22 -7 -24 9 -2 30 13 14 13 16 1 16 -8 0 -18 -11 -21 -25 -8 -30 -32 -33 -39
-5 -4 17 -11 19 -31 14 -21 -5 -32 -1 -51 20 -13 14 -28 26 -33 26 -5 0 -15 7
-22 15 -8 9 -21 13 -32 9 -12 -3 -18 -1 -16 8 2 7 -8 14 -22 16 -14 2 -29 10
-33 18 -4 8 -14 14 -22 14 -8 0 -20 9 -28 20 -8 12 -21 18 -29 15 -9 -4 -18 1
-21 9 -4 9 -13 16 -22 16 -20 0 -63 42 -47 48 17 5 15 22 -3 22 -8 0 -15 4
-15 9 0 5 -9 13 -20 16 -11 4 -20 15 -20 26 0 11 -5 17 -10 14 -6 -4 -7 -11
-4 -17 4 -6 3 -9 -2 -6 -5 2 -24 11 -41 18 -18 8 -33 18 -33 22 0 4 -6 8 -14
8 -8 0 -22 10 -30 22 -9 12 -16 17 -16 11 0 -7 -7 -10 -15 -7 -8 4 -15 12 -15
19 0 8 -8 11 -20 8 -14 -4 -20 0 -20 10 0 16 -54 41 -80 38 -10 -2 -9 2 5 13
19 15 19 15 -13 16 -26 0 -32 4 -30 18 2 11 -4 18 -19 20 -13 2 -23 7 -23 12
0 10 -39 25 -57 22 -6 -2 -14 2 -18 8 -3 5 -15 10 -26 10 -10 0 -19 4 -19 8 0
18 -42 53 -58 48 -11 -4 -26 5 -41 24 -13 17 -27 30 -32 30 -12 0 -55 43 -51
53 1 4 -4 7 -12 7 -8 0 -16 6 -19 14 -3 8 -19 17 -36 21 -21 4 -31 13 -31 25
0 12 -10 21 -28 25 -15 3 -43 19 -61 34 -19 16 -40 27 -48 24 -9 -4 -11 0 -7
11 4 11 1 16 -10 16 -10 0 -13 6 -10 15 5 11 -1 15 -20 15 -18 0 -26 5 -26 18
0 9 -4 23 -9 30 -6 11 -11 10 -25 -4 -16 -16 -18 -15 -23 5 -3 11 -12 21 -20
21 -13 0 -13 2 -2 17 8 10 9 14 2 10 -6 -4 -14 -3 -18 3 -4 6 -11 8 -16 5 -5
-4 -9 1 -9 9 0 9 -7 16 -15 16 -8 0 -15 7 -15 16 0 11 -6 13 -19 9 -11 -3 -22
-1 -26 5 -5 8 -11 8 -20 0 -10 -9 -16 -6 -25 10 -6 11 -8 25 -5 30 3 6 2 10
-3 10 -5 0 -15 11 -22 25 -7 14 -22 25 -32 25 -10 0 -18 5 -18 10 0 6 -5 10
-11 10 -6 0 -17 7 -25 15 -21 21 -32 19 -37 -7 -4 -19 -4 -18 -6 5 -1 29 -24
61 -35 50 -3 -4 -6 8 -6 25 0 21 -7 35 -20 42 -11 6 -19 14 -19 18 3 20 -2 33
-11 27 -5 -3 -10 -1 -10 4 0 6 -6 11 -13 11 -8 0 -19 12 -26 28 -8 15 -17 34
-21 42 -4 8 -16 17 -26 19 -10 1 -27 10 -36 19 -10 8 -18 12 -18 7 0 -4 -6 -2
-14 4 -7 6 -21 9 -30 5 -9 -4 -16 -1 -16 6 0 7 -7 10 -15 6 -9 -3 -24 2 -34
12 -10 9 -31 24 -47 33 -17 9 -28 22 -26 31 2 11 -8 19 -30 23 -18 4 -39 16
-46 26 -19 28 -49 24 -54 -6 -4 -19 -1 -25 12 -25 29 0 44 -42 30 -84 -12 -36
-41 -49 -55 -25 -4 6 -12 8 -19 6 -15 -6 -40 13 -49 36 -4 10 -12 17 -19 16
-31 -4 -48 2 -48 17 0 8 -5 12 -10 9 -6 -4 -17 -1 -25 5 -8 6 -23 9 -33 6 -16
-5 -21 0 -26 25 -7 38 -23 59 -43 59 -8 0 -27 15 -44 32 -16 18 -29 27 -29 20
0 -20 -21 -14 -27 8 -3 11 -9 17 -14 14 -5 -3 -9 0 -9 6 0 7 -7 9 -17 6 -10
-4 -15 -4 -11 -1 10 10 -50 65 -71 65 -11 0 -25 9 -31 20 -6 11 -17 20 -24 20
-8 0 -17 7 -20 16 -5 13 -9 14 -21 4 -12 -10 -15 -10 -15 3 0 8 -12 23 -27 33
-30 19 -32 20 -77 22 -28 2 -29 3 -10 16 18 14 18 15 -11 38 -16 12 -34 24
-40 24 -5 1 -20 5 -33 9 -21 7 -21 8 -5 22 17 13 16 14 -9 10 -16 -2 -33 2
-39 9 -6 7 -17 10 -25 7 -7 -3 -16 2 -20 10 -3 9 -12 13 -19 11 -10 -4 -12 1
-8 15 6 22 -12 30 -19 9 -2 -6 -10 -8 -17 -4 -9 6 -9 11 -1 21 9 11 6 16 -14
21 -14 3 -25 9 -24 13 3 26 -17 40 -62 45 -8 0 -14 8 -12 17 1 10 -6 19 -18
22 -13 3 -18 10 -14 21 4 12 0 16 -15 16 -12 0 -21 5 -21 11 0 5 -4 8 -8 5 -5
-3 -21 6 -37 20 -15 13 -31 24 -35 24 -17 0 -95 87 -92 103 3 12 -3 17 -22 17
-16 0 -32 9 -42 25 -9 14 -24 25 -34 25 -10 0 -22 9 -25 20 -3 11 -12 20 -18
20 -7 0 -24 25 -39 55 l-26 55 24 0 c13 0 24 5 24 10 0 6 12 10 28 10 l27 0
-25 21 c-14 11 -19 18 -12 14 7 -4 12 0 12 10 0 8 -10 20 -22 25 -23 9 -19 12
17 14 11 1 19 7 18 14 -4 16 8 15 34 -3 11 -8 24 -31 28 -52 4 -21 11 -43 17
-50 5 -6 8 -19 6 -29 -2 -9 3 -19 10 -21 7 -3 12 5 12 21 0 16 6 26 14 26 17
0 29 -27 14 -32 -7 -3 -8 -10 -4 -17 5 -8 23 -11 52 -8 42 5 44 4 39 -16 -5
-20 -5 -20 5 -4 9 14 19 16 48 11 62 -11 75 -22 68 -56 -5 -25 -3 -28 12 -24
20 7 36 -3 45 -26 3 -10 13 -18 21 -18 7 0 16 -7 20 -15 3 -8 13 -15 23 -15
28 -1 53 -24 43 -40 -11 -18 -1 -40 16 -33 8 3 14 -1 14 -10 0 -8 16 -22 35
-31 41 -20 52 -35 34 -48 -10 -7 -6 -8 15 -5 22 4 30 0 34 -15 3 -14 11 -18
24 -14 11 2 17 2 14 -1 -5 -6 15 -20 54 -40 8 -4 23 -17 33 -29 10 -13 26 -26
37 -29 11 -4 20 -12 20 -20 0 -12 21 -25 40 -25 4 0 10 11 12 24 4 18 0 26
-15 30 -10 2 -16 9 -13 15 3 5 -6 19 -20 30 -15 12 -25 21 -22 21 3 0 -12 18
-33 40 -21 22 -41 40 -45 40 -13 0 -33 35 -35 60 -1 17 -3 20 -6 8 -6 -24 -16
-22 -28 5 -6 12 -19 22 -30 22 -12 0 -25 10 -32 27 -8 18 -20 28 -33 28 -13 0
-20 7 -20 20 0 11 -6 21 -12 22 -7 0 -18 2 -23 2 -13 2 -55 43 -55 54 0 4 -9
13 -21 20 -11 7 -18 19 -15 27 6 16 -45 45 -81 45 -14 0 -23 6 -23 15 0 15
-57 75 -71 75 -5 0 -9 7 -9 15 0 16 -57 51 -77 47 -7 -2 -13 6 -13 17 0 14
-11 23 -37 32 -41 13 -65 37 -58 57 2 6 0 12 -5 12 -5 0 -12 11 -16 25 -3 14
-16 31 -28 37 -11 6 -27 19 -34 30 -9 13 -26 18 -58 18 -45 0 -53 -7 -33 -27
7 -7 8 -17 3 -25 -5 -7 -9 -35 -10 -63 -3 -91 -2 -89 -20 -74 -13 10 -17 10
-24 -1 -7 -12 -10 -11 -16 3 -4 10 -13 16 -20 13 -12 -5 -41 31 -32 39 15 13
50 25 58 20 6 -4 13 2 17 12 6 16 8 15 14 -7 7 -24 7 -23 8 6 1 26 -4 33 -25
38 -20 5 -23 10 -14 21 9 10 6 15 -10 20 -14 4 -19 12 -16 22 5 12 0 13 -23 8
-17 -3 -39 -1 -51 5 -36 19 -40 7 -14 -44 26 -51 22 -65 -18 -66 -21 0 -28
-20 -16 -43 13 -24 0 -37 -14 -14 -7 14 -13 15 -23 7 -22 -18 -58 6 -50 33 6
20 5 21 -8 5 -19 -23 -27 -23 -27 2 0 11 -7 23 -15 26 -21 8 -19 15 14 50 21
22 28 38 24 53 -6 25 7 27 46 7 25 -13 31 -13 50 0 27 19 27 38 1 31 -11 -3
-18 -1 -14 4 3 5 -2 9 -11 9 -9 0 -23 7 -31 15 -9 8 -12 15 -7 15 4 0 -4 8
-17 17 -14 9 -29 23 -33 30 -4 7 -14 13 -22 13 -8 0 -19 9 -25 20 -6 11 -17
20 -25 20 -7 0 -16 8 -19 18 -3 9 -22 26 -41 36 -21 11 -35 27 -35 38 0 10 -7
18 -17 18 -9 0 -32 5 -50 12 -24 9 -33 18 -33 34 0 27 -30 49 -128 95 -39 19
-75 42 -78 51 -4 14 -9 16 -24 8 -16 -8 -18 -8 -14 5 4 10 0 15 -10 15 -9 0
-16 4 -16 9 0 12 -47 61 -59 61 -5 0 -12 14 -16 30 -4 17 -13 30 -22 30 -21 0
-110 71 -116 93 -3 9 -14 17 -25 17 -21 0 -32 18 -32 51 0 10 -4 19 -9 19 -5
0 -24 12 -41 26 -24 21 -28 29 -18 36 9 7 6 8 -10 5 -27 -6 -62 19 -62 45 0
10 -5 15 -13 12 -7 -2 -19 7 -27 21 -7 14 -19 25 -27 25 -7 0 -13 4 -13 10 0
5 -7 7 -15 4 -9 -4 -15 0 -15 9 0 8 6 18 13 20 7 4 6 6 -5 6 -22 1 -78 49 -78
67 0 8 -7 14 -15 14 -9 0 -19 8 -22 18 -9 21 -41 50 -70 62 -24 10 -31 30 -11
30 6 0 3 9 -7 20 -10 11 -25 19 -33 18 -9 -2 -16 7 -18 26 -4 39 -12 44 -23
15 -10 -24 -10 -24 -10 4 -1 18 -13 40 -36 63 -19 19 -35 38 -35 42 0 5 -12
24 -26 43 -14 19 -30 44 -35 57 -5 12 -13 22 -19 22 -5 0 -10 7 -10 15 0 9 -7
15 -17 13 -12 -2 -19 7 -26 35 -5 21 -15 37 -23 37 -13 0 -19 13 -15 33 1 5
-3 5 -9 2 -11 -7 -60 38 -60 56 0 5 -5 9 -11 9 -5 0 -8 4 -4 9 3 5 1 12 -5 16
-5 3 -10 14 -10 24 0 10 -11 23 -25 29 -14 7 -25 20 -25 31 0 10 -7 22 -16 25
-8 3 -13 10 -9 16 6 9 -6 34 -45 95 -47 74 -50 83 -34 115 16 30 11 55 -8 44
-5 -3 -8 -15 -5 -25 8 -30 -10 -22 -24 10 -10 23 -16 27 -26 19 -20 -16 -17
51 4 74 14 16 14 18 0 18 -11 0 -14 6 -10 23 3 12 3 19 -2 15 -8 -7 -30 10
-34 27 -1 6 -11 13 -22 17 -10 4 -19 14 -19 22 0 8 -8 13 -17 11 -10 -1 -28 1
-40 6 -13 5 -25 4 -28 -2 -4 -5 -11 -7 -16 -3 -5 3 -17 0 -25 -7 -12 -10 -17
-8 -29 7 -8 10 -15 26 -15 35 0 8 -5 20 -11 26 -12 12 -1 66 12 57 5 -3 6 2 3
10 -3 8 -12 17 -21 20 -12 5 -13 9 -3 21 11 13 10 18 -5 29 -11 8 -16 19 -12
30 4 10 3 15 -3 11 -16 -10 -50 14 -50 36 0 11 -6 22 -14 25 -8 3 -16 14 -19
24 -3 12 -11 17 -23 14 -14 -3 -26 8 -46 42 -16 25 -28 49 -28 55 0 5 -6 9
-14 9 -8 0 -19 13 -24 29 -6 17 -19 35 -30 42 -12 7 -17 19 -14 31 2 10 -1 18
-7 18 -7 0 -21 9 -32 19 -19 18 -19 20 -4 29 12 6 14 11 6 16 -6 4 -11 4 -11
-1 0 -4 -10 10 -21 32 -12 22 -26 43 -31 46 -5 3 -10 20 -10 38 -1 17 -5 34
-10 37 -4 3 -8 13 -8 23 0 10 -9 21 -20 24 -13 3 -18 10 -14 21 4 11 1 16 -11
16 -9 0 -19 9 -22 20 -3 11 -14 20 -24 20 -10 0 -21 5 -25 12 -4 7 -3 8 4 4 7
-4 12 -1 12 8 0 10 -9 16 -26 16 -14 0 -23 4 -19 10 4 6 11 8 16 5 13 -9 8 78
-5 87 -6 4 -12 11 -12 15 -4 24 -17 53 -24 53 -4 0 -14 20 -21 45 -7 25 -17
45 -21 45 -3 0 -8 12 -10 28 -2 18 -8 26 -19 24 -15 -2 -24 19 -31 75 -1 7 -7
14 -15 17 -7 3 -13 20 -13 41 0 24 -5 35 -15 35 -8 0 -12 6 -9 14 3 8 -3 23
-13 33 -21 22 -28 49 -14 58 6 3 -3 19 -19 37 -20 21 -28 37 -24 50 3 11 -1
20 -11 24 -11 5 -15 14 -11 29 4 14 0 28 -9 35 -8 7 -15 23 -15 35 0 12 -7 28
-15 35 -9 8 -15 29 -15 56 0 27 -9 61 -25 90 -16 30 -22 51 -16 57 10 10 -13
87 -29 97 -6 4 -13 26 -16 51 -4 24 -10 51 -15 60 -4 9 -5 19 -2 23 4 3 -3 16
-15 29 -13 14 -19 30 -16 43 3 12 -1 26 -10 33 -9 8 -16 22 -16 32 0 11 -4 19
-10 19 -5 0 -10 8 -10 18 0 10 -4 22 -8 28 -14 16 -34 83 -28 93 4 5 2 20 -3
34 -8 20 -16 24 -50 24 -23 0 -41 -3 -41 -8z m246 -806 c7 -10 14 -27 14 -38
0 -11 11 -42 25 -70 13 -27 25 -67 25 -87 0 -20 7 -43 15 -52 8 -8 15 -28 15
-45 0 -16 5 -33 10 -36 6 -3 10 -18 10 -33 0 -15 6 -36 13 -47 8 -11 20 -41
27 -68 7 -26 16 -50 21 -52 15 -10 22 -94 9 -110 -14 -17 -30 -20 -30 -5 0 15
-33 50 -42 44 -4 -3 -12 6 -18 20 -5 14 -14 26 -20 26 -5 0 -10 9 -10 19 0 10
-7 21 -15 25 -8 3 -15 15 -15 26 0 11 -4 20 -10 20 -5 0 -15 19 -22 43 -6 23
-17 51 -24 62 -29 48 -42 293 -18 343 17 37 22 39 40 15z m204 -658 c0 -8 -4
-15 -10 -15 -5 0 -10 7 -10 15 0 8 5 15 10 15 6 0 10 -7 10 -15z m140 -329 c0
-16 7 -27 20 -31 26 -8 61 -45 54 -57 -3 -4 1 -8 10 -8 8 0 20 -17 27 -37 6
-21 20 -49 30 -62 11 -13 19 -34 19 -47 0 -17 6 -24 20 -24 19 0 28 -24 13
-33 -5 -2 -3 -2 4 -1 6 2 15 -10 18 -26 3 -16 13 -30 22 -32 9 -2 21 -21 27
-43 9 -29 17 -41 34 -43 12 -2 22 -10 22 -18 0 -8 4 -14 10 -14 5 0 7 -6 4
-14 -3 -8 0 -17 5 -21 8 -4 6 -16 -6 -36 -13 -22 -22 -27 -38 -23 -11 4 -21
10 -23 15 -2 5 -14 24 -27 44 -14 19 -22 41 -19 48 2 7 -9 23 -26 35 -16 13
-30 29 -30 37 0 24 -52 117 -82 147 -16 15 -28 32 -28 38 0 6 -6 19 -12 30
-11 17 -10 22 2 31 13 9 13 10 0 6 -22 -6 -50 11 -50 31 0 10 -4 22 -9 28 -4
5 -11 30 -15 57 -4 38 -3 47 9 47 9 0 15 -10 15 -24z m-210 -405 c0 -11 11
-28 25 -39 14 -11 25 -25 25 -31 0 -6 7 -11 15 -11 18 0 19 -12 3 -28 -9 -9
-9 -12 3 -12 12 0 12 -2 0 -9 -11 -7 -10 -14 8 -39 11 -17 21 -38 21 -49 1
-55 9 -63 70 -63 50 0 58 -3 63 -21 4 -14 11 -20 21 -16 10 4 17 -3 21 -24 4
-16 13 -29 21 -29 8 0 14 -6 14 -13 0 -26 31 -76 65 -106 20 -18 36 -41 37
-56 2 -17 8 -25 21 -25 10 0 21 -9 24 -20 3 -11 9 -20 14 -20 19 0 59 -45 59
-67 0 -25 10 -29 28 -11 9 9 12 5 12 -19 0 -17 7 -38 15 -47 8 -8 12 -22 9
-30 -3 -9 -1 -16 5 -16 7 0 28 -17 47 -37 96 -102 128 -131 136 -127 12 8 9
-11 -4 -24 -9 -9 -8 -12 5 -12 9 0 17 -7 17 -15 0 -8 5 -15 10 -15 6 0 10 -12
10 -27 0 -26 1 -26 15 -7 11 15 14 16 15 3 0 -8 9 -25 20 -37 14 -15 16 -22 8
-23 -10 0 -10 -2 0 -6 6 -2 12 -20 12 -38 0 -19 5 -37 11 -40 6 -4 8 -13 5
-21 -3 -8 1 -14 9 -14 8 0 15 -8 15 -18 0 -20 35 -62 50 -62 6 0 10 5 10 12 0
19 29 -25 30 -44 0 -16 11 -23 33 -19 4 1 10 -6 13 -14 4 -8 12 -15 20 -15 8
0 14 -5 14 -11 0 -6 -8 -9 -19 -6 -10 2 -26 0 -35 -5 -13 -7 -16 -4 -16 19 -1
24 -2 26 -11 10 -6 -9 -14 -15 -19 -12 -13 8 -24 -15 -12 -27 6 -6 8 -17 5
-26 -4 -9 -2 -13 4 -9 21 13 62 -17 65 -48 2 -20 11 -33 26 -40 12 -5 22 -16
22 -23 0 -7 5 -10 11 -7 6 4 13 -2 16 -14 3 -12 12 -21 19 -21 8 0 14 -6 14
-12 0 -14 43 -58 56 -58 5 0 10 -15 11 -33 3 -40 21 -76 50 -99 14 -12 19 -25
16 -38 -3 -11 0 -20 6 -20 6 0 11 -9 11 -19 0 -11 5 -21 11 -23 8 -3 14 -32
18 -100 1 -15 21 -8 21 7 0 8 6 15 14 15 20 0 29 35 16 60 -9 18 -8 20 15 20
22 0 30 -9 26 -32 0 -5 3 -8 9 -8 13 0 50 -32 50 -43 0 -5 25 -59 55 -120 42
-83 55 -121 55 -154 0 -29 -4 -42 -11 -38 -6 4 -13 -2 -16 -14 -3 -12 -8 -21
-12 -21 -13 0 -4 -50 11 -67 9 -10 15 -29 13 -43 -1 -16 7 -31 22 -43 13 -10
23 -29 23 -42 0 -19 7 -24 40 -30 49 -8 52 -22 5 -31 -29 -5 -33 -9 -24 -20 6
-8 15 -11 20 -8 5 3 14 -16 21 -41 7 -26 21 -51 30 -56 10 -5 18 -18 18 -29 0
-10 7 -25 15 -34 8 -8 15 -19 15 -23 0 -5 13 -27 28 -49 16 -21 35 -54 43 -71
8 -18 17 -33 21 -33 5 0 8 -16 8 -35 0 -22 6 -38 15 -41 8 -3 17 -16 21 -27 4
-12 14 -33 23 -47 9 -14 27 -56 40 -93 30 -92 79 -197 92 -197 6 0 9 -8 8 -17
-4 -29 12 -76 38 -115 14 -20 26 -49 27 -63 0 -14 6 -25 13 -25 7 0 10 -7 7
-15 -4 -10 0 -15 14 -15 16 0 20 -6 20 -29 -1 -15 2 -33 6 -40 9 -14 36 -15
36 -1 0 6 -5 10 -12 10 -6 0 -9 3 -6 6 4 3 16 0 29 -7 21 -11 22 -12 5 -25
-17 -12 -17 -14 -1 -41 9 -16 30 -35 45 -41 27 -12 28 -14 14 -40 -13 -25 -12
-28 7 -44 12 -10 17 -23 13 -29 -4 -8 -3 -9 4 -5 7 4 12 2 12 -3 0 -6 7 -11
15 -11 12 0 13 -4 6 -19 -8 -14 -7 -22 5 -32 8 -7 13 -18 10 -26 -3 -7 -1 -13
4 -13 6 0 10 -5 10 -11 0 -6 11 -20 25 -31 14 -11 25 -26 25 -34 0 -8 8 -14
18 -15 14 0 14 -2 -3 -9 -19 -8 -19 -9 2 -9 16 -1 23 -9 28 -32 4 -17 13 -33
21 -36 9 -3 15 -21 15 -47 1 -22 4 -31 6 -18 2 12 7 22 10 22 12 0 32 -36 33
-57 0 -13 5 -23 11 -23 18 0 60 -50 53 -62 -5 -7 -2 -8 6 -3 10 6 12 4 7 -8
-4 -11 1 -20 13 -27 11 -6 20 -17 20 -26 0 -8 11 -19 23 -23 17 -7 31 -28 47
-71 13 -34 29 -64 36 -67 7 -3 22 -24 34 -48 11 -24 32 -54 45 -67 17 -17 22
-31 18 -46 -4 -18 -8 -20 -19 -11 -8 6 -14 18 -14 25 0 24 -17 15 -24 -11 -4
-14 -15 -34 -26 -45 -19 -19 -23 -19 -48 -6 -16 8 -41 33 -57 55 -15 23 -31
41 -34 41 -11 0 -53 98 -46 109 3 6 -1 11 -9 11 -16 0 -79 58 -107 98 -9 12
-37 45 -64 74 -27 29 -50 60 -50 68 -1 8 -2 25 -3 38 -1 12 -9 22 -17 22 -8 0
-15 8 -15 19 0 10 -9 21 -20 24 -11 3 -20 12 -20 21 0 9 -8 16 -20 16 -11 0
-20 4 -20 10 0 5 7 7 15 4 24 -10 17 14 -7 27 -30 16 -63 49 -71 73 -4 10 -13
16 -21 13 -10 -4 -18 4 -25 24 -7 21 -15 27 -28 23 -17 -5 -17 -5 0 6 23 15
22 30 -2 30 -30 0 -60 32 -63 68 -2 19 -16 46 -32 62 -15 17 -24 35 -20 41 5
9 1 10 -14 7 -27 -7 -50 17 -28 29 12 7 10 12 -14 28 -17 11 -30 28 -30 38 0
11 -4 15 -12 11 -7 -5 -10 -1 -7 12 5 21 -31 62 -49 56 -7 -2 -12 3 -12 12 0
9 -4 16 -9 16 -5 0 -12 11 -15 25 -4 14 -11 25 -16 25 -6 0 -10 6 -10 14 0 8
-6 17 -12 19 -10 4 -10 8 0 15 11 7 11 10 -2 15 -9 4 -16 15 -16 25 0 11 -9
26 -20 33 -12 8 -22 24 -23 36 0 12 -4 20 -7 18 -3 -2 -11 9 -18 24 -7 15 -21
37 -33 49 -11 12 -17 27 -14 33 4 6 -2 13 -14 16 -12 3 -21 11 -21 19 0 7 -7
17 -17 22 -9 6 -14 16 -10 25 4 11 2 14 -9 10 -8 -3 -14 1 -14 9 0 8 -9 24
-20 36 -11 12 -20 26 -20 31 0 5 -10 17 -22 25 -12 9 -19 16 -14 16 5 0 1 9
-8 19 -10 11 -15 24 -12 29 3 5 -8 29 -26 53 -38 53 -65 81 -71 71 -2 -4 -2
-1 0 6 3 15 -20 42 -35 42 -12 0 -24 29 -17 40 3 5 1 11 -5 15 -6 4 -8 11 -4
16 3 5 0 8 -8 7 -7 -2 -17 11 -22 29 -6 18 -18 36 -28 39 -10 3 -18 10 -18 15
0 5 -6 9 -14 9 -9 0 -12 7 -10 18 6 20 -45 102 -63 102 -7 0 -13 7 -13 15 0 8
-4 23 -10 33 -17 29 -33 76 -31 90 1 6 -3 12 -9 12 -14 0 -49 40 -50 57 0 6
-11 20 -24 30 -13 11 -27 34 -31 53 -4 19 -12 41 -17 47 -6 7 -8 20 -4 28 4
10 -1 15 -14 15 -11 0 -20 5 -20 11 0 7 -8 19 -18 28 -26 24 -46 67 -39 85 4
10 1 16 -8 16 -8 0 -15 7 -15 15 0 8 -4 15 -10 15 -5 0 -7 14 -5 30 2 21 -1
30 -11 30 -8 0 -14 7 -14 15 0 11 -7 14 -25 9 -19 -5 -25 -2 -25 11 0 12 6 16
20 12 25 -6 27 11 3 20 -23 9 -33 23 -33 51 0 12 -4 22 -10 22 -5 0 -10 9 -10
20 0 11 -7 20 -15 20 -8 0 -15 7 -15 15 0 8 -4 15 -10 15 -5 0 -10 6 -10 14 0
8 -11 23 -23 33 -14 10 -27 35 -31 56 -4 20 -11 37 -16 37 -6 0 -10 17 -11 38
0 20 -3 31 -6 25 -2 -7 -8 -13 -13 -13 -13 0 -40 59 -40 87 0 14 -6 23 -15 23
-10 0 -15 10 -15 29 0 16 -6 31 -15 35 -8 3 -15 12 -15 21 0 8 -5 15 -11 15
-6 0 -8 9 -4 20 4 11 2 20 -4 20 -6 0 -11 6 -11 13 0 8 -9 24 -20 37 -12 13
-19 29 -16 36 3 7 -2 15 -10 18 -9 3 -13 10 -10 15 4 5 -1 16 -9 24 -8 9 -15
23 -15 31 0 9 -3 16 -8 16 -8 0 -27 42 -36 82 -3 15 -13 33 -21 42 -8 8 -15
21 -15 30 0 8 -5 18 -10 21 -17 10 -49 85 -39 91 5 3 6 17 3 31 -5 19 -2 30
11 39 17 13 17 15 2 32 -9 10 -17 24 -17 31 0 7 -10 32 -21 55 -12 22 -25 49
-30 58 -5 10 -9 24 -9 32 0 8 -3 16 -8 18 -14 6 -72 101 -66 110 3 4 -11 15
-32 24 -29 12 -34 18 -23 25 9 6 10 12 4 17 -12 8 -40 89 -38 110 0 6 -3 12
-7 12 -7 0 -19 45 -26 98 -1 13 -8 30 -14 37 -7 8 -9 19 -5 25 3 5 -1 10 -9
10 -13 0 -16 13 -16 68 0 38 3 72 7 75 14 15 43 7 43 -12z m697 -347 c18 -20
33 -43 33 -51 0 -8 5 -11 10 -8 6 3 10 -1 10 -9 0 -28 23 -67 37 -62 9 4 13
-5 13 -29 0 -31 -3 -35 -25 -35 -17 0 -25 5 -25 18 0 20 -55 84 -64 75 -3 -3
-9 3 -13 13 -3 10 -11 22 -16 25 -11 8 -27 86 -19 94 12 11 27 3 59 -31z m189
-61 c-10 -10 -19 5 -10 18 6 11 8 11 12 0 2 -7 1 -15 -2 -18z m192 -1042 c3
-8 0 -11 -6 -7 -6 3 -12 2 -14 -4 -2 -5 -9 -6 -17 -1 -7 5 -10 14 -6 20 9 15
37 10 43 -8z m316 -516 c-4 -8 -11 -12 -16 -9 -6 4 -5 10 3 15 19 12 19 11 13
-6z m1017 -223 c-15 -4 -33 17 -25 30 3 4 13 0 22 -10 14 -14 15 -18 3 -20z
m-1501 -42 c0 -5 -4 -10 -10 -10 -5 0 -10 5 -10 10 0 6 5 10 10 10 6 0 10 -4
10 -10z m1080 -110 c6 0 17 -15 25 -32 7 -18 23 -43 34 -55 12 -12 21 -29 21
-37 0 -14 38 -42 50 -38 3 1 21 -14 41 -33 20 -19 41 -35 47 -35 5 0 18 -12
28 -27 9 -15 32 -42 51 -59 32 -31 40 -48 26 -57 -5 -2 -2 -2 6 0 21 5 40 -16
47 -53 6 -31 17 -40 47 -35 16 2 66 -64 61 -81 -4 -13 0 -18 15 -18 12 0 21
-4 21 -9 0 -5 9 -12 19 -16 11 -3 23 -15 26 -25 4 -11 12 -17 21 -13 8 3 14
-1 14 -8 1 -20 104 -129 122 -129 9 0 21 -13 27 -28 8 -18 25 -33 46 -41 23
-8 32 -17 28 -26 -3 -9 6 -21 25 -32 17 -10 33 -26 36 -35 2 -10 14 -18 26
-18 13 0 24 -8 27 -20 3 -11 12 -20 19 -20 8 0 14 -6 14 -14 0 -7 11 -21 24
-29 39 -26 55 -47 50 -62 -4 -9 0 -15 10 -15 9 0 16 -4 16 -10 0 -5 8 -10 18
-10 10 0 28 -10 39 -22 31 -34 73 -68 84 -68 5 0 9 -9 9 -20 0 -21 46 -69 66
-70 6 0 17 -11 24 -25 7 -13 17 -22 22 -19 4 3 11 -2 14 -10 3 -9 14 -16 23
-16 16 0 47 -38 43 -52 -1 -5 8 -8 21 -8 15 0 26 -9 35 -30 7 -16 22 -32 34
-36 20 -6 44 -23 79 -56 9 -9 26 -19 38 -23 12 -3 21 -9 21 -13 0 -4 18 -26
40 -50 22 -23 40 -46 40 -50 0 -7 42 -33 60 -37 20 -4 49 -28 47 -38 -1 -7 4
-11 11 -9 6 1 12 -2 12 -8 0 -5 6 -10 13 -10 8 0 27 -13 43 -30 16 -16 32 -30
35 -30 4 0 31 -24 62 -52 69 -65 71 -67 130 -101 26 -15 47 -34 47 -42 0 -8 7
-15 15 -15 9 0 18 -7 22 -16 5 -13 8 -13 15 -2 7 9 8 6 5 -10 -4 -18 -2 -22
13 -17 10 3 24 0 31 -8 8 -7 21 -16 31 -19 9 -4 22 -19 30 -35 8 -16 21 -27
32 -26 12 1 16 -4 12 -14 -5 -11 -2 -13 10 -9 22 9 50 -14 32 -25 -10 -7 -9
-9 4 -9 29 0 103 -51 121 -82 9 -16 21 -27 26 -24 5 4 16 -1 25 -10 9 -8 20
-13 26 -9 15 9 52 -15 46 -31 -3 -9 1 -13 12 -12 39 3 52 -3 58 -27 6 -24 34
-36 34 -14 0 5 -6 7 -12 3 -10 -5 -10 -4 -1 6 12 13 37 4 28 -10 -7 -11 68
-60 90 -60 8 0 28 -19 45 -41 29 -41 66 -67 104 -75 10 -2 19 -5 20 -6 11 -28
30 -47 62 -62 21 -11 45 -28 52 -38 11 -15 17 -16 28 -7 11 9 14 8 14 -6 0
-11 5 -15 16 -11 8 3 12 2 9 -4 -3 -6 4 -15 17 -21 13 -5 39 -19 58 -29 19
-11 43 -19 53 -20 11 0 21 -9 24 -21 4 -16 8 -18 14 -7 7 10 13 8 27 -8 18
-23 56 -39 82 -36 8 1 24 -11 35 -28 11 -16 25 -30 30 -30 6 0 16 -9 23 -21 9
-14 19 -18 33 -14 18 6 89 -30 89 -46 0 -3 15 -11 34 -19 19 -7 36 -21 39 -30
3 -10 23 -22 53 -29 61 -16 61 -16 109 -46 22 -14 46 -28 53 -31 6 -4 12 -12
12 -20 0 -8 9 -15 20 -15 27 -2 29 -3 74 -22 21 -9 42 -17 47 -17 5 0 9 -4 9
-9 0 -5 10 -13 23 -17 12 -4 36 -18 54 -31 18 -14 37 -22 42 -19 5 4 16 -2 23
-11 15 -21 60 -43 87 -43 11 0 21 -6 24 -14 3 -7 21 -16 41 -20 40 -8 126 -53
126 -67 0 -6 7 -6 19 0 21 12 32 5 24 -15 -4 -10 3 -14 25 -14 16 0 35 -7 42
-15 7 -8 20 -15 30 -15 26 0 70 -25 87 -49 8 -12 18 -19 23 -16 5 3 11 1 15
-4 3 -6 12 -8 20 -4 9 3 21 1 28 -5 6 -5 29 -15 50 -21 20 -7 37 -17 37 -22 0
-6 5 -7 10 -4 6 3 10 -1 10 -9 0 -10 9 -16 23 -17 85 -4 102 -9 128 -38 17
-20 29 -27 36 -20 12 12 43 1 43 -16 0 -20 15 -26 86 -40 57 -11 64 -10 64 4
1 14 2 14 10 0 14 -23 90 -61 108 -54 8 3 22 -1 31 -8 16 -15 101 -30 99 -19
-2 22 4 24 18 4 8 -12 21 -22 29 -22 7 0 20 -6 27 -14 8 -7 43 -16 79 -20 141
-14 179 -23 179 -43 0 -10 6 -13 16 -9 8 3 12 2 9 -3 -3 -6 16 -13 42 -16 81
-11 122 -25 118 -38 -8 -20 8 -34 47 -41 32 -6 37 -4 32 9 -3 8 -1 15 5 15 6
0 11 -7 11 -16 0 -10 6 -14 15 -10 9 3 15 0 15 -9 0 -17 16 -20 24 -6 7 10 44
3 63 -12 9 -6 23 -5 43 3 23 10 37 10 55 2 14 -7 25 -8 25 -3 0 5 11 12 25 15
13 3 40 16 60 27 40 24 40 47 -1 85 -12 12 -20 25 -17 28 3 3 -2 8 -11 12 -21
8 -49 59 -57 104 -4 19 -12 60 -18 90 -6 30 -13 96 -16 145 -11 155 -23 237
-38 247 -7 4 -7 11 2 22 10 12 10 19 0 38 -8 15 -13 101 -15 273 -2 137 -6
266 -8 285 -2 19 -5 43 -5 53 -1 11 -6 15 -13 11 -7 -5 -8 -3 -3 5 11 19 15
160 4 166 -5 4 -9 22 -9 41 0 19 -4 34 -9 34 -5 0 -11 19 -14 43 -3 23 -10 61
-17 85 -12 41 -7 69 8 45 4 -6 14 -13 21 -15 22 -5 61 -40 55 -49 -3 -5 9 -6
26 -3 22 5 36 2 50 -11 11 -10 41 -20 68 -23 47 -4 48 -5 44 -35 -4 -24 -2
-29 11 -24 10 4 18 -1 22 -13 7 -21 104 -120 118 -120 4 0 20 -13 35 -28 27
-28 79 -57 96 -53 13 3 46 -30 46 -46 0 -7 6 -13 13 -13 27 0 74 -30 85 -54 7
-16 21 -26 39 -28 20 -2 27 -8 25 -20 -2 -11 6 -20 22 -24 14 -3 28 -13 31
-23 2 -9 23 -24 45 -34 23 -9 39 -21 36 -26 -9 -14 60 -62 78 -55 11 4 16 0
16 -15 0 -14 5 -19 15 -15 9 4 18 -1 22 -12 10 -28 29 -44 51 -44 10 0 24 -11
30 -25 7 -14 23 -30 37 -37 14 -6 25 -16 25 -21 0 -5 9 -7 19 -4 22 5 56 -22
66 -53 3 -11 12 -20 19 -20 7 0 22 -9 34 -20 12 -11 25 -20 30 -20 6 0 13 -10
16 -22 l7 -23 11 25 10 25 8 -27 c13 -44 20 -51 37 -36 12 10 17 9 24 -5 6 -9
16 -17 23 -17 7 0 21 -9 31 -20 10 -11 24 -20 31 -20 17 0 74 -33 74 -43 0 -5
4 -5 10 -2 5 3 15 -6 22 -20 8 -18 17 -25 30 -22 11 3 18 0 18 -9 0 -8 3 -13
8 -13 4 1 14 1 22 0 12 -1 13 -3 1 -10 -10 -6 -1 -11 28 -16 22 -4 41 -11 41
-16 0 -6 5 -7 10 -4 6 4 26 -10 45 -30 34 -34 79 -60 101 -57 5 1 20 -7 32
-18 26 -25 42 -26 42 -2 1 16 1 16 11 0 5 -10 17 -18 24 -18 8 0 15 -7 15 -15
0 -9 12 -18 29 -21 17 -4 31 -14 34 -25 4 -14 14 -19 37 -19 21 0 30 -4 28
-12 -5 -15 38 -52 51 -44 5 3 20 -4 35 -15 18 -14 26 -16 26 -7 1 8 8 4 19 -9
11 -13 29 -23 40 -23 12 0 30 -9 40 -19 11 -11 22 -17 24 -14 3 2 8 -5 12 -17
5 -15 12 -19 25 -15 13 4 20 0 25 -15 4 -13 15 -20 31 -20 13 0 36 -13 52 -30
16 -16 34 -30 39 -30 13 0 54 -21 73 -38 47 -40 64 -52 77 -52 7 0 13 -7 13
-15 0 -8 8 -15 18 -15 11 0 27 -9 37 -20 10 -11 24 -20 31 -20 7 0 18 -14 26
-30 13 -31 51 -42 61 -17 4 7 8 3 12 -10 4 -13 15 -23 25 -23 9 0 29 -11 44
-25 19 -18 34 -23 50 -19 16 4 25 0 30 -11 4 -11 13 -15 26 -12 11 3 26 -1 34
-8 7 -8 25 -17 40 -21 14 -3 26 -12 26 -19 0 -7 7 -18 15 -25 10 -9 15 -9 15
-1 0 19 21 12 72 -25 28 -20 63 -36 79 -36 22 -1 29 -6 29 -22 0 -17 2 -18 10
-6 8 13 11 12 16 -7 3 -12 17 -24 30 -27 13 -4 24 -13 24 -22 0 -16 56 -44 89
-44 10 0 21 -9 24 -20 3 -11 20 -27 39 -35 18 -9 47 -24 63 -35 17 -10 42 -19
56 -19 17 -1 35 -12 50 -31 13 -16 28 -30 33 -30 4 0 23 -12 41 -27 38 -32 88
-68 95 -69 86 -11 150 -31 150 -46 0 -6 7 -8 15 -5 19 8 31 -13 14 -24 -10 -6
-11 -9 -1 -9 7 0 12 -12 12 -29 0 -34 -40 -81 -70 -81 -30 0 -33 -1 -60 -20
-14 -9 -35 -20 -46 -24 -12 -4 -32 -26 -45 -50 -25 -47 -63 -76 -101 -76 l-23
-1 24 -13 c24 -13 24 -14 3 -20 -12 -4 -27 -22 -34 -42 -9 -26 -24 -40 -58
-57 -50 -25 -72 -46 -65 -65 2 -6 -2 -12 -11 -12 -8 0 -17 -7 -20 -15 -4 -8
-12 -15 -20 -15 -7 0 -21 -17 -31 -37 -22 -48 -34 -60 -78 -78 -31 -13 -41
-29 -36 -57 0 -4 -6 -5 -14 -2 -9 4 -15 0 -15 -10 0 -9 -7 -16 -15 -16 -8 0
-20 -9 -27 -20 -7 -11 -19 -20 -25 -20 -7 0 -23 -11 -35 -25 -11 -13 -25 -22
-30 -19 -4 3 -8 -2 -8 -11 0 -8 -7 -18 -16 -22 -8 -3 -13 -12 -10 -20 5 -11 1
-13 -15 -8 -14 5 -19 3 -15 -3 3 -6 -7 -15 -23 -20 -16 -6 -32 -20 -36 -31 -3
-12 -12 -21 -18 -21 -7 0 -6 -4 3 -10 12 -8 10 -10 -10 -10 -18 0 -30 -9 -43
-33 -19 -35 -125 -123 -144 -119 -7 1 -17 -7 -23 -18 -6 -11 -17 -20 -25 -20
-8 0 -15 -6 -15 -14 0 -8 -10 -17 -22 -21 -37 -10 -68 -28 -63 -35 3 -5 -6
-11 -20 -14 -16 -4 -22 -11 -19 -21 4 -9 0 -15 -10 -15 -9 0 -25 -9 -36 -20
-12 -12 -25 -18 -29 -15 -5 2 -11 -3 -13 -13 -6 -21 -77 -58 -104 -53 -7 1
-14 -8 -17 -19 -3 -11 -12 -20 -21 -20 -9 0 -16 -5 -16 -11 0 -5 -4 -8 -9 -4
-6 3 -24 -9 -42 -26 -26 -26 -36 -30 -50 -21 -20 13 -29 6 -29 -20 0 -10 -7
-18 -16 -18 -28 0 -84 -32 -84 -47 0 -11 -7 -14 -27 -10 -15 3 -35 1 -44 -3
-12 -7 -22 -1 -37 20 -12 16 -22 32 -22 35 0 14 47 51 60 47 12 -4 13 -2 3 9
-17 18 -16 29 2 29 8 0 15 6 15 14 0 8 7 16 15 20 8 3 15 13 15 21 0 9 4 14 8
11 5 -3 15 4 22 15 8 10 23 19 33 19 11 0 23 13 33 35 9 22 21 35 32 35 12 0
25 15 36 40 10 22 24 40 31 40 26 0 63 22 76 46 7 13 19 24 27 24 8 0 12 6 9
13 -6 16 31 53 69 67 21 8 25 13 15 19 -10 6 -5 11 18 16 17 3 31 13 31 21 0
8 5 14 11 14 6 0 8 8 4 19 -6 20 21 38 28 18 2 -7 11 3 21 20 9 18 21 33 26
33 5 0 17 14 27 31 10 17 33 37 51 46 17 8 32 22 32 29 0 8 8 14 18 14 14 0
15 2 2 10 -13 8 -12 10 3 10 9 0 17 5 17 11 0 5 14 15 30 20 18 7 30 18 30 29
0 21 60 89 60 69 1 -9 8 -5 20 10 11 13 20 18 20 12 0 -6 5 -11 11 -11 6 0 9
7 5 15 -3 9 0 15 8 15 7 0 26 14 42 31 65 69 110 109 124 110 10 0 11 2 3 6
-17 6 2 43 22 43 8 0 21 13 30 30 9 17 24 30 35 30 10 0 27 11 38 25 11 14 27
25 36 25 9 0 25 9 36 20 11 11 24 20 29 20 17 0 70 63 76 91 4 16 13 29 21 29
8 0 17 7 20 15 4 10 13 13 25 10 31 -10 63 71 34 87 -8 5 -15 15 -15 23 0 8
-5 17 -11 21 -8 5 -10 -1 -7 -20 4 -21 -1 -30 -27 -46 -18 -11 -38 -20 -45
-20 -14 0 -50 -38 -50 -51 0 -5 -20 -18 -45 -30 -25 -12 -45 -25 -45 -30 0 -5
-6 -9 -14 -9 -8 0 -23 -20 -35 -45 -12 -25 -27 -45 -34 -45 -7 0 -18 -9 -25
-20 -7 -11 -21 -20 -32 -20 -11 0 -20 -4 -20 -8 0 -4 -14 -13 -30 -19 -20 -8
-28 -16 -24 -26 8 -23 -17 -33 -29 -12 -9 16 -12 13 -27 -25 -11 -27 -24 -44
-36 -46 -10 -2 -26 -12 -34 -24 -36 -50 -87 -97 -113 -104 -17 -4 -27 -13 -27
-25 0 -9 -11 -24 -25 -31 -14 -7 -25 -20 -25 -27 0 -7 -7 -16 -15 -19 -8 -4
-15 -12 -15 -20 0 -8 -6 -11 -14 -8 -24 9 -75 -28 -88 -63 -10 -27 -17 -33
-43 -34 -16 0 -24 -3 -17 -6 9 -4 7 -10 -7 -22 -12 -10 -18 -21 -14 -25 3 -3
-1 -6 -10 -6 -10 0 -17 -7 -17 -15 0 -8 -6 -15 -14 -15 -7 0 -19 -7 -26 -15
-7 -8 -20 -15 -29 -15 -22 0 -54 -35 -70 -76 -9 -24 -17 -30 -32 -27 -13 4
-19 0 -19 -11 0 -9 -11 -21 -25 -26 -13 -5 -30 -18 -37 -30 -7 -11 -21 -20
-30 -20 -11 0 -15 -5 -12 -15 5 -11 -1 -15 -19 -15 -27 0 -71 -45 -61 -61 3
-5 -3 -12 -13 -16 -10 -3 -22 -12 -26 -20 -4 -7 -15 -13 -22 -13 -8 0 -15 -9
-15 -20 0 -11 -6 -20 -13 -20 -7 0 -19 -10 -27 -21 -26 -38 -44 -53 -48 -40
-2 6 -8 11 -14 11 -5 0 -7 -9 -3 -20 4 -14 -4 -29 -29 -55 -19 -19 -40 -35
-45 -35 -6 0 -15 -9 -21 -21 -9 -15 -15 -18 -25 -9 -10 8 -15 4 -24 -21 -6
-17 -20 -33 -31 -36 -11 -3 -20 -11 -20 -18 0 -16 -60 -78 -68 -71 -8 9 -43
-15 -39 -27 2 -6 -5 -19 -15 -29 -10 -10 -16 -23 -13 -28 4 -6 -5 -14 -19 -20
-14 -5 -26 -14 -26 -20 0 -5 -6 -9 -12 -8 -7 2 -12 -3 -10 -9 1 -7 -2 -13 -8
-13 -5 0 -10 -7 -10 -15 0 -8 -7 -15 -15 -15 -16 0 -95 -76 -95 -91 0 -6 -8
-9 -17 -7 -13 2 -19 -5 -21 -24 -2 -16 -8 -28 -13 -28 -10 0 -28 -13 -59 -44
-11 -11 -20 -16 -20 -12 0 5 -7 3 -15 -4 -8 -7 -12 -16 -9 -21 3 -5 -2 -9 -10
-9 -9 0 -16 5 -16 11 0 5 -11 -1 -24 -15 -13 -15 -31 -26 -40 -26 -9 0 -16 -4
-16 -10 0 -5 -18 -15 -40 -21 -22 -7 -40 -16 -40 -21 0 -5 -13 -7 -29 -3 -23
5 -29 2 -34 -14 -3 -12 -13 -21 -22 -21 -9 0 -13 -5 -10 -10 6 -10 -8 -13 -49
-13 -24 1 -41 -16 -41 -41 0 -14 -12 -22 -44 -32 -25 -7 -48 -11 -53 -8 -4 3
-8 0 -8 -7 0 -21 -32 -49 -56 -49 -13 0 -26 -4 -29 -10 -3 -5 -15 -10 -25 -10
-11 0 -17 -5 -15 -13 8 -19 -33 -41 -51 -26 -10 8 -14 8 -14 0 0 -6 -7 -11
-16 -11 -12 0 -15 -6 -11 -21 5 -18 2 -20 -24 -14 -17 4 -29 2 -29 -3 0 -18
-32 -43 -46 -38 -8 3 -13 0 -11 -6 1 -6 -7 -16 -18 -22 -11 -6 -27 -15 -35
-21 -8 -5 -17 -10 -20 -11 -3 0 -13 -4 -23 -8 -10 -5 -23 -3 -32 4 -13 11 -15
8 -15 -14 0 -15 -4 -25 -9 -21 -6 3 -15 -3 -20 -14 -15 -27 -65 -31 -102 -9
-16 10 -27 22 -24 27 3 5 1 13 -5 16 -17 11 -11 203 7 220 13 13 13 15 -1 15
-13 0 -15 13 -11 77 2 42 9 90 16 106 10 23 10 30 -1 37 -7 4 -12 19 -12 34 0
14 -5 26 -10 26 -5 0 -7 4 -3 9 7 13 29 228 25 261 -1 14 -3 68 -5 120 -6 190
-8 225 -17 243 -11 21 -43 23 -34 2 3 -9 0 -15 -9 -15 -8 0 -15 5 -15 10 0 6
-5 10 -11 10 -6 0 -9 -6 -6 -13 3 -8 -5 -14 -24 -15 -23 -2 -32 3 -41 23 -9
20 -17 25 -32 21 -12 -3 -29 -6 -38 -6 -10 0 -18 -6 -18 -14 0 -7 -14 -16 -30
-20 -31 -6 -61 14 -68 45 -2 8 -13 34 -25 59 -11 25 -21 52 -22 60 -1 8 -3 20
-5 25 -2 6 -4 15 -4 20 -1 6 -7 20 -14 31 -6 12 -14 43 -16 69 -5 50 13 88 62
128 15 12 21 25 17 37 -3 11 0 20 7 23 7 2 5 3 -5 1 -12 -2 -17 2 -13 11 3 9
0 12 -10 8 -7 -3 -14 0 -14 6 0 6 -19 11 -44 11 -25 0 -47 4 -51 9 -3 5 -19 9
-35 9 -32 -1 -53 12 -32 19 6 3 12 9 12 14 0 5 -6 9 -12 9 -7 0 -22 15 -33 33
-28 46 -30 51 -12 44 22 -8 30 8 12 23 -20 16 -19 30 1 30 21 0 13 23 -10 26
-27 4 -31 13 -10 21 10 3 22 11 26 17 12 17 9 56 -3 56 -6 0 -3 7 5 16 14 14
14 17 1 30 -16 16 -60 10 -50 -6 3 -5 -1 -25 -9 -43 -12 -30 -17 -34 -42 -29
-16 3 -31 8 -34 12 -3 4 -19 11 -37 14 -29 7 -33 5 -39 -21 -4 -15 -16 -36
-26 -47 -13 -12 -18 -26 -14 -41 3 -12 2 -25 -2 -29 -4 -4 -7 -11 -8 -14 -3
-29 -20 -70 -36 -86 -10 -11 -18 -25 -18 -32 0 -36 -80 -18 -123 27 -11 11
-32 19 -52 19 -19 0 -37 5 -40 11 -4 6 -13 8 -21 5 -8 -3 -14 -1 -14 4 0 6 -9
10 -20 10 -13 0 -18 -5 -14 -15 8 -19 -7 -19 -32 0 -10 8 -27 15 -36 15 -9 0
-28 10 -42 23 -20 19 -35 23 -70 21 -29 -2 -49 2 -57 12 -6 8 -27 14 -45 14
-18 0 -48 8 -66 18 -37 21 -78 33 -125 37 -34 3 -72 34 -65 53 2 7 -4 12 -13
12 -12 0 -15 -5 -11 -17 6 -15 5 -15 -13 1 -13 12 -27 15 -41 11 -16 -5 -23
-2 -27 14 -6 22 -19 28 -25 11 -4 -14 -48 0 -48 15 0 17 -78 55 -99 48 -9 -3
-22 -13 -28 -21 -12 -14 -13 -14 -13 0 0 21 -22 28 -35 12 -13 -16 -94 -22
-103 -7 -4 6 -26 16 -50 22 -23 7 -57 20 -75 30 -17 10 -48 22 -68 25 -25 4
-38 13 -42 26 -3 11 -10 20 -17 20 -6 0 -8 -5 -5 -11 4 -6 -2 -5 -14 3 -26 16
-27 25 -3 31 13 4 11 5 -5 6 -13 0 -23 -3 -23 -9 0 -14 -27 -13 -36 2 -4 7 -3
8 4 4 7 -4 12 -4 12 -1 0 9 -71 37 -78 31 -3 -3 0 -6 6 -6 7 0 12 -4 12 -10 0
-5 -4 -10 -10 -10 -12 0 -60 48 -60 61 0 5 -13 7 -30 4 -21 -4 -30 -1 -30 8 0
10 -9 13 -27 11 -27 -3 -27 -2 -8 13 20 15 20 15 -2 8 -14 -4 -23 -2 -23 4 0
6 -7 11 -15 11 -8 0 -15 6 -15 14 0 15 -45 30 -61 21 -5 -4 -12 1 -15 9 -3 9
-12 16 -20 16 -7 0 -29 8 -48 17 -28 14 -34 22 -29 38 5 16 3 18 -8 9 -8 -6
-30 -14 -51 -18 -31 -6 -39 -3 -56 19 -11 14 -25 25 -31 25 -6 0 -8 7 -5 15 7
18 -28 33 -74 30 -23 -1 -31 2 -28 11 5 14 -12 24 -31 16 -7 -2 -13 -10 -13
-18 0 -8 -7 -14 -16 -14 -14 0 -14 3 -4 15 15 18 13 20 -19 30 -16 5 -21 4
-17 -4 4 -6 0 -11 -8 -11 -9 0 -16 5 -16 10 0 6 -16 10 -35 10 -21 0 -43 8
-54 19 -11 11 -27 18 -38 18 -13 -2 -19 6 -21 31 -2 20 1 32 9 32 8 0 8 4 -1
15 -7 9 -29 15 -52 15 -35 0 -39 2 -33 20 4 11 2 20 -4 20 -6 0 -8 6 -6 13 3
7 -5 12 -22 13 -46 3 -62 9 -93 36 -17 15 -30 24 -30 21 0 -3 -6 0 -13 6 -8 6
-17 8 -20 4 -4 -3 -7 -1 -7 5 0 8 -7 9 -26 2 -25 -10 -26 -9 -22 15 6 27 -14
45 -49 45 -10 0 -30 6 -45 14 -15 8 -40 17 -57 21 -17 4 -31 11 -31 16 0 6 -8
9 -17 7 -13 -2 -21 7 -28 30 -6 23 -15 32 -30 32 -11 0 -31 7 -43 16 -12 8
-27 12 -32 9 -6 -3 -13 0 -16 8 -3 9 -17 18 -31 22 -16 4 -23 11 -19 20 3 8 1
17 -4 20 -6 4 -10 1 -10 -6 0 -10 -3 -10 -12 -1 -16 16 -31 15 -23 0 4 -7 -1
-4 -10 7 -9 11 -20 19 -24 18 -4 -1 -20 9 -36 23 -15 13 -31 24 -35 24 -5 0
-11 11 -14 25 -5 18 -13 25 -30 25 -18 0 -27 8 -35 30 -5 17 -17 30 -25 30 -8
0 -35 27 -60 59 -37 49 -42 61 -28 64 9 3 4 5 -12 6 -16 0 -27 4 -23 7 10 10
-14 64 -29 64 -8 0 -14 4 -14 9 0 5 -11 12 -25 15 -15 4 -25 14 -25 24 0 18
-23 42 -59 62 -13 6 -21 21 -21 35 0 14 -4 25 -10 25 -24 0 -52 112 -35 139 5
10 4 16 -3 19 -7 2 -12 8 -12 13 0 6 4 8 9 5 5 -3 11 1 15 9 3 9 0 15 -9 15
-8 0 -15 5 -15 11 0 6 -6 9 -12 7 -7 -3 -25 15 -41 38 -25 39 -47 56 -72 58
-5 1 -10 6 -10 13 0 7 -21 35 -47 62 -27 28 -48 55 -48 61 0 5 -7 10 -15 10
-15 0 -24 14 -29 43 -1 8 -14 25 -29 39 -15 14 -24 28 -20 31 3 4 -6 11 -21
17 -14 5 -25 13 -24 17 4 22 -15 61 -28 56 -8 -3 -15 1 -16 8 -3 30 -4 35 -15
53 -6 12 -17 17 -26 13 -9 -3 -21 1 -27 9 -8 9 -9 14 -2 14 6 0 10 9 9 21 -1
13 -7 19 -18 16 -12 -3 -21 9 -34 46 -14 39 -20 47 -25 32 -8 -24 0 -66 11
-59 5 3 9 1 9 -5 0 -5 -4 -13 -10 -16 -5 -3 -10 -14 -9 -23 0 -11 3 -12 6 -4
8 21 23 13 21 -13 -1 -14 -6 -25 -10 -25 -4 0 -5 -6 -2 -14 7 -17 -16 -33 -25
-18 -4 6 -26 14 -49 18 -33 5 -42 11 -42 27 0 20 -43 67 -61 67 -5 0 -9 9 -9
19 0 10 -7 22 -16 25 -8 3 -13 10 -9 15 3 5 -5 11 -17 13 -14 2 -22 9 -20 19
1 8 -7 25 -18 37 -12 12 -16 22 -11 22 5 0 11 15 13 32 3 35 21 44 64 34 17
-5 24 -13 24 -30 0 -14 11 -33 25 -44 13 -11 21 -22 18 -26 -3 -3 1 -6 11 -6
9 0 22 -11 28 -25 6 -14 20 -25 30 -25 11 0 17 4 13 9 -3 5 -1 12 4 15 14 9 1
46 -16 46 -8 0 -17 9 -20 20 -3 11 -9 20 -14 20 -5 0 -9 7 -9 16 0 8 -5 12
-10 9 -6 -4 -9 -3 -8 2 1 4 -1 23 -5 41 -5 27 -11 33 -29 30 -18 -2 -24 3 -26
22 -2 14 -15 39 -28 57 -13 17 -24 36 -24 42 0 6 -7 11 -15 11 -9 0 -19 8 -22
17 -4 10 -17 27 -30 39 -13 12 -23 30 -23 41 0 31 -31 87 -40 73 -5 -8 -10 -1
-15 19 -4 18 -15 37 -26 44 -10 6 -19 17 -19 24 0 7 -5 13 -11 13 -5 0 -7 5
-4 10 3 6 -1 10 -10 10 -14 0 -16 6 -10 27 5 23 4 25 -8 14 -18 -14 -32 1 -23
25 3 8 -1 17 -9 20 -8 4 -15 10 -15 16 0 15 -27 38 -44 38 -11 0 -16 9 -16 30
0 22 -5 30 -17 31 -15 0 -15 2 2 9 18 8 19 9 1 9 -12 1 -16 6 -12 16 3 8 1 15
-4 15 -6 0 -10 -5 -10 -11 0 -5 -4 -7 -10 -4 -5 3 -10 16 -10 28 0 13 -9 29
-20 37 -21 15 -27 40 -10 40 6 0 10 5 10 11 0 5 -8 9 -17 8 -34 -3 -41 1 -36
21 4 14 0 20 -12 20 -10 0 -15 5 -12 13 3 7 -8 28 -24 47 -16 18 -29 38 -29
45 0 18 -40 66 -53 63 -7 -1 -22 2 -34 6 -21 7 -22 9 -9 33 11 23 11 30 -3 55
-9 15 -19 28 -23 28 -5 0 -8 7 -8 16 0 8 -16 22 -35 30 -24 9 -33 19 -29 29 5
11 -1 15 -18 15 -20 0 -26 7 -35 41 -6 23 -9 59 -7 80 3 23 1 39 -6 39 -5 0
-10 7 -10 15 0 8 -5 15 -11 15 -5 0 -7 5 -4 10 3 6 -1 10 -9 10 -14 0 -20 12
-17 33 0 4 -4 7 -9 7 -6 0 -10 -8 -10 -17 -1 -17 -1 -17 -11 -1 -5 10 -9 26
-7 35 2 12 -3 17 -14 15 -14 -2 -18 4 -18 25 0 21 -3 24 -10 13 -14 -22 -24
12 -17 61 4 31 1 41 -13 49 -10 5 -23 23 -28 40 -6 16 -16 30 -21 30 -6 0 -11
7 -11 15 0 8 -5 15 -11 15 -6 0 -9 7 -5 15 3 8 -1 18 -9 23 -13 7 -18 28 -24
90 0 6 -7 12 -15 12 -8 0 -18 10 -22 23 -4 12 -12 26 -18 30 -8 6 -8 10 1 14
8 3 2 16 -20 37 -41 43 -49 53 -70 99 -10 20 -22 37 -27 37 -5 0 -7 7 -3 16 4
10 -1 22 -12 30 -15 11 -16 16 -5 29 12 14 11 18 -1 26 -8 5 -18 9 -24 9 -5 0
-3 -5 5 -10 9 -6 10 -10 3 -10 -18 0 -26 19 -30 73 -3 30 -12 57 -23 70 -11
11 -17 24 -14 29 3 5 -2 16 -12 24 -13 11 -15 17 -7 20 9 4 9 13 2 31 -5 13
-7 29 -3 34 3 5 1 9 -4 9 -10 0 -9 57 2 68 4 4 14 -2 22 -12 8 -11 14 -17 14
-13 0 5 6 2 14 -5 8 -7 12 -16 10 -20 -3 -4 6 -14 20 -23 13 -9 29 -30 35 -46
5 -16 17 -32 25 -35 8 -3 18 -19 21 -35 4 -16 12 -32 19 -36 7 -5 19 -18 25
-31 7 -14 18 -21 26 -18 8 3 12 0 9 -8 -3 -7 7 -29 21 -50 14 -20 25 -42 26
-49 0 -9 2 -9 6 1 9 23 25 12 20 -14 -3 -18 -1 -24 9 -20 17 6 29 -10 44 -60
12 -41 59 -82 80 -69 6 3 10 -4 10 -17 0 -14 12 -33 30 -48 17 -14 30 -33 30
-42 0 -10 10 -20 25 -24 14 -3 25 -13 25 -20 0 -8 16 -30 36 -48 51 -49 50
-48 83 -83 16 -17 31 -37 33 -45 4 -11 8 -11 21 1 18 14 17 15 21 -39 1 -9 11
-15 26 -15 19 0 26 6 28 24 4 23 3 23 -13 8 -20 -21 -26 -21 -19 -2 4 8 1 15
-6 15 -6 0 -8 5 -5 10 3 6 3 19 0 31 -6 17 -9 18 -23 7 -13 -11 -15 -10 -10
10 5 17 2 22 -13 22 -12 0 -19 7 -19 20 0 10 -6 23 -14 27 -8 4 -16 19 -18 33
-1 14 -13 29 -25 35 -13 5 -23 13 -23 18 0 14 -52 77 -59 73 -10 -6 -24 5 -38
31 -19 33 -16 53 5 47 12 -4 14 -3 4 4 -7 5 -24 7 -37 5 -17 -4 -25 1 -30 19
-11 33 -55 88 -71 88 -8 0 -11 6 -8 15 7 17 -20 48 -31 37 -5 -4 -1 4 8 18 21
31 22 50 1 24 -8 -10 -13 -13 -9 -6 3 6 0 15 -8 18 -9 3 -14 16 -12 32 2 18
-8 42 -30 72 -18 25 -36 59 -39 75 -4 19 -19 38 -41 53 -23 14 -35 30 -35 45
0 22 -31 57 -51 57 -5 0 -8 4 -5 9 3 5 -1 11 -9 15 -8 3 -15 13 -15 22 0 9
-12 30 -26 47 -17 20 -24 37 -20 51 3 12 6 29 6 39 0 15 5 14 40 -8 22 -14 44
-25 50 -25z m550 10 c0 -5 -2 -10 -4 -10 -3 0 -8 5 -11 10 -3 6 -1 10 4 10 6
0 11 -4 11 -10z m-905 -30 c3 -5 1 -10 -4 -10 -6 0 -11 5 -11 10 0 6 2 10 4
10 3 0 8 -4 11 -10z m925 0 c0 -5 -7 -10 -15 -10 -8 0 -15 5 -15 10 0 6 7 10
15 10 8 0 15 -4 15 -10z m-920 -62 c0 -4 -7 -8 -15 -8 -8 0 -15 4 -15 8 0 5 7
9 15 9 8 0 15 -4 15 -9z m40 -18 c0 -5 -4 -10 -10 -10 -5 0 -10 5 -10 10 0 6
5 10 10 10 6 0 10 -4 10 -10z m415 -30 c3 -5 1 -10 -4 -10 -6 0 -11 5 -11 10
0 6 2 10 4 10 3 0 8 -4 11 -10z m-450 -10 c3 -5 1 -10 -4 -10 -6 0 -11 5 -11
10 0 6 2 10 4 10 3 0 8 -4 11 -10z m1263 -132 c-5 -15 -48 -24 -48 -10 0 14
12 22 33 22 10 0 17 -5 15 -12z m31 -45 c1 -25 -9 -29 -26 -12 -8 8 -8 19 0
40 10 25 13 27 19 12 3 -10 7 -28 7 -40z m-106 32 c-3 -9 -8 -14 -10 -11 -3 3
-2 9 2 15 9 16 15 13 8 -4z m137 -75 c0 -5 -4 -10 -10 -10 -5 0 -10 5 -10 10
0 6 5 10 10 10 6 0 10 -4 10 -10z m-30 -6 c0 -8 -32 -33 -42 -34 -10 0 24 38
35 39 4 1 7 -2 7 -5z m-30 -64 c0 -5 -4 -10 -10 -10 -5 0 -10 5 -10 10 0 6 5
10 10 10 6 0 10 -4 10 -10z m257 -25 c0 -8 -4 -12 -9 -9 -4 3 -8 9 -8 15 0 5
4 9 8 9 5 0 9 -7 9 -15z m238 -85 c3 -5 1 -10 -4 -10 -6 0 -11 5 -11 10 0 6 2
10 4 10 3 0 8 -4 11 -10z m-1015 -280 c0 -5 -4 -10 -10 -10 -5 0 -10 5 -10 10
0 6 5 10 10 10 6 0 10 -4 10 -10z m-936 -51 c-18 -20 -18 -21 -1 -34 9 -7 15
-19 12 -27 -4 -10 1 -17 14 -21 18 -4 38 -35 39 -60 0 -5 12 -24 27 -43 14
-19 23 -39 20 -44 -3 -6 -2 -10 2 -10 5 0 14 -9 21 -20 10 -17 10 -20 -3 -20
-8 0 -24 9 -35 20 -11 11 -26 20 -32 20 -10 0 -10 2 0 8 9 6 5 12 -15 23 -16
8 -33 20 -39 28 -6 8 -15 11 -21 8 -6 -4 -8 3 -6 17 3 13 0 27 -6 30 -5 4 -8
13 -4 21 3 8 1 15 -5 15 -5 0 -13 12 -16 26 -5 17 -12 24 -21 20 -14 -5 -16
-1 -19 37 -1 6 5 11 12 10 6 -2 12 2 12 7 0 6 19 10 42 10 41 0 41 0 22 -21z
m111 -289 c3 -5 1 -10 -4 -10 -6 0 -11 5 -11 10 0 6 2 10 4 10 3 0 8 -4 11
-10z m785 -226 c0 -2 -9 -4 -20 -4 -11 0 -20 4 -20 9 0 5 9 7 20 4 11 -3 20
-7 20 -9z m-375 -94 c3 -5 1 -10 -4 -10 -6 0 -11 5 -11 10 0 6 2 10 4 10 3 0
8 -4 11 -10z m-10 -39 c3 -5 1 -12 -5 -16 -5 -3 -10 1 -10 9 0 18 6 21 15 7z
m-68 -163 c-3 -8 -6 -5 -6 6 -1 11 2 17 5 13 3 -3 4 -12 1 -19z m303 -128 c0
-5 -8 -10 -17 -10 -15 0 -16 2 -3 10 19 12 20 12 20 0z m6070 -170 c0 -14 6
-20 17 -18 15 2 18 -5 20 -41 2 -24 7 -49 12 -55 6 -7 10 -21 9 -31 0 -11 3
-29 7 -40 5 -15 4 -16 -3 -6 -6 8 -17 11 -26 8 -8 -3 -23 1 -32 11 -13 12 -19
13 -22 4 -7 -23 -22 -12 -22 18 0 19 -9 38 -27 55 -15 14 -24 26 -20 26 4 1
12 3 17 4 6 1 15 3 20 4 6 0 10 12 10 26 0 25 17 54 33 55 4 0 7 -9 7 -20z
m-6100 -10 c0 -5 -5 -10 -11 -10 -5 0 -7 5 -4 10 3 6 8 10 11 10 2 0 4 -4 4
-10z m2975 -90 c56 -25 87 -49 80 -60 -3 -5 8 -14 25 -22 31 -13 42 -48 15
-48 -8 0 -15 5 -15 10 0 6 -15 10 -33 10 -23 0 -40 9 -61 30 -16 17 -31 29
-33 26 -3 -3 -12 1 -19 9 -8 7 -19 15 -25 17 -8 3 -9 15 -4 37 4 19 10 29 14
24 3 -6 29 -21 56 -33z m-2935 10 c0 -5 -2 -10 -4 -10 -3 0 -8 5 -11 10 -3 6
-1 10 4 10 6 0 11 -4 11 -10z m6297 -92 c7 19 18 15 63 -23 23 -19 36 -35 29
-35 -8 0 -3 -7 10 -16 13 -9 30 -32 37 -51 8 -19 21 -36 29 -40 20 -7 19 -33
0 -33 -8 0 -15 5 -15 11 0 5 -3 8 -7 6 -5 -3 -25 -8 -45 -11 -33 -5 -38 -3
-38 13 0 14 -5 18 -19 14 -13 -3 -23 2 -31 17 -9 17 -14 19 -26 9 -15 -12 -29
-6 -29 14 0 7 -15 20 -34 29 -40 20 -48 58 -19 85 15 13 20 14 33 3 14 -11 17
-10 22 10 6 22 7 22 21 4 10 -13 16 -15 19 -6z m-6197 -54 c0 -8 -5 -12 -10
-9 -6 4 -8 11 -5 16 9 14 15 11 15 -7z m3055 -33 c-3 -5 -1 -12 5 -16 13 -8
13 -25 0 -25 -12 0 -50 32 -50 42 0 5 12 8 26 8 14 0 23 -4 19 -9z m3275 -125
c0 -2 -7 -6 -15 -10 -8 -3 -15 -1 -15 4 0 6 7 10 15 10 8 0 15 -2 15 -4z
m-5709 -129 c-13 -13 -26 -3 -16 12 3 6 11 8 17 5 6 -4 6 -10 -1 -17z m53 -43
c8 -22 8 -24 -8 -24 -18 0 -29 16 -21 30 9 15 22 12 29 -6z m10 -59 c3 -8 1
-15 -4 -15 -6 0 -10 7 -10 15 0 8 2 15 4 15 2 0 6 -7 10 -15z m2346 -126 c0
-5 -9 -9 -20 -9 -19 0 -26 11 -14 23 8 8 34 -3 34 -14z m140 -63 c0 -8 -4 -17
-9 -21 -12 -7 -24 12 -16 25 9 15 25 12 25 -4z m-2445 -93 c19 -9 35 -21 35
-27 0 -6 5 -4 10 4 8 13 10 13 10 -2 0 -9 10 -24 23 -33 12 -8 21 -18 20 -20
-7 -13 -1 -23 22 -33 14 -6 25 -18 25 -26 0 -8 15 -32 34 -52 19 -21 38 -49
41 -63 4 -14 14 -31 23 -38 15 -12 13 -13 -13 -7 -16 3 -41 15 -55 25 -14 11
-35 23 -47 29 -25 10 -22 36 5 43 10 2 4 3 -12 1 -21 -3 -35 3 -52 21 -13 15
-24 30 -24 35 0 5 -9 12 -20 15 -11 3 -20 12 -20 20 0 7 -6 20 -14 27 -21 21
-44 72 -39 86 6 15 5 15 48 -5z m335 -23 c0 -5 -4 -10 -10 -10 -5 0 -10 5 -10
10 0 6 5 10 10 10 6 0 10 -4 10 -10z m6730 -220 c0 -5 -4 -10 -10 -10 -5 0
-10 5 -10 10 0 6 5 10 10 10 6 0 10 -4 10 -10z m-7230 -14 c0 -9 7 -12 20 -9
11 3 20 1 20 -5 0 -6 21 -20 46 -31 25 -12 63 -37 83 -56 20 -20 46 -38 59
-41 12 -4 22 -10 22 -15 0 -12 52 -64 71 -71 9 -4 19 -21 22 -38 5 -23 15 -35
37 -43 30 -12 40 -27 18 -27 -8 -1 -6 -6 5 -14 9 -7 17 -18 17 -24 0 -6 8 -16
18 -22 12 -8 13 -13 5 -16 -7 -3 -13 -12 -13 -20 0 -24 -66 -9 -94 20 -21 24
-24 25 -31 9 -6 -14 -12 -5 -25 37 -13 40 -23 55 -36 56 -11 1 -24 2 -29 3 -6
0 -17 17 -24 37 -7 19 -23 40 -35 45 -12 6 -26 20 -31 32 -6 12 -20 23 -32 25
-13 2 -23 11 -23 20 -1 21 -23 52 -39 52 -6 0 -11 5 -11 11 0 12 -25 39 -37
39 -4 0 -9 14 -10 30 -2 21 2 30 12 30 8 0 15 -6 15 -14z m117 -212 c-3 -3
-12 -4 -19 -1 -8 3 -5 6 6 6 11 1 17 -2 13 -5z m7303 -4 c0 -5 -4 -10 -10 -10
-5 0 -10 5 -10 10 0 6 5 10 10 10 6 0 10 -4 10 -10z m85 -40 c-3 -5 -11 -10
-16 -10 -6 0 -7 5 -4 10 3 6 11 10 16 10 6 0 7 -4 4 -10z m5 -30 c0 -5 -2 -10
-4 -10 -3 0 -8 5 -11 10 -3 6 -1 10 4 10 6 0 11 -4 11 -10z m117 -42 c6 -7 13
-22 16 -33 7 -19 6 -19 -7 -2 -7 9 -20 17 -29 17 -18 0 -30 14 -20 24 10 10
30 7 40 -6z m101 -58 c6 0 12 -7 12 -15 0 -19 -26 -20 -34 0 -3 8 -12 12 -21
9 -8 -4 -15 -1 -15 6 0 8 8 10 23 6 12 -3 28 -6 35 -6z m-7219 -85 c13 -19 28
-35 34 -35 5 0 4 -7 -3 -15 -16 -19 -47 -19 -66 0 -11 10 -13 25 -8 50 3 19 9
35 13 35 3 0 17 -16 30 -35z m7276 25 c-3 -5 -10 -10 -16 -10 -5 0 -9 5 -9 10
0 6 7 10 16 10 8 0 12 -4 9 -10z m-7315 -280 c0 -5 -2 -10 -4 -10 -3 0 -8 5
-11 10 -3 6 -1 10 4 10 6 0 11 -4 11 -10z m8483 -290 c-6 -24 -23 -37 -23 -18
0 12 18 38 26 38 1 0 0 -9 -3 -20z m-229 -35 c-4 -10 0 -15 14 -15 12 0 24 -4
27 -10 3 -5 0 -7 -8 -4 -8 3 -18 1 -22 -5 -10 -17 -23 -13 -35 9 -12 23 -6 40
15 40 9 0 12 -6 9 -15z m210 -21 c9 -3 16 -12 16 -20 0 -8 8 -13 18 -12 53 4
79 -3 91 -25 11 -22 17 -23 54 -16 23 4 44 5 46 3 2 -2 -1 -4 -7 -4 -27 0 -9
-17 19 -18 17 0 36 -5 43 -11 7 -6 15 -8 18 -5 3 3 8 -7 12 -21 4 -14 11 -25
17 -25 13 0 39 -25 39 -37 0 -5 15 -16 33 -24 20 -9 33 -22 35 -36 2 -13 11
-23 20 -24 9 0 4 -5 -13 -10 -37 -11 -87 -3 -64 11 9 6 -2 7 -31 4 -24 -3 -41
-2 -37 2 12 12 -14 34 -39 34 -13 0 -24 5 -24 10 0 6 -6 10 -14 10 -8 0 -21 8
-28 18 -7 11 -19 21 -27 24 -8 2 -19 22 -26 44 -8 30 -16 39 -33 40 -12 1 -22
-5 -22 -12 0 -8 -4 -14 -10 -14 -5 0 -10 7 -10 15 0 8 -4 15 -9 15 -5 0 -8 8
-7 17 1 12 -8 18 -28 20 -34 2 -88 53 -57 53 5 0 16 -3 25 -6z m-129 -34 c3
-5 -3 -10 -15 -10 -12 0 -18 5 -15 10 3 6 10 10 15 10 5 0 12 -4 15 -10z m493
-61 c-2 -6 -8 -10 -13 -10 -5 0 -11 4 -13 10 -2 6 4 11 13 11 9 0 15 -5 13
-11z m998 -374 c9 -8 12 -15 7 -16 -4 0 10 -6 32 -14 28 -9 33 -13 18 -14 -17
-1 -25 -10 -33 -42 -12 -44 -29 -66 -71 -93 -26 -16 -28 -16 -53 7 -14 13 -22
28 -17 33 5 5 16 30 26 56 9 26 24 49 32 52 11 4 11 10 3 26 -9 18 -8 20 15
20 15 0 33 -7 41 -15z m-8516 -129 c0 -3 -4 -8 -10 -11 -5 -3 -10 -1 -10 4 0
6 5 11 10 11 6 0 10 -2 10 -4z m7907 -153 c-3 -10 -5 -4 -5 12 0 17 2 24 5 18
2 -7 2 -21 0 -30z m-750 -249 c-3 -3 -12 -4 -19 -1 -8 3 -5 6 6 6 11 1 17 -2
13 -5z m-3649 -315 c-2 -6 -8 -10 -13 -10 -5 0 -11 4 -13 10 -2 6 4 11 13 11
9 0 15 -5 13 -11z m4182 -129 c0 -5 -4 -10 -10 -10 -5 0 -10 5 -10 10 0 6 5
10 10 10 6 0 10 -4 10 -10z m-4330 -50 c0 -5 -7 -10 -15 -10 -8 0 -15 5 -15
10 0 6 7 10 15 10 8 0 15 -4 15 -10z m70 -20 c0 -5 -4 -10 -10 -10 -5 0 -10 5
-10 10 0 6 5 10 10 10 6 0 10 -4 10 -10z m3090 -40 c0 -5 -2 -10 -4 -10 -3 0
-8 5 -11 10 -3 6 -1 10 4 10 6 0 11 -4 11 -10z m-4152 -32 c8 -8 15 -8 26 2
13 10 17 9 22 -4 3 -9 14 -16 24 -16 10 0 20 -7 24 -15 3 -10 19 -15 45 -15
40 0 90 -17 103 -34 3 -5 4 -16 1 -23 -4 -11 1 -14 18 -12 24 4 59 -15 73 -39
6 -10 1 -12 -23 -9 -27 5 -30 3 -27 -16 2 -14 11 -23 24 -25 12 -2 22 -8 22
-13 0 -6 7 -17 15 -25 34 -34 9 -58 -29 -29 -11 8 -29 12 -43 9 -14 -4 -33 0
-49 10 -14 10 -43 18 -64 19 -22 1 -40 4 -40 8 0 6 -27 18 -55 24 -64 15 -77
20 -82 31 -3 8 -13 14 -22 14 -28 0 -45 18 -47 47 0 15 -2 43 -2 61 -1 22 -6
31 -14 26 -7 -4 -8 -3 -4 5 4 6 11 9 16 6 5 -3 12 0 15 6 4 5 13 8 21 5 8 -3
14 -1 14 4 0 14 24 12 38 -2z m822 -12 c0 -3 -4 -8 -10 -11 -5 -3 -10 -1 -10
4 0 6 5 11 10 11 6 0 10 -2 10 -4z m-324 -150 c6 -10 15 -11 24 -6 9 5 19 5
27 -1 7 -6 17 -8 23 -4 5 3 10 2 10 -3 0 -4 16 -16 35 -25 31 -15 35 -15 35
-2 0 13 6 11 29 -6 17 -12 27 -28 24 -35 -3 -8 1 -14 11 -14 10 0 13 -6 10
-15 -9 -21 -21 -18 -27 7 -5 16 -9 19 -19 10 -21 -17 -100 -3 -105 19 -3 11
-11 15 -21 12 -12 -5 -14 -2 -9 11 6 16 3 18 -24 14 -20 -3 -33 0 -36 9 -3 8
-13 11 -27 8 -17 -5 -18 -4 -6 4 13 10 13 11 0 12 -8 1 -19 1 -24 0 -17 -4
-37 9 -31 19 9 14 88 3 101 -14z m4854 20 c0 -2 -7 -6 -15 -10 -8 -3 -15 -1
-15 4 0 6 7 10 15 10 8 0 15 -2 15 -4z m-406 -117 c-6 -11 -24 -2 -24 11 0 5
7 7 15 4 8 -4 12 -10 9 -15z m-4519 -19 c-3 -5 -13 -6 -21 -3 -12 4 -13 8 -3
14 15 9 32 2 24 -11z m604 -86 c5 -5 -30 -44 -39 -44 -10 0 -18 32 -12 48 3
11 37 8 51 -4z m54 -31 c-7 -2 -19 -2 -25 0 -7 3 -2 5 12 5 14 0 19 -2 13 -5z
m554 -304 c6 -20 7 -42 3 -48 -4 -7 -4 -32 0 -56 4 -25 4 -66 0 -92 -4 -27 -4
-56 1 -65 13 -25 -1 -81 -25 -100 -29 -24 -41 -22 -54 8 -7 14 -17 22 -22 19
-6 -3 -10 3 -10 14 0 12 -4 21 -9 21 -16 0 3 175 20 186 5 3 9 18 9 35 0 16 5
29 11 29 8 0 8 4 0 14 -13 15 -3 41 29 76 19 20 32 8 47 -41z m1839 -32 c4 -3
3 -14 -1 -24 -5 -10 -9 -24 -11 -31 -4 -20 -25 -42 -39 -42 -7 0 -16 -7 -19
-16 -4 -9 -13 -14 -21 -10 -9 3 -18 -1 -21 -9 -4 -8 -19 -15 -34 -15 -16 0
-32 -5 -36 -11 -4 -7 -15 -2 -30 15 -27 28 -30 37 -11 34 7 -2 11 6 9 20 -2
12 2 22 7 22 6 0 11 -7 11 -17 0 -19 10 -12 14 9 1 8 14 27 29 43 15 17 27 34
27 39 0 9 116 4 126 -7z m60 -201 c19 -19 18 -56 -1 -56 -8 0 -15 -7 -15 -16
0 -16 -37 -53 -54 -54 -5 0 -19 -11 -32 -25 -13 -14 -26 -25 -29 -25 -3 0 -27
-20 -53 -45 -26 -25 -52 -45 -59 -45 -7 0 -22 -9 -33 -20 -12 -12 -32 -19 -53
-18 -39 1 -86 -28 -87 -54 0 -10 -5 -18 -11 -18 -20 0 -38 -28 -41 -66 -2 -29
-9 -42 -26 -49 -12 -5 -24 -17 -27 -26 -3 -8 -21 -22 -41 -29 -20 -8 -40 -23
-46 -33 -5 -10 -15 -16 -23 -14 -8 4 -12 -3 -12 -19 0 -32 -11 -43 -23 -24 -8
12 -10 12 -10 -3 0 -11 -9 -21 -20 -24 -10 -3 -22 -14 -25 -24 -4 -10 -13 -19
-21 -19 -8 0 -14 -7 -14 -15 0 -8 -5 -15 -10 -15 -6 0 -22 -11 -36 -25 -14
-14 -30 -25 -37 -25 -7 -1 -21 -13 -32 -27 -39 -51 -119 -123 -136 -123 -4 0
-9 -9 -12 -20 -3 -13 -14 -20 -30 -20 -14 0 -27 -7 -30 -14 -4 -11 -1 -13 11
-9 14 6 15 5 2 -9 -8 -9 -18 -14 -21 -12 -4 2 -9 -10 -13 -26 -4 -21 -11 -30
-26 -30 -16 0 -20 -7 -20 -30 0 -28 -2 -30 -34 -25 -28 3 -36 0 -41 -15 -3
-11 -11 -19 -18 -17 -7 1 -10 -12 -8 -38 3 -35 1 -38 -13 -26 -14 12 -16 11
-16 -8 0 -28 -20 -26 -47 3 -28 29 -28 32 -2 39 13 4 18 10 13 18 -4 7 1 18
12 26 14 10 16 16 7 21 -8 5 -2 12 18 21 16 7 29 19 29 27 0 8 7 14 15 14 8 0
15 6 15 14 0 8 5 16 12 18 7 3 13 21 15 42 1 25 9 43 23 53 23 17 27 43 5 43
-8 0 -15 6 -15 13 0 8 -3 8 -8 1 -4 -6 -14 -13 -24 -17 -9 -3 -22 -22 -29 -41
-7 -20 -20 -36 -29 -36 -14 0 -40 -42 -40 -65 0 -7 -11 -18 -25 -25 -29 -16
-33 -30 -7 -31 14 0 14 -2 -3 -8 -11 -5 -26 -6 -34 -3 -8 3 -12 1 -8 -5 9 -14
-3 -73 -14 -73 -14 0 -59 -47 -59 -62 0 -9 -16 -28 -35 -42 -19 -15 -35 -36
-35 -46 0 -13 -9 -22 -27 -26 -15 -4 -35 -17 -45 -28 -10 -12 -17 -16 -18 -8
0 10 -5 10 -22 1 -13 -7 -26 -17 -30 -23 -4 -6 -10 -7 -15 -3 -4 5 -1 12 7 17
12 8 12 11 -1 27 -31 39 -51 86 -55 133 -4 42 0 57 21 87 14 21 25 41 25 46 0
14 28 37 44 37 9 0 16 4 16 9 0 5 9 11 19 14 11 2 32 23 48 45 20 29 33 39 46
36 9 -3 17 -1 17 5 0 6 14 11 30 11 23 0 30 4 30 20 0 11 5 20 10 20 6 0 10 5
10 11 0 17 41 50 52 43 11 -7 48 29 48 46 0 5 7 10 15 10 8 0 15 4 15 9 0 5
11 12 24 15 13 3 26 15 29 27 3 12 10 18 16 14 6 -3 11 -2 11 3 0 14 33 20 59
11 21 -8 22 -13 16 -51 -4 -24 -14 -48 -23 -54 -22 -16 -9 -41 20 -38 12 1 31
3 40 3 10 1 20 12 24 26 3 14 15 30 25 36 11 5 19 19 19 31 0 16 5 19 25 16
29 -6 33 6 8 21 -16 9 -16 10 3 11 18 0 39 25 34 39 -1 2 2 7 7 10 4 3 17 22
27 42 10 19 28 40 40 45 14 6 21 18 21 36 -1 15 4 26 10 25 5 -1 9 4 8 11 -2
6 6 12 17 12 11 0 20 7 20 15 0 8 5 15 11 15 6 0 24 12 39 28 58 56 66 61 79
53 8 -5 24 -3 40 5 14 8 32 14 40 14 8 0 22 7 31 15 12 11 24 12 48 6 25 -8
32 -7 32 5 0 8 -9 14 -19 14 -27 0 -34 15 -26 57 5 27 9 33 15 23 5 -9 5 -17
-1 -21 -7 -4 -4 -9 5 -12 12 -5 16 0 17 21 1 15 1 33 0 40 -2 15 11 16 27 0 9
-9 12 -9 12 1 0 16 29 45 37 38 10 -11 63 23 63 41 0 14 2 15 10 2 7 -12 12
-12 22 -2 6 6 20 12 30 12 10 0 27 9 38 20 11 11 33 20 49 20 28 0 61 22 61
40 0 5 6 7 13 4 7 -2 22 4 32 16 10 11 28 20 40 20 13 0 25 7 29 15 7 19 14
19 32 1z m-176 -76 c0 -5 -2 -10 -4 -10 -3 0 -8 5 -11 10 -3 6 -1 10 4 10 6 0
11 -4 11 -10z m-1720 -90 c0 -5 -6 -10 -12 -11 -7 0 -21 -2 -31 -4 -15 -3 -16
-1 -6 11 13 16 49 19 49 4z m1350 -130 c0 -5 -4 -10 -10 -10 -5 0 -10 5 -10
10 0 6 5 10 10 10 6 0 10 -4 10 -10z m170 -329 c0 -6 -4 -13 -10 -16 -5 -3
-10 1 -10 9 0 9 5 16 10 16 6 0 10 -4 10 -9z m-1075 -309 c-3 -3 -11 0 -18 7
-9 10 -8 11 6 5 10 -3 15 -9 12 -12z m115 -232 c0 -5 -5 -10 -11 -10 -5 0 -7
5 -4 10 3 6 8 10 11 10 2 0 4 -4 4 -10z m361 -53 c-1 -12 -15 -9 -19 4 -3 6 1
10 8 8 6 -3 11 -8 11 -12z m49 3 c0 -5 -7 -7 -15 -4 -8 4 -15 8 -15 10 0 2 7
4 15 4 8 0 15 -4 15 -10z"/>
<path d="M2105 10770 c-3 -5 -1 -10 4 -10 6 0 11 5 11 10 0 6 -2 10 -4 10 -3
0 -8 -4 -11 -10z"/>
<path d="M2332 10480 c0 -14 2 -19 5 -12 2 6 2 18 0 25 -3 6 -5 1 -5 -13z"/>
<path d="M2356 10475 c-3 -9 0 -15 9 -15 16 0 20 16 6 24 -5 3 -11 -1 -15 -9z"/>
<path d="M2845 9770 c-10 -17 4 -65 26 -89 17 -18 18 -25 8 -37 -10 -12 -9
-18 4 -31 8 -9 23 -13 31 -10 18 7 13 46 -11 83 -7 11 -10 24 -6 29 5 4 2 5
-6 0 -11 -6 -13 -2 -7 18 5 20 2 29 -13 37 -14 7 -22 7 -26 0z"/>
<path d="M2938 9643 c7 -3 16 -2 19 1 4 3 -2 6 -13 5 -11 0 -14 -3 -6 -6z"/>
<path d="M2963 9573 c-16 -6 -17 -33 -2 -33 15 0 39 26 32 34 -7 7 -12 7 -30
-1z"/>
<path d="M2962 9481 c1 -32 5 -41 16 -36 10 4 12 0 8 -12 -5 -12 -4 -15 3 -8
7 7 6 22 -3 47 -18 54 -26 57 -24 9z"/>
<path d="M3915 7330 c3 -5 11 -10 16 -10 6 0 7 5 4 10 -3 6 -11 10 -16 10 -6
0 -7 -4 -4 -10z"/>
<path d="M4230 7450 c0 -5 5 -10 10 -10 6 0 10 5 10 10 0 6 -4 10 -10 10 -5 0
-10 -4 -10 -10z"/>
<path d="M4831 6481 c-11 -7 -10 -11 4 -18 9 -5 16 -14 15 -19 -1 -5 3 -10 8
-12 10 -3 4 46 -7 52 -4 3 -13 1 -20 -3z"/>
<path d="M5554 5699 c-3 -6 -1 -16 5 -22 8 -8 11 -5 11 11 0 24 -5 28 -16 11z"/>
<path d="M5633 5662 c-9 -15 -6 -23 13 -41 14 -13 28 -21 32 -17 3 4 0 11 -8
16 -8 6 -10 10 -4 10 16 0 35 -25 26 -36 -4 -4 1 -2 11 5 37 29 18 47 -43 42
-20 -1 -22 1 -10 8 10 7 12 13 5 20 -7 7 -14 5 -22 -7z"/>
<path d="M5710 5580 c0 -5 5 -10 10 -10 6 0 10 5 10 10 0 6 -4 10 -10 10 -5 0
-10 -4 -10 -10z"/>
<path d="M5802 5519 c2 -7 10 -15 17 -17 8 -3 12 1 9 9 -2 7 -10 15 -17 17 -8
3 -12 -1 -9 -9z"/>
<path d="M5967 5443 c-16 -15 -7 -35 13 -30 15 4 20 0 20 -13 0 -10 -5 -20
-10 -22 -6 -2 -1 -14 12 -27 15 -17 23 -20 26 -11 3 9 10 5 23 -11 14 -18 21
-21 30 -12 9 9 6 14 -9 24 -16 10 -20 20 -15 37 4 18 2 23 -8 20 -8 -3 -13
-11 -11 -17 3 -17 -15 -13 -22 4 -3 8 -1 15 4 15 6 0 10 5 10 10 0 6 -5 10
-12 10 -6 0 -19 7 -28 15 -9 8 -20 12 -23 8z"/>
<path d="M5908 5423 c7 -3 16 -2 19 1 4 3 -2 6 -13 5 -11 0 -14 -3 -6 -6z"/>
<path d="M6148 5292 c-4 -12 -2 -25 4 -28 16 -10 22 4 11 28 l-10 22 -5 -22z"/>
<path d="M6180 5286 c0 -8 9 -12 23 -11 32 4 33 4 17 15 -22 14 -40 12 -40 -4z"/>
<path d="M6250 5200 c0 -5 5 -10 10 -10 6 0 10 5 10 10 0 6 -4 10 -10 10 -5 0
-10 -4 -10 -10z"/>
<path d="M6365 5150 c-3 -5 1 -10 9 -10 9 0 16 5 16 10 0 6 -4 10 -9 10 -6 0
-13 -4 -16 -10z"/>
<path d="M6475 5081 c-3 -5 -1 -12 5 -16 5 -3 10 1 10 9 0 18 -6 21 -15 7z"/>
<path d="M6715 4950 c3 -5 8 -10 11 -10 2 0 4 5 4 10 0 6 -5 10 -11 10 -5 0
-7 -4 -4 -10z"/>
<path d="M6670 4940 c0 -5 7 -10 16 -10 8 0 12 5 9 10 -3 6 -10 10 -16 10 -5
0 -9 -4 -9 -10z"/>
<path d="M13115 4930 c-3 -5 1 -10 9 -10 9 0 16 5 16 10 0 6 -4 10 -9 10 -6 0
-13 -4 -16 -10z"/>
<path d="M6685 4901 c-3 -5 -1 -12 5 -16 5 -3 10 1 10 9 0 18 -6 21 -15 7z"/>
<path d="M13165 4860 c-3 -5 1 -10 10 -10 9 0 13 5 10 10 -3 6 -8 10 -10 10
-2 0 -7 -4 -10 -10z"/>
<path d="M7198 4643 c-10 -2 -18 -8 -18 -13 0 -9 51 -20 63 -13 8 5 -11 34
-22 32 -3 -1 -14 -3 -23 -6z"/>
<path d="M6845 4570 c-4 -6 3 -10 14 -10 25 0 27 6 6 13 -8 4 -17 2 -20 -3z"/>
<path d="M6925 4571 c-3 -5 -1 -12 5 -16 5 -3 10 1 10 9 0 18 -6 21 -15 7z"/>
<path d="M7768 4293 c7 -3 16 -2 19 1 4 3 -2 6 -13 5 -11 0 -14 -3 -6 -6z"/>
<path d="M9550 4239 c0 -5 -7 -9 -16 -9 -8 0 -12 -5 -9 -11 4 -6 0 -16 -9 -22
-17 -13 -44 -103 -33 -113 3 -4 13 -1 21 5 11 9 16 9 21 0 4 -6 1 -15 -6 -20
-11 -7 -10 -9 4 -9 10 0 25 7 33 15 21 21 34 19 34 -5 0 -11 3 -21 8 -21 38
-7 50 -5 45 7 -3 8 -11 14 -18 14 -13 0 -13 13 -1 115 2 17 -1 37 -7 45 -13
16 -67 23 -67 9z"/>
<path d="M8696 3491 c-3 -5 1 -11 9 -15 8 -3 15 -1 15 4 0 13 -18 22 -24 11z"/>
<path d="M755 13560 c-3 -5 -1 -10 4 -10 6 0 11 5 11 10 0 6 -2 10 -4 10 -3 0
-8 -4 -11 -10z"/>
<path d="M2295 11580 c3 -5 8 -10 11 -10 2 0 4 5 4 10 0 6 -5 10 -11 10 -5 0
-7 -4 -4 -10z"/>
<path d="M2357 11553 c-12 -12 -7 -49 9 -69 8 -10 13 -14 10 -8 -3 6 -6 27 -8
47 -1 21 -3 37 -3 37 -1 0 -5 -3 -8 -7z"/>
<path d="M2710 11110 c0 -5 7 -10 15 -10 8 0 15 5 15 10 0 6 -7 10 -15 10 -8
0 -15 -4 -15 -10z"/>
<path d="M2780 11050 c0 -5 5 -10 10 -10 6 0 10 5 10 10 0 6 -4 10 -10 10 -5
0 -10 -4 -10 -10z"/>
<path d="M2937 10919 c7 -7 15 -10 18 -7 3 3 -2 9 -12 12 -14 6 -15 5 -6 -5z"/>
<path d="M2960 10890 c0 -13 11 -13 30 0 12 8 11 10 -7 10 -13 0 -23 -4 -23
-10z"/>
<path d="M3021 10824 c0 -11 3 -14 6 -6 3 7 2 16 -1 19 -3 4 -6 -2 -5 -13z"/>
<path d="M3021 10764 c0 -11 3 -14 6 -6 3 7 2 16 -1 19 -3 4 -6 -2 -5 -13z"/>
<path d="M3067 10736 c-3 -8 -2 -18 3 -21 13 -8 24 15 12 27 -6 6 -11 4 -15
-6z"/>
<path d="M3130 10710 c0 -5 5 -10 10 -10 6 0 10 5 10 10 0 6 -4 10 -10 10 -5
0 -10 -4 -10 -10z"/>
<path d="M3200 10619 c0 -5 5 -7 10 -4 6 3 10 8 10 11 0 2 -4 4 -10 4 -5 0
-10 -5 -10 -11z"/>
<path d="M3315 10520 c-3 -5 -1 -10 4 -10 6 0 11 5 11 10 0 6 -2 10 -4 10 -3
0 -8 -4 -11 -10z"/>
<path d="M3310 10475 c0 -15 4 -24 10 -20 6 3 10 12 10 20 0 8 -4 17 -10 20
-6 4 -10 -5 -10 -20z"/>
<path d="M3340 10450 c0 -5 5 -10 10 -10 6 0 10 5 10 10 0 6 -4 10 -10 10 -5
0 -10 -4 -10 -10z"/>
<path d="M3462 10383 c2 -9 13 -18 25 -19 22 -4 22 -3 6 16 -21 24 -36 26 -31
3z"/>
<path d="M3504 10325 c-3 -8 6 -36 22 -62 15 -26 29 -42 32 -35 2 6 10 12 19
12 9 0 12 -6 8 -19 -3 -10 1 -24 10 -31 8 -7 15 -19 15 -26 0 -8 5 -14 10 -14
12 0 13 17 1 24 -4 3 -11 31 -14 63 -4 39 -12 61 -24 70 -10 7 -23 17 -30 23
-18 15 -43 12 -49 -5z"/>
<path d="M3636 10211 c-4 -7 -5 -15 -2 -18 9 -9 19 4 14 18 -4 11 -6 11 -12 0z"/>
<path d="M3660 10160 c0 -19 3 -21 12 -12 9 9 9 15 0 24 -9 9 -12 7 -12 -12z"/>
<path d="M3738 10113 c-11 -3 -18 -14 -18 -29 0 -19 5 -24 25 -24 14 0 25 -4
25 -10 0 -5 -5 -10 -11 -10 -5 0 -7 -4 -4 -10 3 -5 12 -10 19 -10 14 0 16 67
3 88 -8 12 -10 13 -39 5z"/>
<path d="M3847 10013 c-9 -14 17 -83 31 -83 12 0 20 21 15 38 -3 6 -11 12 -18
12 -8 0 -15 10 -17 23 -2 14 -6 18 -11 10z"/>
<path d="M3807 10004 c-8 -8 1 -24 14 -24 5 0 9 7 9 15 0 15 -12 20 -23 9z"/>
<path d="M3903 9934 c-8 -22 5 -30 23 -12 14 14 14 16 -1 21 -9 4 -18 1 -22
-9z"/>
<path d="M3950 9926 c0 -2 7 -6 15 -10 8 -3 15 -1 15 4 0 6 -7 10 -15 10 -8 0
-15 -2 -15 -4z"/>
<path d="M3963 9849 c-2 -31 13 -40 20 -11 4 14 5 15 6 1 1 -15 40 -34 49 -24
7 7 -14 28 -45 47 -28 16 -28 16 -30 -13z"/>
<path d="M4050 9810 c0 -5 5 -10 11 -10 5 0 7 5 4 10 -3 6 -8 10 -11 10 -2 0
-4 -4 -4 -10z"/>
<path d="M4050 9760 c0 -5 7 -10 15 -10 8 0 15 5 15 10 0 6 -7 10 -15 10 -8 0
-15 -4 -15 -10z"/>
<path d="M4126 9675 c7 -17 20 -20 28 -6 3 5 -1 12 -10 15 -22 9 -24 8 -18 -9z"/>
<path d="M4155 9651 c-3 -6 1 -11 9 -11 8 0 20 -9 26 -20 15 -28 28 -25 22 5
-2 14 -8 25 -12 25 -5 0 -15 3 -23 6 -8 3 -18 1 -22 -5z"/>
<path d="M4227 9644 c-9 -10 2 -24 18 -24 9 0 12 6 9 15 -6 16 -17 19 -27 9z"/>
<path d="M4234 9584 c3 -9 6 -22 6 -29 0 -17 30 -24 51 -12 14 9 13 12 -6 33
-26 28 -61 33 -51 8z"/>
<path d="M4307 9528 c-18 -19 -18 -20 2 -25 12 -3 17 -11 14 -19 -3 -8 3 -17
13 -21 24 -9 53 -43 54 -62 0 -11 5 -10 20 4 20 18 20 17 20 -8 0 -30 14 -36
24 -11 10 25 7 32 -14 39 -11 4 -18 11 -15 16 4 5 -1 9 -9 9 -9 0 -18 11 -22
24 -4 16 -15 26 -34 29 -23 5 -27 10 -23 27 7 25 -6 25 -30 -2z"/>
<path d="M4282 9480 c0 -14 2 -19 5 -12 2 6 2 18 0 25 -3 6 -5 1 -5 -13z"/>
<path d="M4490 9373 c0 -15 -2 -16 -10 -3 -6 9 -10 10 -10 3 0 -6 7 -19 16
-28 9 -8 13 -23 10 -31 -4 -12 -2 -15 9 -10 8 3 15 1 15 -4 0 -6 7 -10 15 -10
22 0 18 17 -5 23 -15 4 -20 14 -20 41 0 20 -4 36 -10 36 -5 0 -10 -8 -10 -17z"/>
<path d="M4574 9241 c4 -6 14 -11 22 -11 8 0 14 -8 14 -19 0 -22 25 -45 40
-36 6 3 10 -3 10 -14 0 -12 5 -22 10 -22 6 -1 16 -2 23 -3 6 0 13 -11 15 -23
5 -35 20 -27 18 10 -2 20 -7 31 -15 29 -7 -1 -11 3 -9 10 5 15 -43 58 -65 58
-8 0 -17 4 -19 9 -1 4 -14 12 -27 16 -16 5 -21 4 -17 -4z"/>
<path d="M4754 9108 c0 -22 6 -22 31 -4 17 12 17 13 -6 18 -19 3 -25 0 -25
-14z"/>
<path d="M4450 9031 c0 -5 7 -11 15 -15 8 -3 14 -11 13 -18 -2 -6 5 -14 15
-16 20 -4 24 27 5 46 -14 14 -48 16 -48 3z"/>
<path d="M4880 8731 c0 -18 18 -21 30 -6 10 13 9 15 -9 15 -11 0 -21 -4 -21
-9z"/>
<path d="M2451 8664 c0 -11 3 -14 6 -6 3 7 2 16 -1 19 -3 4 -6 -2 -5 -13z"/>
<path d="M5091 8597 c2 -1 13 -9 24 -17 19 -14 19 -14 6 3 -7 9 -18 17 -24 17
-6 0 -8 -1 -6 -3z"/>
<path d="M5140 8590 c0 -5 5 -10 11 -10 5 0 7 5 4 10 -3 6 -8 10 -11 10 -2 0
-4 -4 -4 -10z"/>
<path d="M5270 8480 c0 -5 5 -10 11 -10 5 0 7 5 4 10 -3 6 -8 10 -11 10 -2 0
-4 -4 -4 -10z"/>
<path d="M5645 8320 c3 -5 8 -10 11 -10 2 0 4 5 4 10 0 6 -5 10 -11 10 -5 0
-7 -4 -4 -10z"/>
<path d="M5782 8128 c3 -7 13 -15 24 -17 16 -3 17 -1 5 13 -16 19 -34 21 -29
4z"/>
<path d="M5832 8089 c1 -13 8 -23 13 -21 15 3 12 35 -3 40 -9 3 -13 -3 -10
-19z"/>
<path d="M5880 8070 c0 -11 4 -20 9 -20 5 0 7 9 4 20 -3 11 -7 20 -9 20 -2 0
-4 -9 -4 -20z"/>
<path d="M5963 8003 c-18 -7 -16 -42 4 -61 16 -16 16 -16 11 6 -5 19 -4 21 7
12 8 -6 11 -18 8 -26 -3 -8 0 -14 6 -14 6 0 11 3 11 8 0 4 3 17 6 30 5 16 2
22 -9 22 -9 0 -20 6 -24 14 -4 7 -14 11 -20 9z"/>
<path d="M5990 7900 c0 -5 5 -10 10 -10 6 0 10 5 10 10 0 6 -4 10 -10 10 -5 0
-10 -4 -10 -10z"/>
<path d="M6103 7860 c-27 -11 -30 -28 -5 -37 9 -4 22 -12 27 -19 6 -6 20 -14
33 -17 36 -9 29 32 -9 45 -19 7 -28 15 -25 24 3 8 4 14 3 13 -1 0 -12 -4 -24
-9z"/>
<path d="M6200 7756 c0 -2 7 -7 16 -10 8 -3 12 -2 9 4 -6 10 -25 14 -25 6z"/>
<path d="M7688 6993 c7 -3 16 -2 19 1 4 3 -2 6 -13 5 -11 0 -14 -3 -6 -6z"/>
<path d="M7688 6933 c7 -3 16 -2 19 1 4 3 -2 6 -13 5 -11 0 -14 -3 -6 -6z"/>
<path d="M7750 6929 c0 -5 5 -7 10 -4 6 3 10 8 10 11 0 2 -4 4 -10 4 -5 0 -10
-5 -10 -11z"/>
<path d="M11068 6673 c7 -3 16 -2 19 1 4 3 -2 6 -13 5 -11 0 -14 -3 -6 -6z"/>
<path d="M8451 6584 c0 -11 3 -14 6 -6 3 7 2 16 -1 19 -3 4 -6 -2 -5 -13z"/>
<path d="M8564 6125 c-7 -18 14 -47 27 -39 5 3 9 14 9 26 0 17 -2 18 -15 8
-13 -11 -14 -10 -9 4 3 9 3 16 0 16 -4 0 -9 -7 -12 -15z"/>
<path d="M12790 5620 c0 -3 10 -11 21 -19 17 -10 23 -10 29 0 5 6 15 9 24 6 9
-4 16 -2 16 2 0 5 -20 11 -45 13 -25 2 -45 1 -45 -2z"/>
<path d="M12930 5575 c0 -8 5 -15 10 -15 6 0 10 7 10 15 0 8 -4 15 -10 15 -5
0 -10 -7 -10 -15z"/>
<path d="M12980 5546 c0 -10 7 -15 20 -13 21 3 40 17 22 17 -5 0 -17 3 -26 6
-11 4 -16 1 -16 -10z"/>
<path d="M12835 5453 c1 -15 3 -34 3 -40 3 -19 52 -16 52 3 0 8 -4 13 -9 9 -5
-3 -11 7 -13 22 -4 39 -36 44 -33 6z"/>
<path d="M12760 5380 c0 -5 5 -10 10 -10 6 0 10 5 10 10 0 6 -4 10 -10 10 -5
0 -10 -4 -10 -10z"/>
<path d="M5300 5174 c0 -8 5 -12 10 -9 6 4 8 11 5 16 -9 14 -15 11 -15 -7z"/>
<path d="M6300 4461 c0 -18 18 -21 30 -6 10 13 9 15 -9 15 -11 0 -21 -4 -21
-9z"/>
<path d="M6565 4261 c-3 -5 -1 -12 5 -16 12 -7 30 2 30 16 0 12 -27 12 -35 0z"/>
<path d="M6885 4230 c4 -6 11 -8 16 -5 14 9 11 15 -7 15 -8 0 -12 -5 -9 -10z"/>
<path d="M14764 4225 c-16 -13 -17 -16 -4 -24 8 -5 20 -10 25 -11 6 -1 15 -6
22 -12 7 -5 18 -6 24 -2 9 5 10 2 6 -9 -3 -10 -2 -17 4 -17 15 0 6 52 -13 72
-22 22 -38 23 -64 3z"/>
<path d="M6690 4210 c0 -5 5 -10 10 -10 6 0 10 5 10 10 0 6 -4 10 -10 10 -5 0
-10 -4 -10 -10z"/>
<path d="M6637 4199 c8 -8 16 -8 30 0 16 9 14 10 -11 11 -22 0 -27 -3 -19 -11z"/>
<path d="M14886 4192 c-3 -6 -1 -14 5 -17 15 -10 25 3 12 16 -7 7 -13 7 -17 1z"/>
<path d="M14865 4150 c3 -5 8 -10 11 -10 2 0 4 5 4 10 0 6 -5 10 -11 10 -5 0
-7 -4 -4 -10z"/>
<path d="M14958 4103 c7 -3 16 -2 19 1 4 3 -2 6 -13 5 -11 0 -14 -3 -6 -6z"/>
<path d="M14310 4085 c0 -10 7 -15 18 -13 21 4 19 22 -2 26 -10 2 -16 -3 -16
-13z"/>
<path d="M14410 3775 c0 -4 14 -20 31 -37 l30 -31 -14 34 c-7 19 -21 35 -30
37 -9 2 -17 1 -17 -3z"/>
<path d="M14460 3760 c0 -5 7 -10 15 -10 8 0 15 5 15 10 0 6 -7 10 -15 10 -8
0 -15 -4 -15 -10z"/>
<path d="M14502 3741 c2 -7 7 -12 11 -12 12 1 9 15 -3 20 -7 2 -11 -2 -8 -8z"/>
<path d="M13980 3665 c-7 -9 -10 -18 -6 -22 3 -3 6 -1 6 5 0 7 7 12 15 12 8 0
15 5 15 10 0 15 -16 12 -30 -5z"/>
<path d="M13916 3633 c-12 -12 -6 -33 9 -33 8 0 15 6 15 14 0 17 -14 28 -24
19z"/>
<path d="M13840 3602 c0 -5 11 -14 25 -20 23 -11 25 -9 24 11 0 12 -3 16 -6
10 -3 -9 -10 -10 -24 -3 -10 6 -19 7 -19 2z"/>
<path d="M13690 3560 c0 -5 5 -10 10 -10 6 0 10 5 10 10 0 6 -4 10 -10 10 -5
0 -10 -4 -10 -10z"/>
<path d="M9755 1410 c-3 -6 1 -7 9 -4 18 7 21 14 7 14 -6 0 -13 -4 -16 -10z"/>
<path d="M11400 1410 c0 -5 5 -10 11 -10 5 0 7 5 4 10 -3 6 -8 10 -11 10 -2 0
-4 -4 -4 -10z"/>
<path d="M11248 1160 c-3 -17 -1 -33 4 -36 4 -3 8 11 8 30 0 44 -6 47 -12 6z"/>
<path d="M11155 1100 c-7 -12 2 -30 16 -30 12 0 12 27 0 35 -5 3 -12 1 -16 -5z"/>
<path d="M10010 880 c-7 -14 -8 -26 0 -39 5 -11 10 -33 10 -50 0 -17 5 -31 10
-31 6 0 10 -7 10 -15 0 -13 4 -14 20 -5 25 13 26 27 3 33 -14 4 -12 5 5 6 12
0 22 6 22 11 0 7 6 7 18 1 16 -8 18 -5 19 30 2 29 -2 39 -13 39 -8 0 -12 5 -9
10 7 11 -35 30 -65 30 -11 0 -24 -9 -30 -20z"/>
</g>
</svg>
