<svg width="1596" height="1468" xmlns="http://www.w3.org/2000/svg" preserveAspectRatio="xMidYMid meet">

 <g>
  <title>background</title>
  <rect fill="none" id="canvas_background" height="402" width="582" y="-1" x="-1"/>
 </g>
 <g>
  <title>Layer 1</title>
  <g id="svg_1" fill="white" transform="translate(0,1468) scale(0.10000000149011612,-0.10000000149011612) ">
   <path id="svg_2" d="m1073,14054c-7,-20 11,-38 32,-31c13,6 13,10 3,27c-15,24 -27,26 -35,4z"/>
   <path id="svg_3" d="m1070,13999c0,-18 13,-39 25,-39c17,0 28,-30 16,-44c-5,-6 -8,-31 -6,-56c2,-25 4,-53 4,-62c1,-10 7,-18 15,-18c18,0 26,-22 19,-49c-3,-13 -1,-21 7,-21c7,0 9,-8 5,-19c-3,-11 -2,-22 3,-25c6,-3 13,-27 17,-52c4,-32 15,-53 33,-69c24,-20 25,-26 17,-60c-6,-21 -19,-43 -30,-49c-11,-6 -23,-15 -27,-20c-4,-6 -13,-4 -22,3c-9,7 -22,11 -30,8c-20,-8 -32,11 -40,61c-6,38 -4,42 14,42c16,0 20,7 20,30c0,18 -6,33 -15,36c-11,5 -12,10 -3,24c9,14 8,26 -5,53c-17,36 -42,53 -52,37c-10,-16 -33,-11 -38,8c-2,9 -3,2 -1,-15c1,-18 0,-33 -4,-33c-4,0 -7,-22 -6,-50c0,-27 -3,-50 -8,-50c-5,0 -7,-4 -4,-9c7,-10 9,-135 3,-164c-2,-10 -9,-22 -15,-26c-7,-4 -14,-25 -15,-47c-6,-62 -15,-76 -40,-62c-31,16 -46,39 -41,63c16,79 16,82 0,88c-9,4 -16,18 -16,34c0,52 -11,74 -31,68c-13,-4 -19,-2 -17,6c4,18 -24,22 -46,6c-15,-11 -18,-26 -17,-97c1,-46 5,-88 9,-94c11,-16 29,-74 37,-121c4,-22 22,-71 40,-110c18,-38 39,-93 45,-122c6,-28 18,-60 25,-70c8,-10 15,-28 15,-40c0,-12 5,-25 10,-28c6,-3 10,-21 10,-39c0,-35 15,-57 35,-50c6,3 12,-2 12,-11c0,-8 -5,-15 -10,-15c-6,0 2,-11 17,-25c14,-13 26,-33 26,-44c0,-11 5,-23 10,-26c13,-8 -20,-67 -34,-62c-5,2 -14,12 -20,22c-6,11 -17,25 -25,31c-8,6 -18,40 -22,76c-6,52 -14,71 -37,96c-17,18 -37,32 -46,32c-11,0 -18,13 -22,41c-4,22 -13,43 -20,46c-8,3 -14,13 -14,22c0,9 -13,22 -30,29c-16,8 -29,17 -29,20c3,19 -2,33 -10,28c-4,-3 -17,1 -27,9c-27,20 -32,18 -27,-10c3,-13 8,-24 12,-23c21,2 26,-9 28,-63c2,-44 7,-65 19,-74c11,-7 13,-14 6,-18c-12,-8 -4,-47 9,-47c5,0 9,-13 9,-29c0,-17 5,-33 10,-36c6,-4 8,-10 5,-15c-3,-5 4,-33 15,-62c11,-29 20,-62 20,-73c0,-11 11,-37 25,-57c14,-20 25,-46 25,-56c0,-25 25,-74 33,-65c7,6 11,-18 8,-49c-1,-10 3,-18 8,-18c6,0 11,-11 11,-24c0,-14 4,-28 10,-31c5,-3 10,-25 10,-47c0,-27 6,-46 19,-57c10,-9 21,-29 24,-46c12,-66 41,-168 58,-197c15,-28 10,-79 -11,-127c-22,-48 -25,-71 -9,-71c5,0 7,-4 4,-10c-3,-5 -2,-10 3,-10c10,0 56,-130 48,-137c-3,-3 2,-12 10,-21c9,-8 13,-23 11,-33c-3,-10 3,-25 13,-34c10,-9 21,-28 24,-41c4,-14 11,-22 17,-19c6,4 7,-3 3,-19c-4,-19 -2,-26 8,-26c12,0 37,-37 41,-60c1,-9 17,-84 23,-110c3,-13 10,-30 16,-37c6,-8 13,-30 15,-50c2,-20 9,-43 15,-50c6,-7 7,-13 2,-13c-5,0 -1,-5 9,-11c31,-18 77,-134 69,-175c-1,-7 4,-14 13,-17c8,-4 18,-24 21,-46c4,-23 10,-38 15,-35c5,3 9,-1 9,-10c0,-8 -6,-17 -12,-19c-8,-3 -6,-6 5,-6c11,-1 17,-9 17,-24c0,-13 9,-32 20,-42c11,-10 20,-27 20,-38c0,-12 5,-17 14,-14c8,3 16,-2 19,-15c3,-11 10,-17 15,-14c15,9 64,-12 57,-25c-4,-6 0,-9 11,-7c12,2 20,-4 22,-17c2,-11 11,-27 19,-37c8,-9 13,-22 12,-30c-4,-19 11,-58 22,-58c6,0 8,-9 4,-20c-4,-11 0,-29 9,-42c9,-12 16,-39 16,-60c0,-21 4,-38 10,-38c8,0 17,-16 51,-95c17,-40 47,-134 44,-137c-2,-2 9,-12 26,-23c16,-11 29,-28 29,-38c0,-10 9,-27 20,-39c11,-12 20,-28 20,-35c0,-8 4,-12 9,-9c8,5 29,-41 46,-101c3,-11 12,-27 20,-33c8,-7 15,-23 15,-36c0,-13 5,-24 10,-24c6,0 10,-9 10,-19c0,-10 7,-21 15,-25c8,-3 15,-12 15,-21c0,-9 9,-35 20,-57c11,-23 20,-50 20,-60c0,-10 5,-18 11,-18c6,0 8,-10 5,-22c-3,-13 -3,-17 0,-10c9,19 24,14 24,-8c0,-11 4,-20 8,-20c11,0 32,-45 32,-69c0,-10 9,-28 20,-41c11,-13 20,-33 20,-44c0,-12 9,-28 20,-36c11,-8 20,-22 20,-32c0,-33 25,-98 37,-98c16,0 31,-28 35,-65c2,-16 14,-40 27,-54c13,-14 28,-38 33,-53c6,-17 17,-28 29,-28c21,0 24,-11 8,-27c-13,-13 25,-43 54,-43c10,0 16,-4 12,-10c-3,-5 -12,-7 -20,-3c-22,8 -18,-14 5,-30c17,-12 23,-30 29,-94c0,-7 7,-10 15,-7c16,6 31,-29 21,-47c-4,-6 2,-13 13,-15c12,-4 24,-21 32,-45c7,-21 19,-39 27,-39c7,0 13,-7 13,-15c0,-9 7,-18 15,-21c8,-4 15,-12 15,-18c0,-7 13,-27 29,-45c17,-19 33,-46 36,-61c3,-15 16,-32 28,-38c18,-9 19,-11 5,-11c-22,-1 -23,-10 -3,-25c8,-6 17,-22 19,-36c3,-14 5,-27 5,-30c1,-3 6,2 11,10c8,12 10,10 10,-9c0,-13 14,-40 30,-61c17,-21 30,-43 30,-49c0,-6 5,-11 11,-11c5,0 8,-4 5,-9c-3,-5 1,-11 9,-15c8,-3 15,-15 15,-27c0,-14 5,-19 14,-16c10,4 15,-8 20,-44c5,-34 13,-52 27,-59c11,-6 17,-15 14,-19c-2,-5 4,-11 15,-14c19,-5 25,-28 23,-85c-1,-7 12,-20 28,-29c16,-10 27,-23 25,-30c-3,-7 -1,-15 5,-19c6,-3 8,-12 5,-20c-4,-10 2,-14 19,-14c20,0 25,-5 25,-24c0,-15 7,-27 18,-31c9,-3 31,-25 48,-48c25,-34 38,-43 65,-45c40,-3 79,-27 79,-47c0,-8 4,-15 10,-15c5,0 6,-7 3,-17c-4,-11 -3,-14 5,-9c8,5 12,0 12,-14c0,-12 11,-31 25,-42c14,-11 25,-26 25,-34c0,-8 4,-14 9,-14c5,0 11,-12 13,-27c2,-20 8,-28 21,-27c9,1 17,-4 17,-11c0,-8 13,-28 30,-46c24,-27 27,-35 17,-48c-10,-12 -9,-14 4,-9c18,7 39,-9 39,-30c0,-7 11,-28 25,-46c14,-18 25,-38 25,-43c0,-6 17,-29 38,-52c21,-23 43,-60 50,-84c8,-24 30,-59 53,-82c21,-22 42,-48 45,-57c3,-10 16,-21 30,-24c17,-4 24,-13 24,-30c0,-13 5,-24 10,-24c6,0 10,-6 10,-13c0,-7 9,-19 20,-27c12,-8 32,-34 46,-57c14,-24 29,-43 34,-43c6,0 10,-5 10,-11c0,-6 11,-20 25,-31c14,-11 25,-26 25,-34c0,-8 7,-14 15,-14c8,0 15,-5 15,-11c0,-7 7,-17 17,-24c9,-7 17,-23 18,-36c1,-16 9,-25 23,-27c14,-2 22,-11 22,-22c0,-10 5,-22 10,-25c6,-4 10,-12 8,-18c-1,-7 17,-32 40,-56c23,-24 42,-50 42,-58c0,-7 7,-13 15,-13c9,0 15,-9 15,-24c0,-30 87,-106 121,-107c20,0 22,-2 8,-11c-14,-9 -13,-13 8,-34c13,-13 30,-24 38,-24c9,0 15,-10 15,-25c0,-15 6,-25 14,-25c14,0 26,-29 26,-67c0,-13 -4,-23 -10,-23c-5,0 -7,-7 -4,-15c5,-11 10,-13 19,-5c13,11 45,4 45,-10c0,-5 -7,-16 -16,-24c-8,-9 -11,-16 -5,-16c5,0 17,7 26,16c15,15 15,14 9,-10c-4,-19 -2,-27 10,-32c21,-8 96,-81 96,-94c0,-5 9,-10 20,-10c10,0 24,-9 30,-19c5,-11 22,-26 38,-33c15,-7 33,-28 41,-45c8,-18 20,-33 27,-33c8,0 29,-16 48,-35c27,-27 31,-35 18,-36c-14,0 -14,-2 3,-8c11,-5 23,-7 28,-4c4,2 7,-1 7,-7c0,-21 48,-60 66,-53c14,5 16,2 12,-20c-4,-21 -1,-27 13,-27c11,0 19,-4 19,-10c0,-15 32,-50 41,-44c5,3 17,-4 29,-16c11,-11 26,-20 34,-20c8,0 17,-15 20,-35c4,-19 11,-35 16,-35c4,0 15,-3 24,-6c9,-3 16,-1 16,5c0,6 -7,11 -15,11c-8,0 -15,5 -15,10c0,13 6,13 32,-1c16,-8 22,-8 29,2c5,8 3,17 -4,21c-8,5 -6,8 6,8c10,0 15,5 12,10c-9,14 -21,12 -38,-4c-12,-13 -17,-13 -33,-1c-10,7 -19,19 -20,27c-1,26 -26,78 -35,72c-5,-3 -9,2 -9,10c0,22 -83,86 -111,86c-27,0 -56,50 -43,72c9,14 -26,-10 -38,-27c-4,-5 -12,4 -18,20c-6,16 -19,35 -30,42c-11,8 -16,20 -13,33c4,15 0,20 -16,20c-18,0 -21,6 -21,38c-1,33 -2,35 -14,19c-13,-17 -15,-16 -34,8c-11,14 -27,25 -36,25c-9,0 -16,5 -16,11c0,5 5,7 10,4c6,-3 10,1 10,9c0,9 -9,16 -20,16c-13,0 -20,7 -20,20c0,12 7,20 16,20c9,0 23,8 30,18c12,16 14,16 33,-5c12,-12 21,-27 21,-33c0,-10 13,-14 43,-10c10,1 17,-4 16,-12c-5,-21 24,-58 44,-58c10,0 15,-4 12,-10c-3,-5 1,-10 9,-10c9,0 16,-5 16,-11c0,-5 4,-7 10,-4c6,3 10,-1 10,-9c0,-10 6,-13 17,-9c11,4 14,3 9,-6c-5,-7 3,-22 21,-37c15,-13 37,-33 48,-43c11,-10 28,-21 38,-24c9,-4 17,-13 17,-20c0,-18 28,-43 60,-52c14,-4 28,-13 32,-19c4,-6 15,-11 25,-11c11,0 19,-9 21,-22c2,-15 10,-23 23,-23c10,0 19,-4 19,-10c0,-5 -6,-10 -12,-10c-9,0 -8,-3 2,-10c8,-5 16,-25 16,-44c1,-26 -3,-36 -18,-40c-12,-2 -17,-9 -13,-16c4,-6 15,-8 26,-5c17,6 19,3 14,-22c-5,-22 -4,-25 5,-13c9,11 13,12 17,3c8,-22 35,-15 28,7c-4,11 -2,20 4,20c6,0 11,-17 11,-37c0,-21 4,-42 8,-48c9,-13 72,-48 72,-40c0,3 9,1 20,-5c11,-6 20,-15 20,-20c0,-22 42,-52 64,-46c17,4 26,0 36,-18c6,-13 23,-29 36,-35c13,-5 26,-22 30,-36c6,-25 33,-35 35,-12c0,7 3,7 7,-3c16,-34 45,-69 53,-64c5,3 9,-6 9,-19c0,-30 10,-40 27,-26c13,11 17,-3 16,-48c-1,-7 5,-13 12,-13c8,0 11,-8 8,-20c-3,-11 0,-20 6,-20c6,0 11,5 11,10c0,6 9,10 20,10c11,0 20,-7 20,-16c0,-8 5,-12 11,-9c6,4 8,12 6,19c-5,13 36,16 49,4c4,-5 18,-8 30,-8c14,0 25,-8 29,-20c3,-11 13,-20 21,-20c16,0 74,-55 74,-70c0,-6 9,-10 21,-10c12,0 17,-4 13,-11c-5,-8 -1,-8 14,0c28,15 32,14 32,-7c0,-20 39,-62 58,-62c7,0 12,-4 12,-10c0,-5 12,-10 26,-10c14,0 23,-4 19,-10c-3,-6 -1,-10 5,-10c6,0 8,10 4,26c-5,19 -4,25 5,20c6,-4 9,-12 6,-17c-4,-5 -1,-9 4,-9c6,0 11,-7 11,-15c0,-8 7,-15 15,-15c8,0 15,4 15,10c0,17 79,8 95,-11c9,-9 24,-15 36,-12c10,3 19,0 19,-6c0,-6 -4,-11 -10,-11c-5,0 -10,-5 -10,-11c0,-8 4,-8 14,0c17,15 81,-11 96,-39c15,-27 33,-26 25,3c-6,21 -5,21 16,-3c12,-14 28,-24 35,-22c8,2 14,-5 14,-14c0,-10 5,-14 16,-10c9,3 24,-4 38,-19c13,-14 28,-25 33,-25c6,0 22,-9 37,-21c16,-13 33,-18 46,-14c13,4 27,-1 42,-14c12,-12 29,-19 39,-16c9,3 19,-1 22,-9c3,-8 22,-18 42,-22c26,-4 35,-11 31,-21c-3,-8 -1,-11 4,-8c6,3 13,0 16,-8c3,-9 17,-18 32,-22c15,-4 35,-13 44,-22c9,-8 23,-13 30,-10c15,5 108,-42 108,-55c0,-5 4,-7 8,-4c9,5 63,-12 97,-31c11,-6 40,-14 64,-18c41,-7 43,-9 26,-21c-18,-13 -18,-14 6,-14c13,0 35,0 49,-1c13,0 33,-9 43,-20c10,-11 32,-22 48,-26c16,-3 29,-9 29,-14c0,-5 7,-9 16,-9c9,0 12,-5 8,-12c-5,-8 -2,-9 11,-4c11,4 22,2 26,-5c4,-7 18,-14 31,-16c51,-7 68,-14 68,-29c0,-9 9,-18 20,-21c11,-3 20,-11 20,-19c0,-7 12,-17 27,-20c15,-4 42,-23 61,-42c26,-25 45,-35 71,-36c27,-1 38,-7 48,-25c6,-14 20,-26 30,-27c10,-2 26,-13 35,-25c10,-11 18,-16 18,-10c0,6 5,11 10,11c6,0 10,-7 10,-15c0,-8 18,-33 40,-55c22,-22 40,-46 40,-53c0,-11 87,-50 120,-53c8,0 17,-2 20,-3c3,-2 14,-4 25,-6c11,-2 21,-9 23,-14c2,-6 8,-11 14,-11c6,0 26,-11 44,-25c18,-14 39,-25 46,-25c20,0 37,-20 31,-36c-4,-10 0,-12 11,-8c10,4 16,1 16,-7c0,-10 3,-10 11,-2c14,14 54,1 84,-26c36,-32 114,-73 126,-65c8,4 9,3 5,-4c-5,-8 0,-12 13,-12c10,0 21,-5 23,-10c2,-6 12,-12 23,-14c31,-6 145,-67 145,-78c0,-5 4,-7 9,-3c5,3 12,1 16,-5c3,-5 21,-10 39,-10c36,0 57,-15 49,-36c-3,-8 5,-18 20,-23c14,-5 27,-16 29,-23c4,-10 8,-10 20,-1c8,7 18,9 24,4c9,-9 87,-29 129,-34c11,-2 23,2 27,8c5,6 8,6 8,-2c0,-7 4,-13 9,-13c6,0 9,9 8,19c-1,11 -6,17 -14,14c-16,-6 -6,28 11,39c7,5 7,8 -1,8c-7,0 -13,11 -13,24c0,23 3,25 43,22c47,-4 78,-14 89,-30c4,-6 5,-33 1,-59c-6,-51 9,-97 33,-97c15,0 74,-57 74,-72c0,-6 3,-8 7,-5c7,8 33,-38 33,-59c0,-8 3,-14 8,-14c4,0 7,-78 7,-173c0,-115 4,-189 14,-222c7,-27 14,-60 15,-72c0,-13 4,-23 9,-23c4,0 7,-11 7,-25c0,-14 6,-25 13,-25c7,0 5,-5 -5,-11c-14,-8 -16,-19 -13,-56c3,-26 8,-49 13,-52c4,-4 8,-33 10,-65c1,-33 7,-65 13,-72c7,-8 7,-14 -1,-19c-6,-4 -7,-12 0,-24c5,-10 7,-35 3,-55c-4,-23 -2,-36 6,-36c6,0 11,-8 11,-18c0,-10 5,-23 10,-28c15,-15 15,-201 0,-219c-7,-8 -9,-15 -4,-15c5,-1 -1,-9 -14,-20c-15,-12 -23,-31 -24,-55c-1,-37 20,-72 29,-47c6,15 52,16 89,2c20,-8 24,-14 16,-22c-12,-12 -2,-35 31,-72c9,-11 18,-34 19,-50c0,-17 2,-35 3,-41c2,-5 4,-14 5,-20c1,-5 2,-14 1,-18c-1,-5 8,-21 18,-36c11,-16 18,-30 16,-33c-3,-2 4,-22 15,-43c11,-22 20,-47 20,-57c0,-11 7,-18 19,-18c10,0 24,-7 31,-15c7,-8 16,-15 21,-15c14,0 10,30 -3,30c-8,1 -6,6 5,14c9,7 17,25 17,39c0,43 10,57 42,57c17,0 27,-4 23,-10c-3,-5 2,-10 12,-10c29,-1 56,-47 50,-85c-4,-21 -1,-36 6,-39c9,-3 9,-7 -1,-13c-7,-5 -14,-24 -17,-43c-2,-18 -8,-37 -13,-42c-12,-12 15,-48 35,-48c21,0 51,-40 58,-76c4,-26 11,-34 23,-32c9,3 16,10 15,16c-5,21 19,13 24,-8c4,-16 9,-18 24,-9c10,5 20,20 20,32c1,17 2,18 6,5c4,-18 19,-23 59,-19c11,0 32,-9 45,-21c29,-27 97,-30 125,-7c11,9 15,9 10,2c-10,-18 2,-16 20,2c9,8 29,15 45,15c17,0 28,4 24,10c-3,5 1,20 9,32c8,13 18,44 21,71c4,26 11,49 15,52c5,3 6,14 3,26c-3,12 -2,24 4,28c11,7 43,74 43,90c0,6 5,11 10,11c6,0 10,6 10,14c0,15 26,28 45,23c5,-1 12,11 15,28c3,18 13,31 26,35c31,8 69,42 88,78c9,17 20,31 24,31c4,-1 17,2 30,6c16,5 22,14 20,29c-2,15 2,20 14,18c11,-2 41,20 74,54c44,44 54,58 43,66c-10,7 -8,7 8,3c18,-5 22,-3 17,9c-4,11 0,16 13,16c10,0 24,9 31,20c7,11 19,20 27,20c8,0 15,7 15,16c0,16 56,87 123,158c15,16 27,35 27,42c0,8 4,14 8,14c19,0 62,47 62,68c0,21 10,26 47,25c7,-1 10,3 8,8c-3,4 3,17 15,29c11,11 20,26 20,33c0,18 37,47 60,47c13,0 20,7 20,20c0,11 5,20 10,20c6,0 28,18 50,40c22,22 47,40 56,40c9,0 18,9 21,20c4,15 14,20 38,20c18,0 38,7 45,15c9,10 9,15 1,15c-6,0 -11,5 -11,10c0,10 56,27 72,22c4,-1 5,4 2,12c-7,17 22,46 47,46c12,0 21,9 25,25c3,14 12,25 20,25c8,0 14,5 14,10c0,15 58,70 74,70c8,0 21,15 29,33c10,19 33,42 61,56c24,14 50,35 57,48c7,12 19,25 28,28c9,3 25,24 36,46c11,23 30,46 42,52c12,5 20,14 17,18c-3,5 4,9 15,9c12,0 21,6 21,14c0,7 6,19 14,25c11,10 17,8 25,-6c7,-12 10,-13 11,-4c0,18 86,101 129,124c30,16 35,17 43,4c13,-23 48,-9 48,19c0,13 3,23 8,22c4,-1 18,5 32,14c14,9 32,18 40,20c8,2 21,11 28,21c7,9 22,17 32,17c10,0 27,11 38,25c11,14 25,25 32,25c7,0 27,9 44,19c17,10 51,22 75,26c28,5 55,18 74,36c23,22 33,26 39,17c5,-9 8,-9 8,-2c0,7 12,15 26,18c14,4 35,16 47,26c15,15 23,17 28,8c6,-9 14,-7 32,10c13,12 33,22 45,22c12,0 31,9 42,20c22,22 40,26 40,10c0,-5 9,-2 19,8c37,33 51,43 51,35c0,-4 5,-2 12,5c7,7 20,12 29,12c9,0 22,7 30,16c7,9 22,14 36,11c15,-3 22,0 21,8c-5,24 43,55 84,55c24,0 37,4 33,10c-3,6 1,10 9,10c8,0 31,9 50,21c28,16 39,18 56,9c11,-6 20,-7 19,-3c-5,30 3,40 32,38c18,-1 33,4 36,12c3,8 15,11 29,9c16,-3 24,0 24,9c0,8 18,16 50,20c28,4 50,10 50,15c0,4 17,11 37,15c45,8 120,51 136,76c7,11 16,19 22,19c5,0 23,7 39,15c20,11 33,12 40,5c13,-13 29,-13 21,0c-3,6 -3,20 1,32c6,21 7,21 20,3c11,-14 17,-16 26,-7c9,9 7,16 -7,32c-16,18 -17,20 -2,14c18,-7 24,11 7,21c-6,4 -8,10 -5,15c11,18 -23,17 -39,-1c-11,-13 -24,-18 -36,-14c-10,3 -21,1 -25,-5c-9,-14 -56,-34 -74,-31c-8,1 -18,-3 -22,-11c-7,-10 -9,-10 -9,2c-1,13 -2,13 -13,0c-17,-21 -54,-38 -106,-49c-25,-5 -48,-17 -53,-25c-5,-9 -16,-16 -23,-16c-8,0 -15,-5 -15,-11c0,-8 -5,-8 -15,1c-18,15 -20,-1 -3,-18c9,-9 7,-13 -6,-18c-9,-4 -19,-4 -22,-1c-3,3 -21,-3 -40,-14c-19,-10 -49,-19 -67,-18c-18,0 -26,3 -19,6c10,4 7,9 -10,17c-18,10 -22,19 -20,45c3,23 0,31 -8,26c-6,-4 -9,-13 -6,-21c3,-8 -1,-14 -10,-14c-9,0 -12,5 -8,11c4,7 1,10 -7,7c-8,-3 -13,-11 -12,-17c4,-14 -20,-14 -34,0c-9,9 -10,7 -6,-10c4,-18 1,-21 -22,-21c-28,0 -55,-20 -55,-41c0,-8 -7,-5 -20,6c-18,16 -25,14 -21,-7c2,-15 -51,-21 -60,-7c-6,11 -9,10 -15,-4c-3,-9 -17,-17 -29,-17c-13,0 -27,-4 -30,-10c-4,-6 -13,-5 -24,2c-15,9 -22,8 -36,-5c-21,-22 -35,-22 -35,1c1,26 23,49 45,47c13,-1 21,5 23,17c1,10 3,27 4,38c2,19 6,22 36,24c7,1 16,7 21,14c4,7 13,12 19,10c13,-3 72,61 72,79c0,10 43,31 80,39c8,1 20,10 26,18c6,9 14,13 17,10c3,-4 19,3 35,15c17,12 35,21 40,21c6,0 15,14 21,30c5,17 16,30 24,30c8,0 14,8 13,18c0,9 6,17 14,17c31,1 90,43 90,64c0,6 11,13 25,17c14,3 25,10 25,14c0,5 9,11 20,15c11,3 45,27 75,52c37,30 60,42 68,36c27,-20 117,-14 117,8c0,6 7,17 15,25c18,18 20,54 3,54c-6,0 2,14 20,31c17,17 36,28 41,25c5,-4 12,-2 16,4c8,14 42,13 47,-1c2,-7 16,-13 31,-15c23,-2 27,1 27,21c0,19 7,25 33,30c72,14 124,10 146,-9c17,-15 24,-17 33,-8c7,7 17,12 23,12c5,0 3,-5 -5,-10c-13,-8 -13,-12 3,-27c10,-10 17,-13 16,-8c-4,22 1,36 11,30c9,-6 11,-2 10,23c0,4 -10,7 -23,8c-60,3 -60,3 -54,33c3,15 1,33 -4,38c-18,18 -6,67 19,78c12,5 22,15 22,22c0,12 82,56 107,58c6,0 19,7 30,16c10,9 23,18 30,20c11,4 83,105 83,118c0,4 14,12 31,18c17,7 28,17 24,22c-3,6 2,11 13,11c25,0 86,56 77,70c-3,5 -1,10 4,10c6,0 11,7 11,15c0,8 -4,15 -10,15c-5,0 -10,9 -10,19c0,30 -19,35 -43,13c-12,-11 -35,-22 -52,-24c-22,-2 -31,-9 -33,-24c-4,-30 -38,-58 -70,-60c-15,0 -27,-5 -27,-11c0,-20 -32,-40 -76,-47c-55,-8 -79,0 -79,25c0,10 -4,19 -10,19c-5,0 -10,5 -10,11c0,5 5,7 12,3c8,-5 9,-2 5,9c-3,10 -2,17 3,17c5,0 7,7 4,15c-4,8 -1,15 5,15c6,0 11,-7 11,-15c0,-8 5,-15 10,-15c7,0 7,6 1,18c-5,9 -8,29 -6,44c3,24 0,28 -21,28c-13,0 -24,-4 -24,-10c0,-5 9,-10 21,-10c11,0 17,-5 14,-10c-4,-7 -12,-7 -25,0c-25,13 -40,13 -40,-1c0,-13 -29,-38 -44,-39c-4,0 -6,6 -3,14c5,12 -4,15 -44,13c-28,0 -53,4 -57,9c-14,21 -44,23 -130,10c-102,-15 -132,-34 -132,-83c0,-43 -26,-57 -92,-48c-27,4 -62,13 -76,21c-15,8 -33,14 -39,14c-12,0 -17,13 -14,33c1,4 -4,7 -11,6c-20,-3 -48,12 -48,26c0,13 -35,28 -57,26c-7,-1 -15,10 -19,24c-3,14 -13,25 -23,25c-21,1 -45,20 -54,43c-11,30 3,67 25,67c11,0 16,5 13,11c-4,6 -14,8 -22,4c-13,-4 -14,-3 -4,9c7,8 19,12 27,9c8,-3 14,0 14,6c0,6 -12,11 -26,11c-19,0 -25,4 -20,15c7,20 -21,32 -37,16c-8,-8 -7,-11 6,-11c9,0 17,-4 17,-10c0,-16 -15,-12 -35,10c-10,11 -23,20 -30,20c-6,0 -22,11 -34,24c-13,14 -35,26 -50,28c-15,2 -30,12 -36,26c-6,13 -18,22 -32,22c-14,0 -23,6 -23,15c0,8 -7,15 -15,15c-9,0 -15,9 -15,21c0,18 -2,19 -15,9c-15,-12 -16,-11 -19,13c0,6 -16,19 -33,27c-18,8 -33,21 -33,28c0,15 -17,16 -22,2c-2,-7 -16,-4 -37,6c-40,20 -73,24 -84,9c-5,-6 -7,-2 -6,10c3,28 -11,55 -27,55c-9,0 -14,11 -14,33c0,25 -3,29 -10,17c-9,-13 -13,-12 -29,8c-13,15 -21,18 -24,10c-3,-10 -7,-10 -20,0c-11,10 -21,11 -34,3c-17,-9 -17,-10 2,-17c27,-10 36,-25 28,-49c-5,-17 -4,-18 10,-7c18,15 28,4 21,-24c-4,-14 -13,-19 -32,-18c-15,1 -34,3 -42,3c-13,1 -13,2 0,11c12,8 11,10 -7,10c-13,0 -23,4 -23,10c0,5 -7,7 -15,4c-8,-4 -12,-10 -9,-15c3,-5 1,-9 -4,-9c-6,0 -12,7 -16,15c-3,8 -14,15 -24,15c-10,0 -33,13 -52,29c-29,24 -36,26 -48,14c-7,-7 -17,-11 -22,-8c-4,3 -6,-4 -3,-15c3,-11 0,-20 -6,-20c-7,0 1,-13 17,-28c16,-15 26,-34 24,-41c-2,-7 5,-15 17,-18c17,-4 19,-8 10,-19c-12,-15 -37,-6 -72,26c-10,10 -27,16 -38,13c-10,-3 -19,0 -19,6c0,6 -7,11 -15,11c-7,0 -18,8 -24,17c-7,14 -12,15 -24,4c-13,-10 -18,-8 -32,13c-10,14 -23,26 -29,26c-7,0 -18,6 -25,13c-6,6 -17,12 -24,12c-7,0 -13,17 -15,38c-3,34 -5,37 -28,31c-20,-5 -24,-2 -24,15c0,22 24,29 35,11c3,-5 15,-10 25,-10c10,0 22,-5 26,-12c5,-7 2,-8 -7,-3c-8,5 -11,4 -6,-1c5,-5 12,-9 15,-9c4,0 12,-3 17,-7c24,-15 83,-20 91,-7c4,7 3,14 -4,17c-7,2 -12,11 -12,20c-1,10 -7,28 -14,42c-12,21 -12,26 3,37c15,11 15,12 0,13c-9,0 -19,-6 -22,-14c-6,-15 -42,-11 -52,4c-12,19 7,37 32,32c17,-3 24,-1 19,6c-4,6 -13,9 -21,5c-8,-3 -15,0 -15,6c0,18 -18,13 -23,-6c-4,-16 -5,-16 -6,-1c0,9 6,23 14,32c8,8 15,16 15,19c0,7 -64,2 -77,-6c-9,-5 -13,-2 -13,8c0,11 -5,15 -15,11c-8,-3 -15,-1 -15,5c0,6 -9,24 -21,41c-16,22 -28,28 -48,26c-20,-2 -27,2 -29,19c-2,15 -11,23 -30,25c-19,2 -27,8 -26,21c1,12 -5,17 -22,17c-13,0 -24,-4 -24,-10c0,-5 -4,-10 -9,-10c-5,0 -8,8 -7,18c1,12 -8,18 -31,20c-26,3 -33,8 -33,24c0,15 -5,19 -20,15c-11,-3 -23,-1 -26,5c-3,5 -15,8 -25,5c-14,-4 -19,0 -19,15c0,14 -5,18 -19,13c-10,-3 -24,1 -31,10c-7,8 -19,15 -27,15c-8,0 -11,5 -8,10c6,10 -6,14 -37,11c-12,-2 -15,4 -11,19c3,11 0,20 -6,20c-6,0 -11,-5 -11,-11c0,-6 -6,-9 -12,-6c-7,2 -12,13 -10,23c2,14 1,16 -6,5c-8,-11 -14,-10 -34,3c-14,9 -28,13 -32,9c-4,-5 -6,0 -4,11c2,10 -5,23 -17,30c-10,6 -26,17 -34,24c-9,9 -25,12 -43,8c-18,-3 -27,-2 -23,4c3,6 -3,10 -13,10c-11,0 -23,7 -26,15c-3,9 -22,23 -42,31c-24,10 -34,20 -30,30c3,7 1,14 -4,14c-6,0 -10,-4 -10,-10c0,-5 -5,-10 -11,-10c-6,0 -9,9 -6,20c3,11 1,18 -3,15c-5,-3 -11,-1 -15,5c-3,5 -15,10 -26,10c-10,0 -19,4 -19,10c0,5 -16,17 -36,26c-20,10 -39,25 -41,35c-5,18 -36,32 -64,30c-8,-1 -21,10 -29,24c-8,14 -29,35 -47,46c-18,11 -33,25 -33,30c0,5 -9,9 -20,9c-11,0 -20,4 -20,10c0,5 -6,7 -13,4c-8,-3 -22,6 -32,20c-10,13 -24,22 -31,19c-7,-3 -14,5 -16,18c-2,12 -9,24 -17,27c-9,3 -11,0 -6,-8c10,-17 -1,-12 -74,30c-33,19 -59,40 -56,47c2,7 -16,16 -46,23c-27,7 -49,18 -49,25c0,18 -59,74 -102,96c-26,13 -38,26 -38,40c0,18 -4,20 -25,15c-14,-4 -25,-2 -25,4c0,14 -38,51 -42,40c-2,-5 -12,-2 -23,7c-14,11 -16,17 -7,20c6,3 12,9 12,14c0,4 -6,6 -13,3c-7,-2 -24,7 -37,21c-13,14 -28,25 -32,25c-5,0 -45,36 -89,79c-49,49 -99,88 -129,102c-28,12 -50,28 -50,34c0,6 -20,26 -45,44c-40,29 -49,41 -47,62c1,4 -6,6 -16,5c-12,-1 -18,8 -20,27c-3,28 -16,36 -26,15c-3,-7 -4,-5 -3,6c1,14 -9,22 -48,34c-27,8 -44,17 -37,19c6,3 12,12 11,21c0,11 -2,12 -6,5c-7,-18 -40,-16 -47,3c-3,8 -10,12 -16,9c-6,-3 -13,1 -16,9c-3,9 -13,16 -21,16c-8,0 -19,14 -24,30c-6,16 -16,30 -22,30c-10,0 -36,11 -142,61c-31,15 -41,25 -42,46c-3,37 -3,41 3,96c3,26 3,47 -1,47c-17,0 -45,-22 -45,-35c0,-8 -4,-15 -10,-15c-5,0 -12,-11 -16,-24c-3,-13 -15,-27 -27,-30c-31,-8 -39,-7 -32,4c3,6 0,10 -7,10c-8,0 -22,15 -33,33c-10,17 -25,38 -32,45c-7,7 -17,21 -22,30c-9,15 -11,15 -30,-2c-11,-10 -26,-16 -34,-13c-8,3 -31,-3 -53,-12c-21,-10 -45,-16 -51,-14c-20,7 -16,-7 12,-43c20,-26 25,-44 25,-88c0,-30 4,-57 10,-61c8,-5 12,-50 11,-130c-1,-16 5,-52 13,-80c28,-102 33,-134 23,-144c-8,-8 -7,-25 1,-58c14,-60 18,-155 7,-173c-5,-8 -4,-15 3,-18c7,-2 9,-20 5,-52c-5,-40 -3,-51 10,-56c9,-3 14,-11 12,-17c-10,-29 -24,-242 -16,-245c4,-1 6,-14 3,-27c-2,-14 1,-31 7,-39c7,-8 9,-25 5,-40c-4,-16 -1,-32 6,-41c7,-9 8,-15 2,-15c-13,0 -22,-121 -10,-137c5,-7 5,-14 -1,-17c-6,-4 -7,-15 -2,-30c11,-28 17,-98 10,-111c-3,-6 -4,-26 -3,-45c11,-149 12,-206 2,-217c-7,-9 -7,-13 1,-13c16,0 13,-27 -4,-34c-9,-3 -15,-18 -15,-34c0,-64 -70,-94 -122,-52c-18,13 -28,16 -36,8c-12,-12 -35,-1 -27,13c4,5 -3,9 -13,9c-11,0 -25,7 -32,15c-9,11 -23,13 -50,9c-30,-5 -45,-2 -68,15c-17,12 -37,18 -46,15c-11,-4 -16,0 -16,15c0,13 -5,18 -13,15c-7,-2 -22,4 -32,16c-10,11 -24,20 -32,20c-16,0 -17,12 -1,28c9,9 7,13 -5,18c-9,3 -15,9 -13,13c15,24 -97,0 -123,-26c-7,-8 -20,-12 -28,-9c-8,3 -25,6 -38,6c-13,0 -40,16 -61,35c-25,24 -43,33 -56,29c-22,-7 -24,9 -2,30c13,14 13,16 1,16c-8,0 -18,-11 -21,-25c-8,-30 -32,-33 -39,-5c-4,17 -11,19 -31,14c-21,-5 -32,-1 -51,20c-13,14 -28,26 -33,26c-5,0 -15,7 -22,15c-8,9 -21,13 -32,9c-12,-3 -18,-1 -16,8c2,7 -8,14 -22,16c-14,2 -29,10 -33,18c-4,8 -14,14 -22,14c-8,0 -20,9 -28,20c-8,12 -21,18 -29,15c-9,-4 -18,1 -21,9c-4,9 -13,16 -22,16c-20,0 -63,42 -47,48c17,5 15,22 -3,22c-8,0 -15,4 -15,9c0,5 -9,13 -20,16c-11,4 -20,15 -20,26c0,11 -5,17 -10,14c-6,-4 -7,-11 -4,-17c4,-6 3,-9 -2,-6c-5,2 -24,11 -41,18c-18,8 -33,18 -33,22c0,4 -6,8 -14,8c-8,0 -22,10 -30,22c-9,12 -16,17 -16,11c0,-7 -7,-10 -15,-7c-8,4 -15,12 -15,19c0,8 -8,11 -20,8c-14,-4 -20,0 -20,10c0,16 -54,41 -80,38c-10,-2 -9,2 5,13c19,15 19,15 -13,16c-26,0 -32,4 -30,18c2,11 -4,18 -19,20c-13,2 -23,7 -23,12c0,10 -39,25 -57,22c-6,-2 -14,2 -18,8c-3,5 -15,10 -26,10c-10,0 -19,4 -19,8c0,18 -42,53 -58,48c-11,-4 -26,5 -41,24c-13,17 -27,30 -32,30c-12,0 -55,43 -51,53c1,4 -4,7 -12,7c-8,0 -16,6 -19,14c-3,8 -19,17 -36,21c-21,4 -31,13 -31,25c0,12 -10,21 -28,25c-15,3 -43,19 -61,34c-19,16 -40,27 -48,24c-9,-4 -11,0 -7,11c4,11 1,16 -10,16c-10,0 -13,6 -10,15c5,11 -1,15 -20,15c-18,0 -26,5 -26,18c0,9 -4,23 -9,30c-6,11 -11,10 -25,-4c-16,-16 -18,-15 -23,5c-3,11 -12,21 -20,21c-13,0 -13,2 -2,17c8,10 9,14 2,10c-6,-4 -14,-3 -18,3c-4,6 -11,8 -16,5c-5,-4 -9,1 -9,9c0,9 -7,16 -15,16c-8,0 -15,7 -15,16c0,11 -6,13 -19,9c-11,-3 -22,-1 -26,5c-5,8 -11,8 -20,0c-10,-9 -16,-6 -25,10c-6,11 -8,25 -5,30c3,6 2,10 -3,10c-5,0 -15,11 -22,25c-7,14 -22,25 -32,25c-10,0 -18,5 -18,10c0,6 -5,10 -11,10c-6,0 -17,7 -25,15c-21,21 -32,19 -37,-7c-4,-19 -4,-18 -6,5c-1,29 -24,61 -35,50c-3,-4 -6,8 -6,25c0,21 -7,35 -20,42c-11,6 -19,14 -19,18c3,20 -2,33 -11,27c-5,-3 -10,-1 -10,4c0,6 -6,11 -13,11c-8,0 -19,12 -26,28c-8,15 -17,34 -21,42c-4,8 -16,17 -26,19c-10,1 -27,10 -36,19c-10,8 -18,12 -18,7c0,-4 -6,-2 -14,4c-7,6 -21,9 -30,5c-9,-4 -16,-1 -16,6c0,7 -7,10 -15,6c-9,-3 -24,2 -34,12c-10,9 -31,24 -47,33c-17,9 -28,22 -26,31c2,11 -8,19 -30,23c-18,4 -39,16 -46,26c-19,28 -49,24 -54,-6c-4,-19 -1,-25 12,-25c29,0 44,-42 30,-84c-12,-36 -41,-49 -55,-25c-4,6 -12,8 -19,6c-15,-6 -40,13 -49,36c-4,10 -12,17 -19,16c-31,-4 -48,2 -48,17c0,8 -5,12 -10,9c-6,-4 -17,-1 -25,5c-8,6 -23,9 -33,6c-16,-5 -21,0 -26,25c-7,38 -23,59 -43,59c-8,0 -27,15 -44,32c-16,18 -29,27 -29,20c0,-20 -21,-14 -27,8c-3,11 -9,17 -14,14c-5,-3 -9,0 -9,6c0,7 -7,9 -17,6c-10,-4 -15,-4 -11,-1c10,10 -50,65 -71,65c-11,0 -25,9 -31,20c-6,11 -17,20 -24,20c-8,0 -17,7 -20,16c-5,13 -9,14 -21,4c-12,-10 -15,-10 -15,3c0,8 -12,23 -27,33c-30,19 -32,20 -77,22c-28,2 -29,3 -10,16c18,14 18,15 -11,38c-16,12 -34,24 -40,24c-5,1 -20,5 -33,9c-21,7 -21,8 -5,22c17,13 16,14 -9,10c-16,-2 -33,2 -39,9c-6,7 -17,10 -25,7c-7,-3 -16,2 -20,10c-3,9 -12,13 -19,11c-10,-4 -12,1 -8,15c6,22 -12,30 -19,9c-2,-6 -10,-8 -17,-4c-9,6 -9,11 -1,21c9,11 6,16 -14,21c-14,3 -25,9 -24,13c3,26 -17,40 -62,45c-8,0 -14,8 -12,17c1,10 -6,19 -18,22c-13,3 -18,10 -14,21c4,12 0,16 -15,16c-12,0 -21,5 -21,11c0,5 -4,8 -8,5c-5,-3 -21,6 -37,20c-15,13 -31,24 -35,24c-17,0 -95,87 -92,103c3,12 -3,17 -22,17c-16,0 -32,9 -42,25c-9,14 -24,25 -34,25c-10,0 -22,9 -25,20c-3,11 -12,20 -18,20c-7,0 -24,25 -39,55l-26,55l24,0c13,0 24,5 24,10c0,6 12,10 28,10l27,0l-25,21c-14,11 -19,18 -12,14c7,-4 12,0 12,10c0,8 -10,20 -22,25c-23,9 -19,12 17,14c11,1 19,7 18,14c-4,16 8,15 34,-3c11,-8 24,-31 28,-52c4,-21 11,-43 17,-50c5,-6 8,-19 6,-29c-2,-9 3,-19 10,-21c7,-3 12,5 12,21c0,16 6,26 14,26c17,0 29,-27 14,-32c-7,-3 -8,-10 -4,-17c5,-8 23,-11 52,-8c42,5 44,4 39,-16c-5,-20 -5,-20 5,-4c9,14 19,16 48,11c62,-11 75,-22 68,-56c-5,-25 -3,-28 12,-24c20,7 36,-3 45,-26c3,-10 13,-18 21,-18c7,0 16,-7 20,-15c3,-8 13,-15 23,-15c28,-1 53,-24 43,-40c-11,-18 -1,-40 16,-33c8,3 14,-1 14,-10c0,-8 16,-22 35,-31c41,-20 52,-35 34,-48c-10,-7 -6,-8 15,-5c22,4 30,0 34,-15c3,-14 11,-18 24,-14c11,2 17,2 14,-1c-5,-6 15,-20 54,-40c8,-4 23,-17 33,-29c10,-13 26,-26 37,-29c11,-4 20,-12 20,-20c0,-12 21,-25 40,-25c4,0 10,11 12,24c4,18 0,26 -15,30c-10,2 -16,9 -13,15c3,5 -6,19 -20,30c-15,12 -25,21 -22,21c3,0 -12,18 -33,40c-21,22 -41,40 -45,40c-13,0 -33,35 -35,60c-1,17 -3,20 -6,8c-6,-24 -16,-22 -28,5c-6,12 -19,22 -30,22c-12,0 -25,10 -32,27c-8,18 -20,28 -33,28c-13,0 -20,7 -20,20c0,11 -6,21 -12,22c-7,0 -18,2 -23,2c-13,2 -55,43 -55,54c0,4 -9,13 -21,20c-11,7 -18,19 -15,27c6,16 -45,45 -81,45c-14,0 -23,6 -23,15c0,15 -57,75 -71,75c-5,0 -9,7 -9,15c0,16 -57,51 -77,47c-7,-2 -13,6 -13,17c0,14 -11,23 -37,32c-41,13 -65,37 -58,57c2,6 0,12 -5,12c-5,0 -12,11 -16,25c-3,14 -16,31 -28,37c-11,6 -27,19 -34,30c-9,13 -26,18 -58,18c-45,0 -53,-7 -33,-27c7,-7 8,-17 3,-25c-5,-7 -9,-35 -10,-63c-3,-91 -2,-89 -20,-74c-13,10 -17,10 -24,-1c-7,-12 -10,-11 -16,3c-4,10 -13,16 -20,13c-12,-5 -41,31 -32,39c15,13 50,25 58,20c6,-4 13,2 17,12c6,16 8,15 14,-7c7,-24 7,-23 8,6c1,26 -4,33 -25,38c-20,5 -23,10 -14,21c9,10 6,15 -10,20c-14,4 -19,12 -16,22c5,12 0,13 -23,8c-17,-3 -39,-1 -51,5c-36,19 -40,7 -14,-44c26,-51 22,-65 -18,-66c-21,0 -28,-20 -16,-43c13,-24 0,-37 -14,-14c-7,14 -13,15 -23,7c-22,-18 -58,6 -50,33c6,20 5,21 -8,5c-19,-23 -27,-23 -27,2c0,11 -7,23 -15,26c-21,8 -19,15 14,50c21,22 28,38 24,53c-6,25 7,27 46,7c25,-13 31,-13 50,0c27,19 27,38 1,31c-11,-3 -18,-1 -14,4c3,5 -2,9 -11,9c-9,0 -23,7 -31,15c-9,8 -12,15 -7,15c4,0 -4,8 -17,17c-14,9 -29,23 -33,30c-4,7 -14,13 -22,13c-8,0 -19,9 -25,20c-6,11 -17,20 -25,20c-7,0 -16,8 -19,18c-3,9 -22,26 -41,36c-21,11 -35,27 -35,38c0,10 -7,18 -17,18c-9,0 -32,5 -50,12c-24,9 -33,18 -33,34c0,27 -30,49 -128,95c-39,19 -75,42 -78,51c-4,14 -9,16 -24,8c-16,-8 -18,-8 -14,5c4,10 0,15 -10,15c-9,0 -16,4 -16,9c0,12 -47,61 -59,61c-5,0 -12,14 -16,30c-4,17 -13,30 -22,30c-21,0 -110,71 -116,93c-3,9 -14,17 -25,17c-21,0 -32,18 -32,51c0,10 -4,19 -9,19c-5,0 -24,12 -41,26c-24,21 -28,29 -18,36c9,7 6,8 -10,5c-27,-6 -62,19 -62,45c0,10 -5,15 -13,12c-7,-2 -19,7 -27,21c-7,14 -19,25 -27,25c-7,0 -13,4 -13,10c0,5 -7,7 -15,4c-9,-4 -15,0 -15,9c0,8 6,18 13,20c7,4 6,6 -5,6c-22,1 -78,49 -78,67c0,8 -7,14 -15,14c-9,0 -19,8 -22,18c-9,21 -41,50 -70,62c-24,10 -31,30 -11,30c6,0 3,9 -7,20c-10,11 -25,19 -33,18c-9,-2 -16,7 -18,26c-4,39 -12,44 -23,15c-10,-24 -10,-24 -10,4c-1,18 -13,40 -36,63c-19,19 -35,38 -35,42c0,5 -12,24 -26,43c-14,19 -30,44 -35,57c-5,12 -13,22 -19,22c-5,0 -10,7 -10,15c0,9 -7,15 -17,13c-12,-2 -19,7 -26,35c-5,21 -15,37 -23,37c-13,0 -19,13 -15,33c1,5 -3,5 -9,2c-11,-7 -60,38 -60,56c0,5 -5,9 -11,9c-5,0 -8,4 -4,9c3,5 1,12 -5,16c-5,3 -10,14 -10,24c0,10 -11,23 -25,29c-14,7 -25,20 -25,31c0,10 -7,22 -16,25c-8,3 -13,10 -9,16c6,9 -6,34 -45,95c-47,74 -50,83 -34,115c16,30 11,55 -8,44c-5,-3 -8,-15 -5,-25c8,-30 -10,-22 -24,10c-10,23 -16,27 -26,19c-20,-16 -17,51 4,74c14,16 14,18 0,18c-11,0 -14,6 -10,23c3,12 3,19 -2,15c-8,-7 -30,10 -34,27c-1,6 -11,13 -22,17c-10,4 -19,14 -19,22c0,8 -8,13 -17,11c-10,-1 -28,1 -40,6c-13,5 -25,4 -28,-2c-4,-5 -11,-7 -16,-3c-5,3 -17,0 -25,-7c-12,-10 -17,-8 -29,7c-8,10 -15,26 -15,35c0,8 -5,20 -11,26c-12,12 -1,66 12,57c5,-3 6,2 3,10c-3,8 -12,17 -21,20c-12,5 -13,9 -3,21c11,13 10,18 -5,29c-11,8 -16,19 -12,30c4,10 3,15 -3,11c-16,-10 -50,14 -50,36c0,11 -6,22 -14,25c-8,3 -16,14 -19,24c-3,12 -11,17 -23,14c-14,-3 -26,8 -46,42c-16,25 -28,49 -28,55c0,5 -6,9 -14,9c-8,0 -19,13 -24,29c-6,17 -19,35 -30,42c-12,7 -17,19 -14,31c2,10 -1,18 -7,18c-7,0 -21,9 -32,19c-19,18 -19,20 -4,29c12,6 14,11 6,16c-6,4 -11,4 -11,-1c0,-4 -10,10 -21,32c-12,22 -26,43 -31,46c-5,3 -10,20 -10,38c-1,17 -5,34 -10,37c-4,3 -8,13 -8,23c0,10 -9,21 -20,24c-13,3 -18,10 -14,21c4,11 1,16 -11,16c-9,0 -19,9 -22,20c-3,11 -14,20 -24,20c-10,0 -21,5 -25,12c-4,7 -3,8 4,4c7,-4 12,-1 12,8c0,10 -9,16 -26,16c-14,0 -23,4 -19,10c4,6 11,8 16,5c13,-9 8,78 -5,87c-6,4 -12,11 -12,15c-4,24 -17,53 -24,53c-4,0 -14,20 -21,45c-7,25 -17,45 -21,45c-3,0 -8,12 -10,28c-2,18 -8,26 -19,24c-15,-2 -24,19 -31,75c-1,7 -7,14 -15,17c-7,3 -13,20 -13,41c0,24 -5,35 -15,35c-8,0 -12,6 -9,14c3,8 -3,23 -13,33c-21,22 -28,49 -14,58c6,3 -3,19 -19,37c-20,21 -28,37 -24,50c3,11 -1,20 -11,24c-11,5 -15,14 -11,29c4,14 0,28 -9,35c-8,7 -15,23 -15,35c0,12 -7,28 -15,35c-9,8 -15,29 -15,56c0,27 -9,61 -25,90c-16,30 -22,51 -16,57c10,10 -13,87 -29,97c-6,4 -13,26 -16,51c-4,24 -10,51 -15,60c-4,9 -5,19 -2,23c4,3 -3,16 -15,29c-13,14 -19,30 -16,43c3,12 -1,26 -10,33c-9,8 -16,22 -16,32c0,11 -4,19 -10,19c-5,0 -10,8 -10,18c0,10 -4,22 -8,28c-14,16 -34,83 -28,93c4,5 2,20 -3,34c-8,20 -16,24 -50,24c-23,0 -41,-3 -41,-8zm246,-806c7,-10 14,-27 14,-38c0,-11 11,-42 25,-70c13,-27 25,-67 25,-87c0,-20 7,-43 15,-52c8,-8 15,-28 15,-45c0,-16 5,-33 10,-36c6,-3 10,-18 10,-33c0,-15 6,-36 13,-47c8,-11 20,-41 27,-68c7,-26 16,-50 21,-52c15,-10 22,-94 9,-110c-14,-17 -30,-20 -30,-5c0,15 -33,50 -42,44c-4,-3 -12,6 -18,20c-5,14 -14,26 -20,26c-5,0 -10,9 -10,19c0,10 -7,21 -15,25c-8,3 -15,15 -15,26c0,11 -4,20 -10,20c-5,0 -15,19 -22,43c-6,23 -17,51 -24,62c-29,48 -42,293 -18,343c17,37 22,39 40,15zm204,-658c0,-8 -4,-15 -10,-15c-5,0 -10,7 -10,15c0,8 5,15 10,15c6,0 10,-7 10,-15zm140,-329c0,-16 7,-27 20,-31c26,-8 61,-45 54,-57c-3,-4 1,-8 10,-8c8,0 20,-17 27,-37c6,-21 20,-49 30,-62c11,-13 19,-34 19,-47c0,-17 6,-24 20,-24c19,0 28,-24 13,-33c-5,-2 -3,-2 4,-1c6,2 15,-10 18,-26c3,-16 13,-30 22,-32c9,-2 21,-21 27,-43c9,-29 17,-41 34,-43c12,-2 22,-10 22,-18c0,-8 4,-14 10,-14c5,0 7,-6 4,-14c-3,-8 0,-17 5,-21c8,-4 6,-16 -6,-36c-13,-22 -22,-27 -38,-23c-11,4 -21,10 -23,15c-2,5 -14,24 -27,44c-14,19 -22,41 -19,48c2,7 -9,23 -26,35c-16,13 -30,29 -30,37c0,24 -52,117 -82,147c-16,15 -28,32 -28,38c0,6 -6,19 -12,30c-11,17 -10,22 2,31c13,9 13,10 0,6c-22,-6 -50,11 -50,31c0,10 -4,22 -9,28c-4,5 -11,30 -15,57c-4,38 -3,47 9,47c9,0 15,-10 15,-24zm-210,-405c0,-11 11,-28 25,-39c14,-11 25,-25 25,-31c0,-6 7,-11 15,-11c18,0 19,-12 3,-28c-9,-9 -9,-12 3,-12c12,0 12,-2 0,-9c-11,-7 -10,-14 8,-39c11,-17 21,-38 21,-49c1,-55 9,-63 70,-63c50,0 58,-3 63,-21c4,-14 11,-20 21,-16c10,4 17,-3 21,-24c4,-16 13,-29 21,-29c8,0 14,-6 14,-13c0,-26 31,-76 65,-106c20,-18 36,-41 37,-56c2,-17 8,-25 21,-25c10,0 21,-9 24,-20c3,-11 9,-20 14,-20c19,0 59,-45 59,-67c0,-25 10,-29 28,-11c9,9 12,5 12,-19c0,-17 7,-38 15,-47c8,-8 12,-22 9,-30c-3,-9 -1,-16 5,-16c7,0 28,-17 47,-37c96,-102 128,-131 136,-127c12,8 9,-11 -4,-24c-9,-9 -8,-12 5,-12c9,0 17,-7 17,-15c0,-8 5,-15 10,-15c6,0 10,-12 10,-27c0,-26 1,-26 15,-7c11,15 14,16 15,3c0,-8 9,-25 20,-37c14,-15 16,-22 8,-23c-10,0 -10,-2 0,-6c6,-2 12,-20 12,-38c0,-19 5,-37 11,-40c6,-4 8,-13 5,-21c-3,-8 1,-14 9,-14c8,0 15,-8 15,-18c0,-20 35,-62 50,-62c6,0 10,5 10,12c0,19 29,-25 30,-44c0,-16 11,-23 33,-19c4,1 10,-6 13,-14c4,-8 12,-15 20,-15c8,0 14,-5 14,-11c0,-6 -8,-9 -19,-6c-10,2 -26,0 -35,-5c-13,-7 -16,-4 -16,19c-1,24 -2,26 -11,10c-6,-9 -14,-15 -19,-12c-13,8 -24,-15 -12,-27c6,-6 8,-17 5,-26c-4,-9 -2,-13 4,-9c21,13 62,-17 65,-48c2,-20 11,-33 26,-40c12,-5 22,-16 22,-23c0,-7 5,-10 11,-7c6,4 13,-2 16,-14c3,-12 12,-21 19,-21c8,0 14,-6 14,-12c0,-14 43,-58 56,-58c5,0 10,-15 11,-33c3,-40 21,-76 50,-99c14,-12 19,-25 16,-38c-3,-11 0,-20 6,-20c6,0 11,-9 11,-19c0,-11 5,-21 11,-23c8,-3 14,-32 18,-100c1,-15 21,-8 21,7c0,8 6,15 14,15c20,0 29,35 16,60c-9,18 -8,20 15,20c22,0 30,-9 26,-32c0,-5 3,-8 9,-8c13,0 50,-32 50,-43c0,-5 25,-59 55,-120c42,-83 55,-121 55,-154c0,-29 -4,-42 -11,-38c-6,4 -13,-2 -16,-14c-3,-12 -8,-21 -12,-21c-13,0 -4,-50 11,-67c9,-10 15,-29 13,-43c-1,-16 7,-31 22,-43c13,-10 23,-29 23,-42c0,-19 7,-24 40,-30c49,-8 52,-22 5,-31c-29,-5 -33,-9 -24,-20c6,-8 15,-11 20,-8c5,3 14,-16 21,-41c7,-26 21,-51 30,-56c10,-5 18,-18 18,-29c0,-10 7,-25 15,-34c8,-8 15,-19 15,-23c0,-5 13,-27 28,-49c16,-21 35,-54 43,-71c8,-18 17,-33 21,-33c5,0 8,-16 8,-35c0,-22 6,-38 15,-41c8,-3 17,-16 21,-27c4,-12 14,-33 23,-47c9,-14 27,-56 40,-93c30,-92 79,-197 92,-197c6,0 9,-8 8,-17c-4,-29 12,-76 38,-115c14,-20 26,-49 27,-63c0,-14 6,-25 13,-25c7,0 10,-7 7,-15c-4,-10 0,-15 14,-15c16,0 20,-6 20,-29c-1,-15 2,-33 6,-40c9,-14 36,-15 36,-1c0,6 -5,10 -12,10c-6,0 -9,3 -6,6c4,3 16,0 29,-7c21,-11 22,-12 5,-25c-17,-12 -17,-14 -1,-41c9,-16 30,-35 45,-41c27,-12 28,-14 14,-40c-13,-25 -12,-28 7,-44c12,-10 17,-23 13,-29c-4,-8 -3,-9 4,-5c7,4 12,2 12,-3c0,-6 7,-11 15,-11c12,0 13,-4 6,-19c-8,-14 -7,-22 5,-32c8,-7 13,-18 10,-26c-3,-7 -1,-13 4,-13c6,0 10,-5 10,-11c0,-6 11,-20 25,-31c14,-11 25,-26 25,-34c0,-8 8,-14 18,-15c14,0 14,-2 -3,-9c-19,-8 -19,-9 2,-9c16,-1 23,-9 28,-32c4,-17 13,-33 21,-36c9,-3 15,-21 15,-47c1,-22 4,-31 6,-18c2,12 7,22 10,22c12,0 32,-36 33,-57c0,-13 5,-23 11,-23c18,0 60,-50 53,-62c-5,-7 -2,-8 6,-3c10,6 12,4 7,-8c-4,-11 1,-20 13,-27c11,-6 20,-17 20,-26c0,-8 11,-19 23,-23c17,-7 31,-28 47,-71c13,-34 29,-64 36,-67c7,-3 22,-24 34,-48c11,-24 32,-54 45,-67c17,-17 22,-31 18,-46c-4,-18 -8,-20 -19,-11c-8,6 -14,18 -14,25c0,24 -17,15 -24,-11c-4,-14 -15,-34 -26,-45c-19,-19 -23,-19 -48,-6c-16,8 -41,33 -57,55c-15,23 -31,41 -34,41c-11,0 -53,98 -46,109c3,6 -1,11 -9,11c-16,0 -79,58 -107,98c-9,12 -37,45 -64,74c-27,29 -50,60 -50,68c-1,8 -2,25 -3,38c-1,12 -9,22 -17,22c-8,0 -15,8 -15,19c0,10 -9,21 -20,24c-11,3 -20,12 -20,21c0,9 -8,16 -20,16c-11,0 -20,4 -20,10c0,5 7,7 15,4c24,-10 17,14 -7,27c-30,16 -63,49 -71,73c-4,10 -13,16 -21,13c-10,-4 -18,4 -25,24c-7,21 -15,27 -28,23c-17,-5 -17,-5 0,6c23,15 22,30 -2,30c-30,0 -60,32 -63,68c-2,19 -16,46 -32,62c-15,17 -24,35 -20,41c5,9 1,10 -14,7c-27,-7 -50,17 -28,29c12,7 10,12 -14,28c-17,11 -30,28 -30,38c0,11 -4,15 -12,11c-7,-5 -10,-1 -7,12c5,21 -31,62 -49,56c-7,-2 -12,3 -12,12c0,9 -4,16 -9,16c-5,0 -12,11 -15,25c-4,14 -11,25 -16,25c-6,0 -10,6 -10,14c0,8 -6,17 -12,19c-10,4 -10,8 0,15c11,7 11,10 -2,15c-9,4 -16,15 -16,25c0,11 -9,26 -20,33c-12,8 -22,24 -23,36c0,12 -4,20 -7,18c-3,-2 -11,9 -18,24c-7,15 -21,37 -33,49c-11,12 -17,27 -14,33c4,6 -2,13 -14,16c-12,3 -21,11 -21,19c0,7 -7,17 -17,22c-9,6 -14,16 -10,25c4,11 2,14 -9,10c-8,-3 -14,1 -14,9c0,8 -9,24 -20,36c-11,12 -20,26 -20,31c0,5 -10,17 -22,25c-12,9 -19,16 -14,16c5,0 1,9 -8,19c-10,11 -15,24 -12,29c3,5 -8,29 -26,53c-38,53 -65,81 -71,71c-2,-4 -2,-1 0,6c3,15 -20,42 -35,42c-12,0 -24,29 -17,40c3,5 1,11 -5,15c-6,4 -8,11 -4,16c3,5 0,8 -8,7c-7,-2 -17,11 -22,29c-6,18 -18,36 -28,39c-10,3 -18,10 -18,15c0,5 -6,9 -14,9c-9,0 -12,7 -10,18c6,20 -45,102 -63,102c-7,0 -13,7 -13,15c0,8 -4,23 -10,33c-17,29 -33,76 -31,90c1,6 -3,12 -9,12c-14,0 -49,40 -50,57c0,6 -11,20 -24,30c-13,11 -27,34 -31,53c-4,19 -12,41 -17,47c-6,7 -8,20 -4,28c4,10 -1,15 -14,15c-11,0 -20,5 -20,11c0,7 -8,19 -18,28c-26,24 -46,67 -39,85c4,10 1,16 -8,16c-8,0 -15,7 -15,15c0,8 -4,15 -10,15c-5,0 -7,14 -5,30c2,21 -1,30 -11,30c-8,0 -14,7 -14,15c0,11 -7,14 -25,9c-19,-5 -25,-2 -25,11c0,12 6,16 20,12c25,-6 27,11 3,20c-23,9 -33,23 -33,51c0,12 -4,22 -10,22c-5,0 -10,9 -10,20c0,11 -7,20 -15,20c-8,0 -15,7 -15,15c0,8 -4,15 -10,15c-5,0 -10,6 -10,14c0,8 -11,23 -23,33c-14,10 -27,35 -31,56c-4,20 -11,37 -16,37c-6,0 -10,17 -11,38c0,20 -3,31 -6,25c-2,-7 -8,-13 -13,-13c-13,0 -40,59 -40,87c0,14 -6,23 -15,23c-10,0 -15,10 -15,29c0,16 -6,31 -15,35c-8,3 -15,12 -15,21c0,8 -5,15 -11,15c-6,0 -8,9 -4,20c4,11 2,20 -4,20c-6,0 -11,6 -11,13c0,8 -9,24 -20,37c-12,13 -19,29 -16,36c3,7 -2,15 -10,18c-9,3 -13,10 -10,15c4,5 -1,16 -9,24c-8,9 -15,23 -15,31c0,9 -3,16 -8,16c-8,0 -27,42 -36,82c-3,15 -13,33 -21,42c-8,8 -15,21 -15,30c0,8 -5,18 -10,21c-17,10 -49,85 -39,91c5,3 6,17 3,31c-5,19 -2,30 11,39c17,13 17,15 2,32c-9,10 -17,24 -17,31c0,7 -10,32 -21,55c-12,22 -25,49 -30,58c-5,10 -9,24 -9,32c0,8 -3,16 -8,18c-14,6 -72,101 -66,110c3,4 -11,15 -32,24c-29,12 -34,18 -23,25c9,6 10,12 4,17c-12,8 -40,89 -38,110c0,6 -3,12 -7,12c-7,0 -19,45 -26,98c-1,13 -8,30 -14,37c-7,8 -9,19 -5,25c3,5 -1,10 -9,10c-13,0 -16,13 -16,68c0,38 3,72 7,75c14,15 43,7 43,-12zm697,-347c18,-20 33,-43 33,-51c0,-8 5,-11 10,-8c6,3 10,-1 10,-9c0,-28 23,-67 37,-62c9,4 13,-5 13,-29c0,-31 -3,-35 -25,-35c-17,0 -25,5 -25,18c0,20 -55,84 -64,75c-3,-3 -9,3 -13,13c-3,10 -11,22 -16,25c-11,8 -27,86 -19,94c12,11 27,3 59,-31zm189,-61c-10,-10 -19,5 -10,18c6,11 8,11 12,0c2,-7 1,-15 -2,-18zm192,-1042c3,-8 0,-11 -6,-7c-6,3 -12,2 -14,-4c-2,-5 -9,-6 -17,-1c-7,5 -10,14 -6,20c9,15 37,10 43,-8zm316,-516c-4,-8 -11,-12 -16,-9c-6,4 -5,10 3,15c19,12 19,11 13,-6zm1017,-223c-15,-4 -33,17 -25,30c3,4 13,0 22,-10c14,-14 15,-18 3,-20zm-1501,-42c0,-5 -4,-10 -10,-10c-5,0 -10,5 -10,10c0,6 5,10 10,10c6,0 10,-4 10,-10zm1080,-110c6,0 17,-15 25,-32c7,-18 23,-43 34,-55c12,-12 21,-29 21,-37c0,-14 38,-42 50,-38c3,1 21,-14 41,-33c20,-19 41,-35 47,-35c5,0 18,-12 28,-27c9,-15 32,-42 51,-59c32,-31 40,-48 26,-57c-5,-2 -2,-2 6,0c21,5 40,-16 47,-53c6,-31 17,-40 47,-35c16,2 66,-64 61,-81c-4,-13 0,-18 15,-18c12,0 21,-4 21,-9c0,-5 9,-12 19,-16c11,-3 23,-15 26,-25c4,-11 12,-17 21,-13c8,3 14,-1 14,-8c1,-20 104,-129 122,-129c9,0 21,-13 27,-28c8,-18 25,-33 46,-41c23,-8 32,-17 28,-26c-3,-9 6,-21 25,-32c17,-10 33,-26 36,-35c2,-10 14,-18 26,-18c13,0 24,-8 27,-20c3,-11 12,-20 19,-20c8,0 14,-6 14,-14c0,-7 11,-21 24,-29c39,-26 55,-47 50,-62c-4,-9 0,-15 10,-15c9,0 16,-4 16,-10c0,-5 8,-10 18,-10c10,0 28,-10 39,-22c31,-34 73,-68 84,-68c5,0 9,-9 9,-20c0,-21 46,-69 66,-70c6,0 17,-11 24,-25c7,-13 17,-22 22,-19c4,3 11,-2 14,-10c3,-9 14,-16 23,-16c16,0 47,-38 43,-52c-1,-5 8,-8 21,-8c15,0 26,-9 35,-30c7,-16 22,-32 34,-36c20,-6 44,-23 79,-56c9,-9 26,-19 38,-23c12,-3 21,-9 21,-13c0,-4 18,-26 40,-50c22,-23 40,-46 40,-50c0,-7 42,-33 60,-37c20,-4 49,-28 47,-38c-1,-7 4,-11 11,-9c6,1 12,-2 12,-8c0,-5 6,-10 13,-10c8,0 27,-13 43,-30c16,-16 32,-30 35,-30c4,0 31,-24 62,-52c69,-65 71,-67 130,-101c26,-15 47,-34 47,-42c0,-8 7,-15 15,-15c9,0 18,-7 22,-16c5,-13 8,-13 15,-2c7,9 8,6 5,-10c-4,-18 -2,-22 13,-17c10,3 24,0 31,-8c8,-7 21,-16 31,-19c9,-4 22,-19 30,-35c8,-16 21,-27 32,-26c12,1 16,-4 12,-14c-5,-11 -2,-13 10,-9c22,9 50,-14 32,-25c-10,-7 -9,-9 4,-9c29,0 103,-51 121,-82c9,-16 21,-27 26,-24c5,4 16,-1 25,-10c9,-8 20,-13 26,-9c15,9 52,-15 46,-31c-3,-9 1,-13 12,-12c39,3 52,-3 58,-27c6,-24 34,-36 34,-14c0,5 -6,7 -12,3c-10,-5 -10,-4 -1,6c12,13 37,4 28,-10c-7,-11 68,-60 90,-60c8,0 28,-19 45,-41c29,-41 66,-67 104,-75c10,-2 19,-5 20,-6c11,-28 30,-47 62,-62c21,-11 45,-28 52,-38c11,-15 17,-16 28,-7c11,9 14,8 14,-6c0,-11 5,-15 16,-11c8,3 12,2 9,-4c-3,-6 4,-15 17,-21c13,-5 39,-19 58,-29c19,-11 43,-19 53,-20c11,0 21,-9 24,-21c4,-16 8,-18 14,-7c7,10 13,8 27,-8c18,-23 56,-39 82,-36c8,1 24,-11 35,-28c11,-16 25,-30 30,-30c6,0 16,-9 23,-21c9,-14 19,-18 33,-14c18,6 89,-30 89,-46c0,-3 15,-11 34,-19c19,-7 36,-21 39,-30c3,-10 23,-22 53,-29c61,-16 61,-16 109,-46c22,-14 46,-28 53,-31c6,-4 12,-12 12,-20c0,-8 9,-15 20,-15c27,-2 29,-3 74,-22c21,-9 42,-17 47,-17c5,0 9,-4 9,-9c0,-5 10,-13 23,-17c12,-4 36,-18 54,-31c18,-14 37,-22 42,-19c5,4 16,-2 23,-11c15,-21 60,-43 87,-43c11,0 21,-6 24,-14c3,-7 21,-16 41,-20c40,-8 126,-53 126,-67c0,-6 7,-6 19,0c21,12 32,5 24,-15c-4,-10 3,-14 25,-14c16,0 35,-7 42,-15c7,-8 20,-15 30,-15c26,0 70,-25 87,-49c8,-12 18,-19 23,-16c5,3 11,1 15,-4c3,-6 12,-8 20,-4c9,3 21,1 28,-5c6,-5 29,-15 50,-21c20,-7 37,-17 37,-22c0,-6 5,-7 10,-4c6,3 10,-1 10,-9c0,-10 9,-16 23,-17c85,-4 102,-9 128,-38c17,-20 29,-27 36,-20c12,12 43,1 43,-16c0,-20 15,-26 86,-40c57,-11 64,-10 64,4c1,14 2,14 10,0c14,-23 90,-61 108,-54c8,3 22,-1 31,-8c16,-15 101,-30 99,-19c-2,22 4,24 18,4c8,-12 21,-22 29,-22c7,0 20,-6 27,-14c8,-7 43,-16 79,-20c141,-14 179,-23 179,-43c0,-10 6,-13 16,-9c8,3 12,2 9,-3c-3,-6 16,-13 42,-16c81,-11 122,-25 118,-38c-8,-20 8,-34 47,-41c32,-6 37,-4 32,9c-3,8 -1,15 5,15c6,0 11,-7 11,-16c0,-10 6,-14 15,-10c9,3 15,0 15,-9c0,-17 16,-20 24,-6c7,10 44,3 63,-12c9,-6 23,-5 43,3c23,10 37,10 55,2c14,-7 25,-8 25,-3c0,5 11,12 25,15c13,3 40,16 60,27c40,24 40,47 -1,85c-12,12 -20,25 -17,28c3,3 -2,8 -11,12c-21,8 -49,59 -57,104c-4,19 -12,60 -18,90c-6,30 -13,96 -16,145c-11,155 -23,237 -38,247c-7,4 -7,11 2,22c10,12 10,19 0,38c-8,15 -13,101 -15,273c-2,137 -6,266 -8,285c-2,19 -5,43 -5,53c-1,11 -6,15 -13,11c-7,-5 -8,-3 -3,5c11,19 15,160 4,166c-5,4 -9,22 -9,41c0,19 -4,34 -9,34c-5,0 -11,19 -14,43c-3,23 -10,61 -17,85c-12,41 -7,69 8,45c4,-6 14,-13 21,-15c22,-5 61,-40 55,-49c-3,-5 9,-6 26,-3c22,5 36,2 50,-11c11,-10 41,-20 68,-23c47,-4 48,-5 44,-35c-4,-24 -2,-29 11,-24c10,4 18,-1 22,-13c7,-21 104,-120 118,-120c4,0 20,-13 35,-28c27,-28 79,-57 96,-53c13,3 46,-30 46,-46c0,-7 6,-13 13,-13c27,0 74,-30 85,-54c7,-16 21,-26 39,-28c20,-2 27,-8 25,-20c-2,-11 6,-20 22,-24c14,-3 28,-13 31,-23c2,-9 23,-24 45,-34c23,-9 39,-21 36,-26c-9,-14 60,-62 78,-55c11,4 16,0 16,-15c0,-14 5,-19 15,-15c9,4 18,-1 22,-12c10,-28 29,-44 51,-44c10,0 24,-11 30,-25c7,-14 23,-30 37,-37c14,-6 25,-16 25,-21c0,-5 9,-7 19,-4c22,5 56,-22 66,-53c3,-11 12,-20 19,-20c7,0 22,-9 34,-20c12,-11 25,-20 30,-20c6,0 13,-10 16,-22l7,-23l11,25l10,25l8,-27c13,-44 20,-51 37,-36c12,10 17,9 24,-5c6,-9 16,-17 23,-17c7,0 21,-9 31,-20c10,-11 24,-20 31,-20c17,0 74,-33 74,-43c0,-5 4,-5 10,-2c5,3 15,-6 22,-20c8,-18 17,-25 30,-22c11,3 18,0 18,-9c0,-8 3,-13 8,-13c4,1 14,1 22,0c12,-1 13,-3 1,-10c-10,-6 -1,-11 28,-16c22,-4 41,-11 41,-16c0,-6 5,-7 10,-4c6,4 26,-10 45,-30c34,-34 79,-60 101,-57c5,1 20,-7 32,-18c26,-25 42,-26 42,-2c1,16 1,16 11,0c5,-10 17,-18 24,-18c8,0 15,-7 15,-15c0,-9 12,-18 29,-21c17,-4 31,-14 34,-25c4,-14 14,-19 37,-19c21,0 30,-4 28,-12c-5,-15 38,-52 51,-44c5,3 20,-4 35,-15c18,-14 26,-16 26,-7c1,8 8,4 19,-9c11,-13 29,-23 40,-23c12,0 30,-9 40,-19c11,-11 22,-17 24,-14c3,2 8,-5 12,-17c5,-15 12,-19 25,-15c13,4 20,0 25,-15c4,-13 15,-20 31,-20c13,0 36,-13 52,-30c16,-16 34,-30 39,-30c13,0 54,-21 73,-38c47,-40 64,-52 77,-52c7,0 13,-7 13,-15c0,-8 8,-15 18,-15c11,0 27,-9 37,-20c10,-11 24,-20 31,-20c7,0 18,-14 26,-30c13,-31 51,-42 61,-17c4,7 8,3 12,-10c4,-13 15,-23 25,-23c9,0 29,-11 44,-25c19,-18 34,-23 50,-19c16,4 25,0 30,-11c4,-11 13,-15 26,-12c11,3 26,-1 34,-8c7,-8 25,-17 40,-21c14,-3 26,-12 26,-19c0,-7 7,-18 15,-25c10,-9 15,-9 15,-1c0,19 21,12 72,-25c28,-20 63,-36 79,-36c22,-1 29,-6 29,-22c0,-17 2,-18 10,-6c8,13 11,12 16,-7c3,-12 17,-24 30,-27c13,-4 24,-13 24,-22c0,-16 56,-44 89,-44c10,0 21,-9 24,-20c3,-11 20,-27 39,-35c18,-9 47,-24 63,-35c17,-10 42,-19 56,-19c17,-1 35,-12 50,-31c13,-16 28,-30 33,-30c4,0 23,-12 41,-27c38,-32 88,-68 95,-69c86,-11 150,-31 150,-46c0,-6 7,-8 15,-5c19,8 31,-13 14,-24c-10,-6 -11,-9 -1,-9c7,0 12,-12 12,-29c0,-34 -40,-81 -70,-81c-30,0 -33,-1 -60,-20c-14,-9 -35,-20 -46,-24c-12,-4 -32,-26 -45,-50c-25,-47 -63,-76 -101,-76l-23,-1l24,-13c24,-13 24,-14 3,-20c-12,-4 -27,-22 -34,-42c-9,-26 -24,-40 -58,-57c-50,-25 -72,-46 -65,-65c2,-6 -2,-12 -11,-12c-8,0 -17,-7 -20,-15c-4,-8 -12,-15 -20,-15c-7,0 -21,-17 -31,-37c-22,-48 -34,-60 -78,-78c-31,-13 -41,-29 -36,-57c0,-4 -6,-5 -14,-2c-9,4 -15,0 -15,-10c0,-9 -7,-16 -15,-16c-8,0 -20,-9 -27,-20c-7,-11 -19,-20 -25,-20c-7,0 -23,-11 -35,-25c-11,-13 -25,-22 -30,-19c-4,3 -8,-2 -8,-11c0,-8 -7,-18 -16,-22c-8,-3 -13,-12 -10,-20c5,-11 1,-13 -15,-8c-14,5 -19,3 -15,-3c3,-6 -7,-15 -23,-20c-16,-6 -32,-20 -36,-31c-3,-12 -12,-21 -18,-21c-7,0 -6,-4 3,-10c12,-8 10,-10 -10,-10c-18,0 -30,-9 -43,-33c-19,-35 -125,-123 -144,-119c-7,1 -17,-7 -23,-18c-6,-11 -17,-20 -25,-20c-8,0 -15,-6 -15,-14c0,-8 -10,-17 -22,-21c-37,-10 -68,-28 -63,-35c3,-5 -6,-11 -20,-14c-16,-4 -22,-11 -19,-21c4,-9 0,-15 -10,-15c-9,0 -25,-9 -36,-20c-12,-12 -25,-18 -29,-15c-5,2 -11,-3 -13,-13c-6,-21 -77,-58 -104,-53c-7,1 -14,-8 -17,-19c-3,-11 -12,-20 -21,-20c-9,0 -16,-5 -16,-11c0,-5 -4,-8 -9,-4c-6,3 -24,-9 -42,-26c-26,-26 -36,-30 -50,-21c-20,13 -29,6 -29,-20c0,-10 -7,-18 -16,-18c-28,0 -84,-32 -84,-47c0,-11 -7,-14 -27,-10c-15,3 -35,1 -44,-3c-12,-7 -22,-1 -37,20c-12,16 -22,32 -22,35c0,14 47,51 60,47c12,-4 13,-2 3,9c-17,18 -16,29 2,29c8,0 15,6 15,14c0,8 7,16 15,20c8,3 15,13 15,21c0,9 4,14 8,11c5,-3 15,4 22,15c8,10 23,19 33,19c11,0 23,13 33,35c9,22 21,35 32,35c12,0 25,15 36,40c10,22 24,40 31,40c26,0 63,22 76,46c7,13 19,24 27,24c8,0 12,6 9,13c-6,16 31,53 69,67c21,8 25,13 15,19c-10,6 -5,11 18,16c17,3 31,13 31,21c0,8 5,14 11,14c6,0 8,8 4,19c-6,20 21,38 28,18c2,-7 11,3 21,20c9,18 21,33 26,33c5,0 17,14 27,31c10,17 33,37 51,46c17,8 32,22 32,29c0,8 8,14 18,14c14,0 15,2 2,10c-13,8 -12,10 3,10c9,0 17,5 17,11c0,5 14,15 30,20c18,7 30,18 30,29c0,21 60,89 60,69c1,-9 8,-5 20,10c11,13 20,18 20,12c0,-6 5,-11 11,-11c6,0 9,7 5,15c-3,9 0,15 8,15c7,0 26,14 42,31c65,69 110,109 124,110c10,0 11,2 3,6c-17,6 2,43 22,43c8,0 21,13 30,30c9,17 24,30 35,30c10,0 27,11 38,25c11,14 27,25 36,25c9,0 25,9 36,20c11,11 24,20 29,20c17,0 70,63 76,91c4,16 13,29 21,29c8,0 17,7 20,15c4,10 13,13 25,10c31,-10 63,71 34,87c-8,5 -15,15 -15,23c0,8 -5,17 -11,21c-8,5 -10,-1 -7,-20c4,-21 -1,-30 -27,-46c-18,-11 -38,-20 -45,-20c-14,0 -50,-38 -50,-51c0,-5 -20,-18 -45,-30c-25,-12 -45,-25 -45,-30c0,-5 -6,-9 -14,-9c-8,0 -23,-20 -35,-45c-12,-25 -27,-45 -34,-45c-7,0 -18,-9 -25,-20c-7,-11 -21,-20 -32,-20c-11,0 -20,-4 -20,-8c0,-4 -14,-13 -30,-19c-20,-8 -28,-16 -24,-26c8,-23 -17,-33 -29,-12c-9,16 -12,13 -27,-25c-11,-27 -24,-44 -36,-46c-10,-2 -26,-12 -34,-24c-36,-50 -87,-97 -113,-104c-17,-4 -27,-13 -27,-25c0,-9 -11,-24 -25,-31c-14,-7 -25,-20 -25,-27c0,-7 -7,-16 -15,-19c-8,-4 -15,-12 -15,-20c0,-8 -6,-11 -14,-8c-24,9 -75,-28 -88,-63c-10,-27 -17,-33 -43,-34c-16,0 -24,-3 -17,-6c9,-4 7,-10 -7,-22c-12,-10 -18,-21 -14,-25c3,-3 -1,-6 -10,-6c-10,0 -17,-7 -17,-15c0,-8 -6,-15 -14,-15c-7,0 -19,-7 -26,-15c-7,-8 -20,-15 -29,-15c-22,0 -54,-35 -70,-76c-9,-24 -17,-30 -32,-27c-13,4 -19,0 -19,-11c0,-9 -11,-21 -25,-26c-13,-5 -30,-18 -37,-30c-7,-11 -21,-20 -30,-20c-11,0 -15,-5 -12,-15c5,-11 -1,-15 -19,-15c-27,0 -71,-45 -61,-61c3,-5 -3,-12 -13,-16c-10,-3 -22,-12 -26,-20c-4,-7 -15,-13 -22,-13c-8,0 -15,-9 -15,-20c0,-11 -6,-20 -13,-20c-7,0 -19,-10 -27,-21c-26,-38 -44,-53 -48,-40c-2,6 -8,11 -14,11c-5,0 -7,-9 -3,-20c4,-14 -4,-29 -29,-55c-19,-19 -40,-35 -45,-35c-6,0 -15,-9 -21,-21c-9,-15 -15,-18 -25,-9c-10,8 -15,4 -24,-21c-6,-17 -20,-33 -31,-36c-11,-3 -20,-11 -20,-18c0,-16 -60,-78 -68,-71c-8,9 -43,-15 -39,-27c2,-6 -5,-19 -15,-29c-10,-10 -16,-23 -13,-28c4,-6 -5,-14 -19,-20c-14,-5 -26,-14 -26,-20c0,-5 -6,-9 -12,-8c-7,2 -12,-3 -10,-9c1,-7 -2,-13 -8,-13c-5,0 -10,-7 -10,-15c0,-8 -7,-15 -15,-15c-16,0 -95,-76 -95,-91c0,-6 -8,-9 -17,-7c-13,2 -19,-5 -21,-24c-2,-16 -8,-28 -13,-28c-10,0 -28,-13 -59,-44c-11,-11 -20,-16 -20,-12c0,5 -7,3 -15,-4c-8,-7 -12,-16 -9,-21c3,-5 -2,-9 -10,-9c-9,0 -16,5 -16,11c0,5 -11,-1 -24,-15c-13,-15 -31,-26 -40,-26c-9,0 -16,-4 -16,-10c0,-5 -18,-15 -40,-21c-22,-7 -40,-16 -40,-21c0,-5 -13,-7 -29,-3c-23,5 -29,2 -34,-14c-3,-12 -13,-21 -22,-21c-9,0 -13,-5 -10,-10c6,-10 -8,-13 -49,-13c-24,1 -41,-16 -41,-41c0,-14 -12,-22 -44,-32c-25,-7 -48,-11 -53,-8c-4,3 -8,0 -8,-7c0,-21 -32,-49 -56,-49c-13,0 -26,-4 -29,-10c-3,-5 -15,-10 -25,-10c-11,0 -17,-5 -15,-13c8,-19 -33,-41 -51,-26c-10,8 -14,8 -14,0c0,-6 -7,-11 -16,-11c-12,0 -15,-6 -11,-21c5,-18 2,-20 -24,-14c-17,4 -29,2 -29,-3c0,-18 -32,-43 -46,-38c-8,3 -13,0 -11,-6c1,-6 -7,-16 -18,-22c-11,-6 -27,-15 -35,-21c-8,-5 -17,-10 -20,-11c-3,0 -13,-4 -23,-8c-10,-5 -23,-3 -32,4c-13,11 -15,8 -15,-14c0,-15 -4,-25 -9,-21c-6,3 -15,-3 -20,-14c-15,-27 -65,-31 -102,-9c-16,10 -27,22 -24,27c3,5 1,13 -5,16c-17,11 -11,203 7,220c13,13 13,15 -1,15c-13,0 -15,13 -11,77c2,42 9,90 16,106c10,23 10,30 -1,37c-7,4 -12,19 -12,34c0,14 -5,26 -10,26c-5,0 -7,4 -3,9c7,13 29,228 25,261c-1,14 -3,68 -5,120c-6,190 -8,225 -17,243c-11,21 -43,23 -34,2c3,-9 0,-15 -9,-15c-8,0 -15,5 -15,10c0,6 -5,10 -11,10c-6,0 -9,-6 -6,-13c3,-8 -5,-14 -24,-15c-23,-2 -32,3 -41,23c-9,20 -17,25 -32,21c-12,-3 -29,-6 -38,-6c-10,0 -18,-6 -18,-14c0,-7 -14,-16 -30,-20c-31,-6 -61,14 -68,45c-2,8 -13,34 -25,59c-11,25 -21,52 -22,60c-1,8 -3,20 -5,25c-2,6 -4,15 -4,20c-1,6 -7,20 -14,31c-6,12 -14,43 -16,69c-5,50 13,88 62,128c15,12 21,25 17,37c-3,11 0,20 7,23c7,2 5,3 -5,1c-12,-2 -17,2 -13,11c3,9 0,12 -10,8c-7,-3 -14,0 -14,6c0,6 -19,11 -44,11c-25,0 -47,4 -51,9c-3,5 -19,9 -35,9c-32,-1 -53,12 -32,19c6,3 12,9 12,14c0,5 -6,9 -12,9c-7,0 -22,15 -33,33c-28,46 -30,51 -12,44c22,-8 30,8 12,23c-20,16 -19,30 1,30c21,0 13,23 -10,26c-27,4 -31,13 -10,21c10,3 22,11 26,17c12,17 9,56 -3,56c-6,0 -3,7 5,16c14,14 14,17 1,30c-16,16 -60,10 -50,-6c3,-5 -1,-25 -9,-43c-12,-30 -17,-34 -42,-29c-16,3 -31,8 -34,12c-3,4 -19,11 -37,14c-29,7 -33,5 -39,-21c-4,-15 -16,-36 -26,-47c-13,-12 -18,-26 -14,-41c3,-12 2,-25 -2,-29c-4,-4 -7,-11 -8,-14c-3,-29 -20,-70 -36,-86c-10,-11 -18,-25 -18,-32c0,-36 -80,-18 -123,27c-11,11 -32,19 -52,19c-19,0 -37,5 -40,11c-4,6 -13,8 -21,5c-8,-3 -14,-1 -14,4c0,6 -9,10 -20,10c-13,0 -18,-5 -14,-15c8,-19 -7,-19 -32,0c-10,8 -27,15 -36,15c-9,0 -28,10 -42,23c-20,19 -35,23 -70,21c-29,-2 -49,2 -57,12c-6,8 -27,14 -45,14c-18,0 -48,8 -66,18c-37,21 -78,33 -125,37c-34,3 -72,34 -65,53c2,7 -4,12 -13,12c-12,0 -15,-5 -11,-17c6,-15 5,-15 -13,1c-13,12 -27,15 -41,11c-16,-5 -23,-2 -27,14c-6,22 -19,28 -25,11c-4,-14 -48,0 -48,15c0,17 -78,55 -99,48c-9,-3 -22,-13 -28,-21c-12,-14 -13,-14 -13,0c0,21 -22,28 -35,12c-13,-16 -94,-22 -103,-7c-4,6 -26,16 -50,22c-23,7 -57,20 -75,30c-17,10 -48,22 -68,25c-25,4 -38,13 -42,26c-3,11 -10,20 -17,20c-6,0 -8,-5 -5,-11c4,-6 -2,-5 -14,3c-26,16 -27,25 -3,31c13,4 11,5 -5,6c-13,0 -23,-3 -23,-9c0,-14 -27,-13 -36,2c-4,7 -3,8 4,4c7,-4 12,-4 12,-1c0,9 -71,37 -78,31c-3,-3 0,-6 6,-6c7,0 12,-4 12,-10c0,-5 -4,-10 -10,-10c-12,0 -60,48 -60,61c0,5 -13,7 -30,4c-21,-4 -30,-1 -30,8c0,10 -9,13 -27,11c-27,-3 -27,-2 -8,13c20,15 20,15 -2,8c-14,-4 -23,-2 -23,4c0,6 -7,11 -15,11c-8,0 -15,6 -15,14c0,15 -45,30 -61,21c-5,-4 -12,1 -15,9c-3,9 -12,16 -20,16c-7,0 -29,8 -48,17c-28,14 -34,22 -29,38c5,16 3,18 -8,9c-8,-6 -30,-14 -51,-18c-31,-6 -39,-3 -56,19c-11,14 -25,25 -31,25c-6,0 -8,7 -5,15c7,18 -28,33 -74,30c-23,-1 -31,2 -28,11c5,14 -12,24 -31,16c-7,-2 -13,-10 -13,-18c0,-8 -7,-14 -16,-14c-14,0 -14,3 -4,15c15,18 13,20 -19,30c-16,5 -21,4 -17,-4c4,-6 0,-11 -8,-11c-9,0 -16,5 -16,10c0,6 -16,10 -35,10c-21,0 -43,8 -54,19c-11,11 -27,18 -38,18c-13,-2 -19,6 -21,31c-2,20 1,32 9,32c8,0 8,4 -1,15c-7,9 -29,15 -52,15c-35,0 -39,2 -33,20c4,11 2,20 -4,20c-6,0 -8,6 -6,13c3,7 -5,12 -22,13c-46,3 -62,9 -93,36c-17,15 -30,24 -30,21c0,-3 -6,0 -13,6c-8,6 -17,8 -20,4c-4,-3 -7,-1 -7,5c0,8 -7,9 -26,2c-25,-10 -26,-9 -22,15c6,27 -14,45 -49,45c-10,0 -30,6 -45,14c-15,8 -40,17 -57,21c-17,4 -31,11 -31,16c0,6 -8,9 -17,7c-13,-2 -21,7 -28,30c-6,23 -15,32 -30,32c-11,0 -31,7 -43,16c-12,8 -27,12 -32,9c-6,-3 -13,0 -16,8c-3,9 -17,18 -31,22c-16,4 -23,11 -19,20c3,8 1,17 -4,20c-6,4 -10,1 -10,-6c0,-10 -3,-10 -12,-1c-16,16 -31,15 -23,0c4,-7 -1,-4 -10,7c-9,11 -20,19 -24,18c-4,-1 -20,9 -36,23c-15,13 -31,24 -35,24c-5,0 -11,11 -14,25c-5,18 -13,25 -30,25c-18,0 -27,8 -35,30c-5,17 -17,30 -25,30c-8,0 -35,27 -60,59c-37,49 -42,61 -28,64c9,3 4,5 -12,6c-16,0 -27,4 -23,7c10,10 -14,64 -29,64c-8,0 -14,4 -14,9c0,5 -11,12 -25,15c-15,4 -25,14 -25,24c0,18 -23,42 -59,62c-13,6 -21,21 -21,35c0,14 -4,25 -10,25c-24,0 -52,112 -35,139c5,10 4,16 -3,19c-7,2 -12,8 -12,13c0,6 4,8 9,5c5,-3 11,1 15,9c3,9 0,15 -9,15c-8,0 -15,5 -15,11c0,6 -6,9 -12,7c-7,-3 -25,15 -41,38c-25,39 -47,56 -72,58c-5,1 -10,6 -10,13c0,7 -21,35 -47,62c-27,28 -48,55 -48,61c0,5 -7,10 -15,10c-15,0 -24,14 -29,43c-1,8 -14,25 -29,39c-15,14 -24,28 -20,31c3,4 -6,11 -21,17c-14,5 -25,13 -24,17c4,22 -15,61 -28,56c-8,-3 -15,1 -16,8c-3,30 -4,35 -15,53c-6,12 -17,17 -26,13c-9,-3 -21,1 -27,9c-8,9 -9,14 -2,14c6,0 10,9 9,21c-1,13 -7,19 -18,16c-12,-3 -21,9 -34,46c-14,39 -20,47 -25,32c-8,-24 0,-66 11,-59c5,3 9,1 9,-5c0,-5 -4,-13 -10,-16c-5,-3 -10,-14 -9,-23c0,-11 3,-12 6,-4c8,21 23,13 21,-13c-1,-14 -6,-25 -10,-25c-4,0 -5,-6 -2,-14c7,-17 -16,-33 -25,-18c-4,6 -26,14 -49,18c-33,5 -42,11 -42,27c0,20 -43,67 -61,67c-5,0 -9,9 -9,19c0,10 -7,22 -16,25c-8,3 -13,10 -9,15c3,5 -5,11 -17,13c-14,2 -22,9 -20,19c1,8 -7,25 -18,37c-12,12 -16,22 -11,22c5,0 11,15 13,32c3,35 21,44 64,34c17,-5 24,-13 24,-30c0,-14 11,-33 25,-44c13,-11 21,-22 18,-26c-3,-3 1,-6 11,-6c9,0 22,-11 28,-25c6,-14 20,-25 30,-25c11,0 17,4 13,9c-3,5 -1,12 4,15c14,9 1,46 -16,46c-8,0 -17,9 -20,20c-3,11 -9,20 -14,20c-5,0 -9,7 -9,16c0,8 -5,12 -10,9c-6,-4 -9,-3 -8,2c1,4 -1,23 -5,41c-5,27 -11,33 -29,30c-18,-2 -24,3 -26,22c-2,14 -15,39 -28,57c-13,17 -24,36 -24,42c0,6 -7,11 -15,11c-9,0 -19,8 -22,17c-4,10 -17,27 -30,39c-13,12 -23,30 -23,41c0,31 -31,87 -40,73c-5,-8 -10,-1 -15,19c-4,18 -15,37 -26,44c-10,6 -19,17 -19,24c0,7 -5,13 -11,13c-5,0 -7,5 -4,10c3,6 -1,10 -10,10c-14,0 -16,6 -10,27c5,23 4,25 -8,14c-18,-14 -32,1 -23,25c3,8 -1,17 -9,20c-8,4 -15,10 -15,16c0,15 -27,38 -44,38c-11,0 -16,9 -16,30c0,22 -5,30 -17,31c-15,0 -15,2 2,9c18,8 19,9 1,9c-12,1 -16,6 -12,16c3,8 1,15 -4,15c-6,0 -10,-5 -10,-11c0,-5 -4,-7 -10,-4c-5,3 -10,16 -10,28c0,13 -9,29 -20,37c-21,15 -27,40 -10,40c6,0 10,5 10,11c0,5 -8,9 -17,8c-34,-3 -41,1 -36,21c4,14 0,20 -12,20c-10,0 -15,5 -12,13c3,7 -8,28 -24,47c-16,18 -29,38 -29,45c0,18 -40,66 -53,63c-7,-1 -22,2 -34,6c-21,7 -22,9 -9,33c11,23 11,30 -3,55c-9,15 -19,28 -23,28c-5,0 -8,7 -8,16c0,8 -16,22 -35,30c-24,9 -33,19 -29,29c5,11 -1,15 -18,15c-20,0 -26,7 -35,41c-6,23 -9,59 -7,80c3,23 1,39 -6,39c-5,0 -10,7 -10,15c0,8 -5,15 -11,15c-5,0 -7,5 -4,10c3,6 -1,10 -9,10c-14,0 -20,12 -17,33c0,4 -4,7 -9,7c-6,0 -10,-8 -10,-17c-1,-17 -1,-17 -11,-1c-5,10 -9,26 -7,35c2,12 -3,17 -14,15c-14,-2 -18,4 -18,25c0,21 -3,24 -10,13c-14,-22 -24,12 -17,61c4,31 1,41 -13,49c-10,5 -23,23 -28,40c-6,16 -16,30 -21,30c-6,0 -11,7 -11,15c0,8 -5,15 -11,15c-6,0 -9,7 -5,15c3,8 -1,18 -9,23c-13,7 -18,28 -24,90c0,6 -7,12 -15,12c-8,0 -18,10 -22,23c-4,12 -12,26 -18,30c-8,6 -8,10 1,14c8,3 2,16 -20,37c-41,43 -49,53 -70,99c-10,20 -22,37 -27,37c-5,0 -7,7 -3,16c4,10 -1,22 -12,30c-15,11 -16,16 -5,29c12,14 11,18 -1,26c-8,5 -18,9 -24,9c-5,0 -3,-5 5,-10c9,-6 10,-10 3,-10c-18,0 -26,19 -30,73c-3,30 -12,57 -23,70c-11,11 -17,24 -14,29c3,5 -2,16 -12,24c-13,11 -15,17 -7,20c9,4 9,13 2,31c-5,13 -7,29 -3,34c3,5 1,9 -4,9c-10,0 -9,57 2,68c4,4 14,-2 22,-12c8,-11 14,-17 14,-13c0,5 6,2 14,-5c8,-7 12,-16 10,-20c-3,-4 6,-14 20,-23c13,-9 29,-30 35,-46c5,-16 17,-32 25,-35c8,-3 18,-19 21,-35c4,-16 12,-32 19,-36c7,-5 19,-18 25,-31c7,-14 18,-21 26,-18c8,3 12,0 9,-8c-3,-7 7,-29 21,-50c14,-20 25,-42 26,-49c0,-9 2,-9 6,1c9,23 25,12 20,-14c-3,-18 -1,-24 9,-20c17,6 29,-10 44,-60c12,-41 59,-82 80,-69c6,3 10,-4 10,-17c0,-14 12,-33 30,-48c17,-14 30,-33 30,-42c0,-10 10,-20 25,-24c14,-3 25,-13 25,-20c0,-8 16,-30 36,-48c51,-49 50,-48 83,-83c16,-17 31,-37 33,-45c4,-11 8,-11 21,1c18,14 17,15 21,-39c1,-9 11,-15 26,-15c19,0 26,6 28,24c4,23 3,23 -13,8c-20,-21 -26,-21 -19,-2c4,8 1,15 -6,15c-6,0 -8,5 -5,10c3,6 3,19 0,31c-6,17 -9,18 -23,7c-13,-11 -15,-10 -10,10c5,17 2,22 -13,22c-12,0 -19,7 -19,20c0,10 -6,23 -14,27c-8,4 -16,19 -18,33c-1,14 -13,29 -25,35c-13,5 -23,13 -23,18c0,14 -52,77 -59,73c-10,-6 -24,5 -38,31c-19,33 -16,53 5,47c12,-4 14,-3 4,4c-7,5 -24,7 -37,5c-17,-4 -25,1 -30,19c-11,33 -55,88 -71,88c-8,0 -11,6 -8,15c7,17 -20,48 -31,37c-5,-4 -1,4 8,18c21,31 22,50 1,24c-8,-10 -13,-13 -9,-6c3,6 0,15 -8,18c-9,3 -14,16 -12,32c2,18 -8,42 -30,72c-18,25 -36,59 -39,75c-4,19 -19,38 -41,53c-23,14 -35,30 -35,45c0,22 -31,57 -51,57c-5,0 -8,4 -5,9c3,5 -1,11 -9,15c-8,3 -15,13 -15,22c0,9 -12,30 -26,47c-17,20 -24,37 -20,51c3,12 6,29 6,39c0,15 5,14 40,-8c22,-14 44,-25 50,-25zm550,10c0,-5 -2,-10 -4,-10c-3,0 -8,5 -11,10c-3,6 -1,10 4,10c6,0 11,-4 11,-10zm-905,-30c3,-5 1,-10 -4,-10c-6,0 -11,5 -11,10c0,6 2,10 4,10c3,0 8,-4 11,-10zm925,0c0,-5 -7,-10 -15,-10c-8,0 -15,5 -15,10c0,6 7,10 15,10c8,0 15,-4 15,-10zm-920,-62c0,-4 -7,-8 -15,-8c-8,0 -15,4 -15,8c0,5 7,9 15,9c8,0 15,-4 15,-9zm40,-18c0,-5 -4,-10 -10,-10c-5,0 -10,5 -10,10c0,6 5,10 10,10c6,0 10,-4 10,-10zm415,-30c3,-5 1,-10 -4,-10c-6,0 -11,5 -11,10c0,6 2,10 4,10c3,0 8,-4 11,-10zm-450,-10c3,-5 1,-10 -4,-10c-6,0 -11,5 -11,10c0,6 2,10 4,10c3,0 8,-4 11,-10zm1263,-132c-5,-15 -48,-24 -48,-10c0,14 12,22 33,22c10,0 17,-5 15,-12zm31,-45c1,-25 -9,-29 -26,-12c-8,8 -8,19 0,40c10,25 13,27 19,12c3,-10 7,-28 7,-40zm-106,32c-3,-9 -8,-14 -10,-11c-3,3 -2,9 2,15c9,16 15,13 8,-4zm137,-75c0,-5 -4,-10 -10,-10c-5,0 -10,5 -10,10c0,6 5,10 10,10c6,0 10,-4 10,-10zm-30,-6c0,-8 -32,-33 -42,-34c-10,0 24,38 35,39c4,1 7,-2 7,-5zm-30,-64c0,-5 -4,-10 -10,-10c-5,0 -10,5 -10,10c0,6 5,10 10,10c6,0 10,-4 10,-10zm257,-25c0,-8 -4,-12 -9,-9c-4,3 -8,9 -8,15c0,5 4,9 8,9c5,0 9,-7 9,-15zm238,-85c3,-5 1,-10 -4,-10c-6,0 -11,5 -11,10c0,6 2,10 4,10c3,0 8,-4 11,-10zm-1015,-280c0,-5 -4,-10 -10,-10c-5,0 -10,5 -10,10c0,6 5,10 10,10c6,0 10,-4 10,-10zm-936,-51c-18,-20 -18,-21 -1,-34c9,-7 15,-19 12,-27c-4,-10 1,-17 14,-21c18,-4 38,-35 39,-60c0,-5 12,-24 27,-43c14,-19 23,-39 20,-44c-3,-6 -2,-10 2,-10c5,0 14,-9 21,-20c10,-17 10,-20 -3,-20c-8,0 -24,9 -35,20c-11,11 -26,20 -32,20c-10,0 -10,2 0,8c9,6 5,12 -15,23c-16,8 -33,20 -39,28c-6,8 -15,11 -21,8c-6,-4 -8,3 -6,17c3,13 0,27 -6,30c-5,4 -8,13 -4,21c3,8 1,15 -5,15c-5,0 -13,12 -16,26c-5,17 -12,24 -21,20c-14,-5 -16,-1 -19,37c-1,6 5,11 12,10c6,-2 12,2 12,7c0,6 19,10 42,10c41,0 41,0 22,-21zm111,-289c3,-5 1,-10 -4,-10c-6,0 -11,5 -11,10c0,6 2,10 4,10c3,0 8,-4 11,-10zm785,-226c0,-2 -9,-4 -20,-4c-11,0 -20,4 -20,9c0,5 9,7 20,4c11,-3 20,-7 20,-9zm-375,-94c3,-5 1,-10 -4,-10c-6,0 -11,5 -11,10c0,6 2,10 4,10c3,0 8,-4 11,-10zm-10,-39c3,-5 1,-12 -5,-16c-5,-3 -10,1 -10,9c0,18 6,21 15,7zm-68,-163c-3,-8 -6,-5 -6,6c-1,11 2,17 5,13c3,-3 4,-12 1,-19zm303,-128c0,-5 -8,-10 -17,-10c-15,0 -16,2 -3,10c19,12 20,12 20,0zm6070,-170c0,-14 6,-20 17,-18c15,2 18,-5 20,-41c2,-24 7,-49 12,-55c6,-7 10,-21 9,-31c0,-11 3,-29 7,-40c5,-15 4,-16 -3,-6c-6,8 -17,11 -26,8c-8,-3 -23,1 -32,11c-13,12 -19,13 -22,4c-7,-23 -22,-12 -22,18c0,19 -9,38 -27,55c-15,14 -24,26 -20,26c4,1 12,3 17,4c6,1 15,3 20,4c6,0 10,12 10,26c0,25 17,54 33,55c4,0 7,-9 7,-20zm-6100,-10c0,-5 -5,-10 -11,-10c-5,0 -7,5 -4,10c3,6 8,10 11,10c2,0 4,-4 4,-10zm2975,-90c56,-25 87,-49 80,-60c-3,-5 8,-14 25,-22c31,-13 42,-48 15,-48c-8,0 -15,5 -15,10c0,6 -15,10 -33,10c-23,0 -40,9 -61,30c-16,17 -31,29 -33,26c-3,-3 -12,1 -19,9c-8,7 -19,15 -25,17c-8,3 -9,15 -4,37c4,19 10,29 14,24c3,-6 29,-21 56,-33zm-2935,10c0,-5 -2,-10 -4,-10c-3,0 -8,5 -11,10c-3,6 -1,10 4,10c6,0 11,-4 11,-10zm6297,-92c7,19 18,15 63,-23c23,-19 36,-35 29,-35c-8,0 -3,-7 10,-16c13,-9 30,-32 37,-51c8,-19 21,-36 29,-40c20,-7 19,-33 0,-33c-8,0 -15,5 -15,11c0,5 -3,8 -7,6c-5,-3 -25,-8 -45,-11c-33,-5 -38,-3 -38,13c0,14 -5,18 -19,14c-13,-3 -23,2 -31,17c-9,17 -14,19 -26,9c-15,-12 -29,-6 -29,14c0,7 -15,20 -34,29c-40,20 -48,58 -19,85c15,13 20,14 33,3c14,-11 17,-10 22,10c6,22 7,22 21,4c10,-13 16,-15 19,-6zm-6197,-54c0,-8 -5,-12 -10,-9c-6,4 -8,11 -5,16c9,14 15,11 15,-7zm3055,-33c-3,-5 -1,-12 5,-16c13,-8 13,-25 0,-25c-12,0 -50,32 -50,42c0,5 12,8 26,8c14,0 23,-4 19,-9zm3275,-125c0,-2 -7,-6 -15,-10c-8,-3 -15,-1 -15,4c0,6 7,10 15,10c8,0 15,-2 15,-4zm-5709,-129c-13,-13 -26,-3 -16,12c3,6 11,8 17,5c6,-4 6,-10 -1,-17zm53,-43c8,-22 8,-24 -8,-24c-18,0 -29,16 -21,30c9,15 22,12 29,-6zm10,-59c3,-8 1,-15 -4,-15c-6,0 -10,7 -10,15c0,8 2,15 4,15c2,0 6,-7 10,-15zm2346,-126c0,-5 -9,-9 -20,-9c-19,0 -26,11 -14,23c8,8 34,-3 34,-14zm140,-63c0,-8 -4,-17 -9,-21c-12,-7 -24,12 -16,25c9,15 25,12 25,-4zm-2445,-93c19,-9 35,-21 35,-27c0,-6 5,-4 10,4c8,13 10,13 10,-2c0,-9 10,-24 23,-33c12,-8 21,-18 20,-20c-7,-13 -1,-23 22,-33c14,-6 25,-18 25,-26c0,-8 15,-32 34,-52c19,-21 38,-49 41,-63c4,-14 14,-31 23,-38c15,-12 13,-13 -13,-7c-16,3 -41,15 -55,25c-14,11 -35,23 -47,29c-25,10 -22,36 5,43c10,2 4,3 -12,1c-21,-3 -35,3 -52,21c-13,15 -24,30 -24,35c0,5 -9,12 -20,15c-11,3 -20,12 -20,20c0,7 -6,20 -14,27c-21,21 -44,72 -39,86c6,15 5,15 48,-5zm335,-23c0,-5 -4,-10 -10,-10c-5,0 -10,5 -10,10c0,6 5,10 10,10c6,0 10,-4 10,-10zm6730,-220c0,-5 -4,-10 -10,-10c-5,0 -10,5 -10,10c0,6 5,10 10,10c6,0 10,-4 10,-10zm-7230,-14c0,-9 7,-12 20,-9c11,3 20,1 20,-5c0,-6 21,-20 46,-31c25,-12 63,-37 83,-56c20,-20 46,-38 59,-41c12,-4 22,-10 22,-15c0,-12 52,-64 71,-71c9,-4 19,-21 22,-38c5,-23 15,-35 37,-43c30,-12 40,-27 18,-27c-8,-1 -6,-6 5,-14c9,-7 17,-18 17,-24c0,-6 8,-16 18,-22c12,-8 13,-13 5,-16c-7,-3 -13,-12 -13,-20c0,-24 -66,-9 -94,20c-21,24 -24,25 -31,9c-6,-14 -12,-5 -25,37c-13,40 -23,55 -36,56c-11,1 -24,2 -29,3c-6,0 -17,17 -24,37c-7,19 -23,40 -35,45c-12,6 -26,20 -31,32c-6,12 -20,23 -32,25c-13,2 -23,11 -23,20c-1,21 -23,52 -39,52c-6,0 -11,5 -11,11c0,12 -25,39 -37,39c-4,0 -9,14 -10,30c-2,21 2,30 12,30c8,0 15,-6 15,-14zm117,-212c-3,-3 -12,-4 -19,-1c-8,3 -5,6 6,6c11,1 17,-2 13,-5zm7303,-4c0,-5 -4,-10 -10,-10c-5,0 -10,5 -10,10c0,6 5,10 10,10c6,0 10,-4 10,-10zm85,-40c-3,-5 -11,-10 -16,-10c-6,0 -7,5 -4,10c3,6 11,10 16,10c6,0 7,-4 4,-10zm5,-30c0,-5 -2,-10 -4,-10c-3,0 -8,5 -11,10c-3,6 -1,10 4,10c6,0 11,-4 11,-10zm117,-42c6,-7 13,-22 16,-33c7,-19 6,-19 -7,-2c-7,9 -20,17 -29,17c-18,0 -30,14 -20,24c10,10 30,7 40,-6zm101,-58c6,0 12,-7 12,-15c0,-19 -26,-20 -34,0c-3,8 -12,12 -21,9c-8,-4 -15,-1 -15,6c0,8 8,10 23,6c12,-3 28,-6 35,-6zm-7219,-85c13,-19 28,-35 34,-35c5,0 4,-7 -3,-15c-16,-19 -47,-19 -66,0c-11,10 -13,25 -8,50c3,19 9,35 13,35c3,0 17,-16 30,-35zm7276,25c-3,-5 -10,-10 -16,-10c-5,0 -9,5 -9,10c0,6 7,10 16,10c8,0 12,-4 9,-10zm-7315,-280c0,-5 -2,-10 -4,-10c-3,0 -8,5 -11,10c-3,6 -1,10 4,10c6,0 11,-4 11,-10zm8483,-290c-6,-24 -23,-37 -23,-18c0,12 18,38 26,38c1,0 0,-9 -3,-20zm-229,-35c-4,-10 0,-15 14,-15c12,0 24,-4 27,-10c3,-5 0,-7 -8,-4c-8,3 -18,1 -22,-5c-10,-17 -23,-13 -35,9c-12,23 -6,40 15,40c9,0 12,-6 9,-15zm210,-21c9,-3 16,-12 16,-20c0,-8 8,-13 18,-12c53,4 79,-3 91,-25c11,-22 17,-23 54,-16c23,4 44,5 46,3c2,-2 -1,-4 -7,-4c-27,0 -9,-17 19,-18c17,0 36,-5 43,-11c7,-6 15,-8 18,-5c3,3 8,-7 12,-21c4,-14 11,-25 17,-25c13,0 39,-25 39,-37c0,-5 15,-16 33,-24c20,-9 33,-22 35,-36c2,-13 11,-23 20,-24c9,0 4,-5 -13,-10c-37,-11 -87,-3 -64,11c9,6 -2,7 -31,4c-24,-3 -41,-2 -37,2c12,12 -14,34 -39,34c-13,0 -24,5 -24,10c0,6 -6,10 -14,10c-8,0 -21,8 -28,18c-7,11 -19,21 -27,24c-8,2 -19,22 -26,44c-8,30 -16,39 -33,40c-12,1 -22,-5 -22,-12c0,-8 -4,-14 -10,-14c-5,0 -10,7 -10,15c0,8 -4,15 -9,15c-5,0 -8,8 -7,17c1,12 -8,18 -28,20c-34,2 -88,53 -57,53c5,0 16,-3 25,-6zm-129,-34c3,-5 -3,-10 -15,-10c-12,0 -18,5 -15,10c3,6 10,10 15,10c5,0 12,-4 15,-10zm493,-61c-2,-6 -8,-10 -13,-10c-5,0 -11,4 -13,10c-2,6 4,11 13,11c9,0 15,-5 13,-11zm998,-374c9,-8 12,-15 7,-16c-4,0 10,-6 32,-14c28,-9 33,-13 18,-14c-17,-1 -25,-10 -33,-42c-12,-44 -29,-66 -71,-93c-26,-16 -28,-16 -53,7c-14,13 -22,28 -17,33c5,5 16,30 26,56c9,26 24,49 32,52c11,4 11,10 3,26c-9,18 -8,20 15,20c15,0 33,-7 41,-15zm-8516,-129c0,-3 -4,-8 -10,-11c-5,-3 -10,-1 -10,4c0,6 5,11 10,11c6,0 10,-2 10,-4zm7907,-153c-3,-10 -5,-4 -5,12c0,17 2,24 5,18c2,-7 2,-21 0,-30zm-750,-249c-3,-3 -12,-4 -19,-1c-8,3 -5,6 6,6c11,1 17,-2 13,-5zm-3649,-315c-2,-6 -8,-10 -13,-10c-5,0 -11,4 -13,10c-2,6 4,11 13,11c9,0 15,-5 13,-11zm4182,-129c0,-5 -4,-10 -10,-10c-5,0 -10,5 -10,10c0,6 5,10 10,10c6,0 10,-4 10,-10zm-4330,-50c0,-5 -7,-10 -15,-10c-8,0 -15,5 -15,10c0,6 7,10 15,10c8,0 15,-4 15,-10zm70,-20c0,-5 -4,-10 -10,-10c-5,0 -10,5 -10,10c0,6 5,10 10,10c6,0 10,-4 10,-10zm3090,-40c0,-5 -2,-10 -4,-10c-3,0 -8,5 -11,10c-3,6 -1,10 4,10c6,0 11,-4 11,-10zm-4152,-32c8,-8 15,-8 26,2c13,10 17,9 22,-4c3,-9 14,-16 24,-16c10,0 20,-7 24,-15c3,-10 19,-15 45,-15c40,0 90,-17 103,-34c3,-5 4,-16 1,-23c-4,-11 1,-14 18,-12c24,4 59,-15 73,-39c6,-10 1,-12 -23,-9c-27,5 -30,3 -27,-16c2,-14 11,-23 24,-25c12,-2 22,-8 22,-13c0,-6 7,-17 15,-25c34,-34 9,-58 -29,-29c-11,8 -29,12 -43,9c-14,-4 -33,0 -49,10c-14,10 -43,18 -64,19c-22,1 -40,4 -40,8c0,6 -27,18 -55,24c-64,15 -77,20 -82,31c-3,8 -13,14 -22,14c-28,0 -45,18 -47,47c0,15 -2,43 -2,61c-1,22 -6,31 -14,26c-7,-4 -8,-3 -4,5c4,6 11,9 16,6c5,-3 12,0 15,6c4,5 13,8 21,5c8,-3 14,-1 14,4c0,14 24,12 38,-2zm822,-12c0,-3 -4,-8 -10,-11c-5,-3 -10,-1 -10,4c0,6 5,11 10,11c6,0 10,-2 10,-4zm-324,-150c6,-10 15,-11 24,-6c9,5 19,5 27,-1c7,-6 17,-8 23,-4c5,3 10,2 10,-3c0,-4 16,-16 35,-25c31,-15 35,-15 35,-2c0,13 6,11 29,-6c17,-12 27,-28 24,-35c-3,-8 1,-14 11,-14c10,0 13,-6 10,-15c-9,-21 -21,-18 -27,7c-5,16 -9,19 -19,10c-21,-17 -100,-3 -105,19c-3,11 -11,15 -21,12c-12,-5 -14,-2 -9,11c6,16 3,18 -24,14c-20,-3 -33,0 -36,9c-3,8 -13,11 -27,8c-17,-5 -18,-4 -6,4c13,10 13,11 0,12c-8,1 -19,1 -24,0c-17,-4 -37,9 -31,19c9,14 88,3 101,-14zm4854,20c0,-2 -7,-6 -15,-10c-8,-3 -15,-1 -15,4c0,6 7,10 15,10c8,0 15,-2 15,-4zm-406,-117c-6,-11 -24,-2 -24,11c0,5 7,7 15,4c8,-4 12,-10 9,-15zm-4519,-19c-3,-5 -13,-6 -21,-3c-12,4 -13,8 -3,14c15,9 32,2 24,-11zm604,-86c5,-5 -30,-44 -39,-44c-10,0 -18,32 -12,48c3,11 37,8 51,-4zm54,-31c-7,-2 -19,-2 -25,0c-7,3 -2,5 12,5c14,0 19,-2 13,-5zm554,-304c6,-20 7,-42 3,-48c-4,-7 -4,-32 0,-56c4,-25 4,-66 0,-92c-4,-27 -4,-56 1,-65c13,-25 -1,-81 -25,-100c-29,-24 -41,-22 -54,8c-7,14 -17,22 -22,19c-6,-3 -10,3 -10,14c0,12 -4,21 -9,21c-16,0 3,175 20,186c5,3 9,18 9,35c0,16 5,29 11,29c8,0 8,4 0,14c-13,15 -3,41 29,76c19,20 32,8 47,-41zm1839,-32c4,-3 3,-14 -1,-24c-5,-10 -9,-24 -11,-31c-4,-20 -25,-42 -39,-42c-7,0 -16,-7 -19,-16c-4,-9 -13,-14 -21,-10c-9,3 -18,-1 -21,-9c-4,-8 -19,-15 -34,-15c-16,0 -32,-5 -36,-11c-4,-7 -15,-2 -30,15c-27,28 -30,37 -11,34c7,-2 11,6 9,20c-2,12 2,22 7,22c6,0 11,-7 11,-17c0,-19 10,-12 14,9c1,8 14,27 29,43c15,17 27,34 27,39c0,9 116,4 126,-7zm60,-201c19,-19 18,-56 -1,-56c-8,0 -15,-7 -15,-16c0,-16 -37,-53 -54,-54c-5,0 -19,-11 -32,-25c-13,-14 -26,-25 -29,-25c-3,0 -27,-20 -53,-45c-26,-25 -52,-45 -59,-45c-7,0 -22,-9 -33,-20c-12,-12 -32,-19 -53,-18c-39,1 -86,-28 -87,-54c0,-10 -5,-18 -11,-18c-20,0 -38,-28 -41,-66c-2,-29 -9,-42 -26,-49c-12,-5 -24,-17 -27,-26c-3,-8 -21,-22 -41,-29c-20,-8 -40,-23 -46,-33c-5,-10 -15,-16 -23,-14c-8,4 -12,-3 -12,-19c0,-32 -11,-43 -23,-24c-8,12 -10,12 -10,-3c0,-11 -9,-21 -20,-24c-10,-3 -22,-14 -25,-24c-4,-10 -13,-19 -21,-19c-8,0 -14,-7 -14,-15c0,-8 -5,-15 -10,-15c-6,0 -22,-11 -36,-25c-14,-14 -30,-25 -37,-25c-7,-1 -21,-13 -32,-27c-39,-51 -119,-123 -136,-123c-4,0 -9,-9 -12,-20c-3,-13 -14,-20 -30,-20c-14,0 -27,-7 -30,-14c-4,-11 -1,-13 11,-9c14,6 15,5 2,-9c-8,-9 -18,-14 -21,-12c-4,2 -9,-10 -13,-26c-4,-21 -11,-30 -26,-30c-16,0 -20,-7 -20,-30c0,-28 -2,-30 -34,-25c-28,3 -36,0 -41,-15c-3,-11 -11,-19 -18,-17c-7,1 -10,-12 -8,-38c3,-35 1,-38 -13,-26c-14,12 -16,11 -16,-8c0,-28 -20,-26 -47,3c-28,29 -28,32 -2,39c13,4 18,10 13,18c-4,7 1,18 12,26c14,10 16,16 7,21c-8,5 -2,12 18,21c16,7 29,19 29,27c0,8 7,14 15,14c8,0 15,6 15,14c0,8 5,16 12,18c7,3 13,21 15,42c1,25 9,43 23,53c23,17 27,43 5,43c-8,0 -15,6 -15,13c0,8 -3,8 -8,1c-4,-6 -14,-13 -24,-17c-9,-3 -22,-22 -29,-41c-7,-20 -20,-36 -29,-36c-14,0 -40,-42 -40,-65c0,-7 -11,-18 -25,-25c-29,-16 -33,-30 -7,-31c14,0 14,-2 -3,-8c-11,-5 -26,-6 -34,-3c-8,3 -12,1 -8,-5c9,-14 -3,-73 -14,-73c-14,0 -59,-47 -59,-62c0,-9 -16,-28 -35,-42c-19,-15 -35,-36 -35,-46c0,-13 -9,-22 -27,-26c-15,-4 -35,-17 -45,-28c-10,-12 -17,-16 -18,-8c0,10 -5,10 -22,1c-13,-7 -26,-17 -30,-23c-4,-6 -10,-7 -15,-3c-4,5 -1,12 7,17c12,8 12,11 -1,27c-31,39 -51,86 -55,133c-4,42 0,57 21,87c14,21 25,41 25,46c0,14 28,37 44,37c9,0 16,4 16,9c0,5 9,11 19,14c11,2 32,23 48,45c20,29 33,39 46,36c9,-3 17,-1 17,5c0,6 14,11 30,11c23,0 30,4 30,20c0,11 5,20 10,20c6,0 10,5 10,11c0,17 41,50 52,43c11,-7 48,29 48,46c0,5 7,10 15,10c8,0 15,4 15,9c0,5 11,12 24,15c13,3 26,15 29,27c3,12 10,18 16,14c6,-3 11,-2 11,3c0,14 33,20 59,11c21,-8 22,-13 16,-51c-4,-24 -14,-48 -23,-54c-22,-16 -9,-41 20,-38c12,1 31,3 40,3c10,1 20,12 24,26c3,14 15,30 25,36c11,5 19,19 19,31c0,16 5,19 25,16c29,-6 33,6 8,21c-16,9 -16,10 3,11c18,0 39,25 34,39c-1,2 2,7 7,10c4,3 17,22 27,42c10,19 28,40 40,45c14,6 21,18 21,36c-1,15 4,26 10,25c5,-1 9,4 8,11c-2,6 6,12 17,12c11,0 20,7 20,15c0,8 5,15 11,15c6,0 24,12 39,28c58,56 66,61 79,53c8,-5 24,-3 40,5c14,8 32,14 40,14c8,0 22,7 31,15c12,11 24,12 48,6c25,-8 32,-7 32,5c0,8 -9,14 -19,14c-27,0 -34,15 -26,57c5,27 9,33 15,23c5,-9 5,-17 -1,-21c-7,-4 -4,-9 5,-12c12,-5 16,0 17,21c1,15 1,33 0,40c-2,15 11,16 27,0c9,-9 12,-9 12,1c0,16 29,45 37,38c10,-11 63,23 63,41c0,14 2,15 10,2c7,-12 12,-12 22,-2c6,6 20,12 30,12c10,0 27,9 38,20c11,11 33,20 49,20c28,0 61,22 61,40c0,5 6,7 13,4c7,-2 22,4 32,16c10,11 28,20 40,20c13,0 25,7 29,15c7,19 14,19 32,1zm-176,-76c0,-5 -2,-10 -4,-10c-3,0 -8,5 -11,10c-3,6 -1,10 4,10c6,0 11,-4 11,-10zm-1720,-90c0,-5 -6,-10 -12,-11c-7,0 -21,-2 -31,-4c-15,-3 -16,-1 -6,11c13,16 49,19 49,4zm1350,-130c0,-5 -4,-10 -10,-10c-5,0 -10,5 -10,10c0,6 5,10 10,10c6,0 10,-4 10,-10zm170,-329c0,-6 -4,-13 -10,-16c-5,-3 -10,1 -10,9c0,9 5,16 10,16c6,0 10,-4 10,-9zm-1075,-309c-3,-3 -11,0 -18,7c-9,10 -8,11 6,5c10,-3 15,-9 12,-12zm115,-232c0,-5 -5,-10 -11,-10c-5,0 -7,5 -4,10c3,6 8,10 11,10c2,0 4,-4 4,-10zm361,-53c-1,-12 -15,-9 -19,4c-3,6 1,10 8,8c6,-3 11,-8 11,-12zm49,3c0,-5 -7,-7 -15,-4c-8,4 -15,8 -15,10c0,2 7,4 15,4c8,0 15,-4 15,-10z"/>
   <path id="svg_4" d="m2105,10770c-3,-5 -1,-10 4,-10c6,0 11,5 11,10c0,6 -2,10 -4,10c-3,0 -8,-4 -11,-10z"/>
   <path id="svg_5" d="m2332,10480c0,-14 2,-19 5,-12c2,6 2,18 0,25c-3,6 -5,1 -5,-13z"/>
   <path id="svg_6" d="m2356,10475c-3,-9 0,-15 9,-15c16,0 20,16 6,24c-5,3 -11,-1 -15,-9z"/>
   <path id="svg_7" d="m2845,9770c-10,-17 4,-65 26,-89c17,-18 18,-25 8,-37c-10,-12 -9,-18 4,-31c8,-9 23,-13 31,-10c18,7 13,46 -11,83c-7,11 -10,24 -6,29c5,4 2,5 -6,0c-11,-6 -13,-2 -7,18c5,20 2,29 -13,37c-14,7 -22,7 -26,0z"/>
   <path id="svg_8" d="m2938,9643c7,-3 16,-2 19,1c4,3 -2,6 -13,5c-11,0 -14,-3 -6,-6z"/>
   <path id="svg_9" d="m2963,9573c-16,-6 -17,-33 -2,-33c15,0 39,26 32,34c-7,7 -12,7 -30,-1z"/>
   <path id="svg_10" d="m2962,9481c1,-32 5,-41 16,-36c10,4 12,0 8,-12c-5,-12 -4,-15 3,-8c7,7 6,22 -3,47c-18,54 -26,57 -24,9z"/>
   <path id="svg_11" d="m3915,7330c3,-5 11,-10 16,-10c6,0 7,5 4,10c-3,6 -11,10 -16,10c-6,0 -7,-4 -4,-10z"/>
   <path id="svg_12" d="m4230,7450c0,-5 5,-10 10,-10c6,0 10,5 10,10c0,6 -4,10 -10,10c-5,0 -10,-4 -10,-10z"/>
   <path id="svg_13" d="m4831,6481c-11,-7 -10,-11 4,-18c9,-5 16,-14 15,-19c-1,-5 3,-10 8,-12c10,-3 4,46 -7,52c-4,3 -13,1 -20,-3z"/>
   <path id="svg_14" d="m5554,5699c-3,-6 -1,-16 5,-22c8,-8 11,-5 11,11c0,24 -5,28 -16,11z"/>
   <path id="svg_15" d="m5633,5662c-9,-15 -6,-23 13,-41c14,-13 28,-21 32,-17c3,4 0,11 -8,16c-8,6 -10,10 -4,10c16,0 35,-25 26,-36c-4,-4 1,-2 11,5c37,29 18,47 -43,42c-20,-1 -22,1 -10,8c10,7 12,13 5,20c-7,7 -14,5 -22,-7z"/>
   <path id="svg_16" d="m5710,5580c0,-5 5,-10 10,-10c6,0 10,5 10,10c0,6 -4,10 -10,10c-5,0 -10,-4 -10,-10z"/>
   <path id="svg_17" d="m5802,5519c2,-7 10,-15 17,-17c8,-3 12,1 9,9c-2,7 -10,15 -17,17c-8,3 -12,-1 -9,-9z"/>
   <path id="svg_18" d="m5967,5443c-16,-15 -7,-35 13,-30c15,4 20,0 20,-13c0,-10 -5,-20 -10,-22c-6,-2 -1,-14 12,-27c15,-17 23,-20 26,-11c3,9 10,5 23,-11c14,-18 21,-21 30,-12c9,9 6,14 -9,24c-16,10 -20,20 -15,37c4,18 2,23 -8,20c-8,-3 -13,-11 -11,-17c3,-17 -15,-13 -22,4c-3,8 -1,15 4,15c6,0 10,5 10,10c0,6 -5,10 -12,10c-6,0 -19,7 -28,15c-9,8 -20,12 -23,8z"/>
   <path id="svg_19" d="m5908,5423c7,-3 16,-2 19,1c4,3 -2,6 -13,5c-11,0 -14,-3 -6,-6z"/>
   <path id="svg_20" d="m6148,5292c-4,-12 -2,-25 4,-28c16,-10 22,4 11,28l-10,22l-5,-22z"/>
   <path id="svg_21" d="m6180,5286c0,-8 9,-12 23,-11c32,4 33,4 17,15c-22,14 -40,12 -40,-4z"/>
   <path id="svg_22" d="m6250,5200c0,-5 5,-10 10,-10c6,0 10,5 10,10c0,6 -4,10 -10,10c-5,0 -10,-4 -10,-10z"/>
   <path id="svg_23" d="m6365,5150c-3,-5 1,-10 9,-10c9,0 16,5 16,10c0,6 -4,10 -9,10c-6,0 -13,-4 -16,-10z"/>
   <path id="svg_24" d="m6475,5081c-3,-5 -1,-12 5,-16c5,-3 10,1 10,9c0,18 -6,21 -15,7z"/>
   <path id="svg_25" d="m6715,4950c3,-5 8,-10 11,-10c2,0 4,5 4,10c0,6 -5,10 -11,10c-5,0 -7,-4 -4,-10z"/>
   <path id="svg_26" d="m6670,4940c0,-5 7,-10 16,-10c8,0 12,5 9,10c-3,6 -10,10 -16,10c-5,0 -9,-4 -9,-10z"/>
   <path id="svg_27" d="m13115,4930c-3,-5 1,-10 9,-10c9,0 16,5 16,10c0,6 -4,10 -9,10c-6,0 -13,-4 -16,-10z"/>
   <path id="svg_28" d="m6685,4901c-3,-5 -1,-12 5,-16c5,-3 10,1 10,9c0,18 -6,21 -15,7z"/>
   <path id="svg_29" d="m13165,4860c-3,-5 1,-10 10,-10c9,0 13,5 10,10c-3,6 -8,10 -10,10c-2,0 -7,-4 -10,-10z"/>
   <path id="svg_30" d="m7198,4643c-10,-2 -18,-8 -18,-13c0,-9 51,-20 63,-13c8,5 -11,34 -22,32c-3,-1 -14,-3 -23,-6z"/>
   <path id="svg_31" d="m6845,4570c-4,-6 3,-10 14,-10c25,0 27,6 6,13c-8,4 -17,2 -20,-3z"/>
   <path id="svg_32" d="m6925,4571c-3,-5 -1,-12 5,-16c5,-3 10,1 10,9c0,18 -6,21 -15,7z"/>
   <path id="svg_33" d="m7768,4293c7,-3 16,-2 19,1c4,3 -2,6 -13,5c-11,0 -14,-3 -6,-6z"/>
   <path id="svg_34" d="m9550,4239c0,-5 -7,-9 -16,-9c-8,0 -12,-5 -9,-11c4,-6 0,-16 -9,-22c-17,-13 -44,-103 -33,-113c3,-4 13,-1 21,5c11,9 16,9 21,0c4,-6 1,-15 -6,-20c-11,-7 -10,-9 4,-9c10,0 25,7 33,15c21,21 34,19 34,-5c0,-11 3,-21 8,-21c38,-7 50,-5 45,7c-3,8 -11,14 -18,14c-13,0 -13,13 -1,115c2,17 -1,37 -7,45c-13,16 -67,23 -67,9z"/>
   <path id="svg_35" d="m8696,3491c-3,-5 1,-11 9,-15c8,-3 15,-1 15,4c0,13 -18,22 -24,11z"/>
   <path id="svg_36" d="m755,13560c-3,-5 -1,-10 4,-10c6,0 11,5 11,10c0,6 -2,10 -4,10c-3,0 -8,-4 -11,-10z"/>
   <path id="svg_37" d="m2295,11580c3,-5 8,-10 11,-10c2,0 4,5 4,10c0,6 -5,10 -11,10c-5,0 -7,-4 -4,-10z"/>
   <path id="svg_38" d="m2357,11553c-12,-12 -7,-49 9,-69c8,-10 13,-14 10,-8c-3,6 -6,27 -8,47c-1,21 -3,37 -3,37c-1,0 -5,-3 -8,-7z"/>
   <path id="svg_39" d="m2710,11110c0,-5 7,-10 15,-10c8,0 15,5 15,10c0,6 -7,10 -15,10c-8,0 -15,-4 -15,-10z"/>
   <path id="svg_40" d="m2780,11050c0,-5 5,-10 10,-10c6,0 10,5 10,10c0,6 -4,10 -10,10c-5,0 -10,-4 -10,-10z"/>
   <path id="svg_41" d="m2937,10919c7,-7 15,-10 18,-7c3,3 -2,9 -12,12c-14,6 -15,5 -6,-5z"/>
   <path id="svg_42" d="m2960,10890c0,-13 11,-13 30,0c12,8 11,10 -7,10c-13,0 -23,-4 -23,-10z"/>
   <path id="svg_43" d="m3021,10824c0,-11 3,-14 6,-6c3,7 2,16 -1,19c-3,4 -6,-2 -5,-13z"/>
   <path id="svg_44" d="m3021,10764c0,-11 3,-14 6,-6c3,7 2,16 -1,19c-3,4 -6,-2 -5,-13z"/>
   <path id="svg_45" d="m3067,10736c-3,-8 -2,-18 3,-21c13,-8 24,15 12,27c-6,6 -11,4 -15,-6z"/>
   <path id="svg_46" d="m3130,10710c0,-5 5,-10 10,-10c6,0 10,5 10,10c0,6 -4,10 -10,10c-5,0 -10,-4 -10,-10z"/>
   <path id="svg_47" d="m3200,10619c0,-5 5,-7 10,-4c6,3 10,8 10,11c0,2 -4,4 -10,4c-5,0 -10,-5 -10,-11z"/>
   <path id="svg_48" d="m3315,10520c-3,-5 -1,-10 4,-10c6,0 11,5 11,10c0,6 -2,10 -4,10c-3,0 -8,-4 -11,-10z"/>
   <path id="svg_49" d="m3310,10475c0,-15 4,-24 10,-20c6,3 10,12 10,20c0,8 -4,17 -10,20c-6,4 -10,-5 -10,-20z"/>
   <path id="svg_50" d="m3340,10450c0,-5 5,-10 10,-10c6,0 10,5 10,10c0,6 -4,10 -10,10c-5,0 -10,-4 -10,-10z"/>
   <path id="svg_51" d="m3462,10383c2,-9 13,-18 25,-19c22,-4 22,-3 6,16c-21,24 -36,26 -31,3z"/>
   <path id="svg_52" d="m3504,10325c-3,-8 6,-36 22,-62c15,-26 29,-42 32,-35c2,6 10,12 19,12c9,0 12,-6 8,-19c-3,-10 1,-24 10,-31c8,-7 15,-19 15,-26c0,-8 5,-14 10,-14c12,0 13,17 1,24c-4,3 -11,31 -14,63c-4,39 -12,61 -24,70c-10,7 -23,17 -30,23c-18,15 -43,12 -49,-5z"/>
   <path id="svg_53" d="m3636,10211c-4,-7 -5,-15 -2,-18c9,-9 19,4 14,18c-4,11 -6,11 -12,0z"/>
   <path id="svg_54" d="m3660,10160c0,-19 3,-21 12,-12c9,9 9,15 0,24c-9,9 -12,7 -12,-12z"/>
   <path id="svg_55" d="m3738,10113c-11,-3 -18,-14 -18,-29c0,-19 5,-24 25,-24c14,0 25,-4 25,-10c0,-5 -5,-10 -11,-10c-5,0 -7,-4 -4,-10c3,-5 12,-10 19,-10c14,0 16,67 3,88c-8,12 -10,13 -39,5z"/>
   <path id="svg_56" d="m3847,10013c-9,-14 17,-83 31,-83c12,0 20,21 15,38c-3,6 -11,12 -18,12c-8,0 -15,10 -17,23c-2,14 -6,18 -11,10z"/>
   <path id="svg_57" d="m3807,10004c-8,-8 1,-24 14,-24c5,0 9,7 9,15c0,15 -12,20 -23,9z"/>
   <path id="svg_58" d="m3903,9934c-8,-22 5,-30 23,-12c14,14 14,16 -1,21c-9,4 -18,1 -22,-9z"/>
   <path id="svg_59" d="m3950,9926c0,-2 7,-6 15,-10c8,-3 15,-1 15,4c0,6 -7,10 -15,10c-8,0 -15,-2 -15,-4z"/>
   <path id="svg_60" d="m3963,9849c-2,-31 13,-40 20,-11c4,14 5,15 6,1c1,-15 40,-34 49,-24c7,7 -14,28 -45,47c-28,16 -28,16 -30,-13z"/>
   <path id="svg_61" d="m4050,9810c0,-5 5,-10 11,-10c5,0 7,5 4,10c-3,6 -8,10 -11,10c-2,0 -4,-4 -4,-10z"/>
   <path id="svg_62" d="m4050,9760c0,-5 7,-10 15,-10c8,0 15,5 15,10c0,6 -7,10 -15,10c-8,0 -15,-4 -15,-10z"/>
   <path id="svg_63" d="m4126,9675c7,-17 20,-20 28,-6c3,5 -1,12 -10,15c-22,9 -24,8 -18,-9z"/>
   <path id="svg_64" d="m4155,9651c-3,-6 1,-11 9,-11c8,0 20,-9 26,-20c15,-28 28,-25 22,5c-2,14 -8,25 -12,25c-5,0 -15,3 -23,6c-8,3 -18,1 -22,-5z"/>
   <path id="svg_65" d="m4227,9644c-9,-10 2,-24 18,-24c9,0 12,6 9,15c-6,16 -17,19 -27,9z"/>
   <path id="svg_66" d="m4234,9584c3,-9 6,-22 6,-29c0,-17 30,-24 51,-12c14,9 13,12 -6,33c-26,28 -61,33 -51,8z"/>
   <path id="svg_67" d="m4307,9528c-18,-19 -18,-20 2,-25c12,-3 17,-11 14,-19c-3,-8 3,-17 13,-21c24,-9 53,-43 54,-62c0,-11 5,-10 20,4c20,18 20,17 20,-8c0,-30 14,-36 24,-11c10,25 7,32 -14,39c-11,4 -18,11 -15,16c4,5 -1,9 -9,9c-9,0 -18,11 -22,24c-4,16 -15,26 -34,29c-23,5 -27,10 -23,27c7,25 -6,25 -30,-2z"/>
   <path id="svg_68" d="m4282,9480c0,-14 2,-19 5,-12c2,6 2,18 0,25c-3,6 -5,1 -5,-13z"/>
   <path id="svg_69" d="m4490,9373c0,-15 -2,-16 -10,-3c-6,9 -10,10 -10,3c0,-6 7,-19 16,-28c9,-8 13,-23 10,-31c-4,-12 -2,-15 9,-10c8,3 15,1 15,-4c0,-6 7,-10 15,-10c22,0 18,17 -5,23c-15,4 -20,14 -20,41c0,20 -4,36 -10,36c-5,0 -10,-8 -10,-17z"/>
   <path id="svg_70" d="m4574,9241c4,-6 14,-11 22,-11c8,0 14,-8 14,-19c0,-22 25,-45 40,-36c6,3 10,-3 10,-14c0,-12 5,-22 10,-22c6,-1 16,-2 23,-3c6,0 13,-11 15,-23c5,-35 20,-27 18,10c-2,20 -7,31 -15,29c-7,-1 -11,3 -9,10c5,15 -43,58 -65,58c-8,0 -17,4 -19,9c-1,4 -14,12 -27,16c-16,5 -21,4 -17,-4z"/>
   <path id="svg_71" d="m4754,9108c0,-22 6,-22 31,-4c17,12 17,13 -6,18c-19,3 -25,0 -25,-14z"/>
   <path id="svg_72" d="m4450,9031c0,-5 7,-11 15,-15c8,-3 14,-11 13,-18c-2,-6 5,-14 15,-16c20,-4 24,27 5,46c-14,14 -48,16 -48,3z"/>
   <path id="svg_73" d="m4880,8731c0,-18 18,-21 30,-6c10,13 9,15 -9,15c-11,0 -21,-4 -21,-9z"/>
   <path id="svg_74" d="m2451,8664c0,-11 3,-14 6,-6c3,7 2,16 -1,19c-3,4 -6,-2 -5,-13z"/>
   <path id="svg_75" d="m5091,8597c2,-1 13,-9 24,-17c19,-14 19,-14 6,3c-7,9 -18,17 -24,17c-6,0 -8,-1 -6,-3z"/>
   <path id="svg_76" d="m5140,8590c0,-5 5,-10 11,-10c5,0 7,5 4,10c-3,6 -8,10 -11,10c-2,0 -4,-4 -4,-10z"/>
   <path id="svg_77" d="m5270,8480c0,-5 5,-10 11,-10c5,0 7,5 4,10c-3,6 -8,10 -11,10c-2,0 -4,-4 -4,-10z"/>
   <path id="svg_78" d="m5645,8320c3,-5 8,-10 11,-10c2,0 4,5 4,10c0,6 -5,10 -11,10c-5,0 -7,-4 -4,-10z"/>
   <path id="svg_79" d="m5782,8128c3,-7 13,-15 24,-17c16,-3 17,-1 5,13c-16,19 -34,21 -29,4z"/>
   <path id="svg_80" d="m5832,8089c1,-13 8,-23 13,-21c15,3 12,35 -3,40c-9,3 -13,-3 -10,-19z"/>
   <path id="svg_81" d="m5880,8070c0,-11 4,-20 9,-20c5,0 7,9 4,20c-3,11 -7,20 -9,20c-2,0 -4,-9 -4,-20z"/>
   <path id="svg_82" d="m5963,8003c-18,-7 -16,-42 4,-61c16,-16 16,-16 11,6c-5,19 -4,21 7,12c8,-6 11,-18 8,-26c-3,-8 0,-14 6,-14c6,0 11,3 11,8c0,4 3,17 6,30c5,16 2,22 -9,22c-9,0 -20,6 -24,14c-4,7 -14,11 -20,9z"/>
   <path id="svg_83" d="m5990,7900c0,-5 5,-10 10,-10c6,0 10,5 10,10c0,6 -4,10 -10,10c-5,0 -10,-4 -10,-10z"/>
   <path id="svg_84" d="m6103,7860c-27,-11 -30,-28 -5,-37c9,-4 22,-12 27,-19c6,-6 20,-14 33,-17c36,-9 29,32 -9,45c-19,7 -28,15 -25,24c3,8 4,14 3,13c-1,0 -12,-4 -24,-9z"/>
   <path id="svg_85" d="m6200,7756c0,-2 7,-7 16,-10c8,-3 12,-2 9,4c-6,10 -25,14 -25,6z"/>
   <path id="svg_86" d="m7688,6993c7,-3 16,-2 19,1c4,3 -2,6 -13,5c-11,0 -14,-3 -6,-6z"/>
   <path id="svg_87" d="m7688,6933c7,-3 16,-2 19,1c4,3 -2,6 -13,5c-11,0 -14,-3 -6,-6z"/>
   <path id="svg_88" d="m7750,6929c0,-5 5,-7 10,-4c6,3 10,8 10,11c0,2 -4,4 -10,4c-5,0 -10,-5 -10,-11z"/>
   <path id="svg_89" d="m11068,6673c7,-3 16,-2 19,1c4,3 -2,6 -13,5c-11,0 -14,-3 -6,-6z"/>
   <path id="svg_90" d="m8451,6584c0,-11 3,-14 6,-6c3,7 2,16 -1,19c-3,4 -6,-2 -5,-13z"/>
   <path id="svg_91" d="m8564,6125c-7,-18 14,-47 27,-39c5,3 9,14 9,26c0,17 -2,18 -15,8c-13,-11 -14,-10 -9,4c3,9 3,16 0,16c-4,0 -9,-7 -12,-15z"/>
   <path id="svg_92" d="m12790,5620c0,-3 10,-11 21,-19c17,-10 23,-10 29,0c5,6 15,9 24,6c9,-4 16,-2 16,2c0,5 -20,11 -45,13c-25,2 -45,1 -45,-2z"/>
   <path id="svg_93" d="m12930,5575c0,-8 5,-15 10,-15c6,0 10,7 10,15c0,8 -4,15 -10,15c-5,0 -10,-7 -10,-15z"/>
   <path id="svg_94" d="m12980,5546c0,-10 7,-15 20,-13c21,3 40,17 22,17c-5,0 -17,3 -26,6c-11,4 -16,1 -16,-10z"/>
   <path id="svg_95" d="m12835,5453c1,-15 3,-34 3,-40c3,-19 52,-16 52,3c0,8 -4,13 -9,9c-5,-3 -11,7 -13,22c-4,39 -36,44 -33,6z"/>
   <path id="svg_96" d="m12760,5380c0,-5 5,-10 10,-10c6,0 10,5 10,10c0,6 -4,10 -10,10c-5,0 -10,-4 -10,-10z"/>
   <path id="svg_97" d="m5300,5174c0,-8 5,-12 10,-9c6,4 8,11 5,16c-9,14 -15,11 -15,-7z"/>
   <path id="svg_98" d="m6300,4461c0,-18 18,-21 30,-6c10,13 9,15 -9,15c-11,0 -21,-4 -21,-9z"/>
   <path id="svg_99" d="m6565,4261c-3,-5 -1,-12 5,-16c12,-7 30,2 30,16c0,12 -27,12 -35,0z"/>
   <path id="svg_100" d="m6885,4230c4,-6 11,-8 16,-5c14,9 11,15 -7,15c-8,0 -12,-5 -9,-10z"/>
   <path id="svg_101" d="m14764,4225c-16,-13 -17,-16 -4,-24c8,-5 20,-10 25,-11c6,-1 15,-6 22,-12c7,-5 18,-6 24,-2c9,5 10,2 6,-9c-3,-10 -2,-17 4,-17c15,0 6,52 -13,72c-22,22 -38,23 -64,3z"/>
   <path id="svg_102" d="m6690,4210c0,-5 5,-10 10,-10c6,0 10,5 10,10c0,6 -4,10 -10,10c-5,0 -10,-4 -10,-10z"/>
   <path id="svg_103" d="m6637,4199c8,-8 16,-8 30,0c16,9 14,10 -11,11c-22,0 -27,-3 -19,-11z"/>
   <path id="svg_104" d="m14886,4192c-3,-6 -1,-14 5,-17c15,-10 25,3 12,16c-7,7 -13,7 -17,1z"/>
   <path id="svg_105" d="m14865,4150c3,-5 8,-10 11,-10c2,0 4,5 4,10c0,6 -5,10 -11,10c-5,0 -7,-4 -4,-10z"/>
   <path id="svg_106" d="m14958,4103c7,-3 16,-2 19,1c4,3 -2,6 -13,5c-11,0 -14,-3 -6,-6z"/>
   <path id="svg_107" d="m14310,4085c0,-10 7,-15 18,-13c21,4 19,22 -2,26c-10,2 -16,-3 -16,-13z"/>
   <path id="svg_108" d="m14410,3775c0,-4 14,-20 31,-37l30,-31l-14,34c-7,19 -21,35 -30,37c-9,2 -17,1 -17,-3z"/>
   <path id="svg_109" d="m14460,3760c0,-5 7,-10 15,-10c8,0 15,5 15,10c0,6 -7,10 -15,10c-8,0 -15,-4 -15,-10z"/>
   <path id="svg_110" d="m14502,3741c2,-7 7,-12 11,-12c12,1 9,15 -3,20c-7,2 -11,-2 -8,-8z"/>
   <path id="svg_111" d="m13980,3665c-7,-9 -10,-18 -6,-22c3,-3 6,-1 6,5c0,7 7,12 15,12c8,0 15,5 15,10c0,15 -16,12 -30,-5z"/>
   <path id="svg_112" d="m13916,3633c-12,-12 -6,-33 9,-33c8,0 15,6 15,14c0,17 -14,28 -24,19z"/>
   <path id="svg_113" d="m13840,3602c0,-5 11,-14 25,-20c23,-11 25,-9 24,11c0,12 -3,16 -6,10c-3,-9 -10,-10 -24,-3c-10,6 -19,7 -19,2z"/>
   <path id="svg_114" d="m13690,3560c0,-5 5,-10 10,-10c6,0 10,5 10,10c0,6 -4,10 -10,10c-5,0 -10,-4 -10,-10z"/>
   <path id="svg_115" d="m9755,1410c-3,-6 1,-7 9,-4c18,7 21,14 7,14c-6,0 -13,-4 -16,-10z"/>
   <path id="svg_116" d="m11400,1410c0,-5 5,-10 11,-10c5,0 7,5 4,10c-3,6 -8,10 -11,10c-2,0 -4,-4 -4,-10z"/>
   <path id="svg_117" d="m11248,1160c-3,-17 -1,-33 4,-36c4,-3 8,11 8,30c0,44 -6,47 -12,6z"/>
   <path id="svg_118" d="m11155,1100c-7,-12 2,-30 16,-30c12,0 12,27 0,35c-5,3 -12,1 -16,-5z"/>
   <path id="svg_119" d="m10010,880c-7,-14 -8,-26 0,-39c5,-11 10,-33 10,-50c0,-17 5,-31 10,-31c6,0 10,-7 10,-15c0,-13 4,-14 20,-5c25,13 26,27 3,33c-14,4 -12,5 5,6c12,0 22,6 22,11c0,7 6,7 18,1c16,-8 18,-5 19,30c2,29 -2,39 -13,39c-8,0 -12,5 -9,10c7,11 -35,30 -65,30c-11,0 -24,-9 -30,-20z"/>
  </g>
 </g>
</svg>