<?xml version="1.0" standalone="no"?>
<!DOCTYPE svg PUBLIC "-//W3C//DTD SVG 20010904//EN"
 "http://www.w3.org/TR/2001/REC-SVG-20010904/DTD/svg10.dtd">
<svg version="1.0" xmlns="http://www.w3.org/2000/svg"
 width="900.000000pt" height="512.000000pt" viewBox="0 0 900.000000 512.000000"
 preserveAspectRatio="xMidYMid meet">

<g transform="translate(0.000000,512.000000) scale(0.100000,-0.100000)"
fill="#000000" stroke="none">
<path d="M5184 3206 c-40 -40 -42 -60 -18 -174 18 -89 51 -173 93 -242 l29
-48 -901 -5 c-496 -3 -1017 -10 -1157 -16 -140 -5 -336 -12 -435 -14 -99 -3
-188 -8 -197 -12 -16 -6 -18 -22 -18 -116 0 -102 1 -109 23 -123 18 -12 153
-15 802 -21 429 -4 794 -9 810 -10 17 -2 272 -3 567 -4 l537 -1 -36 -62 c-75
-129 -133 -303 -133 -400 0 -39 7 -51 38 -67 32 -17 66 -4 160 62 318 224 683
397 1005 477 115 29 136 39 154 73 12 24 13 37 4 67 -18 60 -47 78 -207 126
-197 60 -374 125 -487 179 -122 58 -407 244 -479 311 -70 67 -103 71 -154 20z
m561 -496 c77 -38 188 -86 247 -107 98 -34 131 -53 95 -53 -21 0 -300 -142
-415 -211 -57 -34 -156 -99 -220 -144 -64 -45 -118 -81 -120 -80 -7 6 52 130
108 228 65 113 72 143 39 173 -20 18 -49 19 -858 19 -460 0 -978 -6 -1151 -13
-173 -6 -426 -14 -562 -18 l-248 -7 0 72 0 71 168 0 c92 0 466 -5 832 -10 366
-5 921 -10 1233 -12 l569 -3 25 29 c32 37 26 61 -34 140 -39 52 -93 145 -93
160 0 3 55 -33 123 -80 67 -47 185 -116 262 -154z"/>
</g>
</svg>
