<?xml version="1.0" standalone="no"?>
<!DOCTYPE svg PUBLIC "-//W3C//DTD SVG 20010904//EN"
 "http://www.w3.org/TR/2001/REC-SVG-20010904/DTD/svg10.dtd">
<svg version="1.0" xmlns="http://www.w3.org/2000/svg"
 width="512.000000pt" height="512.000000pt" viewBox="0 0 512.000000 512.000000"
 preserveAspectRatio="xMidYMid meet">

<g transform="translate(0.000000,512.000000) scale(0.100000,-0.100000)"
fill="#000000" stroke="none">
<path d="M985 5108 c-11 -6 -25 -19 -32 -27 -18 -23 -18 -5019 0 -5042 7 -9
22 -21 34 -27 31 -17 3115 -17 3146 0 12 6 27 18 34 27 18 23 18 5019 0 5042
-7 9 -22 21 -34 27 -31 17 -3119 17 -3148 0z m3025 -2548 l0 -2390 -1450 0
-1450 0 0 2390 0 2390 1450 0 1450 0 0 -2390z"/>
<path d="M1334 4770 c-57 -23 -54 38 -54 -1103 l0 -1049 29 -29 29 -29 1222 0
1222 0 29 29 29 29 0 1051 0 1050 -24 28 -24 28 -1219 2 c-674 1 -1228 -2
-1239 -7z m2336 -1100 l0 -940 -1110 0 -1110 0 0 940 0 940 1110 0 1110 0 0
-940z"/>
<path d="M3225 4452 c-22 -17 -360 -351 -752 -743 -483 -485 -714 -723 -718
-742 -16 -61 41 -118 102 -103 19 5 260 239 756 734 401 400 735 739 743 754
20 38 18 63 -8 92 -36 41 -76 43 -123 8z"/>
<path d="M2365 4441 c-16 -10 -195 -185 -397 -388 -335 -335 -368 -372 -368
-402 0 -23 9 -41 29 -62 59 -58 47 -67 473 358 348 348 388 391 388 420 0 45
-9 62 -41 78 -36 19 -48 19 -84 -4z"/>
<path d="M3405 3770 c-11 -4 -191 -180 -400 -389 -361 -362 -379 -382 -379
-417 0 -46 39 -84 87 -84 28 0 72 40 419 388 348 347 388 391 388 419 0 58
-65 105 -115 83z"/>
<path d="M3507 2376 c-118 -43 -185 -146 -174 -267 9 -101 78 -188 174 -220
46 -15 149 -7 191 15 44 23 95 75 117 122 26 53 27 165 1 214 -61 116 -196
176 -309 136z m135 -183 c36 -33 31 -98 -11 -130 -28 -22 -76 -15 -105 13 -75
76 36 189 116 117z"/>
<path d="M3798 755 c-37 -21 -48 -67 -48 -207 l0 -118 -125 0 c-147 0 -187
-11 -203 -59 -13 -36 -8 -56 21 -89 20 -21 26 -22 227 -22 l207 0 24 26 c23
25 24 31 27 198 4 201 -4 248 -48 271 -36 18 -47 18 -82 0z"/>
<path d="M3050 423 c-61 -22 -79 -95 -35 -138 23 -24 30 -25 142 -25 129 1
146 6 164 58 14 41 -9 86 -52 101 -32 11 -191 14 -219 4z"/>
</g>
</svg>
