<?xml version="1.0" standalone="no"?>
<!DOCTYPE svg PUBLIC "-//W3C//DTD SVG 20010904//EN"
 "http://www.w3.org/TR/2001/REC-SVG-20010904/DTD/svg10.dtd">
<svg version="1.0" xmlns="http://www.w3.org/2000/svg"
 width="512.000000pt" height="512.000000pt" viewBox="0 0 512.000000 512.000000"
 preserveAspectRatio="xMidYMid meet">

<g transform="translate(0.000000,512.000000) scale(0.100000,-0.100000)"
fill="#000000" stroke="none">
<path d="M359 4271 l-24 -19 0 -617 0 -617 24 -19 c21 -17 42 -19 247 -19
l224 0 0 -175 0 -175 -228 0 c-205 0 -230 -2 -244 -17 -9 -10 -93 -172 -187
-360 l-171 -343 0 -185 c0 -184 0 -186 25 -210 l24 -25 306 0 305 0 0 -254 0
-254 -61 -4 c-49 -4 -66 -9 -80 -27 -25 -30 -24 -76 1 -101 19 -19 33 -20 384
-20 l365 0 20 26 c24 31 26 43 10 78 -14 29 -55 46 -115 46 l-44 0 0 255 0
255 1420 0 1420 0 0 -255 0 -255 -44 0 c-60 0 -101 -17 -115 -46 -16 -35 -14
-47 10 -78 l20 -26 365 0 c351 0 365 1 384 20 25 25 26 71 1 101 -14 18 -31
23 -80 27 l-61 4 0 254 0 254 305 0 306 0 24 25 c25 24 25 26 25 210 l0 185
-171 343 c-94 188 -178 350 -187 360 -14 15 -39 17 -244 17 l-228 0 0 175 0
175 224 0 c205 0 226 2 247 19 l24 19 0 617 0 617 -24 19 c-23 19 -65 19
-1790 19 -1439 -1 -1769 -3 -1783 -14 -40 -30 -39 -92 0 -122 14 -11 341 -13
1735 -14 l1717 0 0 -505 0 -505 -2080 0 -2080 0 0 505 0 505 229 0 c216 0 230
1 255 21 36 28 36 80 0 108 -26 20 -39 21 -304 21 -259 0 -279 -1 -301 -19z
m801 -1466 l0 -175 -90 0 -90 0 0 175 0 175 90 0 90 0 0 -175z m2650 0 l0
-175 -1250 0 -1250 0 0 175 0 175 1250 0 1250 0 0 -175z m330 0 l0 -175 -90 0
-90 0 0 175 0 175 90 0 90 0 0 -175z m655 -575 c69 -137 125 -252 125 -255 0
-3 -1062 -5 -2360 -5 -1298 0 -2360 2 -2360 5 0 3 56 118 125 255 l125 250
2110 0 2110 0 125 -250z m175 -500 l0 -90 -2410 0 -2410 0 0 90 0 90 2410 0
2410 0 0 -90z m-3980 -495 l0 -255 -90 0 -90 0 0 255 0 255 90 0 90 0 0 -255z
m3320 0 l0 -255 -90 0 -90 0 0 255 0 255 90 0 90 0 0 -255z"/>
<path d="M1022 3869 c-150 -28 -234 -194 -168 -334 41 -88 118 -137 217 -137
100 0 191 64 223 157 20 60 20 99 1 156 -39 115 -152 180 -273 158z m95 -161
c27 -13 47 -60 39 -93 -17 -66 -105 -89 -151 -39 -44 47 -25 120 35 142 26 10
39 8 77 -10z"/>
<path d="M4003 3869 c-106 -20 -193 -125 -193 -233 0 -87 62 -181 144 -220 47
-22 138 -24 186 -4 127 53 184 200 126 323 -47 102 -151 155 -263 134z m121
-184 c39 -60 -1 -135 -72 -135 -66 0 -107 59 -82 119 26 63 117 72 154 16z"/>
</g>
</svg>
