<?xml version="1.0" standalone="no"?>
<!DOCTYPE svg PUBLIC "-//W3C//DTD SVG 20010904//EN"
 "http://www.w3.org/TR/2001/REC-SVG-20010904/DTD/svg10.dtd">
<svg version="1.0" xmlns="http://www.w3.org/2000/svg"
 width="512.000000pt" height="512.000000pt" viewBox="0 0 512.000000 512.000000"
 preserveAspectRatio="xMidYMid meet">

<g transform="translate(0.000000,512.000000) scale(0.100000,-0.100000)"
fill="#000000" stroke="none">
<path d="M380 4610 l0 -510 -125 0 -125 0 0 -130 0 -130 125 0 125 0 0 -1280
0 -1280 -125 0 -125 0 0 -130 0 -130 125 0 125 0 0 -510 0 -510 2305 0 2305 0
0 2560 0 2560 -2305 0 -2305 0 0 -510z m4360 -2050 l0 -2300 -2050 0 -2050 0
0 380 0 379 128 3 127 3 3 128 3 127 -131 0 -130 0 0 1280 0 1280 130 0 131 0
-3 128 -3 127 -127 3 -128 3 0 379 0 380 2050 0 2050 0 0 -2300z"/>
<path d="M4100 2435 l0 -255 125 0 125 0 0 255 0 255 -125 0 -125 0 0 -255z"/>
</g>
</svg>
