<?xml version="1.0" standalone="no"?>
<!DOCTYPE svg PUBLIC "-//W3C//DTD SVG 20010904//EN"
 "http://www.w3.org/TR/2001/REC-SVG-20010904/DTD/svg10.dtd">
<svg version="1.0" xmlns="http://www.w3.org/2000/svg"
 width="500.000000pt" height="500.000000pt" viewBox="0 0 500.000000 500.000000"
 preserveAspectRatio="xMidYMid meet">

<g transform="translate(0.000000,500.000000) scale(0.100000,-0.100000)"
fill="#000000" stroke="none">
<path d="M0 2500 l0 -2500 2500 0 2500 0 0 2500 0 2500 -2500 0 -2500 0 0
-2500z m2701 1416 c464 -62 854 -306 1115 -697 117 -175 197 -380 234 -596 19
-107 20 -166 20 -834 l0 -719 -1570 0 -1571 0 3 773 3 772 32 116 c81 296 218
534 425 736 171 168 322 268 539 357 228 93 506 127 770 92z"/>
<path d="M2313 3733 c-22 -4 -23 -9 -23 -90 0 -58 -4 -92 -13 -102 -9 -10 -12
-31 -9 -59 4 -37 7 -43 26 -40 16 2 20 9 18 29 -3 29 15 39 74 39 26 0 33 -5
38 -25 4 -17 13 -25 27 -25 20 0 21 4 15 42 -4 23 -12 45 -18 49 -6 4 -15 48
-21 98 l-10 91 -41 -1 c-22 -1 -51 -4 -63 -6z m72 -104 c8 -74 2 -88 -36 -89
-13 0 -15 14 -15 80 1 75 2 80 22 80 20 0 23 -7 29 -71z"/>
<path d="M2593 3660 c-8 -59 -17 -88 -32 -104 -27 -29 -26 -36 2 -36 37 0 55
29 69 108 11 64 15 72 33 70 22 -3 22 -4 10 -125 -6 -69 -6 -73 14 -73 15 0
21 8 26 33 7 45 24 191 22 193 -1 1 -32 5 -68 8 l-65 7 -11 -81z"/>
<path d="M2870 3660 c-16 -16 -21 -31 -19 -62 3 -33 -2 -47 -29 -78 -31 -37
-31 -39 -11 -45 15 -5 29 1 53 24 36 34 62 41 51 14 -3 -10 -9 -30 -12 -45 -5
-23 -2 -28 15 -28 17 0 26 18 56 105 l35 106 -27 10 c-58 23 -89 22 -112 -1z
m73 -54 c-3 -39 -18 -53 -38 -36 -18 15 -20 41 -3 58 21 21 43 9 41 -22z"/>
<path d="M1913 3619 c-7 -7 -9 -37 -6 -87 7 -88 -4 -90 -38 -7 -22 54 -32 62
-57 47 -9 -6 0 -34 38 -111 46 -93 51 -101 70 -91 17 9 20 21 21 88 l0 77 32
-62 c33 -67 34 -68 57 -53 12 8 7 25 -35 110 -48 98 -60 111 -82 89z"/>
<path d="M3228 3421 c-32 -42 -60 -84 -63 -93 -8 -19 61 -68 96 -68 63 0 92
90 42 130 -24 19 -25 22 -11 37 15 14 19 14 46 -6 36 -25 38 -25 46 -6 3 9
-11 27 -41 50 -25 19 -49 35 -52 35 -3 -1 -32 -36 -63 -79z m62 -80 c0 -31
-26 -46 -56 -33 l-25 12 22 29 c18 24 26 28 41 20 10 -5 18 -18 18 -28z"/>
<path d="M1602 3429 l-42 -31 67 -86 c36 -48 68 -88 69 -90 1 -2 12 1 23 8
l21 11 -25 33 -25 33 25 23 c33 31 33 79 2 108 -32 30 -66 28 -115 -9z m86
-21 c17 -17 15 -43 -4 -59 -14 -12 -20 -9 -41 16 -24 27 -24 29 -7 42 22 16
37 16 52 1z"/>
<path d="M1421 3253 l-42 -48 53 -48 c29 -27 68 -60 86 -74 32 -25 33 -25 53
-7 41 37 62 75 50 87 -10 9 -19 5 -40 -19 -28 -31 -28 -31 -51 -12 l-23 19 21
28 c18 24 19 31 8 40 -11 9 -18 6 -34 -14 -18 -23 -23 -24 -41 -13 -27 16 -26
20 4 56 21 25 23 32 11 41 -11 9 -22 2 -55 -36z"/>
<path d="M3480 3248 c-36 -17 -85 -39 -109 -49 -37 -17 -41 -21 -30 -35 8 -10
21 -13 37 -9 18 4 31 0 48 -16 21 -20 22 -24 9 -42 -14 -20 -5 -47 15 -47 9 0
120 184 120 198 0 28 -28 28 -90 0z m9 -69 c-21 -30 -23 -31 -36 -13 -12 16
-10 20 19 35 18 10 35 16 37 14 2 -2 -7 -18 -20 -36z"/>
<path d="M2129 3095 c-42 -23 -52 -60 -34 -128 22 -85 21 -92 -23 -105 -21 -7
-47 -21 -57 -32 -18 -20 -18 -26 4 -208 13 -103 25 -201 28 -218 5 -30 4 -31
-43 -37 -27 -3 -62 -10 -78 -17 l-29 -11 23 -24 c35 -37 100 -58 164 -53 l55
5 -25 -29 c-25 -30 -35 -108 -14 -108 23 0 64 36 77 68 12 30 18 33 41 28 126
-28 310 -28 425 0 50 12 62 12 85 0 44 -22 88 -28 130 -17 128 35 191 166 133
279 -25 50 -56 72 -110 79 -35 5 -40 9 -36 27 11 53 26 208 21 221 -9 25 -83
54 -178 71 -64 12 -149 17 -271 17 -177 0 -179 0 -172 21 3 12 9 46 12 77 5
53 4 56 -27 82 -35 30 -62 33 -101 12z m92 -26 c22 -22 22 -48 3 -156 l-6 -33
58 0 c57 0 58 0 39 -19 -14 -13 -47 -21 -114 -29 -52 -6 -111 -20 -132 -30
-39 -19 -49 -19 -49 3 0 11 43 33 93 49 21 7 22 41 3 115 -10 34 -12 61 -6 76
18 47 76 59 111 24z m364 -189 c187 -18 295 -57 258 -93 -3 -4 -11 -3 -18 3
-26 22 -139 42 -270 47 -109 4 -146 10 -165 23 -14 9 -32 20 -40 23 -26 9 120
7 235 -3z m-186 -57 c21 -21 61 -78 91 -128 30 -49 78 -129 107 -176 l53 -87
43 43 c31 32 58 48 101 60 105 31 164 2 195 -92 39 -117 -85 -242 -210 -214
-62 14 -87 38 -134 126 -88 168 -236 400 -282 442 -43 39 -50 63 -16 63 8 0
32 -17 52 -37z m-49 -39 c27 -26 50 -51 50 -57 0 -28 -338 21 -347 50 -5 14
43 30 122 42 114 16 120 15 175 -35z m345 31 c92 -16 129 -30 120 -45 -9 -14
-139 -40 -232 -46 l-88 -5 -30 48 c-16 26 -31 51 -33 56 -6 13 173 7 263 -8z
m-631 -70 c47 -20 212 -45 293 -45 64 0 83 -12 83 -54 0 -25 -100 -23 -101 2
-1 16 -2 16 -6 0 -3 -13 -15 -18 -41 -18 -44 0 -58 8 -65 35 -4 18 -5 18 -6
-2 -1 -25 -4 -26 -50 -17 -26 6 -31 11 -32 38 -2 30 -2 30 -6 4 -2 -16 -11
-28 -18 -28 -23 0 -85 33 -85 44 0 6 -3 21 -6 34 -7 26 -7 26 40 7z m780 -12
c-9 -37 -20 -50 -55 -62 -28 -10 -29 -9 -31 22 l-1 32 -4 -33 c-4 -34 -7 -36
-55 -46 -25 -6 -28 -4 -29 21 l-1 28 -9 -26 c-7 -18 -20 -29 -41 -33 -49 -10
-58 -7 -59 17 0 18 -1 19 -7 4 -7 -15 -10 -14 -24 11 l-17 28 110 12 c61 7
134 21 162 31 70 25 68 25 61 -6z m-714 -131 c0 -40 -2 -43 -22 -37 -38 12
-68 35 -68 53 0 9 -3 26 -6 38 -6 21 -5 21 45 5 51 -16 51 -16 51 -59z m706
62 c-3 -9 -6 -27 -6 -40 0 -18 -9 -29 -35 -41 -19 -9 -37 -14 -40 -12 -2 3 -2
21 1 41 5 27 14 39 38 51 40 20 50 21 42 1z m-647 -30 c29 -6 31 -9 31 -50 0
-43 -1 -44 -27 -38 -51 11 -53 13 -53 54 0 43 1 43 49 34z m554 -31 c-7 -47
-3 -43 -47 -50 l-36 -6 0 41 c0 43 7 48 62 51 25 1 26 -1 21 -36z m-447 17
c34 0 34 0 34 -45 l0 -46 -37 6 c-61 10 -63 12 -63 56 0 33 3 40 16 35 9 -3
31 -6 50 -6z m354 -35 c0 -40 -2 -45 -22 -45 -16 0 -30 12 -45 39 l-23 40 33
4 c17 2 38 5 45 5 8 1 12 -13 12 -43z m-229 25 c15 0 19 -8 19 -40 l0 -40 -50
0 -50 0 0 46 0 47 31 -7 c17 -3 40 -6 50 -6z m77 -40 l23 -40 -36 0 c-34 0
-35 1 -35 40 0 52 18 52 48 0z m-382 -20 c17 0 24 -36 24 -132 l0 -88 -34 16
c-33 16 -34 19 -45 103 -17 132 -17 133 17 115 15 -7 32 -14 38 -14z m704 22
c0 -5 -16 -13 -35 -19 -44 -14 -45 -7 -2 12 39 17 37 17 37 7z m-80 -29 c-1
-5 -19 -20 -40 -35 l-40 -28 0 29 c0 25 5 30 28 34 48 7 52 7 52 0z m-521 -18
c3 -4 7 -69 9 -145 4 -132 3 -138 -15 -134 -38 10 -56 62 -62 182 l-6 114 34
-6 c18 -3 36 -8 40 -11z m80 -1 l31 -6 0 -144 c0 -143 0 -144 -22 -144 -13 0
-33 3 -45 6 -23 6 -23 9 -23 150 0 156 -3 150 59 138z m351 -19 c0 -14 -2 -25
-4 -25 -2 0 -11 11 -20 25 -16 24 -16 25 4 25 15 0 20 -7 20 -25z m-210 -135
c0 -166 4 -158 -69 -144 l-31 7 0 143 0 144 50 0 50 0 0 -150z m101 128 c8
-15 10 -58 6 -141 -3 -66 -7 -121 -9 -122 -2 -2 -22 -6 -45 -10 l-43 -7 0 151
0 151 40 0 c30 0 42 -5 51 -22z m79 -135 c40 -76 36 -117 -12 -127 -55 -11
-53 -14 -50 110 4 130 3 130 62 17z m-640 -23 c0 -5 -9 -10 -21 -10 -11 0 -17
5 -14 10 3 6 13 10 21 10 8 0 14 -4 14 -10z m100 -10 c8 -14 6 -20 -8 -23 -10
-3 -5 -5 12 -6 24 -1 27 1 16 14 -20 24 -5 28 21 6 17 -14 20 -20 9 -21 -13 0
-13 -2 -1 -9 10 -7 0 -11 -33 -16 -52 -8 -109 4 -141 30 -19 15 -16 16 38 10
53 -6 74 3 47 20 -5 3 -10 1 -10 -4 0 -16 -27 -13 -33 3 -9 23 70 19 83 -4z
m90 -89 c0 -30 -42 -91 -62 -91 -20 0 1 74 27 98 33 28 35 28 35 -7z m505 19
c3 -5 1 -10 -4 -10 -6 0 -11 5 -11 10 0 6 2 10 4 10 3 0 8 -4 11 -10z"/>
<path d="M2147 3054 c-12 -13 -8 -51 8 -64 21 -18 47 5 43 39 -3 26 -35 41
-51 25z m41 -32 c3 -17 -2 -22 -17 -22 -14 0 -21 6 -21 18 0 38 33 41 38 4z"/>
<path d="M2792 2509 c-47 -14 -122 -89 -122 -122 0 -78 188 -54 249 32 54 76
-12 123 -127 90z m119 -9 c27 -15 24 -43 -8 -81 -35 -41 -96 -69 -154 -69 -64
0 -79 19 -54 66 36 68 157 115 216 84z"/>
<path d="M3665 3063 c-16 -8 -60 -33 -98 -55 -60 -35 -66 -41 -57 -59 11 -19
12 -19 55 6 l44 26 17 -32 c9 -18 13 -34 8 -36 -5 -2 -24 -12 -42 -23 -27 -17
-31 -23 -22 -39 9 -18 16 -16 110 36 89 49 99 57 90 74 -13 23 -12 23 -52 -1
-42 -25 -40 -26 -61 10 l-18 29 41 21 c29 15 40 26 36 36 -3 9 -6 18 -6 20 0
7 -15 3 -45 -13z"/>
<path d="M1273 3038 c-22 -25 -43 -61 -43 -76 0 -9 175 -112 189 -112 12 0 51
80 51 103 0 32 -30 57 -68 57 -21 0 -32 5 -32 15 0 17 -30 35 -58 35 -10 0
-28 -10 -39 -22z m51 -24 c15 -6 22 -44 10 -57 -9 -8 -54 14 -54 28 0 6 5 16
12 23 14 14 12 14 32 6z m101 -54 c9 -15 -4 -50 -19 -50 -24 0 -47 25 -40 43
7 18 49 23 59 7z"/>
<path d="M1157 2803 c-3 -4 -12 -32 -21 -61 l-15 -53 27 -11 c98 -41 132 -58
141 -76 10 -19 84 -45 96 -34 13 13 3 33 -20 42 -30 11 -29 5 -9 64 15 44 19
48 44 42 22 -4 29 -1 33 14 4 15 -4 22 -39 34 -32 11 -44 11 -47 3 -3 -9 -23
-6 -73 10 -107 33 -112 34 -117 26z m89 -63 c32 -11 64 -22 71 -25 9 -3 10
-12 2 -33 l-10 -28 -67 33 c-37 18 -67 37 -66 43 4 36 -4 35 70 10z"/>
<path d="M3730 2775 c-57 -18 -106 -37 -107 -42 -7 -19 28 -43 60 -44 18 0 50
-3 72 -8 l40 -7 -72 -22 c-62 -19 -70 -25 -66 -42 3 -11 8 -20 11 -20 4 0 53
14 110 32 90 28 103 34 100 52 -3 18 -14 22 -75 31 -39 6 -74 13 -77 16 -4 3
23 14 59 24 36 9 65 22 65 29 -1 32 -17 32 -120 1z"/>
<path d="M1090 1880 c0 -7 477 -10 1410 -10 933 0 1410 3 1410 10 0 7 -477 10
-1410 10 -933 0 -1410 -3 -1410 -10z"/>
<path d="M2490 1565 l0 -295 -697 -2 c-459 -2 -697 -6 -695 -13 4 -16 2804
-14 2810 3 3 9 -141 12 -697 12 l-701 0 0 295 c0 190 -4 295 -10 295 -6 0 -10
-105 -10 -295z"/>
<path d="M1280 1698 c0 -13 -3 -32 -6 -43 -4 -18 0 -20 41 -20 43 -1 56 7 35
20 -5 3 -10 19 -10 36 0 26 -3 29 -30 29 -24 0 -30 -4 -30 -22z m40 -18 c0
-11 -4 -20 -10 -20 -5 0 -10 9 -10 20 0 11 5 20 10 20 6 0 10 -9 10 -20z"/>
<path d="M1390 1680 c0 -38 2 -40 30 -40 35 0 41 19 8 21 -17 1 -19 2 -5 6 9
2 17 8 17 13 0 5 -8 11 -17 13 -14 4 -12 5 5 6 33 2 27 21 -8 21 -28 0 -30 -2
-30 -40z"/>
<path d="M1490 1680 c0 -22 5 -40 10 -40 6 0 10 5 10 10 0 6 6 10 14 10 7 0
19 7 26 15 17 20 -3 45 -36 45 -21 0 -24 -5 -24 -40z m40 10 c0 -5 -4 -10 -10
-10 -5 0 -10 5 -10 10 0 6 5 10 10 10 6 0 10 -4 10 -10z"/>
<path d="M1590 1680 c0 -38 2 -40 30 -40 35 0 41 19 8 21 -17 1 -19 2 -5 6 9
2 17 8 17 13 0 5 -8 11 -17 13 -14 4 -12 5 5 6 33 2 27 21 -8 21 -28 0 -30 -2
-30 -40z"/>
<path d="M1690 1681 c0 -39 2 -41 29 -41 32 0 41 13 31 50 -4 18 -14 26 -33
28 -25 3 -27 1 -27 -37z m47 -17 c-3 -3 -12 -4 -19 -1 -8 3 -5 6 6 6 11 1 17
-2 13 -5z"/>
<path d="M1795 1708 c-6 -17 -1 -68 6 -68 3 0 10 5 17 12 9 9 12 9 12 0 0 -7
5 -12 10 -12 6 0 10 18 10 40 0 36 -2 40 -25 40 -14 0 -28 -6 -30 -12z m35
-18 c0 -5 -4 -10 -10 -10 -5 0 -10 5 -10 10 0 6 5 10 10 10 6 0 10 -4 10 -10z"/>
<path d="M1898 1714 c-12 -11 -10 -74 2 -74 6 0 10 7 10 15 0 8 9 15 20 15 11
0 20 -7 20 -15 0 -8 5 -15 10 -15 6 0 10 18 10 40 0 22 -4 40 -10 40 -5 0 -10
-7 -10 -15 0 -20 -38 -19 -42 1 -2 9 -6 12 -10 8z"/>
<path d="M2010 1680 c0 -22 5 -40 10 -40 6 0 10 7 10 15 0 8 7 15 15 15 8 0
15 -7 15 -15 0 -8 5 -15 10 -15 6 0 10 18 10 40 0 22 -4 40 -10 40 -5 0 -10
-7 -10 -15 0 -8 -7 -15 -15 -15 -8 0 -15 7 -15 15 0 8 -4 15 -10 15 -5 0 -10
-18 -10 -40z"/>
<path d="M2120 1680 c0 -35 3 -40 24 -40 26 0 51 24 41 40 -3 5 -15 10 -26 10
-10 0 -19 7 -19 15 0 8 -4 15 -10 15 -5 0 -10 -18 -10 -40z m45 -10 c3 -5 -1
-10 -9 -10 -9 0 -16 5 -16 10 0 6 4 10 9 10 6 0 13 -4 16 -10z"/>
<path d="M2200 1680 c0 -22 5 -40 10 -40 6 0 10 18 10 40 0 22 -4 40 -10 40
-5 0 -10 -18 -10 -40z"/>
<path d="M2260 1680 c0 -38 2 -40 30 -40 35 0 41 19 8 21 -17 1 -19 2 -5 6 9
2 17 8 17 13 0 5 -8 11 -17 13 -14 4 -12 5 5 6 33 2 27 21 -8 21 -28 0 -30 -2
-30 -40z"/>
<path d="M3346 1689 c3 -5 11 -9 19 -9 8 0 16 4 19 9 3 5 -5 9 -19 9 -14 0
-22 -4 -19 -9z"/>
<path d="M2827 1674 c-11 -11 -8 -84 3 -84 6 0 10 10 10 23 1 22 1 22 16 2 15
-20 15 -20 30 -1 14 19 14 19 14 -2 0 -12 5 -22 10 -22 6 0 10 20 10 45 0 51
-10 57 -31 19 l-13 -26 -21 26 c-12 15 -24 23 -28 20z"/>
<path d="M2976 1639 c-9 -23 -14 -44 -10 -48 4 -3 9 0 11 7 6 15 35 16 51 0 6
-6 14 -9 18 -6 7 8 -34 88 -45 88 -5 0 -16 -19 -25 -41z m34 -5 c0 -8 -5 -12
-10 -9 -6 4 -8 11 -5 16 9 14 15 11 15 -7z"/>
<path d="M3090 1635 c0 -25 5 -45 10 -45 6 0 10 4 10 9 0 5 11 12 25 15 33 8
35 51 3 60 -44 11 -48 8 -48 -39z m48 7 c2 -7 -3 -12 -12 -12 -9 0 -16 7 -16
16 0 17 22 14 28 -4z"/>
<path d="M3200 1635 c0 -51 10 -56 39 -19 l21 27 0 -27 c0 -14 5 -26 10 -26 6
0 10 20 10 45 0 52 -10 56 -39 18 l-20 -28 -1 28 c0 15 -4 27 -10 27 -5 0 -10
-20 -10 -45z"/>
<path d="M3328 1674 c-12 -12 -9 -84 3 -84 6 0 19 10 30 23 l18 22 1 -22 c0
-13 5 -23 10 -23 6 0 10 20 10 45 0 52 -10 57 -36 18 l-18 -28 -6 28 c-3 16
-8 25 -12 21z"/>
<path d="M3510 1670 c-16 -10 -8 -14 23 -11 9 1 17 -2 17 -8 0 -5 -8 -12 -17
-14 -17 -4 -17 -5 0 -6 27 -2 20 -21 -9 -21 -14 0 -23 -4 -19 -10 11 -17 54
-11 65 9 14 27 13 37 -6 55 -18 18 -33 20 -54 6z"/>
<path d="M3627 1653 c-3 -16 -9 -36 -13 -47 -5 -14 -3 -17 7 -14 8 3 16 17 19
33 8 43 30 44 30 1 0 -20 5 -36 10 -36 6 0 10 20 10 45 0 43 -1 45 -29 45 -23
0 -30 -5 -34 -27z"/>
<path d="M1250 1560 c0 -45 10 -51 33 -17 l16 22 0 -22 c1 -41 21 -24 21 17 0
45 -11 51 -34 18 l-16 -22 0 22 c0 12 -4 22 -10 22 -5 0 -10 -18 -10 -40z"/>
<path d="M1360 1590 c0 -5 10 -11 23 -11 16 -1 18 -2 5 -6 -10 -2 -18 -8 -18
-13 0 -5 8 -11 18 -13 13 -4 11 -5 -5 -6 -13 0 -23 -6 -23 -12 0 -6 12 -9 28
-7 22 2 27 8 28 33 0 17 -4 33 -10 37 -16 11 -46 10 -46 -2z"/>
<path d="M1467 1593 c-2 -5 -7 -24 -11 -43 l-6 -35 46 0 c40 0 44 2 40 20 -3
11 -6 30 -6 43 0 18 -6 22 -29 22 -17 0 -32 -3 -34 -7z m43 -33 c0 -11 -7 -20
-15 -20 -8 0 -15 9 -15 20 0 11 7 20 15 20 8 0 15 -9 15 -20z"/>
<path d="M1570 1560 c0 -38 2 -40 30 -40 35 0 40 17 8 23 l-23 4 23 2 c12 0
22 5 22 10 0 5 -10 12 -22 14 l-23 4 23 2 c33 2 27 21 -8 21 -28 0 -30 -2 -30
-40z"/>
<path d="M1680 1570 c0 -16 -4 -30 -10 -30 -5 0 -10 -4 -10 -10 0 -24 29 -7
35 20 4 17 11 30 16 30 5 0 9 -13 9 -30 0 -16 5 -30 10 -30 6 0 10 18 10 40 0
38 -2 40 -30 40 -27 0 -30 -3 -30 -30z"/>
<path d="M1780 1560 c0 -45 11 -51 34 -18 l16 22 0 -22 c0 -12 5 -22 10 -22 6
0 10 18 10 40 0 45 -10 51 -33 18 l-16 -23 0 23 c-1 40 -21 23 -21 -18z"/>
<path d="M1903 1592 c-12 -8 -14 -72 -2 -72 3 0 11 6 18 13 11 10 14 10 18 0
10 -27 23 -11 23 27 0 35 -3 40 -22 40 -13 0 -29 -4 -35 -8z m37 -22 c0 -5 -7
-10 -15 -10 -8 0 -15 5 -15 10 0 6 7 10 15 10 8 0 15 -4 15 -10z"/>
<path d="M2060 1578 c0 -13 -3 -32 -6 -43 -4 -18 0 -20 41 -20 43 -1 56 7 35
20 -5 3 -10 19 -10 36 0 26 -3 29 -30 29 -24 0 -30 -4 -30 -22z m40 -18 c0
-11 -4 -20 -10 -20 -5 0 -10 9 -10 20 0 11 5 20 10 20 6 0 10 -9 10 -20z"/>
<path d="M2173 1563 c-12 -40 -11 -49 6 -38 6 3 11 17 11 31 0 15 6 24 15 24
10 0 15 -10 15 -30 0 -16 5 -30 10 -30 6 0 10 18 10 40 0 37 -2 40 -28 40 -23
0 -29 -6 -39 -37z"/>
<path d="M2285 1588 c-6 -17 -1 -68 6 -68 3 0 10 5 17 12 9 9 12 9 12 0 0 -7
5 -12 10 -12 6 0 10 18 10 40 0 36 -2 40 -25 40 -14 0 -28 -6 -30 -12z m35
-18 c0 -5 -4 -10 -10 -10 -5 0 -10 5 -10 10 0 6 5 10 10 10 6 0 10 -4 10 -10z"/>
<path d="M2736 1524 c-19 -18 -21 -45 -4 -62 15 -15 54 -16 63 -2 3 6 -5 10
-19 10 -29 0 -39 11 -30 35 4 10 14 15 25 12 24 -6 35 9 13 17 -24 9 -31 8
-48 -10z"/>
<path d="M2900 1495 c0 -25 5 -45 10 -45 6 0 10 16 10 35 0 24 5 35 15 35 10
0 15 -11 15 -35 0 -19 5 -35 10 -35 6 0 10 20 10 45 0 45 0 45 -35 45 -35 0
-35 0 -35 -45z"/>
<path d="M3030 1498 c-19 -44 -19 -61 2 -40 15 15 48 16 48 2 0 -5 7 -10 15
-10 12 0 11 8 -7 45 -12 25 -26 45 -30 45 -5 0 -17 -19 -28 -42z m40 -9 c0 -5
-4 -9 -10 -9 -5 0 -10 7 -10 16 0 8 5 12 10 9 6 -3 10 -10 10 -16z"/>
<path d="M3147 1533 c-4 -3 -7 -24 -7 -45 0 -27 4 -38 15 -38 8 0 15 4 15 8 0
5 11 14 25 20 14 6 25 18 25 26 0 25 -56 47 -73 29z m45 -28 c0 -5 -5 -11 -11
-13 -6 -2 -11 4 -11 13 0 9 5 15 11 13 6 -2 11 -8 11 -13z"/>
<path d="M3270 1499 c-24 -46 -22 -56 8 -38 17 10 23 10 36 -1 9 -7 19 -11 22
-8 7 8 -26 88 -37 88 -5 0 -18 -18 -29 -41z m27 -11 c-3 -8 -6 -5 -6 6 -1 11
2 17 5 13 3 -3 4 -12 1 -19z"/>
<path d="M3380 1495 c0 -25 5 -45 10 -45 6 0 10 7 10 15 0 8 9 15 20 15 11 0
20 -7 20 -15 0 -8 5 -15 10 -15 12 0 13 77 1 84 -5 3 -11 -3 -14 -14 -7 -26
-37 -26 -37 0 0 11 -4 20 -10 20 -5 0 -10 -20 -10 -45z"/>
<path d="M3508 1534 c-5 -4 -8 -25 -8 -46 0 -35 2 -38 29 -38 37 0 59 24 41
45 -7 8 -21 15 -30 15 -10 0 -20 7 -22 16 -2 9 -6 12 -10 8z m42 -54 c0 -5 -7
-10 -15 -10 -8 0 -15 5 -15 10 0 6 7 10 15 10 8 0 15 -4 15 -10z"/>
<path d="M3617 1533 c-11 -10 -8 -83 3 -83 6 0 10 14 10 31 0 22 5 32 20 36
11 3 20 9 20 14 0 10 -43 12 -53 2z"/>
<path d="M3722 1498 c-12 -27 -15 -45 -8 -47 5 -2 12 1 14 8 5 14 42 15 42 1
0 -5 7 -10 15 -10 12 0 11 7 -4 42 -9 23 -22 43 -29 46 -6 2 -19 -16 -30 -40z
m38 -8 c0 -5 -4 -10 -10 -10 -5 0 -10 5 -10 10 0 6 5 10 10 10 6 0 10 -4 10
-10z"/>
<path d="M2835 1469 c-10 -15 3 -25 16 -12 7 7 7 13 1 17 -6 3 -14 1 -17 -5z"/>
<path d="M1190 1429 c0 -39 1 -40 33 -37 41 4 46 38 7 49 l-25 7 28 1 c40 1
33 21 -8 21 -34 0 -35 -1 -35 -41z m47 -15 c-3 -3 -12 -4 -19 -1 -8 3 -5 6 6
6 11 1 17 -2 13 -5z"/>
<path d="M1310 1430 c-20 -39 -16 -52 8 -28 10 10 17 10 33 0 12 -8 23 -11 25
-9 7 6 -28 77 -38 77 -4 0 -17 -18 -28 -40z m35 0 c3 -5 1 -10 -4 -10 -6 0
-11 5 -11 10 0 6 2 10 4 10 3 0 8 -4 11 -10z"/>
<path d="M1418 1464 c-12 -11 -10 -74 2 -74 6 0 10 7 10 15 0 8 9 15 20 15 11
0 20 -7 20 -15 0 -8 5 -15 10 -15 6 0 10 18 10 40 0 22 -4 40 -10 40 -5 0 -10
-7 -10 -15 0 -20 -38 -19 -42 1 -2 9 -6 12 -10 8z"/>
<path d="M1530 1430 c0 -45 10 -51 33 -17 l16 22 0 -22 c1 -41 21 -24 21 17 0
45 -11 51 -34 18 l-16 -22 0 22 c0 12 -4 22 -10 22 -5 0 -10 -18 -10 -40z"/>
<path d="M1690 1430 c0 -46 5 -48 37 -18 l23 21 0 -21 c0 -12 5 -22 10 -22 6
0 10 18 10 40 0 45 -13 51 -41 18 l-18 -23 -1 23 c0 12 -4 22 -10 22 -5 0 -10
-18 -10 -40z"/>
<path d="M1872 1461 c-8 -5 -12 -21 -10 -37 2 -22 9 -30 27 -32 13 -2 28 1 34
7 8 8 3 11 -16 11 -20 0 -27 5 -27 20 0 15 7 20 26 20 14 0 23 4 19 10 -7 12
-35 13 -53 1z"/>
<path d="M1974 1434 c-15 -36 -11 -61 6 -34 8 13 13 13 31 2 29 -18 32 -11 14
31 -19 46 -32 47 -51 1z m31 -4 c3 -5 1 -10 -4 -10 -6 0 -11 5 -11 10 0 6 2
10 4 10 3 0 8 -4 11 -10z"/>
<path d="M2085 1440 c9 -17 11 -30 5 -30 -5 0 -10 -4 -10 -10 0 -25 32 -6 50
30 20 39 12 58 -10 23 -10 -17 -10 -17 -20 0 -19 30 -31 19 -15 -13z"/>
<path d="M2180 1430 c0 -22 5 -40 10 -40 6 0 10 7 10 15 0 8 9 15 20 15 11 0
20 -7 20 -15 0 -8 5 -15 10 -15 6 0 10 18 10 40 0 22 -4 40 -10 40 -5 0 -10
-7 -10 -15 0 -8 -9 -15 -20 -15 -11 0 -20 7 -20 15 0 8 -4 15 -10 15 -5 0 -10
-18 -10 -40z"/>
<path d="M2290 1429 c0 -39 1 -40 33 -37 24 2 33 8 35 26 3 17 -2 22 -18 22
-11 0 -23 7 -26 15 -11 29 -24 15 -24 -26z m50 -9 c0 -5 -7 -10 -16 -10 -8 0
-12 5 -9 10 3 6 10 10 16 10 5 0 9 -4 9 -10z"/>
<path d="M2370 1430 c0 -22 5 -40 10 -40 6 0 10 18 10 40 0 22 -4 40 -10 40
-5 0 -10 -18 -10 -40z"/>
</g>
</svg>
