<?xml version="1.0" standalone="no"?>
<!DOCTYPE svg PUBLIC "-//W3C//DTD SVG 20010904//EN"
 "http://www.w3.org/TR/2001/REC-SVG-20010904/DTD/svg10.dtd">
<svg version="1.0" xmlns="http://www.w3.org/2000/svg"
 width="500.000000pt" height="500.000000pt" viewBox="0 0 500.000000 500.000000"
 preserveAspectRatio="xMidYMid meet">

<g transform="translate(0.000000,500.000000) scale(0.100000,-0.100000)"
fill="#000000" stroke="none">
<path d="M2058 3494 c-36 -19 -44 -54 -30 -124 17 -82 16 -85 -28 -99 -70 -21
-72 -28 -41 -263 l27 -208 -35 0 c-40 0 -111 -20 -111 -31 0 -13 16 -18 39
-12 17 4 19 8 9 14 -9 6 -6 9 11 9 16 0 21 -4 18 -14 -4 -10 14 -17 75 -26 51
-8 75 -16 66 -21 -24 -16 -103 -10 -143 11 -45 23 -59 19 -21 -5 36 -24 88
-34 134 -25 l39 7 -23 -35 c-24 -35 -29 -58 -18 -87 6 -14 9 -14 33 1 34 23
50 44 51 68 0 15 5 17 28 12 128 -28 308 -29 417 -1 43 11 54 11 80 -3 77 -41
198 -4 242 75 35 62 38 103 13 161 -28 65 -49 83 -104 89 -40 5 -45 8 -41 27
2 11 9 63 15 115 13 110 7 121 -69 145 -81 27 -171 36 -350 36 l-174 0 9 43
c14 77 10 108 -20 134 -31 26 -59 29 -98 7z m92 -29 c23 -24 23 -28 12 -83
-19 -92 -19 -92 38 -92 48 0 50 -1 38 -20 -10 -15 -24 -20 -58 -20 -58 0 -181
-26 -194 -41 -8 -9 -6 -10 9 -5 40 15 151 36 190 36 34 0 48 -7 88 -43 26 -24
47 -48 47 -53 0 -12 -164 -1 -245 16 -33 6 -75 21 -93 32 -40 24 -32 39 35 64
l45 18 -6 45 c-20 138 -20 137 5 155 33 23 62 20 89 -9z m345 -175 c122 -11
243 -43 252 -66 9 -25 -2 -26 -65 -5 -39 14 -113 25 -209 32 -112 9 -155 16
-178 30 l-30 19 60 0 c33 0 110 -5 170 -10z m-178 -52 c17 -18 78 -110 135
-204 l104 -172 46 43 c62 60 158 83 222 54 26 -12 66 -91 66 -131 -1 -36 -35
-102 -65 -126 -87 -69 -203 -45 -251 51 -64 127 -246 417 -284 451 -22 20 -40
43 -40 51 0 26 35 17 67 -17z m273 -9 c76 -11 130 -27 130 -38 0 -18 -166 -51
-256 -51 -54 0 -58 4 -117 98 -7 10 9 12 85 7 51 -3 122 -11 158 -16z m-485
-94 c48 -8 118 -15 156 -15 72 0 99 -14 99 -51 0 -16 -7 -19 -50 -19 -41 0
-50 3 -51 18 -1 16 -2 16 -6 0 -8 -33 -92 -18 -94 16 -2 20 -2 20 -6 -1 -5
-25 -7 -26 -52 -17 -25 5 -31 12 -32 33 -2 25 -2 25 -6 3 -4 -20 -9 -23 -31
-17 -48 12 -72 33 -72 65 0 30 0 30 29 15 16 -8 68 -21 116 -30z m638 9 c-4
-23 -13 -35 -39 -48 -45 -21 -44 -21 -46 17 l-1 32 -4 -33 c-4 -34 -7 -36 -55
-46 -25 -6 -28 -3 -29 21 l-2 28 -4 -27 c-2 -16 -10 -28 -17 -28 -8 0 -28 -3
-45 -6 -28 -6 -31 -4 -31 17 0 18 -3 20 -9 10 -7 -11 -11 -9 -21 9 -6 12 -10
23 -8 24 2 1 48 7 103 13 55 6 125 20 155 30 30 10 56 19 56 18 1 0 -1 -14 -3
-31z m-698 -74 c11 0 15 -11 15 -44 l0 -45 -30 11 c-37 12 -60 43 -60 80 0 28
0 28 30 13 16 -8 36 -15 45 -15z m686 -14 c-5 -33 -12 -42 -39 -53 l-32 -13 0
39 c0 35 3 40 38 53 20 8 38 14 38 14 1 -1 -1 -19 -5 -40z m-88 -66 c-4 -4
-23 -10 -40 -13 -33 -6 -33 -6 -33 33 0 35 3 40 28 46 15 3 32 7 37 8 12 3 20
-64 8 -74z m-524 64 c28 -6 31 -10 31 -45 0 -41 -8 -46 -57 -33 -19 5 -23 13
-23 45 0 42 1 42 49 33z m109 -14 c19 0 22 -5 22 -41 l0 -40 -42 3 -43 3 -3
44 c-3 41 -2 43 20 37 13 -3 33 -6 46 -6z m332 -30 c0 -36 -3 -40 -24 -40 -17
0 -30 10 -44 34 l-21 35 27 4 c62 9 62 9 62 -33z m-200 -10 l0 -40 -50 0 -50
0 0 40 0 40 50 0 50 0 0 -40z m49 0 l22 -40 -30 0 c-29 0 -31 2 -31 40 0 22 4
40 8 40 5 0 18 -18 31 -40z m-351 -38 c7 -10 12 -49 12 -109 l0 -92 -34 20
c-31 18 -34 24 -40 87 -4 37 -9 82 -12 99 l-6 33 33 -11 c19 -7 40 -19 47 -27z
m657 28 c-3 -5 -14 -10 -23 -10 -15 0 -15 2 -2 10 20 13 33 13 25 0z m-565
-89 c0 -31 3 -93 6 -138 7 -80 6 -82 -14 -76 -38 9 -55 59 -60 174 l-4 105 36
-4 36 -4 0 -57z m460 39 c-33 -28 -35 -28 -38 -8 -4 24 13 38 48 38 24 -1 24
-1 -10 -30z m-50 -12 c0 -30 -1 -31 -15 -12 -19 25 -19 44 0 44 10 0 15 -10
15 -32z m-310 -118 l0 -140 -27 0 c-16 0 -33 4 -39 8 -8 4 -15 58 -19 140 l-8
132 47 0 46 0 0 -140z m110 0 c0 -156 -1 -158 -65 -146 l-35 7 0 139 0 140 50
0 50 0 0 -140z m90 121 c5 -11 10 -73 10 -139 l0 -119 -31 -7 c-62 -12 -59
-18 -59 139 l0 145 35 0 c24 0 37 -6 45 -19z m64 -106 c26 -44 36 -71 36 -102
0 -24 -4 -43 -9 -43 -5 0 -23 -3 -40 -6 l-31 -6 0 112 c0 63 2 111 4 109 2 -2
20 -31 40 -64z m-556 -47 c18 -18 15 -27 -7 -21 -22 6 -37 33 -18 33 7 0 18
-5 25 -12z m45 -3 c8 -8 17 -12 20 -9 3 4 16 -1 29 -10 17 -12 19 -16 6 -16
-9 0 -19 4 -22 9 -3 4 -16 6 -28 4 -16 -3 -27 3 -36 16 -10 17 -10 21 2 21 8
0 21 -7 29 -15z m577 -76 c0 -5 -4 -9 -10 -9 -5 0 -10 7 -10 16 0 8 5 12 10 9
6 -3 10 -10 10 -16z m-495 -65 c-17 -26 -42 -41 -52 -31 -10 11 17 72 40 89
21 17 22 16 25 -8 2 -14 -4 -36 -13 -50z"/>
<path d="M2077 3454 c-13 -13 -7 -55 8 -60 21 -9 47 15 43 40 -3 21 -37 34
-51 20z m40 -20 c8 -21 -13 -42 -28 -27 -13 13 -5 43 11 43 6 0 13 -7 17 -16z"/>
<path d="M2698 2934 c-59 -18 -118 -76 -118 -115 0 -46 51 -61 131 -39 41 12
115 74 123 106 14 49 -55 74 -136 48z m121 -18 c23 -24 -15 -76 -78 -108 -121
-62 -199 -11 -112 72 59 56 152 73 190 36z"/>
<path d="M3163 2283 c-113 -3 -152 -13 -103 -26 19 -5 20 -14 20 -151 0 -143
-1 -147 -22 -156 -16 -6 4 -9 70 -9 58 -1 105 4 126 13 70 29 87 102 37 158
-26 30 -35 33 -83 33 -29 0 -61 -4 -70 -9 -16 -7 -18 -2 -18 58 l0 66 54 0
c70 0 85 -6 102 -44 l13 -31 1 53 c0 28 -1 51 -2 50 -2 -1 -58 -4 -125 -5z
m90 -174 c25 -31 22 -92 -6 -125 -18 -21 -35 -28 -76 -32 l-52 -5 3 84 c3 78
5 84 28 96 32 17 80 9 103 -18z"/>
<path d="M590 2270 c0 -5 7 -10 15 -10 8 0 15 -3 15 -6 0 -3 -21 -73 -47 -155
-43 -135 -49 -149 -70 -149 -21 0 -23 -4 -23 -52 0 -38 3 -49 10 -38 5 8 10
23 10 32 0 35 39 48 140 48 108 0 134 -11 149 -63 9 -30 9 -29 10 21 1 49 0
52 -24 52 l-25 0 0 155 c0 148 1 155 20 155 11 0 20 5 20 10 0 6 -40 10 -100
10 -60 0 -100 -4 -100 -10z m115 -165 l0 -150 -84 -3 c-68 -2 -82 0 -78 11 3
7 24 74 47 148 23 74 44 138 47 142 3 4 19 7 36 5 l32 -3 0 -150z"/>
<path d="M1200 2211 c-58 -4 -97 -9 -87 -13 15 -6 17 -22 17 -122 0 -99 -2
-116 -17 -125 -13 -8 13 -10 95 -11 l112 0 0 43 -1 42 -13 -31 c-16 -36 -32
-44 -92 -44 l-44 0 0 65 0 65 34 0 c19 0 37 -6 39 -12 3 -7 6 0 6 17 1 22 -2
26 -11 17 -7 -7 -25 -12 -41 -12 -28 0 -28 1 -25 53 3 49 5 52 32 55 41 5 81
-15 93 -46 10 -25 11 -24 12 21 1 26 0 46 -1 45 -2 -1 -50 -4 -108 -7z"/>
<path d="M1440 2207 c-39 -20 -50 -53 -50 -159 0 -83 -2 -97 -17 -101 -10 -3
9 -5 42 -5 33 0 52 2 43 5 -14 3 -18 15 -18 53 l0 48 43 -5 c32 -4 48 0 68 16
90 71 -7 200 -111 148z m84 -19 c9 -12 16 -40 16 -62 0 -60 -35 -89 -84 -70
-22 9 -22 116 0 138 22 22 50 20 68 -6z"/>
<path d="M843 2199 c15 -9 17 -26 17 -129 0 -104 -2 -119 -17 -124 -10 -2 25
-4 78 -3 116 2 142 17 137 76 -2 30 -9 39 -38 53 -19 10 -30 18 -23 18 21 0
43 31 43 60 0 43 -40 60 -137 60 -58 -1 -73 -3 -60 -11z m135 -15 c44 -31 18
-94 -39 -94 -29 0 -29 1 -29 55 0 51 2 55 23 55 12 0 33 -7 45 -16z m22 -124
c43 -43 10 -110 -55 -110 l-35 0 0 65 0 65 35 0 c22 0 43 -8 55 -20z"/>
<path d="M1643 2199 c15 -9 17 -26 17 -125 0 -110 -1 -115 -22 -124 -17 -7 -8
-9 37 -8 33 0 52 2 43 5 -10 2 -18 9 -18 15 0 5 32 50 70 100 l70 91 0 -101
c0 -87 -2 -101 -17 -105 -10 -3 9 -5 42 -5 33 0 52 2 43 5 -16 4 -18 19 -18
128 0 109 2 124 18 128 9 3 -10 5 -43 6 -45 0 -56 -2 -42 -10 9 -5 17 -14 17
-19 0 -10 -128 -180 -136 -180 -2 0 -4 45 -4 99 0 86 2 100 18 104 9 3 -8 5
-38 6 -42 0 -51 -2 -37 -10z"/>
<path d="M2163 2203 c10 -3 17 -10 14 -16 -2 -7 -19 -61 -38 -121 -24 -78 -38
-110 -51 -114 -14 -3 -18 -13 -17 -41 1 -22 3 -27 6 -14 7 38 26 44 124 41
l94 -3 17 -35 18 -35 0 38 c0 37 0 37 43 38 23 1 34 3 24 6 -10 3 -17 10 -14
16 2 7 21 63 42 125 36 109 38 113 64 110 l26 -3 3 -118 c3 -114 2 -118 -20
-127 -18 -7 -9 -9 37 -8 33 0 52 2 43 5 -16 4 -18 19 -18 128 0 109 2 124 18
128 9 3 -23 5 -73 5 -49 0 -82 -2 -72 -5 10 -3 17 -10 14 -16 -2 -7 -19 -57
-37 -112 -18 -55 -37 -106 -43 -112 -5 -7 -25 -13 -43 -13 l-34 0 0 124 c0
110 2 125 18 129 9 3 -23 5 -73 5 -49 0 -82 -2 -72 -5z m82 -128 l0 -120 -62
-3 c-35 -2 -63 1 -63 5 0 4 17 61 37 126 35 113 38 118 62 115 l26 -3 0 -120z"/>
<path d="M2694 2200 c-26 -10 -54 -48 -54 -71 0 -26 39 -69 63 -69 l22 0 -21
-18 c-12 -9 -29 -32 -38 -50 -10 -18 -27 -37 -39 -42 -20 -8 -19 -9 9 -9 36
-1 52 11 87 67 38 58 57 56 57 -7 0 -39 -4 -51 -17 -54 -10 -3 9 -5 42 -5 33
0 52 2 43 5 -16 4 -18 19 -18 123 0 103 2 120 18 129 22 13 -122 14 -154 1z
m86 -70 c0 -66 -1 -70 -23 -70 -38 0 -67 27 -67 64 0 47 25 73 73 75 15 1 17
-9 17 -69z"/>
<path d="M3427 2088 c-34 -94 -50 -126 -68 -135 -22 -12 -21 -13 21 -12 25 1
37 3 28 6 -21 5 -21 2 -7 42 11 31 12 32 67 29 51 -3 56 -5 65 -32 7 -21 6
-30 -4 -37 -8 -5 32 -8 101 -8 63 1 107 3 98 6 -15 4 -18 16 -18 69 l0 64 70
0 70 0 0 -60 c0 -54 -3 -62 -22 -70 -17 -7 -8 -9 37 -8 33 0 52 2 43 5 -16 4
-18 19 -18 128 0 109 2 124 18 128 9 3 -8 5 -38 6 -42 0 -51 -2 -37 -10 12 -7
17 -23 17 -59 l0 -50 -70 0 -70 0 0 54 c0 44 4 55 18 59 9 3 -10 5 -43 5 -33
0 -53 -2 -45 -5 8 -3 18 -11 22 -17 9 -13 11 -198 2 -220 -7 -19 -57 -21 -72
-3 -6 6 -31 65 -57 130 -26 64 -51 117 -55 117 -4 0 -28 -55 -53 -122z m82
-45 c1 -9 -14 -13 -44 -13 -25 0 -45 2 -45 5 0 2 10 30 22 62 l21 58 23 -50
c13 -27 23 -56 23 -62z"/>
<path d="M3960 2203 c26 -10 30 -26 30 -128 0 -102 -4 -118 -30 -128 -8 -3 12
-5 45 -5 33 0 52 2 43 5 -10 2 -18 9 -18 15 0 6 30 51 68 100 l67 88 3 -92 c2
-79 0 -95 -15 -105 -14 -11 -9 -13 38 -12 30 1 46 3 37 6 -16 4 -18 19 -18
123 0 103 2 120 18 129 13 8 4 10 -37 11 -49 0 -53 -1 -36 -14 18 -13 15 -18
-49 -105 -37 -50 -70 -91 -72 -91 -2 0 -4 45 -4 99 0 86 2 100 18 104 9 3 -10
5 -43 5 -33 0 -53 -2 -45 -5z"/>
<path d="M1527 1773 c463 -2 1223 -2 1690 0 466 1 88 2 -842 2 -929 0 -1311
-1 -848 -2z"/>
<path d="M2445 1659 c-4 -6 -5 -12 -2 -15 2 -3 7 2 10 11 7 17 1 20 -8 4z"/>
<path d="M2483 1655 c0 -8 4 -12 9 -9 5 3 6 10 3 15 -9 13 -12 11 -12 -6z"/>
<path d="M2011 1583 c2 -46 2 -46 8 -13 l7 35 8 -30 c7 -27 9 -28 16 -10 11
27 12 43 1 27 -6 -10 -10 -7 -15 12 -11 43 -26 29 -25 -21z"/>
<path d="M2065 1585 c0 -25 5 -45 10 -45 6 0 10 20 10 45 0 25 -5 45 -10 45
-6 0 -10 -20 -10 -45z"/>
<path d="M2148 1612 c-4 -12 -2 -20 2 -17 5 3 11 -8 15 -25 4 -16 11 -30 16
-30 12 0 11 8 -10 55 -16 35 -18 37 -23 17z"/>
<path d="M2230 1585 c0 -25 5 -45 10 -45 6 0 10 20 10 45 0 25 -4 45 -10 45
-5 0 -10 -20 -10 -45z"/>
<path d="M2274 1606 c0 -13 4 -22 9 -19 10 6 9 31 -2 37 -5 3 -8 -5 -7 -18z"/>
<path d="M2325 1585 c0 -25 5 -45 10 -45 6 0 10 20 10 45 0 25 -4 45 -10 45
-5 0 -10 -20 -10 -45z"/>
<path d="M2368 1613 c-5 -27 3 -73 13 -73 5 0 9 20 9 45 0 44 -15 63 -22 28z"/>
<path d="M2435 1585 c0 -25 5 -45 10 -45 6 0 10 20 10 45 0 25 -4 45 -10 45
-5 0 -10 -20 -10 -45z"/>
<path d="M2478 1613 c-5 -27 3 -73 13 -73 5 0 9 20 9 45 0 44 -15 63 -22 28z"/>
<path d="M2591 1614 c0 -11 3 -14 6 -6 3 7 2 16 -1 19 -3 4 -6 -2 -5 -13z"/>
<path d="M2635 1584 c0 -38 2 -42 13 -27 6 9 9 26 6 37 -12 39 -19 35 -19 -10z"/>
<path d="M2713 1623 c15 -4 18 -12 15 -44 -2 -22 1 -39 7 -39 5 0 10 20 10 45
0 42 -2 45 -25 44 -19 -1 -20 -3 -7 -6z"/>
<path d="M2590 1561 c0 -6 4 -12 8 -15 5 -3 9 1 9 9 0 8 -4 15 -9 15 -4 0 -8
-4 -8 -9z"/>
<path d="M2680 1550 c0 -5 5 -10 11 -10 5 0 7 5 4 10 -3 6 -8 10 -11 10 -2 0
-4 -4 -4 -10z"/>
</g>
</svg>
