<svg width="20" height="20" viewBox="0 0 20 20" fill="none" xmlns="http://www.w3.org/2000/svg">
<path fill-rule="evenodd" clip-rule="evenodd" d="M4.79166 18.4583L4.41665 18.25L0.833373 19.1667L1.79169 15.6667L1.54166 15.2917C0.541673 13.7083 0 11.8333 0 9.91664C0 4.41665 4.45833 0 9.95832 0C15.4583 0 20 4.37497 20 9.91664C20 15.4583 15.4583 20 10 20C8.12501 20 6.33332 19.4166 4.79166 18.4583ZM5.88451 4L6.66181 4.04382C6.82545 4.04382 6.94817 4.17523 6.98914 4.30669L8.17556 7.15415C8.21643 7.2856 8.17556 7.46083 8.09371 7.59224L7.11186 8.77501C7.03001 8.8626 7.03001 8.99406 7.07094 9.12547C8.3392 11.7539 10.6711 12.8052 11.3666 13.0681C11.4893 13.1119 11.6121 13.0681 11.6939 12.9805L12.7167 11.5787C12.8394 11.4034 13.044 11.3596 13.2076 11.4472L15.785 12.7177C15.9486 12.8052 16.0305 13.0243 15.9896 13.1995L15.8668 13.8128C15.7441 14.47 15.3759 15.0833 14.8032 15.4775C14.0667 15.9594 13.1667 16.1784 12.0212 15.828C8.42104 14.7328 6.37549 12.192 5.31179 10.6149C4.24809 9.03788 3.79808 7.46083 4.08445 6.1466C4.24809 5.27041 4.86174 4.61332 5.22994 4.26287C5.39359 4.08764 5.63903 4 5.88451 4Z" fill="#5C6B8B"/>
</svg>
