<svg width="32" height="32" viewBox="0 0 32 32" fill="none" xmlns="http://www.w3.org/2000/svg">
    <path d="M16 32C24.8365 32 32 24.8365 32 16C32 7.16346 24.8365 0 16 0C7.16346 0 0 7.16346 0 16C0 24.8365 7.16346 32 16 32Z" fill="#34AADF"/>
    <path d="M8.16446 15.9768C8.16446 15.9768 14.5976 13.4224 16.8287 12.5229C17.684 12.1632 20.5844 11.0118 20.5844 11.0118C20.5844 11.0118 21.9231 10.5082 21.8116 11.7314C21.7743 12.2351 21.4769 13.998 21.1794 15.9048C20.7332 18.6032 20.2497 21.5533 20.2497 21.5533C20.2497 21.5533 20.1754 22.3809 19.5432 22.5248C18.9111 22.6687 17.8699 22.0211 17.684 21.8771C17.5352 21.7692 14.895 20.1502 13.9282 19.3587C13.6679 19.1428 13.3704 18.7111 13.9654 18.2074C15.3041 17.0202 16.903 15.5451 17.8699 14.6097C18.3161 14.1779 18.7623 13.1705 16.903 14.3938C14.2629 16.1567 11.6599 17.8117 11.6599 17.8117C11.6599 17.8117 11.0649 18.1714 9.94937 17.8476C8.83376 17.5239 7.53227 17.0921 7.53227 17.0921C7.53227 17.0921 6.63987 16.5524 8.16446 15.9768Z" fill="white"/>
</svg>
