<svg width="18" height="12" viewBox="0 0 18 12" fill="none" xmlns="http://www.w3.org/2000/svg">
<path fill-rule="evenodd" clip-rule="evenodd" d="M6.70711 0.292893C7.09763 0.683417 7.09763 1.31658 6.70711 1.70711L3.41421 5H17C17.5523 5 18 5.44772 18 6C18 6.55228 17.5523 7 17 7H3.41421L3.42617 7.01195L3.43917 7.02496L3.45219 7.03798L3.46522 7.05101L3.47827 7.06406L3.49133 7.07712L3.50441 7.0902L3.5175 7.10329L3.53061 7.11639L3.54372 7.12951L3.55685 7.14264L3.57 7.15578L3.58315 7.16894L3.59632 7.18211L3.6095 7.19529L3.62269 7.20848L3.63589 7.22168L3.64911 7.23489L3.66233 7.24812L3.67556 7.26135L3.68881 7.27459L3.70206 7.28784L3.71532 7.30111L3.72859 7.31438L3.74187 7.32766L3.75516 7.34094L3.76845 7.35424L3.78176 7.36754L3.79507 7.38085L3.80839 7.39417L3.82171 7.4075L3.83504 7.42083L3.84838 7.43416L3.86172 7.44751L3.87507 7.46085L3.88842 7.47421L3.90178 7.48756L3.91514 7.50093L3.92851 7.51429L3.94188 7.52767L3.95525 7.54104L3.96863 7.55442L3.98201 7.5678L3.99539 7.58118L4.00878 7.59457L4.02217 7.60795L4.03556 7.62134L4.04895 7.63473L4.06234 7.64812L4.07573 7.66152L4.08912 7.67491L4.10251 7.6883L4.11591 7.70169L4.1293 7.71509L4.14269 7.72848L4.15608 7.74187L4.16947 7.75526L4.18286 7.76864L4.19624 7.78203L4.20962 7.79541L4.223 7.80879L4.23638 7.82217L4.24976 7.83554L4.26313 7.84891L4.27649 7.86228L4.28985 7.87564L4.30321 7.889L4.31656 7.90235L4.32991 7.9157L4.34325 7.92904L4.35659 7.94237L4.36992 7.9557L4.38324 7.96903L4.39656 7.98234L4.40987 7.99565L4.42317 8.00896L4.43646 8.02225L4.44975 8.03554L4.46303 8.04882L4.4763 8.06209L4.48956 8.07535L4.50281 8.0886L4.51605 8.10184L4.52928 8.11507L4.54251 8.12829L4.55572 8.1415L4.56892 8.1547L4.58211 8.16789L4.59528 8.18107L4.60845 8.19424L4.6216 8.20739L4.63475 8.22053L4.64788 8.23366L4.66099 8.24678L4.67409 8.25988L4.68718 8.27297L4.70026 8.28604L4.71332 8.2991L4.72636 8.31215L4.7394 8.32518L4.75241 8.3382L4.76541 8.3512L4.7784 8.36418L4.79137 8.37715L4.80432 8.3901L4.81725 8.40304L4.83017 8.41596L4.84307 8.42886L4.85596 8.44174L4.86882 8.45461L4.88167 8.46745L4.8945 8.48028L4.90731 8.49309L4.9201 8.50588L4.93287 8.51865L4.94562 8.5314L4.95835 8.54413L4.97106 8.55684L4.98375 8.56953L4.99641 8.5822L5.00906 8.59485L5.02168 8.60747L5.03429 8.62007L5.04687 8.63265L5.05942 8.64521L5.07196 8.65775L5.08447 8.67026L5.09696 8.68274L5.10942 8.69521L5.12186 8.70765L5.13427 8.72006L5.14666 8.73245L5.15903 8.74482L5.17137 8.75715L5.18368 8.76947L5.19597 8.78175L5.20823 8.79401L5.22046 8.80625L5.23267 8.81846L5.24485 8.83063L5.257 8.84279L5.26912 8.85491L5.28122 8.867L5.29328 8.87907L5.30532 8.89111L5.31733 8.90312L5.32931 8.9151L5.34126 8.92704L5.35318 8.93896L5.36506 8.95085L5.37692 8.96271L5.38875 8.97453L5.40054 8.98633L5.4123 8.99809L5.42404 9.00982L5.43573 9.02152L5.4474 9.03318L5.45903 9.04482L5.47063 9.05642L5.4822 9.06798L5.49373 9.07951L5.50522 9.09101L5.51669 9.10247L5.52811 9.1139L5.53951 9.12529L5.55086 9.13665L5.56219 9.14797L5.57347 9.15926L5.58472 9.17051L5.59593 9.18172L5.6071 9.19289L5.61824 9.20403L5.62934 9.21513L5.6404 9.22619L5.65143 9.23721L5.66241 9.2482L5.67336 9.25914L5.68426 9.27005L5.69513 9.28091L5.70595 9.29174L5.71674 9.30253L5.72749 9.31327L5.73819 9.32398L5.74885 9.33464L5.75948 9.34526L5.77006 9.35584L5.7806 9.36638L5.79109 9.37688L5.80154 9.38733L5.81195 9.39774L5.82232 9.40811L5.83264 9.41843L5.84292 9.42871L5.85316 9.43894L5.86335 9.44913L5.87349 9.45928L5.88359 9.46938L5.89365 9.47943L5.90366 9.48944L5.91362 9.49941L5.92354 9.50932L5.9334 9.51919L5.94323 9.52901L5.953 9.53879L5.96273 9.54851L5.97241 9.55819L5.98204 9.56782L5.99162 9.5774L6.00115 9.58694L6.01063 9.59642L6.02007 9.60585L6.02945 9.61524L6.03879 9.62457L6.04807 9.63385L6.0573 9.64309L6.06648 9.65227L6.07561 9.6614L6.08469 9.67047L6.09371 9.6795L6.10269 9.68847L6.11161 9.69739L6.12048 9.70626L6.12929 9.71508L6.13805 9.72384L6.14676 9.73254L6.15541 9.74119L6.164 9.74979L6.17255 9.75833L6.18103 9.76682L6.18947 9.77525L6.19784 9.78363L6.20616 9.79195L6.21442 9.80021L6.22263 9.80842L6.23078 9.81657L6.23887 9.82466L6.2469 9.83269L6.25488 9.84067L6.2628 9.84858L6.27066 9.85644L6.27846 9.86424L6.2862 9.87198L6.29388 9.87966L6.3015 9.88728L6.30906 9.89484L6.31656 9.90234L6.324 9.90978L6.33137 9.91716L6.33869 9.92448L6.34595 9.93173L6.35314 9.93892L6.36027 9.94605L6.36733 9.95312L6.37434 9.96012L6.38128 9.96707L6.38816 9.97394L6.39497 9.98076L6.40172 9.9875L6.4084 9.99419L6.41502 10.0008L6.42157 10.0074L6.42806 10.0138L6.43448 10.0203L6.44084 10.0266L6.44713 10.0329L6.45335 10.0391L6.45951 10.0453L6.4656 10.0514L6.47162 10.0574L6.47757 10.0634L6.48345 10.0692L6.48927 10.0751L6.49501 10.0808L6.50069 10.0865L6.5063 10.0921L6.51184 10.0976L6.5173 10.1031L6.5227 10.1085L6.52802 10.1138L6.53328 10.1191L6.53846 10.1242L6.54357 10.1294L6.54861 10.1344L6.55358 10.1394L6.55847 10.1443L6.56329 10.1491L6.56804 10.1538L6.57271 10.1585L6.57731 10.1631L6.58184 10.1676L6.58629 10.1721L6.59066 10.1764L6.59496 10.1807L6.59918 10.185L6.60333 10.1891L6.60741 10.1932L6.6114 10.1972L6.61532 10.2011L6.61916 10.2049L6.62293 10.2087L6.62661 10.2124L6.63022 10.216L6.63375 10.2195L6.6372 10.223L6.64057 10.2264L6.64387 10.2297L6.64708 10.2329L6.65021 10.236L6.65327 10.2391L6.65624 10.242L6.65913 10.2449L6.66194 10.2477L6.66467 10.2505L6.66732 10.2531L6.66988 10.2557L6.67236 10.2581L6.67476 10.2605L6.67708 10.2629L6.67931 10.2651L6.68146 10.2672L6.68353 10.2693L6.68551 10.2713L6.6874 10.2732L6.68921 10.275L6.69094 10.2767L6.69258 10.2784L6.69413 10.2799L6.6956 10.2814L6.69698 10.2828L6.69828 10.2841L6.69949 10.2853L6.7006 10.2864L6.70164 10.2874L6.70258 10.2884L6.70344 10.2892L6.7042 10.29L6.70488 10.2907L6.70547 10.2913L6.70597 10.2918L6.70638 10.2922L6.7067 10.2925L6.70692 10.2927L6.70706 10.2928L6 11L5.29285 11.7071L5.29271 11.7069L5.29248 11.7067L5.29216 11.7064L5.29176 11.706L5.29126 11.7055L5.29067 11.7049L5.28999 11.7042L5.28922 11.7034L5.28837 11.7026L5.28742 11.7016L5.28639 11.7006L5.28527 11.6995L5.28406 11.6983L5.28277 11.697L5.28139 11.6956L5.27992 11.6941L5.27837 11.6926L5.27673 11.6909L5.275 11.6892L5.27319 11.6874L5.27129 11.6855L5.26931 11.6835L5.26725 11.6815L5.2651 11.6793L5.26287 11.6771L5.26055 11.6748L5.25815 11.6724L5.25567 11.6699L5.2531 11.6673L5.25046 11.6647L5.24773 11.6619L5.24492 11.6591L5.24203 11.6562L5.23905 11.6533L5.236 11.6502L5.23287 11.6471L5.22965 11.6439L5.22636 11.6406L5.22299 11.6372L5.21954 11.6338L5.21601 11.6302L5.2124 11.6266L5.20871 11.6229L5.20495 11.6192L5.20111 11.6153L5.19719 11.6114L5.19319 11.6074L5.18912 11.6033L5.18497 11.5992L5.18075 11.595L5.17645 11.5907L5.17207 11.5863L5.16762 11.5818L5.1631 11.5773L5.1585 11.5727L5.15382 11.568L5.14908 11.5633L5.14426 11.5585L5.13936 11.5536L5.1344 11.5486L5.12936 11.5436L5.12425 11.5385L5.11907 11.5333L5.11381 11.528L5.10849 11.5227L5.10309 11.5173L5.09762 11.5118L5.09208 11.5063L5.08648 11.5007L5.0808 11.495L5.07506 11.4893L5.06924 11.4835L5.06336 11.4776L5.0574 11.4716L5.05138 11.4656L5.0453 11.4595L5.03914 11.4534L5.03292 11.4471L5.02663 11.4408L5.02027 11.4345L5.01385 11.4281L5.00736 11.4216L5.00081 11.415L4.99419 11.4084L4.9875 11.4017L4.98076 11.395L4.97394 11.3882L4.96707 11.3813L4.96012 11.3743L4.95312 11.3673L4.94605 11.3603L4.93892 11.3531L4.93173 11.3459L4.92448 11.3387L4.91716 11.3314L4.90978 11.324L4.90234 11.3166L4.89484 11.3091L4.88728 11.3015L4.87966 11.2939L4.87198 11.2862L4.86424 11.2785L4.85644 11.2707L4.84858 11.2628L4.84067 11.2549L4.83269 11.2469L4.82466 11.2389L4.81657 11.2308L4.80842 11.2226L4.80021 11.2144L4.79195 11.2062L4.78363 11.1978L4.77525 11.1895L4.76682 11.181L4.75833 11.1725L4.74979 11.164L4.74119 11.1554L4.73254 11.1468L4.72384 11.138L4.71508 11.1293L4.70626 11.1205L4.69739 11.1116L4.68847 11.1027L4.6795 11.0937L4.67048 11.0847L4.6614 11.0756L4.65227 11.0665L4.64309 11.0573L4.63386 11.0481L4.62457 11.0388L4.61524 11.0295L4.60585 11.0201L4.59642 11.0106L4.58694 11.0012L4.5774 10.9916L4.56782 10.982L4.55819 10.9724L4.54851 10.9627L4.53879 10.953L4.52901 10.9432L4.51919 10.9334L4.50932 10.9235L4.49941 10.9136L4.48944 10.9037L4.47943 10.8936L4.46938 10.8836L4.45928 10.8735L4.44914 10.8633L4.43894 10.8532L4.42871 10.8429L4.41843 10.8326L4.40811 10.8223L4.39774 10.812L4.38733 10.8015L4.37688 10.7911L4.36638 10.7806L4.35584 10.7701L4.34526 10.7595L4.33464 10.7489L4.32398 10.7382L4.31327 10.7275L4.30253 10.7167L4.29174 10.706L4.28091 10.6951L4.27005 10.6843L4.25914 10.6734L4.2482 10.6624L4.23721 10.6514L4.22619 10.6404L4.21513 10.6293L4.20403 10.6182L4.19289 10.6071L4.18172 10.5959L4.1705 10.5847L4.15926 10.5735L4.14797 10.5622L4.13665 10.5509L4.12529 10.5395L4.1139 10.5281L4.10247 10.5167L4.09101 10.5052L4.07951 10.4937L4.06798 10.4822L4.05642 10.4706L4.04482 10.459L4.03319 10.4474L4.02152 10.4357L4.00982 10.424L3.99809 10.4123L3.98633 10.4005L3.97453 10.3887L3.96271 10.3769L3.95085 10.3651L3.93896 10.3532L3.92704 10.3413L3.9151 10.3293L3.90312 10.3173L3.89111 10.3053L3.87907 10.2933L3.867 10.2812L3.85491 10.2691L3.84279 10.257L3.83063 10.2448L3.81846 10.2327L3.80625 10.2205L3.79401 10.2082L3.78175 10.196L3.76947 10.1837L3.75715 10.1714L3.74482 10.159L3.73245 10.1467L3.72006 10.1343L3.70765 10.1219L3.69521 10.1094L3.68274 10.097L3.67026 10.0845L3.65775 10.072L3.64521 10.0594L3.63265 10.0469L3.62007 10.0343L3.60747 10.0217L3.59485 10.0091L3.5822 9.99641L3.56953 9.98375L3.55684 9.97106L3.54413 9.95835L3.5314 9.94562L3.51865 9.93287L3.50588 9.9201L3.49309 9.90731L3.48028 9.8945L3.46745 9.88167L3.45461 9.86882L3.44174 9.85596L3.42886 9.84307L3.41596 9.83017L3.40304 9.81725L3.3901 9.80432L3.37715 9.79137L3.36418 9.7784L3.3512 9.76541L3.3382 9.75241L3.32518 9.7394L3.31215 9.72636L3.2991 9.71332L3.28604 9.70026L3.27297 9.68718L3.25988 9.67409L3.24678 9.66099L3.23366 9.64787L3.22053 9.63475L3.20739 9.6216L3.19424 9.60845L3.18107 9.59528L3.16789 9.58211L3.1547 9.56892L3.1415 9.55572L3.12829 9.54251L3.11507 9.52928L3.10184 9.51605L3.0886 9.50281L3.07535 9.48956L3.06208 9.4763L3.04882 9.46303L3.03554 9.44975L3.02225 9.43646L3.00896 9.42317L2.99565 9.40987L2.98234 9.39656L2.96903 9.38324L2.9557 9.36992L2.94237 9.35659L2.92904 9.34325L2.9157 9.32991L2.90235 9.31656L2.889 9.30321L2.87564 9.28985L2.86228 9.27649L2.84891 9.26313L2.83554 9.24976L2.82217 9.23638L2.80879 9.22301L2.79541 9.20963L2.78203 9.19624L2.76864 9.18286L2.75526 9.16947L2.74187 9.15608L2.72848 9.14269L2.71509 9.1293L2.70169 9.11591L2.6883 9.10252L2.67491 9.08912L2.66152 9.07573L2.64812 9.06234L2.63473 9.04895L2.62134 9.03555L2.60795 9.02217L2.59457 9.00878L2.58118 8.99539L2.5678 8.98201L2.55442 8.96863L2.54104 8.95525L2.52766 8.94188L2.51429 8.92851L2.50093 8.91514L2.48757 8.90178L2.47421 8.88842L2.46085 8.87507L2.44751 8.86172L2.43416 8.84838L2.42083 8.83504L2.4075 8.82171L2.39417 8.80839L2.38085 8.79507L2.36754 8.78176L2.35424 8.76845L2.34094 8.75516L2.32766 8.74187L2.31438 8.72859L2.30111 8.71532L2.28784 8.70206L2.27459 8.68881L2.26135 8.67556L2.24812 8.66233L2.23489 8.64911L2.22168 8.63589L2.20848 8.62269L2.19529 8.6095L2.18211 8.59632L2.16894 8.58315L2.15578 8.57L2.14264 8.55685L2.12951 8.54372L2.11639 8.53061L2.10329 8.5175L2.0902 8.50441L2.07712 8.49133L2.06406 8.47827L2.05101 8.46522L2.03798 8.45219L2.02496 8.43917L2.01195 8.42617L1.99897 8.41318L1.986 8.40021L1.97304 8.38726L1.9601 8.37432L1.94718 8.3614L1.93428 8.34849L1.92139 8.33561L1.90853 8.32274L1.89568 8.30989L1.88285 8.29706L1.87003 8.28425L1.85724 8.27145L1.84447 8.25868L1.83171 8.24593L1.81898 8.23319L1.80627 8.22048L1.79358 8.20779L1.78091 8.19512L1.76826 8.18247L1.75563 8.16984L1.74302 8.15724L1.73044 8.14465L1.71788 8.13209L1.70534 8.11955L1.69283 8.10704L1.68034 8.09455L1.66787 8.08208L1.65543 8.06964L1.64301 8.05722L1.63061 8.04483L1.61825 8.03246L1.6059 8.02012L1.59359 8.0078L1.5813 7.99551L1.56903 7.98325L1.55679 7.97101L1.54458 7.9588L1.5324 7.94661L1.52024 7.93446L1.50812 7.92233L1.49602 7.91023L1.48395 7.89816L1.47191 7.88612L1.45989 7.87411L1.44791 7.86212L1.43596 7.85017L1.42403 7.83825L1.41214 7.82636L1.40028 7.81449L1.38845 7.80266L1.37665 7.79086L1.36488 7.7791L1.35315 7.76736L1.34145 7.75566L1.32978 7.74399L1.31814 7.73235L1.30653 7.72075L1.29496 7.70918L1.28343 7.69764L1.27193 7.68614L1.26046 7.67467L1.24903 7.66324L1.23763 7.65184L1.22627 7.64048L1.21494 7.62915L1.20365 7.61786L1.1924 7.60661L1.18118 7.59539L1.17 7.58421L1.15886 7.57307L1.14775 7.56197L1.13669 7.5509L1.12566 7.53987L1.11467 7.52888L1.10372 7.51793L1.0928 7.50702L1.08193 7.49615L1.0711 7.48531L1.06031 7.47452L1.04956 7.46377L1.03885 7.45306L1.02818 7.44239L1.01755 7.43176L1.00696 7.42117L0.996417 7.41063L0.985915 7.40013L0.975456 7.38967L0.96504 7.37925L0.954667 7.36888L0.944338 7.35855L0.934052 7.34827L0.923811 7.33802L0.913614 7.32783L0.903463 7.31768L0.893356 7.30757L0.883295 7.29751L0.87328 7.28749L0.863311 7.27752L0.853389 7.2676L0.843513 7.25773L0.833684 7.2479L0.823903 7.23812L0.814169 7.22838L0.804484 7.2187L0.794846 7.20906L0.785258 7.19947L0.775718 7.18993L0.766227 7.18044L0.756787 7.171L0.747396 7.16161L0.738055 7.15227L0.728765 7.14298L0.719525 7.13374L0.710337 7.12455L0.7012 7.11541L0.692115 7.10633L0.683082 7.0973L0.674101 7.08831L0.665173 7.07939L0.656298 7.07051L0.647477 7.06169L0.638709 7.05292L0.629995 7.04421L0.621335 7.03555L0.61273 7.02694L0.60418 7.01839L0.595685 7.0099L0.587246 7.00146L0.578862 6.99308L0.570534 6.98475L0.562263 6.97648L0.554049 6.96826L0.545892 6.96011L0.537792 6.95201L0.52975 6.94396L0.521766 6.93598L0.51384 6.92805L0.505973 6.92019L0.498165 6.91238L0.490416 6.90463L0.482727 6.89694L0.475098 6.88931L0.467529 6.88174L0.46002 6.87423L0.452573 6.86679L0.445186 6.8594L0.437861 6.85207L0.430598 6.84481L0.423396 6.83761L0.416258 6.83047L0.409181 6.8234L0.402168 6.81638L0.395219 6.80943L0.388333 6.80255L0.38151 6.79572L0.374753 6.78897L0.368059 6.78227L0.361431 6.77564L0.354868 6.76908L0.34837 6.76258L0.341939 6.75615L0.335573 6.74979L0.329274 6.74349L0.323042 6.73726L0.316877 6.73109L0.310779 6.72499L0.304749 6.71896L0.298787 6.713L0.292893 6.70711C-0.0976312 6.31658 -0.0976312 5.68342 0.292893 5.29289L5.29289 0.292893C5.68342 -0.0976312 6.31658 -0.0976312 6.70711 0.292893ZM6 11L5.29289 11.7071C5.68342 12.0976 6.31658 12.0976 6.70711 11.7071C7.09763 11.3166 7.09763 10.6834 6.70711 10.2929L6 11Z" fill="#252129"/>
</svg>
