<?xml version="1.0" encoding="UTF-8"?>
<svg xmlns="http://www.w3.org/2000/svg" xmlns:xlink="http://www.w3.org/1999/xlink" width="300px" height="150px" viewBox="0 0 629 150" version="1.1">
<g id="surface3">
<path style=" stroke:none;fill-rule:nonzero;fill:rgb(100%,100%,100%);fill-opacity:1;" d="M 170.519531 43.007812 C 163.753906 45.53125 158.84375 51.105469 150.746094 65.839844 C 147.164062 72.34375 142.917969 79.511719 141.191406 81.769531 L 138.140625 85.886719 L 142.785156 87.609375 C 147.960938 89.601562 147.960938 90 145.441406 98.363281 C 142.652344 107.65625 138.539062 114.824219 135.089844 116.546875 C 132.300781 118.140625 132.433594 118.140625 136.546875 117.476562 C 145.441406 116.152344 147.960938 112.035156 154.597656 88.140625 C 160.167969 68.363281 165.609375 56.28125 171.316406 50.441406 C 178.613281 43.140625 187.109375 46.460938 187.109375 56.679688 C 187.109375 62.789062 181.800781 76.328125 173.175781 91.992188 C 165.875 105.265625 164.945312 107.523438 166.9375 107.523438 C 169.589844 107.523438 173.835938 122.921875 173.835938 132.875 C 173.835938 141.238281 174.234375 141.636719 184.453125 143.363281 C 195.335938 145.222656 196.660156 142.566406 193.078125 126.769531 C 190.691406 116.8125 191.089844 112.699219 196 90.929688 C 201.304688 67.035156 200.378906 52.035156 193.078125 45.132812 C 188.964844 41.28125 178.214844 40.222656 170.519531 43.007812 Z M 165.875 50.972656 C 165.875 51.238281 164.8125 52.300781 163.621094 53.230469 C 161.496094 54.957031 161.363281 54.824219 163.089844 52.699219 C 164.8125 50.574219 165.875 49.910156 165.875 50.972656 Z M 160.566406 58.40625 C 159.769531 59.867188 158.84375 61.0625 158.445312 61.0625 C 158.179688 61.0625 158.445312 59.867188 159.242188 58.40625 C 160.035156 56.945312 160.964844 55.753906 161.363281 55.753906 C 161.628906 55.753906 161.363281 56.945312 160.566406 58.40625 Z M 160.566406 58.40625 "/>
<path style=" stroke:none;fill-rule:nonzero;fill:rgb(100%,100%,100%);fill-opacity:1;" d="M 246.824219 84.957031 L 246.824219 107.523438 L 254.652344 107.523438 L 255.050781 90.132812 L 255.449219 72.609375 L 260.757812 90.132812 L 265.933594 107.523438 L 274.425781 107.523438 L 280.394531 89.867188 L 286.367188 72.34375 L 286.5 89.867188 L 286.632812 107.523438 L 294.59375 107.523438 L 294.59375 62.257812 L 288.359375 62.65625 L 282.121094 63.054688 L 276.8125 79.246094 C 273.894531 88.273438 271.105469 95.574219 270.574219 95.574219 C 270.179688 95.574219 267.523438 88.140625 264.605469 78.980469 L 259.5625 62.390625 L 246.824219 62.390625 Z M 246.824219 84.957031 "/>
<path style=" stroke:none;fill-rule:nonzero;fill:rgb(100%,100%,100%);fill-opacity:1;" d="M 390.671875 68.363281 C 390.273438 70.222656 388.414062 72.875 386.6875 74.203125 C 382.839844 77.257812 382.707031 79.113281 386.160156 80.042969 C 388.546875 80.707031 388.8125 81.902344 388.8125 90.929688 C 388.8125 103.140625 390.007812 105.796875 396.109375 106.992188 C 403.277344 108.320312 407.390625 106.726562 407.390625 102.875 C 407.390625 99.957031 406.859375 99.558594 402.746094 99.558594 C 397.304688 99.558594 396.375 97.300781 397.039062 86.8125 C 397.4375 80.308594 397.4375 80.308594 402.480469 79.910156 C 406.726562 79.511719 407.390625 78.980469 407.390625 76.195312 C 407.390625 73.40625 406.859375 73.007812 402.082031 73.007812 C 397.039062 73.007812 396.773438 72.742188 396.773438 69.027344 C 396.773438 63.847656 391.996094 63.320312 390.671875 68.363281 Z M 390.671875 68.363281 "/>
<path style=" stroke:none;fill-rule:nonzero;fill:rgb(100%,100%,100%);fill-opacity:1;" d="M 80.417969 70.222656 C 78.160156 71.546875 75.375 74.070312 74.179688 75.929688 C 69.933594 82.433594 62.5 115.222656 62.5 127.566406 C 62.5 132.875 63.03125 134.335938 65.554688 136.0625 C 70.066406 138.980469 79.089844 139.777344 84.265625 137.523438 C 91.296875 134.601562 93.023438 129.824219 93.023438 113.894531 C 93.15625 90.796875 96.207031 74.734375 100.320312 76.0625 C 100.984375 76.328125 103.109375 79.246094 104.964844 82.699219 C 107.488281 87.609375 108.8125 88.9375 110.804688 88.40625 C 112.398438 88.007812 114.917969 89.070312 117.175781 91.0625 C 119.296875 92.789062 122.613281 94.246094 124.472656 94.246094 L 127.921875 94.246094 L 124.472656 91.59375 C 122.613281 90.132812 117.96875 84.957031 114.253906 80.308594 C 110.40625 75.53125 105.628906 70.753906 103.507812 69.691406 C 98.199219 66.902344 85.328125 67.167969 80.417969 70.222656 Z M 107.621094 78.320312 C 109.210938 80.441406 110.140625 82.300781 109.742188 82.300781 C 109.476562 82.300781 107.886719 80.441406 106.292969 78.320312 C 104.699219 76.0625 103.773438 74.335938 104.167969 74.335938 C 104.433594 74.335938 106.027344 76.0625 107.621094 78.320312 Z M 85.722656 128.230469 C 85.328125 130.621094 84.132812 133.273438 83.070312 134.070312 C 81.34375 135.53125 81.078125 134.734375 81.742188 127.964844 C 82.140625 123.585938 83.203125 118.273438 84.132812 116.152344 L 85.722656 112.167969 L 86.121094 118.140625 C 86.386719 121.328125 86.253906 125.972656 85.722656 128.230469 Z M 85.722656 128.230469 "/>
<path style=" stroke:none;fill-rule:nonzero;fill:rgb(100%,100%,100%);fill-opacity:1;" d="M 314.5 73.9375 C 310.519531 75.398438 305.210938 81.503906 304.414062 85.753906 C 301.761719 99.957031 312.90625 110.441406 326.574219 106.328125 C 339.714844 102.34375 341.039062 80.175781 328.433594 74.867188 C 323.789062 73.007812 318.214844 72.609375 314.5 73.9375 Z M 326.175781 82.566406 C 327.105469 83.496094 327.769531 86.945312 327.769531 90.265625 C 327.769531 97.566406 326.046875 99.558594 320.207031 99.558594 C 316.625 99.558594 315.5625 98.894531 314.5 96.105469 C 313.703125 94.246094 313.171875 91.59375 313.171875 90.265625 C 313.171875 88.9375 313.703125 86.28125 314.5 84.425781 C 315.5625 81.636719 316.625 80.972656 320.207031 80.972656 C 322.59375 80.972656 325.25 81.636719 326.175781 82.566406 Z M 326.175781 82.566406 "/>
<path style=" stroke:none;fill-rule:nonzero;fill:rgb(100%,100%,100%);fill-opacity:1;" d="M 345.019531 90.265625 L 345.019531 107.523438 L 354.308594 107.523438 L 354.308594 97.832031 C 354.308594 85.488281 356.167969 81.636719 362.273438 81.636719 C 367.710938 81.636719 368.640625 83.761719 368.773438 97.832031 L 368.90625 107.523438 L 376.871094 107.523438 L 376.871094 93.847656 C 376.871094 78.1875 375.410156 75 368.242188 73.539062 C 363.464844 72.742188 355.636719 75 355.636719 77.125 C 355.636719 77.789062 355.105469 78.320312 354.308594 78.320312 C 353.648438 78.320312 352.984375 77.125 352.984375 75.664062 C 352.984375 73.539062 352.054688 73.007812 349.003906 73.007812 L 345.019531 73.007812 Z M 345.019531 90.265625 "/>
<path style=" stroke:none;fill-rule:nonzero;fill:rgb(100%,100%,100%);fill-opacity:1;" d="M 422.121094 74.601562 C 413.628906 79.246094 410.441406 92.789062 416.148438 100.488281 C 420.128906 105.796875 428.089844 108.320312 436.1875 106.726562 C 441.757812 105.664062 442.554688 105.132812 442.953125 101.8125 C 443.351562 98.363281 443.21875 98.230469 439.636719 99.160156 C 433 101.019531 425.835938 100.355469 423.84375 97.566406 C 422.785156 96.238281 421.988281 94.644531 421.988281 93.980469 C 421.988281 93.453125 427.03125 92.921875 433.265625 92.921875 L 444.546875 92.921875 L 444.546875 87.609375 C 444.546875 80.042969 439.105469 74.335938 431.277344 73.539062 C 427.824219 73.140625 423.976562 73.671875 422.121094 74.601562 Z M 434.460938 81.769531 C 438.042969 85.222656 436.851562 86.28125 429.152344 86.28125 C 421.722656 86.28125 421.457031 85.886719 425.039062 81.238281 C 426.765625 78.980469 431.941406 79.246094 434.460938 81.769531 Z M 434.460938 81.769531 "/>
<path style=" stroke:none;fill-rule:nonzero;fill:rgb(100%,100%,100%);fill-opacity:1;" d="M 452.507812 90.265625 L 452.507812 107.523438 L 461.796875 107.523438 L 461.796875 97.699219 C 461.796875 92.257812 462.328125 86.152344 463.125 84.292969 C 464.320312 81.238281 465.113281 80.839844 469.363281 81.238281 L 474.402344 81.636719 L 474.800781 94.511719 L 475.199219 107.523438 L 484.355469 107.523438 L 484.355469 94.113281 C 484.355469 86.8125 483.824219 79.777344 483.03125 78.453125 C 480.109375 72.875 467.105469 71.546875 462.992188 76.460938 C 461.53125 78.320312 461.132812 78.1875 460.203125 75.796875 C 459.542969 73.9375 458.082031 73.007812 455.824219 73.007812 L 452.507812 73.007812 Z M 452.507812 90.265625 "/>
<path style=" stroke:none;fill-rule:nonzero;fill:rgb(100%,100%,100%);fill-opacity:1;" d="M 500.679688 75.132812 C 491.390625 79.910156 489.53125 95.308594 497.492188 102.476562 C 502.269531 106.726562 509.4375 108.320312 516.070312 106.726562 C 519.921875 105.796875 520.980469 104.867188 521.246094 101.945312 C 521.644531 98.496094 521.511719 98.363281 517.265625 99.691406 C 510.632812 101.546875 507.179688 101.152344 504.261719 98.230469 C 499.75 93.71875 501.078125 92.921875 513.019531 92.921875 L 524.566406 92.921875 L 523.769531 86.8125 C 522.972656 78.71875 518.59375 74.203125 510.765625 73.539062 C 507.046875 73.140625 503.464844 73.671875 500.679688 75.132812 Z M 514.613281 83.230469 C 516.46875 86.28125 516.46875 86.28125 509.039062 86.28125 C 501.34375 86.28125 501.078125 85.886719 504.660156 81.238281 C 506.648438 78.71875 512.355469 79.910156 514.613281 83.230469 Z M 514.613281 83.230469 "/>
<path style=" stroke:none;fill-rule:nonzero;fill:rgb(100%,100%,100%);fill-opacity:1;" d="M 536.640625 74.867188 C 534.382812 75.796875 532.128906 77.65625 531.597656 78.980469 C 530.003906 83.363281 530.800781 89.46875 533.457031 92.257812 C 535.84375 94.910156 535.976562 95.308594 534.121094 96.902344 C 531.730469 98.894531 531.464844 103.007812 533.589844 104.335938 C 534.648438 104.867188 533.855469 105.929688 531.597656 107.125 C 527.21875 109.378906 526.953125 115.222656 530.933594 118.9375 C 533.191406 120.929688 535.710938 121.460938 543.410156 121.460938 C 555.882812 121.460938 560.394531 118.671875 561.058594 110.574219 C 561.589844 103.539062 559.332031 101.945312 548.316406 101.019531 C 538.632812 100.222656 537.039062 97.964844 545 96.769531 C 554.6875 95.441406 559.863281 89.867188 558.136719 82.832031 C 557.472656 80.574219 558.003906 79.644531 559.996094 78.980469 C 564.375 77.65625 563.179688 74.335938 558.402344 74.335938 C 556.015625 74.335938 551.105469 74.070312 547.390625 73.671875 C 543.144531 73.140625 539.292969 73.671875 536.640625 74.867188 Z M 547.789062 79.910156 C 550.042969 82.167969 549.777344 88.273438 547.390625 90.265625 C 544.734375 92.523438 540.222656 90.664062 539.292969 86.945312 C 537.703125 80.707031 543.671875 75.796875 547.789062 79.910156 Z M 553.359375 111.371094 C 553.359375 115.621094 540.886719 117.609375 536.773438 114.160156 C 533.191406 111.105469 537.039062 108.847656 545.53125 108.847656 C 552.433594 108.847656 553.359375 109.113281 553.359375 111.371094 Z M 553.359375 111.371094 "/>
<path style=" stroke:none;fill-rule:nonzero;fill:rgb(100%,100%,100%);fill-opacity:1;" d="M 567.957031 90.132812 L 567.957031 107.523438 L 577.246094 107.523438 L 577.246094 97.167969 C 577.246094 85.621094 579.105469 82.300781 585.472656 82.300781 C 588.925781 82.300781 590.515625 80.175781 590.515625 75.53125 C 590.515625 71.8125 584.945312 72.210938 580.035156 76.328125 L 576.050781 79.777344 L 575.65625 76.726562 C 575.390625 74.46875 574.195312 73.539062 571.671875 73.273438 L 567.957031 72.875 Z M 567.957031 90.132812 "/>
<path style=" stroke:none;fill-rule:nonzero;fill:rgb(100%,100%,100%);fill-opacity:1;" d="M 605.113281 73.9375 C 597.816406 76.59375 593.4375 86.679688 595.824219 95.441406 C 599.140625 107.65625 614.667969 111.371094 623.957031 102.210938 C 627.007812 99.027344 627.671875 97.300781 627.671875 91.59375 C 627.671875 87.875 626.742188 82.964844 625.550781 80.839844 C 622.496094 74.867188 612.148438 71.414062 605.113281 73.9375 Z M 616.792969 82.566406 C 618.914062 84.691406 618.914062 95.839844 616.792969 97.964844 C 612.148438 102.609375 603.785156 97.699219 603.785156 90.265625 C 603.785156 82.832031 612.148438 77.921875 616.792969 82.566406 Z M 616.792969 82.566406 "/>
<path style=" stroke:none;fill-rule:nonzero;fill:rgb(100%,100%,100%);fill-opacity:1;" d="M 258.101562 128.761719 C 258.5 129.425781 259.164062 130.089844 259.5625 130.089844 C 259.828125 130.089844 260.09375 129.425781 260.09375 128.761719 C 260.09375 127.964844 259.429688 127.433594 258.632812 127.433594 C 257.96875 127.433594 257.703125 127.964844 258.101562 128.761719 Z M 258.101562 128.761719 "/>
<path style=" stroke:none;fill-rule:nonzero;fill:rgb(100%,100%,100%);fill-opacity:1;" d="M 244.433594 138.320312 L 244.167969 148.671875 L 249.875 148.539062 L 255.449219 148.273438 L 246.160156 146.679688 L 245.363281 137.390625 L 244.699219 128.097656 Z M 244.433594 138.320312 "/>
<path style=" stroke:none;fill-rule:nonzero;fill:rgb(100%,100%,100%);fill-opacity:1;" d="M 259.164062 140.707031 C 259.164062 145.488281 259.429688 147.34375 259.695312 144.957031 C 259.960938 142.699219 259.960938 138.71875 259.695312 136.328125 C 259.429688 134.070312 259.164062 135.929688 259.164062 140.707031 Z M 259.164062 140.707031 "/>
<path style=" stroke:none;fill-rule:nonzero;fill:rgb(100%,100%,100%);fill-opacity:1;" d="M 265.667969 140.707031 C 267.125 145.089844 268.71875 148.671875 269.382812 148.671875 C 270.574219 148.671875 276.28125 133.9375 275.351562 133.007812 C 274.691406 132.34375 270.707031 140.972656 270.707031 143.363281 C 270.707031 146.945312 268.1875 144.027344 266.726562 138.71875 C 265.800781 135.398438 264.605469 132.742188 263.941406 132.742188 C 263.410156 132.742188 264.074219 136.328125 265.667969 140.707031 Z M 265.667969 140.707031 "/>
<path style=" stroke:none;fill-rule:nonzero;fill:rgb(100%,100%,100%);fill-opacity:1;" d="M 281.058594 134.203125 C 277.609375 136.195312 277.742188 145.488281 281.191406 147.34375 C 284.378906 148.9375 289.285156 149.070312 289.285156 147.476562 C 289.285156 146.8125 288.226562 146.546875 286.765625 146.945312 C 284.378906 147.476562 279.996094 144.292969 279.996094 141.902344 C 279.996094 141.238281 282.386719 140.707031 285.304688 140.707031 C 291.144531 140.707031 292.207031 138.585938 288.492188 134.867188 C 286.101562 132.476562 284.246094 132.210938 281.058594 134.203125 Z M 287.695312 137.125 C 288.09375 138.847656 287.296875 139.378906 284.113281 139.378906 C 279.734375 139.378906 278.9375 138.320312 281.589844 135.664062 C 283.847656 133.40625 287.164062 134.203125 287.695312 137.125 Z M 287.695312 137.125 "/>
</g>
</svg>
