<svg xmlns="http://www.w3.org/2000/svg" version="1.0" width="532.000000" height="142.000000" preserveAspectRatio="xMidYMid meet" style=""><rect id="backgroundrect" width="100%" height="100%" x="0" y="0" fill="none" stroke="none"/>


<g class="currentLayer" style=""><title>Layer 1</title><g transform="translate(0,142) scale(0.10000000149011612,-0.10000000149011612) " fill="#ffffff" stroke="#b6b6b6" id="svg_1" class="selected" stroke-opacity="1" fill-opacity="1">
<path d="M1319.945055961609,1080.5054941177368 c-51,-19 -88,-61 -149,-172 c-27,-49 -59,-103 -72,-120 l-23,-31 l35,-13 c39,-15 39,-18 20,-81 c-21,-70 -52,-124 -78,-137 c-21,-12 -20,-12 11,-7 c67,10 86,41 136,221 c42,149 83,240 126,284 c55,55 119,30 119,-47 c0,-46 -40,-148 -105,-266 c-55,-100 -62,-117 -47,-117 c20,0 52,-116 52,-191 c0,-63 3,-66 80,-79 c82,-14 92,6 65,125 c-18,75 -15,106 22,270 c40,180 33,293 -22,345 c-31,29 -112,37 -170,16 zm-35,-60 c0,-2 -8,-10 -17,-17 c-16,-13 -17,-12 -4,4 c13,16 21,21 21,13 zm-40,-56 c-6,-11 -13,-20 -16,-20 c-2,0 0,9 6,20 c6,11 13,20 16,20 c2,0 0,-9 -6,-20 z" id="svg_2" stroke="#b6b6b6" stroke-opacity="1" fill="#ffffff" fill-opacity="1"/>
<path d="M1894.945055961609,764.5054941177368 l0,-170 l30,0 l29,0 l3,131 l3,132 l40,-132 l39,-131 l32,0 l32,0 l45,133 l45,132 l1,-132 l1,-133 l30,0 l30,0 l0,171 l0,170 l-47,-3 l-47,-3 l-40,-122 c-22,-68 -43,-123 -47,-123 c-3,0 -23,56 -45,125 l-38,125 l-48,0 l-48,0 l0,-170 z" id="svg_3" stroke="#b6b6b6" stroke-opacity="1" fill="#ffffff" fill-opacity="1"/>
<path d="M2978.945055961609,889.5054941177368 c-3,-14 -17,-34 -30,-44 c-29,-23 -30,-37 -4,-44 c18,-5 20,-14 20,-82 c0,-92 9,-112 55,-121 c54,-10 85,2 85,31 c0,22 -4,25 -35,25 c-41,0 -48,17 -43,96 c3,49 3,49 41,52 c32,3 37,7 37,28 c0,21 -4,24 -40,24 c-38,0 -40,2 -40,30 c0,39 -36,43 -46,5 z" id="svg_4" stroke="#b6b6b6" stroke-opacity="1" fill="#ffffff" fill-opacity="1"/>
<path d="M639.9450559616089,875.5054941177368 c-17,-10 -38,-29 -47,-43 c-32,-49 -88,-296 -88,-389 c0,-40 4,-51 23,-64 c34,-22 102,-28 141,-11 c53,22 66,58 66,178 c1,174 24,295 55,285 c5,-2 21,-24 35,-50 c19,-37 29,-47 44,-43 c12,3 31,-5 48,-20 c16,-13 41,-24 55,-24 l26,0 l-26,20 c-14,11 -49,50 -77,85 c-29,36 -65,72 -81,80 c-40,21 -137,19 -174,-4 zm205,-61 c12,-16 19,-30 16,-30 c-2,0 -14,14 -26,30 c-12,17 -19,30 -16,30 c2,0 14,-13 26,-30 zm-165,-376 c-3,-18 -12,-38 -20,-44 c-13,-11 -15,-5 -10,46 c3,33 11,73 18,89 l12,30 l3,-45 c2,-24 1,-59 -3,-76 z" id="svg_5" stroke="#b6b6b6" stroke-opacity="1" fill="#ffffff" fill-opacity="1"/>
<path d="M2404.945055961609,847.5054941177368 c-30,-11 -70,-57 -76,-89 c-20,-107 64,-186 167,-155 c99,30 109,197 14,237 c-35,14 -77,17 -105,7 zm88,-65 c7,-7 12,-33 12,-58 c0,-55 -13,-70 -57,-70 c-27,0 -35,5 -43,26 c-6,14 -10,34 -10,44 c0,10 4,30 10,44 c8,21 16,26 43,26 c18,0 38,-5 45,-12 z" id="svg_6" stroke="#b6b6b6" stroke-opacity="1" fill="#ffffff" fill-opacity="1"/>
<path d="M2634.945055961609,724.5054941177368 l0,-130 l35,0 l35,0 l0,73 c0,93 14,122 60,122 c41,0 48,-16 49,-122 l1,-73 l30,0 l30,0 l0,103 c0,118 -11,142 -65,153 c-36,6 -95,-11 -95,-27 c0,-5 -4,-9 -10,-9 c-5,0 -10,9 -10,20 c0,16 -7,20 -30,20 l-30,0 l0,-130 z" id="svg_7" stroke="#b6b6b6" stroke-opacity="1" fill="#ffffff" fill-opacity="1"/>
<path d="M3215.945055961609,842.5054941177368 c-64,-35 -88,-137 -45,-195 c30,-40 90,-59 151,-47 c42,8 48,12 51,37 c3,26 2,27 -25,20 c-50,-14 -104,-9 -119,12 c-8,10 -14,22 -14,27 c0,4 38,8 85,8 l85,0 l0,40 c0,57 -41,100 -100,106 c-26,3 -55,-1 -69,-8 zm93,-54 c27,-26 18,-34 -40,-34 c-56,0 -58,3 -31,38 c13,17 52,15 71,-4 z" id="svg_8" stroke="#b6b6b6" stroke-opacity="1" fill="#ffffff" fill-opacity="1"/>
<path d="M3444.945055961609,724.5054941177368 l0,-130 l35,0 l35,0 l0,74 c0,41 4,87 10,101 c9,23 15,26 47,23 l38,-3 l3,-97 l3,-98 l34,0 l35,0 l0,101 c0,55 -4,108 -10,118 c-22,42 -120,52 -151,15 c-11,-14 -14,-13 -21,5 c-5,14 -16,21 -33,21 l-25,0 l0,-130 z" id="svg_9" stroke="#b6b6b6" stroke-opacity="1" fill="#ffffff" fill-opacity="1"/>
<path d="M3807.945055961609,838.5054941177368 c-70,-36 -84,-152 -24,-206 c36,-32 90,-44 140,-32 c29,7 37,14 39,36 c3,26 2,27 -30,17 c-50,-14 -76,-11 -98,11 c-34,34 -24,40 66,40 l87,0 l-6,46 c-6,61 -39,95 -98,100 c-28,3 -55,-1 -76,-12 zm105,-61 c14,-23 14,-23 -42,-23 c-58,0 -60,3 -33,38 c15,19 58,10 75,-15 z" id="svg_10" stroke="#b6b6b6" stroke-opacity="1" fill="#ffffff" fill-opacity="1"/>
<path d="M4078.945055961609,840.5054941177368 c-17,-7 -34,-21 -38,-31 c-12,-33 -6,-79 14,-100 c18,-20 19,-23 5,-35 c-18,-15 -20,-46 -4,-56 c8,-4 2,-12 -15,-21 c-33,-17 -35,-61 -5,-89 c17,-15 36,-19 94,-19 c94,0 128,21 133,82 c4,53 -13,65 -96,72 c-73,6 -85,23 -25,32 c73,10 112,52 99,105 c-5,17 -1,24 14,29 c33,10 24,35 -12,35 c-18,0 -55,2 -83,5 c-32,4 -61,0 -81,-9 zm84,-38 c17,-17 15,-63 -3,-78 c-20,-17 -54,-3 -61,25 c-12,47 33,84 64,53 zm42,-237 c0,-32 -94,-47 -125,-21 c-27,23 2,40 66,40 c52,0 59,-2 59,-19 z" id="svg_11" stroke="#b6b6b6" stroke-opacity="1" fill="#ffffff" fill-opacity="1"/>
<path d="M4314.945055961609,725.5054941177368 l0,-131 l35,0 l35,0 l0,78 c0,87 14,112 62,112 c26,0 38,16 38,51 c0,28 -42,25 -79,-6 l-30,-26 l-3,23 c-2,17 -11,24 -30,26 l-28,3 l0,-130 z" id="svg_12" stroke="#b6b6b6" stroke-opacity="1" fill="#ffffff" fill-opacity="1"/>
<path d="M4594.945055961609,847.5054941177368 c-55,-20 -88,-96 -70,-162 c25,-92 142,-120 212,-51 c23,24 28,37 28,80 c0,28 -7,65 -16,81 c-23,45 -101,71 -154,52 zm88,-65 c16,-16 16,-100 0,-116 c-35,-35 -98,2 -98,58 c0,56 63,93 98,58 z" id="svg_13" stroke="#b6b6b6" stroke-opacity="1" fill="#ffffff" fill-opacity="1"/>
<path d="M1979.945055961609,434.5054941177368 c3,-5 8,-10 11,-10 c2,0 4,5 4,10 c0,6 -5,10 -11,10 c-5,0 -7,-4 -4,-10 z" id="svg_14" stroke="#b6b6b6" stroke-opacity="1" fill="#ffffff" fill-opacity="1"/>
<path d="M1876.945055961609,362.5054941177368 l-2,-78 l43,1 l42,2 l-35,6 l-35,6 l-6,70 l-5,70 l-2,-77 z" id="svg_15" stroke="#b6b6b6" stroke-opacity="1" fill="#ffffff" fill-opacity="1"/>
<path d="M1987.945055961609,344.5054941177368 c0,-36 2,-50 4,-32 c2,17 2,47 0,65 c-2,17 -4,3 -4,-33 z" id="svg_16" stroke="#b6b6b6" stroke-opacity="1" fill="#ffffff" fill-opacity="1"/>
<path d="M2036.945055961609,344.5054941177368 c11,-33 23,-60 28,-60 c9,0 52,111 45,118 c-5,5 -35,-60 -35,-78 c0,-27 -19,-5 -30,35 c-7,25 -16,45 -21,45 c-4,0 1,-27 13,-60 z" id="svg_17" stroke="#b6b6b6" stroke-opacity="1" fill="#ffffff" fill-opacity="1"/>
<path d="M2152.945055961609,393.5054941177368 c-26,-15 -25,-85 1,-99 c24,-12 61,-13 61,-1 c0,5 -8,7 -19,4 c-18,-4 -51,20 -51,38 c0,5 18,9 40,9 c44,0 52,16 24,44 c-18,18 -32,20 -56,5 zm50,-22 c3,-13 -3,-17 -27,-17 c-33,0 -39,8 -19,28 c17,17 42,11 46,-11 z" id="svg_18" stroke="#b6b6b6" stroke-opacity="1" fill="#ffffff" fill-opacity="1"/>
</g></g></svg>