<?xml version="1.0" standalone="no"?>
<!DOCTYPE svg PUBLIC "-//W3C//DTD SVG 20010904//EN"
 "http://www.w3.org/TR/2001/REC-SVG-20010904/DTD/svg10.dtd">
<svg version="1.0" xmlns="http://www.w3.org/2000/svg"
 width="480.000000pt" height="110.000000pt" viewBox="0 0 480.000000 110.000000"
 preserveAspectRatio="xMidYMid meet">

<g transform="translate(0.000000,110.000000) scale(0.100000,-0.100000)"
fill="#000000" stroke="none">
<path d="M1190 978 c-52 -27 -100 -87 -156 -195 -21 -42 -59 -99 -84 -127 -42
-48 -36 -49 19 -1 l23 20 -6 -22 c-9 -27 2 -30 19 -7 9 14 11 10 9 -22 -2 -26
-1 -34 6 -24 5 8 7 17 4 22 -3 4 0 15 5 25 5 10 19 50 30 88 40 137 115 235
178 235 43 0 80 -26 85 -61 8 -51 -9 -106 -70 -229 -31 -63 -56 -121 -56 -127
1 -7 -2 -11 -6 -8 -4 2 -17 -13 -28 -34 -29 -52 -28 -66 2 -17 18 31 24 35 29
21 10 -24 8 -32 -3 -15 -5 8 -10 11 -11 5 -6 -40 -5 -54 3 -49 4 3 5 10 2 16
-4 6 -2 8 4 4 6 -3 9 -18 6 -31 -3 -18 0 -25 11 -25 8 0 15 -3 16 -7 5 -53 5
-94 -2 -104 -5 -8 1 -20 14 -32 l22 -19 -25 7 -25 7 23 -17 c12 -9 37 -19 56
-22 52 -8 62 19 41 109 -20 79 -16 140 16 258 11 41 23 120 26 176 5 88 3 106
-15 147 -16 36 -30 51 -56 62 -46 20 -54 19 -106 -7z"/>
<path d="M522 781 c-36 -23 -67 -69 -82 -121 -16 -54 -48 -219 -55 -282 -7
-52 -5 -59 18 -82 34 -34 82 -34 122 -2 17 13 27 27 24 30 -3 3 -16 -4 -28
-15 -12 -12 -25 -19 -28 -16 -3 3 5 14 16 24 26 21 27 34 4 27 -15 -5 -15 -3
2 11 11 8 20 21 21 28 3 32 5 37 15 37 8 0 10 -14 6 -41 -3 -22 -2 -38 1 -34
4 4 9 77 12 163 5 128 9 164 25 197 17 33 25 40 50 40 24 0 33 -7 50 -38 12
-20 25 -34 30 -30 4 5 5 3 1 -4 -4 -7 3 -29 14 -50 12 -21 19 -31 17 -23 -19
68 -19 66 -4 48 8 -10 17 -18 21 -18 10 0 -60 92 -97 129 -46 43 -106 52 -155
22z"/>
<path d="M1539 790 c-1 -5 -2 -32 -3 -59 -1 -57 8 -55 18 4 5 31 4 37 -4 25
-9 -12 -10 -9 -6 13 4 15 4 27 1 27 -3 0 -6 -4 -6 -10z"/>
<path d="M1560 790 c0 -5 5 -10 11 -10 5 0 7 5 4 10 -3 6 -8 10 -11 10 -2 0
-4 -4 -4 -10z"/>
<path d="M1600 785 c7 -9 15 -13 17 -11 7 7 -7 26 -19 26 -6 0 -6 -6 2 -15z"/>
<path d="M1830 784 c0 -14 3 -14 15 -4 8 7 15 14 15 16 0 2 -7 4 -15 4 -8 0
-15 -7 -15 -16z"/>
<path d="M1874 630 c0 -96 2 -136 3 -87 2 48 2 126 0 175 -1 48 -3 8 -3 -88z"/>
<path d="M1799 785 c-4 -5 -14 -32 -22 -60 -8 -27 -19 -59 -23 -69 -5 -13 -4
-17 3 -13 6 4 16 29 23 57 7 27 16 50 20 50 4 0 2 -17 -5 -37 -7 -21 -15 -54
-18 -73 -4 -19 3 -6 15 30 11 36 25 67 29 68 5 2 9 8 9 13 0 6 -4 8 -9 4 -5
-3 -11 5 -13 17 -2 13 -6 19 -9 13z"/>
<path d="M2615 748 c-7 -18 -23 -39 -34 -46 -12 -7 -21 -18 -21 -25 1 -7 6 -5
14 6 13 17 14 16 19 -3 7 -27 27 -25 27 3 0 18 -2 19 -11 7 -9 -13 -10 -13 -6
0 2 8 9 14 14 13 5 -1 10 12 10 28 0 17 6 35 14 40 11 7 11 9 1 9 -7 0 -19
-15 -27 -32z"/>
<path d="M1565 723 c-4 -21 -12 -49 -19 -63 -8 -17 -10 -54 -6 -115 l7 -90 2
80 c5 129 20 156 18 32 -1 -59 2 -107 6 -107 4 0 7 68 6 150 -2 83 -4 150 -5
150 -1 0 -5 -17 -9 -37z"/>
<path d="M1591 744 c0 -11 3 -14 6 -6 3 7 2 16 -1 19 -3 4 -6 -2 -5 -13z"/>
<path d="M1613 723 c-10 -34 -10 -36 3 -19 9 13 14 15 14 6 0 -7 2 -11 5 -9 2
3 1 17 -3 32 -7 27 -7 27 -19 -10z"/>
<path d="M2639 726 c7 -8 8 -17 3 -20 -12 -7 -12 -55 -1 -62 5 -3 6 2 3 10 -3
9 -1 16 5 16 12 0 15 29 5 54 -3 9 -11 16 -16 16 -6 0 -6 -6 1 -14z"/>
<path d="M2066 703 c-6 -14 -5 -15 5 -6 7 7 10 15 7 18 -3 3 -9 -2 -12 -12z"/>
<path d="M2091 703 c-1 -17 -7 -23 -23 -23 -12 0 -30 -8 -41 -17 -19 -17 -20
-17 -15 4 4 15 2 20 -7 17 -21 -9 -38 -52 -38 -98 2 -70 23 -96 95 -116 20 -6
26 -5 22 2 -5 7 1 9 18 5 54 -14 106 63 93 140 -5 35 -35 82 -35 56 0 -7 5
-15 10 -18 6 -3 10 -14 10 -23 0 -15 -2 -15 -10 -2 -8 11 -9 7 -4 -14 5 -21 4
-27 -5 -22 -6 4 -11 20 -11 35 0 19 -8 32 -24 41 -14 7 -27 22 -29 34 -4 20
-4 20 -6 -1z m28 -43 c11 -5 21 -26 25 -50 7 -45 18 -51 34 -17 l11 22 0 -22
c1 -12 -3 -24 -9 -28 -5 -3 -7 -12 -4 -20 3 -8 -5 -25 -19 -38 -20 -17 -37
-23 -73 -22 -29 0 -49 5 -51 13 -3 6 0 12 7 12 7 0 6 8 -4 22 -21 29 -21 102
0 122 17 18 56 21 83 6z m-109 -53 c0 -31 -3 -38 -10 -27 -8 13 -10 12 -10 -2
0 -10 5 -18 11 -18 6 0 9 -7 5 -15 -3 -8 0 -14 7 -12 17 3 15 -25 -2 -31 -8
-3 -11 0 -7 6 3 5 0 12 -7 15 -14 5 -22 85 -12 118 10 31 25 11 25 -34z"/>
<path d="M2140 549 c0 -9 -11 -22 -25 -29 -22 -12 -23 -15 -10 -22 17 -10 38
-1 30 12 -3 5 1 12 9 17 11 6 12 13 6 23 -8 13 -10 13 -10 -1z"/>
<path d="M2055 500 c-3 -5 -2 -10 4 -10 5 0 13 5 16 10 3 6 2 10 -4 10 -5 0
-13 -4 -16 -10z"/>
<path d="M2282 588 l2 -133 3 128 c2 70 7 127 11 127 4 0 6 -56 4 -125 -3
-108 -1 -125 12 -125 13 0 16 14 14 83 l-2 82 -6 -80 c-7 -73 -7 -69 -7 45 0
109 -2 125 -16 128 -15 3 -17 -10 -15 -130z"/>
<path d="M2391 711 c-8 -5 -9 -11 -3 -15 14 -8 43 4 36 15 -7 11 -15 11 -33 0z"/>
<path d="M2864 709 c-35 -10 -77 -49 -53 -49 10 -1 9 -4 -4 -14 -16 -12 -16
-14 -2 -20 9 -3 13 -2 10 4 -3 6 -1 10 4 10 6 0 11 -6 11 -12 1 -7 7 -2 14 11
13 24 37 39 63 40 7 1 24 -10 39 -24 15 -14 23 -25 18 -25 -14 0 19 -20 34
-20 6 0 12 5 12 11 0 6 -7 9 -15 5 -8 -3 -15 -1 -15 3 0 5 -3 18 -6 28 -5 16
-4 16 10 -1 9 -11 16 -15 16 -9 0 18 -38 55 -45 43 -3 -5 -13 -10 -22 -10 -12
0 -13 3 -4 14 9 11 8 15 -5 20 -18 7 -19 7 -60 -5z m56 -7 c0 -5 -18 -14 -40
-21 -26 -8 -40 -18 -40 -29 0 -15 -2 -15 -10 -2 -12 18 23 52 44 44 8 -3 17
-1 21 5 7 13 25 15 25 3z m50 -26 c0 -3 -4 -8 -10 -11 -5 -3 -10 -1 -10 4 0 6
5 11 10 11 6 0 10 -2 10 -4z"/>
<path d="M3093 713 c-10 -3 -12 -38 -11 -131 l2 -127 3 121 c4 118 4 122 25
116 14 -3 19 -1 16 8 -5 16 -18 20 -35 13z"/>
<path d="M3453 704 c-39 -17 -59 -46 -67 -99 -3 -26 -3 -33 3 -20 7 18 9 16
15 -12 4 -18 17 -40 29 -48 11 -8 17 -18 13 -22 -4 -5 -19 5 -32 20 -13 15
-24 23 -24 17 0 -18 53 -66 58 -52 2 7 16 12 30 13 26 0 27 0 4 9 -12 5 -25
17 -29 26 -4 12 -8 13 -14 3 -9 -15 -8 -17 -28 58 -14 51 -4 73 43 93 33 14
37 15 74 6 12 -3 22 -1 22 4 0 5 -8 8 -17 8 -10 0 -25 2 -33 5 -8 3 -29 -1
-47 -9z"/>
<path d="M3743 713 c-14 -3 -23 -12 -23 -23 0 -10 -5 -22 -10 -25 -6 -4 -8
-11 -5 -16 4 -5 0 -9 -8 -9 -18 0 -18 27 0 34 7 3 13 11 13 17 0 7 -8 5 -20
-6 -23 -21 -25 -38 -7 -53 16 -14 32 -4 41 26 4 12 11 22 16 22 5 0 14 9 20
20 6 11 9 19 8 19 -2 -1 -13 -4 -25 -6z"/>
<path d="M3955 698 c-7 -35 -1 -238 8 -238 4 0 8 57 9 128 l2 127 6 -130 6
-130 2 133 c2 111 0 132 -13 132 -8 0 -17 -10 -20 -22z"/>
<path d="M4090 709 c0 -5 -5 -7 -11 -4 -12 8 -59 -33 -59 -52 0 -7 -4 -13 -8
-13 -4 0 -8 -10 -9 -22 -2 -23 -2 -23 11 1 7 13 26 30 42 37 l29 13 -30 -6
c-28 -6 -29 -5 -13 10 9 10 28 18 41 19 16 1 23 7 20 15 -6 16 -13 17 -13 2z"/>
<path d="M1832 690 c0 -14 2 -19 5 -12 2 6 2 18 0 25 -3 6 -5 1 -5 -13z"/>
<path d="M2035 700 c3 -5 8 -10 11 -10 2 0 4 5 4 10 0 6 -5 10 -11 10 -5 0 -7
-4 -4 -10z"/>
<path d="M2120 701 c0 -5 7 -11 15 -15 8 -3 15 -1 15 3 0 5 -7 11 -15 15 -8 3
-15 1 -15 -3z"/>
<path d="M2444 701 c4 -5 0 -12 -6 -15 -7 -3 -3 -3 10 0 13 3 22 1 22 -7 0 -8
-12 -10 -37 -6 -26 5 -33 3 -23 -3 8 -5 23 -10 33 -10 9 0 17 -5 17 -11 0 -5
-4 -7 -10 -4 -5 3 -10 1 -10 -4 0 -19 22 -12 27 9 8 29 23 25 23 -6 0 -14 -3
-23 -7 -21 -5 3 -7 -30 -5 -73 3 -69 1 -79 -15 -83 -13 -3 -11 -5 7 -6 l25 -1
0 104 c0 88 -3 107 -19 125 -19 21 -43 30 -32 12z"/>
<path d="M2670 698 c0 -14 8 -18 33 -17 27 2 28 2 7 6 -14 3 -28 10 -32 17 -5
7 -8 5 -8 -6z"/>
<path d="M3169 693 c-32 -40 -39 -66 -39 -143 0 -117 -19 -99 -23 23 l-3 102
-2 -107 c-2 -102 -1 -108 18 -108 18 0 20 7 20 88 0 97 12 122 61 122 48 0 53
-11 50 -114 -1 -63 1 -96 8 -96 7 0 11 32 11 88 0 103 -14 132 -62 132 -26 0
-29 2 -18 15 7 8 8 15 3 15 -6 0 -16 -8 -24 -17z"/>
<path d="M3220 700 c-11 -8 -7 -9 14 -4 20 5 27 3 22 -4 -3 -6 -1 -14 5 -17 7
-5 10 0 7 11 -4 22 -27 28 -48 14z"/>
<path d="M3814 703 c10 -11 36 -12 36 -2 0 5 -10 9 -22 9 -12 0 -18 -3 -14 -7z"/>
<path d="M3875 700 c3 -5 2 -10 -4 -10 -6 0 -19 -9 -29 -20 l-19 -21 -6 21
c-3 11 -12 20 -21 20 -13 0 -13 -3 4 -20 11 -11 20 -29 20 -40 0 -11 -9 -29
-20 -40 -26 -26 -15 -26 17 0 15 11 28 18 31 15 7 -6 -40 -44 -55 -45 -23 0
-63 23 -68 42 -4 10 -11 18 -16 18 -6 0 -6 -7 1 -19 14 -27 13 -31 -7 -24 -10
4 -14 2 -9 -5 3 -6 14 -11 24 -11 9 -1 33 -3 52 -7 44 -7 94 27 85 57 -4 11
-2 19 5 19 8 0 8 6 0 21 -10 17 -8 21 9 26 21 5 30 33 10 33 -5 0 -7 -4 -4
-10z m-33 -72 c-7 -7 -12 -8 -12 -2 0 14 12 26 19 19 2 -3 -1 -11 -7 -17z"/>
<path d="M4233 693 c0 -9 4 -10 14 -2 7 6 13 12 13 14 0 1 -6 2 -13 2 -8 0
-14 -6 -14 -14z"/>
<path d="M4282 698 c-16 -16 -15 -28 2 -28 8 0 22 -7 30 -16 15 -14 17 -13 26
11 13 33 13 32 -6 39 -13 5 -15 1 -10 -19 6 -23 5 -24 -19 -13 -19 9 -22 14
-14 25 14 16 7 17 -9 1z"/>
<path d="M2351 686 c-6 -7 -8 -16 -4 -19 3 -4 0 -7 -9 -7 -8 0 -15 -7 -15 -15
0 -25 13 -17 31 18 8 17 16 26 16 20 0 -15 20 -18 20 -4 0 15 -28 20 -39 7z"/>
<path d="M3555 678 c-4 -15 -3 -33 2 -40 7 -12 11 -11 25 3 16 17 16 19 -2 41
l-18 23 -7 -27z m19 -23 c-4 -8 -8 -15 -10 -15 -2 0 -4 7 -4 15 0 8 4 15 10
15 5 0 7 -7 4 -15z"/>
<path d="M1641 687 c-1 -14 29 -120 39 -139 5 -10 7 -25 3 -35 -5 -13 -10 -5
-20 30 -28 102 -41 141 -42 127 -1 -8 11 -57 26 -109 26 -93 27 -94 40 -65 12
26 11 37 -16 114 -16 47 -30 81 -30 77z"/>
<path d="M3286 675 c5 -11 11 -65 14 -120 l6 -100 2 101 c2 78 -1 104 -14 120
-15 19 -16 19 -8 -1z"/>
<path d="M3462 674 c-12 -8 -22 -12 -22 -7 0 4 -4 1 -9 -7 -5 -8 -8 -26 -6
-40 1 -14 3 -33 4 -43 0 -10 6 -15 12 -12 6 4 8 13 5 21 -3 8 -1 14 4 14 6 0
10 -4 10 -9 0 -13 68 -19 80 -7 7 7 10 6 10 -3 0 -15 52 -11 57 5 2 7 -6 10
-22 7 -14 -3 -25 -1 -25 3 0 5 -14 9 -31 10 -20 1 -26 -2 -17 -7 9 -6 5 -9
-14 -9 -15 0 -30 5 -33 11 -4 6 -13 8 -20 5 -8 -3 -12 4 -12 20 0 14 2 23 4
20 3 -2 13 4 24 15 13 13 28 17 51 14 26 -4 29 -3 13 4 -29 14 -38 13 -63 -5z"/>
<path d="M3127 673 c-4 -3 -7 -11 -7 -17 0 -6 5 -5 12 2 6 6 9 14 7 17 -3 3
-9 2 -12 -2z"/>
<path d="M4180 661 c0 -23 30 -37 42 -19 11 18 10 28 -2 28 -5 0 -10 -7 -10
-16 0 -8 -5 -12 -11 -9 -6 4 -8 13 -5 21 3 8 1 14 -4 14 -6 0 -10 -9 -10 -19z"/>
<path d="M4350 670 c0 -5 5 -10 11 -10 6 0 9 -9 6 -20 -3 -11 -1 -20 5 -20 5
0 7 -4 4 -8 -2 -4 -1 -14 5 -22 7 -13 9 -13 9 0 0 28 -21 90 -30 90 -6 0 -10
-4 -10 -10z"/>
<path d="M1831 634 c0 -11 3 -14 6 -6 3 7 2 16 -1 19 -3 4 -6 -2 -5 -13z"/>
<path d="M2602 584 c-2 -57 2 -77 16 -94 18 -22 19 -22 26 -4 4 10 4 15 0 12
-16 -17 -33 24 -37 88 l-3 69 -2 -71z"/>
<path d="M4340 641 c0 -5 -3 -17 -6 -25 -4 -11 -2 -15 8 -11 15 6 22 45 7 45
-5 0 -9 -4 -9 -9z"/>
<path d="M3281 624 c0 -11 3 -14 6 -6 3 7 2 16 -1 19 -3 4 -6 -2 -5 -13z"/>
<path d="M3585 631 c-6 -11 13 -26 22 -17 4 3 0 6 -8 6 -11 0 -11 2 1 10 9 6
10 10 3 10 -6 0 -14 -4 -18 -9z"/>
<path d="M4181 618 c0 -9 -4 -25 -7 -35 -5 -17 -5 -17 6 0 6 10 9 25 7 35 -4
15 -5 15 -6 0z"/>
<path d="M3670 611 c0 -6 5 -13 10 -16 6 -3 10 1 10 9 0 9 -4 16 -10 16 -5 0
-10 -4 -10 -9z"/>
<path d="M4202 595 c0 -16 2 -22 5 -12 2 9 2 23 0 30 -3 6 -5 -1 -5 -18z"/>
<path d="M2828 602 c26 -4 29 -17 6 -26 -24 -9 -42 -7 -26 3 10 6 9 10 -7 14
-24 6 -27 -5 -7 -26 8 -8 17 -26 18 -40 5 -35 12 -41 37 -27 14 7 21 7 21 0 0
-5 -5 -10 -11 -10 -5 0 -7 -5 -4 -11 5 -6 11 -5 18 5 9 12 20 14 42 8 28 -8
29 -9 10 -20 -11 -6 -15 -12 -8 -12 6 0 15 5 18 11 4 6 13 8 20 5 7 -2 21 2
32 9 10 8 13 15 6 15 -6 0 -14 -4 -18 -10 -3 -5 -13 -6 -22 -3 -15 6 -14 7 3
13 11 4 -1 7 -29 6 -42 -1 -52 3 -74 28 -31 37 -19 45 56 39 31 -3 67 0 81 6
21 9 16 10 -27 6 -71 -6 -105 8 -38 16 38 4 29 6 -35 5 -47 0 -75 -2 -62 -4z
m14 -94 c-8 -8 -12 -9 -12 -1 0 6 -3 20 -6 30 -7 17 -6 17 12 1 14 -14 16 -20
6 -30z"/>
<path d="M4157 603 c-4 -3 -7 -13 -7 -22 1 -13 3 -13 11 2 11 19 8 33 -4 20z"/>
<path d="M1727 580 c-4 -14 -13 -46 -21 -72 -9 -27 -11 -48 -6 -48 6 0 10 10
11 23 0 12 7 38 15 57 l14 35 -4 -35 c-3 -19 -8 -46 -11 -60 -3 -14 2 -5 11
18 12 32 14 52 7 75 -9 32 -9 32 -16 7z"/>
<path d="M1750 590 c0 -5 5 -10 10 -10 6 0 10 5 10 10 0 6 -4 10 -10 10 -5 0
-10 -4 -10 -10z"/>
<path d="M1831 574 c0 -11 3 -14 6 -6 3 7 2 16 -1 19 -3 4 -6 -2 -5 -13z"/>
<path d="M4350 566 c0 -14 -4 -28 -10 -31 -6 -3 -7 1 -4 12 3 10 -2 6 -11 -9
-8 -16 -23 -28 -33 -28 -11 0 -7 -5 11 -15 36 -19 61 -7 76 36 15 44 5 49 -12
6 -14 -33 -34 -54 -43 -45 -2 3 5 15 16 28 18 20 28 70 15 70 -3 0 -5 -11 -5
-24z"/>
<path d="M4001 564 c0 -11 3 -14 6 -6 3 7 2 16 -1 19 -3 4 -6 -2 -5 -13z"/>
<path d="M3690 530 c-6 -12 -7 -20 -1 -20 5 0 12 8 14 18 4 13 5 13 6 -4 1
-23 25 -34 76 -34 26 1 27 2 12 11 -10 6 -25 8 -33 5 -22 -8 -44 4 -44 25 0
25 -16 24 -30 -1z"/>
<path d="M4160 542 c0 -5 7 -15 15 -22 8 -7 15 -9 15 -6 0 4 -7 14 -15 22 -8
9 -15 11 -15 6z"/>
<path d="M4206 535 c10 -8 15 -15 10 -15 -13 0 26 -29 39 -30 6 0 3 5 -5 10
-8 5 -12 10 -7 10 12 0 -32 40 -45 40 -6 0 -3 -7 8 -15z"/>
<path d="M1832 520 c0 -14 2 -19 5 -12 2 6 2 18 0 25 -3 6 -5 1 -5 -13z"/>
<path d="M2622 528 c2 -6 14 -13 27 -15 27 -4 20 12 -9 20 -13 3 -20 1 -18 -5z"/>
<path d="M4003 500 c0 -25 2 -35 4 -22 2 12 2 32 0 45 -2 12 -4 2 -4 -23z"/>
<path d="M3545 505 c-22 -7 -31 -13 -20 -14 11 0 34 6 50 14 38 17 22 17 -30
0z"/>
<path d="M2708 503 c7 -3 16 -2 19 1 4 3 -2 6 -13 5 -11 0 -14 -3 -6 -6z"/>
<path d="M2663 485 c-16 -17 -1 -29 27 -20 24 8 26 21 4 29 -19 7 -16 8 -31
-9z m27 -5 c0 -5 -5 -10 -11 -10 -5 0 -7 5 -4 10 3 6 8 10 11 10 2 0 4 -4 4
-10z"/>
<path d="M3550 486 c-23 -9 -39 -10 -47 -4 -7 6 -18 8 -25 6 -9 -3 -6 -8 8
-16 22 -12 89 -1 107 17 14 14 1 13 -43 -3z"/>
<path d="M3690 496 c0 -3 9 -10 20 -16 11 -6 20 -8 20 -6 0 3 -9 10 -20 16
-11 6 -20 8 -20 6z"/>
<path d="M3849 483 c19 -9 29 -19 23 -21 -7 -2 -12 -8 -12 -13 0 -6 5 -7 11
-3 9 5 10 -1 5 -20 -4 -18 -3 -25 4 -21 5 3 10 19 10 35 0 30 -30 60 -60 60
-8 0 0 -8 19 -17z"/>
<path d="M4210 485 c14 -8 32 -14 40 -14 8 0 0 6 -19 14 -42 19 -54 19 -21 0z"/>
<path d="M1830 477 c0 -10 8 -17 18 -17 9 0 13 4 7 8 -5 4 -13 11 -17 16 -5 5
-8 2 -8 -7z"/>
<path d="M4280 480 c12 -8 12 -10 1 -10 -8 0 -12 -2 -9 -5 3 -3 13 -3 22 1 19
7 11 24 -12 24 -15 0 -15 -2 -2 -10z"/>
<path d="M3740 470 c0 -5 10 -10 23 -10 18 0 19 2 7 10 -19 13 -30 13 -30 0z"/>
<path d="M3695 461 c3 -5 -5 -11 -17 -13 -28 -4 -35 -36 -13 -63 16 -20 16
-20 6 2 -19 38 -12 45 14 16 13 -15 25 -23 25 -16 0 7 -7 16 -16 21 -15 8 -15
11 4 30 19 19 19 32 0 32 -5 0 -7 -4 -3 -9z"/>
<path d="M3816 460 c33 -13 37 -27 13 -51 l-21 -21 23 7 c18 6 21 4 15 -11 -4
-10 -3 -15 1 -10 4 4 8 28 8 52 0 43 -1 44 -30 43 -27 0 -28 -1 -9 -9z"/>
<path d="M3778 383 c7 -3 16 -2 19 1 4 3 -2 6 -13 5 -11 0 -14 -3 -6 -6z"/>
<path d="M3728 360 c17 -4 47 -4 65 0 25 5 18 7 -33 7 -51 0 -58 -1 -32 -7z"/>
<path d="M1832 224 c-7 -8 -8 -14 -3 -14 10 0 25 19 20 25 -2 1 -10 -3 -17
-11z"/>
<path d="M1778 213 c6 -2 18 -2 25 0 6 3 1 5 -13 5 -14 0 -19 -2 -12 -5z"/>
<path d="M1528 153 c7 -3 16 -2 19 1 4 3 -2 6 -13 5 -11 0 -14 -3 -6 -6z"/>
</g>
</svg>
