<?xml version="1.0" standalone="no"?>
<!DOCTYPE svg PUBLIC "-//W3C//DTD SVG 20010904//EN"
 "http://www.w3.org/TR/2001/REC-SVG-20010904/DTD/svg10.dtd">
<svg version="1.0" xmlns="http://www.w3.org/2000/svg"
 width="512.000000pt" height="512.000000pt" viewBox="0 0 512.000000 512.000000"
 preserveAspectRatio="xMidYMid meet">

<g transform="translate(0.000000,512.000000) scale(0.100000,-0.100000)"
fill="#000000" stroke="none">
<path d="M54 4770 c-12 -5 -29 -19 -38 -32 -15 -20 -16 -214 -16 -2180 l0
-2157 24 -28 24 -28 2512 0 2512 0 24 28 24 28 0 2159 0 2159 -24 28 -24 28
-2499 2 c-1394 1 -2507 -2 -2519 -7z m4766 -167 c0 -4 -35 -43 -77 -85 l-78
-78 -2105 0 -2105 0 -77 77 c-43 43 -78 81 -78 85 0 5 1017 8 2260 8 1243 0
2260 -3 2260 -7z m-4480 -2043 l0 -1755 -85 -85 -85 -85 0 1925 0 1925 85 -85
85 -85 0 -1755z m4610 -2 l0 -1923 -85 85 -85 85 0 1755 0 1755 82 82 c46 46
84 83 85 83 2 0 3 -865 3 -1922z m-340 2 l0 -1710 -2050 0 -2050 0 0 1710 0
1710 2050 0 2050 0 0 -1710z m132 -1957 c43 -43 78 -81 78 -85 0 -5 -1017 -8
-2260 -8 -1243 0 -2260 3 -2260 7 0 4 35 43 77 85 l78 78 2105 0 2105 0 77
-77z"/>
<path d="M734 4086 c-20 -9 -35 -25 -43 -46 -8 -24 -11 -427 -11 -1482 0
-1612 -5 -1507 67 -1528 27 -8 275 -10 855 -8 l816 3 26 24 26 24 0 1487 0
1487 -26 24 -26 24 -826 2 c-682 2 -832 0 -858 -11z m1566 -1526 l0 -1370
-722 2 -723 3 -3 1355 c-1 745 0 1361 3 1368 3 9 158 12 725 12 l720 0 0
-1370z"/>
<path d="M1136 3648 c-65 -65 -105 -113 -108 -130 -8 -41 15 -84 52 -97 48
-16 84 5 189 114 83 86 91 98 91 133 0 51 -32 82 -84 82 -34 0 -46 -9 -140
-102z"/>
<path d="M1675 3660 c-11 -5 -161 -150 -333 -322 -273 -274 -313 -318 -314
-346 -2 -67 61 -109 119 -78 15 8 166 153 336 323 277 279 307 313 307 342 0
23 -9 41 -29 62 -30 30 -51 34 -86 19z"/>
<path d="M2715 4093 c-11 -3 -30 -14 -42 -26 l-23 -20 0 -1487 0 -1487 26 -24
26 -24 816 -3 c580 -2 828 0 855 8 72 21 67 -84 67 1528 0 1055 -3 1458 -11
1482 -22 62 5 60 -886 59 -444 -1 -817 -3 -828 -6z m1550 -1533 l0 -1365 -722
-3 -723 -2 0 1370 0 1370 723 -2 722 -3 0 -1365z"/>
<path d="M3098 3642 c-96 -96 -108 -112 -108 -143 0 -57 56 -97 108 -78 37 14
201 176 218 216 25 58 -11 112 -75 113 -31 0 -47 -12 -143 -108z"/>
<path d="M3625 3651 c-16 -10 -166 -156 -332 -323 -268 -269 -303 -307 -303
-335 0 -17 3 -39 6 -48 10 -24 62 -47 93 -40 18 4 130 108 344 323 295 296
317 320 317 352 -1 39 -14 61 -47 78 -30 16 -43 15 -78 -7z"/>
</g>
</svg>
