<?xml version="1.0" standalone="no"?>
<!DOCTYPE svg PUBLIC "-//W3C//DTD SVG 20010904//EN"
 "http://www.w3.org/TR/2001/REC-SVG-20010904/DTD/svg10.dtd">
<svg version="1.0" xmlns="http://www.w3.org/2000/svg"
 width="512.000000pt" height="512.000000pt" viewBox="0 0 512.000000 512.000000"
 preserveAspectRatio="xMidYMid meet">

<g transform="translate(0.000000,512.000000) scale(0.100000,-0.100000)"
fill="#000000" stroke="none">
<path d="M1200 4745 l0 -375 -150 0 -150 0 0 -375 0 -375 150 0 150 0 0 -1055
0 -1055 -150 0 -150 0 0 -375 0 -375 150 0 150 0 0 -380 0 -380 1510 0 1510 0
-2 228 -3 227 -72 3 -73 3 0 -156 0 -155 -1355 0 -1355 0 0 2410 0 2410 1355
0 1355 0 0 -2030 0 -2030 75 0 75 0 0 2105 0 2105 -1510 0 -1510 0 0 -375z m0
-750 l0 -225 -75 0 -75 0 0 225 0 225 75 0 75 0 0 -225z m0 -2860 l0 -225 -75
0 -75 0 0 225 0 225 75 0 75 0 0 -225z"/>
<path d="M1510 2560 l0 -2260 1203 2 1202 3 0 2255 0 2255 -1202 3 -1203 2 0
-2260z m450 1585 l0 -525 75 0 75 0 0 525 0 525 150 0 150 0 0 -750 0 -750
-150 0 -150 0 0 150 0 150 -75 0 -75 0 0 -150 0 -150 -150 0 -150 0 0 750 0
750 150 0 150 0 0 -525z m900 -225 l0 -750 -150 0 -150 0 0 750 0 750 150 0
150 0 0 -750z m450 600 l0 -150 75 0 75 0 0 150 0 150 150 0 150 0 0 -750 0
-750 -150 0 -150 0 0 525 0 525 -75 0 -75 0 0 -525 0 -525 -150 0 -150 0 0
750 0 750 150 0 150 0 0 -150z m450 -1615 l0 -115 -677 -2 -678 -3 -3 -72 -3
-73 453 -2 453 -3 3 -152 3 -153 224 0 225 0 0 -110 0 -110 -1050 0 -1050 0 0
265 0 265 295 0 295 0 0 75 0 75 -295 0 -295 0 0 115 0 115 1050 0 1050 0 0
-115z m0 -345 l0 -80 -150 0 -150 0 0 80 0 80 150 0 150 0 0 -80z m-1800
-1355 l0 -755 -150 0 -150 0 0 755 0 755 150 0 150 0 0 -755z m450 530 l0
-225 75 0 75 0 0 225 0 225 150 0 150 0 0 -755 0 -755 -150 0 -150 0 0 455 0
455 -75 0 -75 0 0 -455 0 -455 -150 0 -150 0 0 755 0 755 150 0 150 0 0 -225z
m900 -530 l0 -755 -150 0 -150 0 0 755 0 755 150 0 150 0 0 -755z m450 0 l0
-755 -150 0 -150 0 0 755 0 755 150 0 150 0 0 -755z"/>
<path d="M1802 2408 l3 -73 453 -3 452 -2 0 75 0 75 -455 0 -456 0 3 -72z"/>
<path d="M2860 2405 l0 -76 73 3 72 3 3 73 3 72 -76 0 -75 0 0 -75z"/>
<path d="M4070 685 l0 -75 75 0 75 0 0 75 0 75 -75 0 -75 0 0 -75z"/>
</g>
</svg>
