<?xml version="1.0" standalone="no"?>
<!DOCTYPE svg PUBLIC "-//W3C//DTD SVG 20010904//EN"
 "http://www.w3.org/TR/2001/REC-SVG-20010904/DTD/svg10.dtd">
<svg version="1.0" xmlns="http://www.w3.org/2000/svg"
 width="532.000000pt" height="142.000000pt" viewBox="0 0 532.000000 142.000000"
 preserveAspectRatio="xMidYMid meet">

<g transform="translate(0.000000,142.000000) scale(0.100000,-0.100000)"
fill="#000000" stroke="none">
<path d="M1265 1086 c-51 -19 -88 -61 -149 -172 -27 -49 -59 -103 -72 -120
l-23 -31 35 -13 c39 -15 39 -18 20 -81 -21 -70 -52 -124 -78 -137 -21 -12 -20
-12 11 -7 67 10 86 41 136 221 42 149 83 240 126 284 55 55 119 30 119 -47 0
-46 -40 -148 -105 -266 -55 -100 -62 -117 -47 -117 20 0 52 -116 52 -191 0
-63 3 -66 80 -79 82 -14 92 6 65 125 -18 75 -15 106 22 270 40 180 33 293 -22
345 -31 29 -112 37 -170 16z m-35 -60 c0 -2 -8 -10 -17 -17 -16 -13 -17 -12
-4 4 13 16 21 21 21 13z m-40 -56 c-6 -11 -13 -20 -16 -20 -2 0 0 9 6 20 6 11
13 20 16 20 2 0 0 -9 -6 -20z"/>
<path d="M1840 770 l0 -170 30 0 29 0 3 131 3 132 40 -132 39 -131 32 0 32 0
45 133 45 132 1 -132 1 -133 30 0 30 0 0 171 0 170 -47 -3 -47 -3 -40 -122
c-22 -68 -43 -123 -47 -123 -3 0 -23 56 -45 125 l-38 125 -48 0 -48 0 0 -170z"/>
<path d="M2924 895 c-3 -14 -17 -34 -30 -44 -29 -23 -30 -37 -4 -44 18 -5 20
-14 20 -82 0 -92 9 -112 55 -121 54 -10 85 2 85 31 0 22 -4 25 -35 25 -41 0
-48 17 -43 96 3 49 3 49 41 52 32 3 37 7 37 28 0 21 -4 24 -40 24 -38 0 -40 2
-40 30 0 39 -36 43 -46 5z"/>
<path d="M585 881 c-17 -10 -38 -29 -47 -43 -32 -49 -88 -296 -88 -389 0 -40
4 -51 23 -64 34 -22 102 -28 141 -11 53 22 66 58 66 178 1 174 24 295 55 285
5 -2 21 -24 35 -50 19 -37 29 -47 44 -43 12 3 31 -5 48 -20 16 -13 41 -24 55
-24 l26 0 -26 20 c-14 11 -49 50 -77 85 -29 36 -65 72 -81 80 -40 21 -137 19
-174 -4z m205 -61 c12 -16 19 -30 16 -30 -2 0 -14 14 -26 30 -12 17 -19 30
-16 30 2 0 14 -13 26 -30z m-165 -376 c-3 -18 -12 -38 -20 -44 -13 -11 -15 -5
-10 46 3 33 11 73 18 89 l12 30 3 -45 c2 -24 1 -59 -3 -76z"/>
<path d="M2350 853 c-30 -11 -70 -57 -76 -89 -20 -107 64 -186 167 -155 99 30
109 197 14 237 -35 14 -77 17 -105 7z m88 -65 c7 -7 12 -33 12 -58 0 -55 -13
-70 -57 -70 -27 0 -35 5 -43 26 -6 14 -10 34 -10 44 0 10 4 30 10 44 8 21 16
26 43 26 18 0 38 -5 45 -12z"/>
<path d="M2580 730 l0 -130 35 0 35 0 0 73 c0 93 14 122 60 122 41 0 48 -16
49 -122 l1 -73 30 0 30 0 0 103 c0 118 -11 142 -65 153 -36 6 -95 -11 -95 -27
0 -5 -4 -9 -10 -9 -5 0 -10 9 -10 20 0 16 -7 20 -30 20 l-30 0 0 -130z"/>
<path d="M3161 848 c-64 -35 -88 -137 -45 -195 30 -40 90 -59 151 -47 42 8 48
12 51 37 3 26 2 27 -25 20 -50 -14 -104 -9 -119 12 -8 10 -14 22 -14 27 0 4
38 8 85 8 l85 0 0 40 c0 57 -41 100 -100 106 -26 3 -55 -1 -69 -8z m93 -54
c27 -26 18 -34 -40 -34 -56 0 -58 3 -31 38 13 17 52 15 71 -4z"/>
<path d="M3390 730 l0 -130 35 0 35 0 0 74 c0 41 4 87 10 101 9 23 15 26 47
23 l38 -3 3 -97 3 -98 34 0 35 0 0 101 c0 55 -4 108 -10 118 -22 42 -120 52
-151 15 -11 -14 -14 -13 -21 5 -5 14 -16 21 -33 21 l-25 0 0 -130z"/>
<path d="M3753 844 c-70 -36 -84 -152 -24 -206 36 -32 90 -44 140 -32 29 7 37
14 39 36 3 26 2 27 -30 17 -50 -14 -76 -11 -98 11 -34 34 -24 40 66 40 l87 0
-6 46 c-6 61 -39 95 -98 100 -28 3 -55 -1 -76 -12z m105 -61 c14 -23 14 -23
-42 -23 -58 0 -60 3 -33 38 15 19 58 10 75 -15z"/>
<path d="M4024 846 c-17 -7 -34 -21 -38 -31 -12 -33 -6 -79 14 -100 18 -20 19
-23 5 -35 -18 -15 -20 -46 -4 -56 8 -4 2 -12 -15 -21 -33 -17 -35 -61 -5 -89
17 -15 36 -19 94 -19 94 0 128 21 133 82 4 53 -13 65 -96 72 -73 6 -85 23 -25
32 73 10 112 52 99 105 -5 17 -1 24 14 29 33 10 24 35 -12 35 -18 0 -55 2 -83
5 -32 4 -61 0 -81 -9z m84 -38 c17 -17 15 -63 -3 -78 -20 -17 -54 -3 -61 25
-12 47 33 84 64 53z m42 -237 c0 -32 -94 -47 -125 -21 -27 23 2 40 66 40 52 0
59 -2 59 -19z"/>
<path d="M4260 731 l0 -131 35 0 35 0 0 78 c0 87 14 112 62 112 26 0 38 16 38
51 0 28 -42 25 -79 -6 l-30 -26 -3 23 c-2 17 -11 24 -30 26 l-28 3 0 -130z"/>
<path d="M4540 853 c-55 -20 -88 -96 -70 -162 25 -92 142 -120 212 -51 23 24
28 37 28 80 0 28 -7 65 -16 81 -23 45 -101 71 -154 52z m88 -65 c16 -16 16
-100 0 -116 -35 -35 -98 2 -98 58 0 56 63 93 98 58z"/>
<path d="M1925 440 c3 -5 8 -10 11 -10 2 0 4 5 4 10 0 6 -5 10 -11 10 -5 0 -7
-4 -4 -10z"/>
<path d="M1822 368 l-2 -78 43 1 42 2 -35 6 -35 6 -6 70 -5 70 -2 -77z"/>
<path d="M1933 350 c0 -36 2 -50 4 -32 2 17 2 47 0 65 -2 17 -4 3 -4 -33z"/>
<path d="M1982 350 c11 -33 23 -60 28 -60 9 0 52 111 45 118 -5 5 -35 -60 -35
-78 0 -27 -19 -5 -30 35 -7 25 -16 45 -21 45 -4 0 1 -27 13 -60z"/>
<path d="M2098 399 c-26 -15 -25 -85 1 -99 24 -12 61 -13 61 -1 0 5 -8 7 -19
4 -18 -4 -51 20 -51 38 0 5 18 9 40 9 44 0 52 16 24 44 -18 18 -32 20 -56 5z
m50 -22 c3 -13 -3 -17 -27 -17 -33 0 -39 8 -19 28 17 17 42 11 46 -11z"/>
</g>
</svg>
